<svg xmlns="http://www.w3.org/2000/svg" viewBox="0 0 750 1050"><defs><style>.cls-1{fill:#fff5e6;}.cls-2{fill:#ffc766;}.cls-3{fill:#ffb34d;}.cls-4{fill:#ff9f33;}.cls-5{fill:#ff8b1a;}.cls-6{fill:#f70;}.cls-7{fill:#ffab19;}.cls-8{fill:none;stroke:#231f20;stroke-miterlimit:10;}</style></defs><g id="Layer_8" data-name="Layer 8"><rect class="cls-1" width="750" height="1050" rx="63.89"/></g><g id="Layer_2" data-name="Layer 2"><rect class="cls-2" x="28.76" y="119.29" width="17.98" height="12.72" transform="translate(-77.79 63.5) rotate(-45)"/><polygon class="cls-3" points="57.59 114.8 48.6 123.79 39.61 114.8 57.59 114.8"/><polygon class="cls-3" points="101 114.79 92.01 123.79 83.02 114.8 83.02 114.79 101 114.79"/><polygon class="cls-4" points="113.72 127.51 104.73 136.5 92.01 123.79 101 114.79 113.71 127.51 113.72 127.51"/><polygon class="cls-5" points="113.72 127.51 113.72 145.49 104.73 136.5 113.72 127.51"/><polygon class="cls-6" points="113.72 145.49 92.01 167.2 70.31 188.9 70.31 170.92 83.02 158.21 104.73 136.5 113.72 145.49"/><polygon class="cls-4" points="70.31 170.92 70.31 188.9 48.6 167.19 26.9 145.49 35.89 136.5 57.59 158.2 70.31 170.92"/><polygon class="cls-7" points="104.73 136.5 83.02 158.21 70.31 170.92 57.59 158.2 35.89 136.5 48.6 123.79 70.31 145.5 70.31 145.49 92.01 123.79 104.73 136.5"/><line class="cls-8" x1="57.6" y1="114.8" x2="57.6" y2="114.79"/><polygon class="cls-3" points="35.89 136.5 26.9 145.49 26.9 127.51 35.89 136.5"/><polygon class="cls-4" points="70.31 127.51 70.31 145.49 70.3 145.49 48.6 123.79 57.59 114.8 57.6 114.8 70.31 127.51"/><polygon class="cls-2" points="92.01 123.79 70.31 145.49 70.31 127.51 83.02 114.8 92.01 123.79"/><rect class="cls-2" x="703.26" y="917.99" width="17.98" height="12.72" transform="translate(-445 774.37) rotate(-45)"/><polygon class="cls-3" points="692.41 935.21 701.4 926.21 710.39 935.21 692.41 935.21"/><polygon class="cls-3" points="648.99 935.21 657.98 926.22 666.98 935.21 666.98 935.21 648.99 935.21"/><polygon class="cls-4" points="636.27 922.49 645.26 913.5 657.98 926.22 648.99 935.21 636.28 922.49 636.27 922.49"/><polygon class="cls-5" points="636.27 922.49 636.27 904.51 645.26 913.5 636.27 922.49"/><polygon class="cls-6" points="636.27 904.51 657.99 882.8 679.69 861.1 679.69 879.08 666.98 891.79 645.26 913.5 636.27 904.51"/><polygon class="cls-4" points="679.69 879.08 679.69 861.1 701.4 882.81 723.1 904.51 714.11 913.5 692.41 891.8 679.69 879.08"/><polygon class="cls-7" points="645.26 913.5 666.98 891.79 679.69 879.08 692.41 891.8 714.11 913.5 701.4 926.21 679.69 904.5 679.69 904.52 657.98 926.22 645.26 913.5"/><line class="cls-8" x1="692.4" y1="935.21" x2="692.4" y2="935.21"/><polygon class="cls-3" points="714.11 913.5 723.1 904.51 723.1 922.49 714.11 913.5"/><polygon class="cls-4" points="679.69 922.49 679.69 904.52 679.7 904.51 701.4 926.21 692.41 935.21 692.4 935.21 679.69 922.49"/><polygon class="cls-2" points="657.98 926.22 679.69 904.52 679.69 922.49 666.98 935.21 657.98 926.22"/><rect class="cls-2" x="296.25" y="463.3" width="34.07" height="24.11" transform="translate(-244.36 360.75) rotate(-45)"/><polygon class="cls-3" points="350.89 454.78 333.86 471.83 316.81 454.78 350.89 454.78"/><polygon class="cls-3" points="433.18 454.77 416.14 471.82 399.09 454.78 399.09 454.77 433.18 454.77"/><polygon class="cls-4" points="457.28 478.87 440.25 495.92 416.14 471.82 433.18 454.77 457.27 478.87 457.28 478.87"/><polygon class="cls-5" points="457.28 478.87 457.28 512.96 440.25 495.92 457.28 478.87"/><polygon class="cls-6" points="457.28 512.96 416.13 554.1 375 595.23 375 561.16 399.09 537.06 440.25 495.92 457.28 512.96"/><polygon class="cls-4" points="375 561.16 375 595.23 333.86 554.09 292.72 512.96 309.76 495.92 350.89 537.05 375 561.16"/><polygon class="cls-7" points="440.25 495.92 399.09 537.06 375 561.16 350.89 537.05 309.76 495.92 333.86 471.83 375 512.97 375 512.95 416.14 471.82 440.25 495.92"/><line class="cls-8" x1="350.91" y1="454.78" x2="350.91" y2="454.77"/><polygon class="cls-3" points="309.76 495.92 292.72 512.96 292.72 478.87 309.76 495.92"/><polygon class="cls-4" points="375 478.87 375 512.95 374.99 512.96 333.86 471.83 350.89 454.78 350.91 454.78 375 478.87"/><polygon class="cls-2" points="416.14 471.82 375 512.95 375 478.87 399.09 454.78 416.14 471.82"/><path d="M48.74,100.23l17.95-61a4.35,4.35,0,0,1,4.5-3.32c2.22,0,3.61.94,4.19,2.81l17.77,61.92a4.53,4.53,0,0,1,.21,1.32,4.35,4.35,0,0,1-1.27,3.16,4,4,0,0,1-2.92,1.3,4.19,4.19,0,0,1-4.45-3.24L81.19,91.11H60.78l-3.88,13a2.68,2.68,0,0,1-1.33,1.61,4.6,4.6,0,0,1-2.56.77,4.29,4.29,0,0,1-3.25-1.33,4.44,4.44,0,0,1-1.28-3.23A5.45,5.45,0,0,1,48.74,100.23ZM71.13,56.57,63.49,82.09H78.56Z"/><path d="M701.26,949.77l-18,61a4.35,4.35,0,0,1-4.5,3.31q-3.33,0-4.19-2.81l-17.77-61.92a4.53,4.53,0,0,1-.21-1.32,4.35,4.35,0,0,1,1.27-3.16,4,4,0,0,1,2.92-1.3,4.19,4.19,0,0,1,4.45,3.24l3.52,12.09h20.41l3.89-12.95a2.64,2.64,0,0,1,1.33-1.61,4.58,4.58,0,0,1,2.56-.77,4.3,4.3,0,0,1,3.25,1.33,4.44,4.44,0,0,1,1.28,3.23A5.78,5.78,0,0,1,701.26,949.77Zm-22.39,43.66,7.64-25.52H671.43Z"/></g></svg>