<svg xmlns="http://www.w3.org/2000/svg" viewBox="0 0 750 1050"><defs><style>.cls-1{fill:#fff5e6;}.cls-2{fill:#ffc766;}.cls-3{fill:#ffb34d;}.cls-4{fill:#ff9f33;}.cls-5{fill:#ff8b1a;}.cls-6{fill:#f70;}.cls-7{fill:#ffab19;}.cls-8{fill:none;stroke:#231f20;stroke-miterlimit:10;}</style></defs><g id="Layer_8" data-name="Layer 8"><rect class="cls-1" width="750" height="1050" rx="63.89"/></g><g id="Layer_2" data-name="Layer 2"><rect class="cls-2" x="28.76" y="119.29" width="17.98" height="12.72" transform="translate(-77.79 63.49) rotate(-45)"/><polygon class="cls-3" points="57.59 114.8 48.6 123.79 39.61 114.8 57.59 114.8"/><polygon class="cls-3" points="101 114.79 92.01 123.79 83.02 114.8 83.02 114.79 101 114.79"/><polygon class="cls-4" points="113.72 127.51 104.73 136.5 92.01 123.79 101 114.79 113.71 127.51 113.72 127.51"/><polygon class="cls-5" points="113.72 127.51 113.72 145.49 104.73 136.5 113.72 127.51"/><polygon class="cls-6" points="113.72 145.49 92.01 167.2 70.31 188.9 70.31 170.92 83.02 158.21 104.73 136.5 113.72 145.49"/><polygon class="cls-4" points="70.31 170.92 70.31 188.9 48.6 167.19 26.9 145.49 35.89 136.5 57.59 158.2 70.31 170.92"/><polygon class="cls-7" points="104.73 136.5 83.02 158.21 70.31 170.92 57.59 158.2 35.89 136.5 48.6 123.79 70.31 145.5 70.31 145.49 92.01 123.79 104.73 136.5"/><line class="cls-8" x1="57.6" y1="114.8" x2="57.6" y2="114.79"/><polygon class="cls-3" points="35.89 136.5 26.9 145.49 26.9 127.51 35.89 136.5"/><polygon class="cls-4" points="70.31 127.51 70.31 145.49 70.3 145.49 48.6 123.79 57.59 114.8 57.6 114.8 70.31 127.51"/><polygon class="cls-2" points="92.01 123.79 70.31 145.49 70.31 127.51 83.02 114.8 92.01 123.79"/><rect class="cls-2" x="255.12" y="843.51" width="34.07" height="24.11" transform="translate(-525.26 443.03) rotate(-45)"/><polygon class="cls-3" points="234.55 876.14 251.59 859.09 268.63 876.14 234.55 876.14"/><polygon class="cls-3" points="152.26 876.15 169.3 859.1 186.35 876.14 186.35 876.15 152.26 876.15"/><polygon class="cls-4" points="128.16 852.04 145.2 835 169.3 859.1 152.26 876.15 128.17 852.04 128.16 852.04"/><polygon class="cls-5" points="128.16 852.04 128.16 817.96 145.2 835 128.16 852.04"/><polygon class="cls-6" points="128.16 817.96 169.31 776.82 210.44 735.68 210.44 769.76 186.35 793.85 145.2 835 128.16 817.96"/><polygon class="cls-4" points="210.44 769.76 210.44 735.68 251.59 776.83 292.73 817.96 275.68 835 234.55 793.87 210.44 769.76"/><polygon class="cls-7" points="145.2 835 186.35 793.85 210.44 769.76 234.55 793.87 275.68 835 251.59 859.09 210.44 817.95 210.44 817.97 169.3 859.1 145.2 835"/><line class="cls-8" x1="234.54" y1="876.14" x2="234.54" y2="876.15"/><polygon class="cls-3" points="275.68 835 292.73 817.96 292.73 852.04 275.68 835"/><polygon class="cls-4" points="210.44 852.04 210.44 817.97 210.45 817.96 251.59 859.09 234.55 876.14 234.54 876.14 210.44 852.04"/><polygon class="cls-2" points="169.3 859.1 210.44 817.97 210.44 852.04 186.35 876.14 169.3 859.1"/><rect class="cls-2" x="131.68" y="369.67" width="34.07" height="24.11" transform="translate(-226.36 216.97) rotate(-45)"/><polygon class="cls-3" points="186.33 361.15 169.29 378.2 152.24 361.15 186.33 361.15"/><polygon class="cls-3" points="268.61 361.14 251.58 378.19 234.53 361.15 234.53 361.14 268.61 361.14"/><polygon class="cls-4" points="292.72 385.24 275.68 402.29 251.58 378.19 268.61 361.14 292.71 385.24 292.72 385.24"/><polygon class="cls-5" points="292.72 385.24 292.72 419.33 275.68 402.29 292.72 385.24"/><polygon class="cls-6" points="292.72 419.33 251.57 460.47 210.44 501.6 210.44 467.53 234.53 443.44 275.68 402.29 292.72 419.33"/><polygon class="cls-4" points="210.44 467.53 210.44 501.6 169.29 460.46 128.15 419.33 145.2 402.29 186.33 443.42 210.44 467.53"/><polygon class="cls-7" points="275.68 402.29 234.53 443.44 210.44 467.53 186.33 443.42 145.2 402.29 169.29 378.2 210.44 419.34 210.44 419.32 251.58 378.19 275.68 402.29"/><line class="cls-8" x1="186.34" y1="361.15" x2="186.34" y2="361.14"/><polygon class="cls-3" points="145.2 402.29 128.15 419.33 128.15 385.24 145.2 402.29"/><polygon class="cls-4" points="210.44 385.24 210.44 419.32 210.42 419.33 169.29 378.2 186.33 361.15 186.34 361.15 210.44 385.24"/><polygon class="cls-2" points="251.58 378.19 210.44 419.32 210.44 385.24 234.53 361.15 251.58 378.19"/><rect class="cls-2" x="131.69" y="182.39" width="34.07" height="24.11" transform="translate(-93.93 162.12) rotate(-45)"/><polygon class="cls-3" points="186.34 173.88 169.3 190.93 152.25 173.88 186.34 173.88"/><polygon class="cls-3" points="268.62 173.87 251.58 190.91 234.53 173.88 234.53 173.87 268.62 173.87"/><polygon class="cls-4" points="292.73 197.97 275.69 215.02 251.58 190.91 268.62 173.87 292.71 197.97 292.73 197.97"/><polygon class="cls-5" points="292.73 197.97 292.73 232.06 275.69 215.02 292.73 197.97"/><polygon class="cls-6" points="292.73 232.06 251.57 273.2 210.44 314.33 210.44 280.25 234.53 256.16 275.69 215.02 292.73 232.06"/><polygon class="cls-4" points="210.44 280.25 210.44 314.33 169.3 273.19 128.16 232.06 145.2 215.02 186.34 256.15 210.44 280.25"/><polygon class="cls-7" points="275.69 215.02 234.53 256.16 210.44 280.25 186.34 256.15 145.2 215.02 169.3 190.93 210.44 232.07 210.44 232.05 251.58 190.91 275.69 215.02"/><line class="cls-8" x1="186.35" y1="173.88" x2="186.35" y2="173.87"/><polygon class="cls-3" points="145.2 215.02 128.16 232.06 128.16 197.97 145.2 215.02"/><polygon class="cls-4" points="210.44 197.97 210.44 232.05 210.43 232.06 169.3 190.93 186.34 173.88 186.35 173.88 210.44 197.97"/><polygon class="cls-2" points="251.58 190.91 210.44 232.05 210.44 197.97 234.53 173.88 251.58 190.91"/><rect class="cls-2" x="255.11" y="656.24" width="34.07" height="24.11" transform="translate(-392.85 388.17) rotate(-45)"/><polygon class="cls-3" points="234.54 688.87 251.57 671.82 268.62 688.87 234.54 688.87"/><polygon class="cls-3" points="152.25 688.88 169.29 671.83 186.34 688.87 186.34 688.88 152.25 688.88"/><polygon class="cls-4" points="128.15 664.77 145.19 647.72 169.29 671.83 152.25 688.88 128.16 664.77 128.15 664.77"/><polygon class="cls-5" points="128.15 664.77 128.15 630.69 145.19 647.72 128.15 664.77"/><polygon class="cls-6" points="128.15 630.69 169.3 589.54 210.43 548.41 210.43 582.49 186.34 606.58 145.19 647.72 128.15 630.69"/><polygon class="cls-4" points="210.43 582.49 210.43 548.41 251.57 589.55 292.72 630.69 275.67 647.72 234.54 606.59 210.43 582.49"/><polygon class="cls-7" points="145.19 647.72 186.34 606.58 210.43 582.49 234.54 606.59 275.67 647.72 251.57 671.82 210.43 630.67 210.43 630.7 169.29 671.83 145.19 647.72"/><line class="cls-8" x1="234.53" y1="688.87" x2="234.53" y2="688.88"/><polygon class="cls-3" points="275.67 647.72 292.72 630.69 292.72 664.77 275.67 647.72"/><polygon class="cls-4" points="210.43 664.77 210.43 630.7 210.44 630.69 251.57 671.82 234.54 688.87 234.53 688.87 210.43 664.77"/><polygon class="cls-2" points="169.29 671.83 210.43 630.7 210.43 664.77 186.34 688.87 169.29 671.83"/><rect class="cls-2" x="460.82" y="182.39" width="34.07" height="24.11" transform="translate(2.47 394.85) rotate(-45)"/><polygon class="cls-3" points="515.46 173.88 498.43 190.93 481.38 173.88 515.46 173.88"/><polygon class="cls-3" points="597.75 173.87 580.71 190.91 563.66 173.88 563.66 173.87 597.75 173.87"/><polygon class="cls-4" points="621.85 197.97 604.82 215.02 580.71 190.91 597.75 173.87 621.84 197.97 621.85 197.97"/><polygon class="cls-5" points="621.85 197.97 621.85 232.06 604.82 215.02 621.85 197.97"/><polygon class="cls-6" points="621.85 232.06 580.7 273.2 539.57 314.33 539.57 280.25 563.66 256.16 604.82 215.02 621.85 232.06"/><polygon class="cls-4" points="539.57 280.25 539.57 314.33 498.43 273.19 457.29 232.06 474.33 215.02 515.46 256.15 539.57 280.25"/><polygon class="cls-7" points="604.82 215.02 563.66 256.16 539.57 280.25 515.46 256.15 474.33 215.02 498.43 190.93 539.57 232.07 539.57 232.05 580.71 190.91 604.82 215.02"/><line class="cls-8" x1="515.48" y1="173.88" x2="515.48" y2="173.87"/><polygon class="cls-3" points="474.33 215.02 457.29 232.06 457.29 197.97 474.33 215.02"/><polygon class="cls-4" points="539.57 197.97 539.57 232.05 539.56 232.06 498.43 190.93 515.46 173.88 515.48 173.88 539.57 197.97"/><polygon class="cls-2" points="580.71 190.91 539.57 232.05 539.57 197.97 563.66 173.88 580.71 190.91"/><rect class="cls-2" x="584.25" y="843.51" width="34.07" height="24.11" transform="translate(-428.86 675.76) rotate(-45)"/><polygon class="cls-3" points="563.68 876.14 580.72 859.09 597.76 876.14 563.68 876.14"/><polygon class="cls-3" points="481.39 876.15 498.43 859.1 515.48 876.14 515.48 876.15 481.39 876.15"/><polygon class="cls-4" points="457.29 852.04 474.33 835 498.43 859.1 481.39 876.15 457.3 852.04 457.29 852.04"/><polygon class="cls-5" points="457.29 852.04 457.29 817.96 474.33 835 457.29 852.04"/><polygon class="cls-6" points="457.29 817.96 498.44 776.82 539.58 735.68 539.58 769.76 515.48 793.85 474.33 835 457.29 817.96"/><polygon class="cls-4" points="539.58 769.76 539.58 735.68 580.72 776.83 621.86 817.96 604.81 835 563.68 793.87 539.58 769.76"/><polygon class="cls-7" points="474.33 835 515.48 793.85 539.58 769.76 563.68 793.87 604.81 835 580.72 859.09 539.58 817.95 539.58 817.97 498.43 859.1 474.33 835"/><line class="cls-8" x1="563.67" y1="876.14" x2="563.67" y2="876.15"/><polygon class="cls-3" points="604.81 835 621.86 817.96 621.86 852.04 604.81 835"/><polygon class="cls-4" points="539.58 852.04 539.58 817.97 539.59 817.96 580.72 859.09 563.68 876.14 563.67 876.14 539.58 852.04"/><polygon class="cls-2" points="498.43 859.1 539.58 817.97 539.58 852.04 515.48 876.14 498.43 859.1"/><rect class="cls-2" x="703.26" y="917.99" width="17.98" height="12.72" transform="translate(-445 774.37) rotate(-45)"/><polygon class="cls-3" points="692.41 935.21 701.4 926.21 710.39 935.21 692.41 935.21"/><polygon class="cls-3" points="648.99 935.21 657.98 926.22 666.98 935.21 666.98 935.21 648.99 935.21"/><polygon class="cls-4" points="636.27 922.49 645.26 913.5 657.98 926.22 648.99 935.21 636.28 922.49 636.27 922.49"/><polygon class="cls-5" points="636.27 922.49 636.27 904.51 645.26 913.5 636.27 922.49"/><polygon class="cls-6" points="636.27 904.51 657.99 882.8 679.69 861.1 679.69 879.08 666.98 891.79 645.26 913.5 636.27 904.51"/><polygon class="cls-4" points="679.69 879.08 679.69 861.1 701.4 882.81 723.1 904.51 714.11 913.5 692.41 891.8 679.69 879.08"/><polygon class="cls-7" points="645.26 913.5 666.98 891.79 679.69 879.08 692.41 891.8 714.11 913.5 701.4 926.21 679.69 904.5 679.69 904.51 657.98 926.22 645.26 913.5"/><line class="cls-8" x1="692.4" y1="935.21" x2="692.4" y2="935.21"/><polygon class="cls-3" points="714.11 913.5 723.1 904.51 723.1 922.49 714.11 913.5"/><polygon class="cls-4" points="679.69 922.49 679.69 904.51 679.7 904.51 701.4 926.21 692.41 935.21 692.4 935.21 679.69 922.49"/><polygon class="cls-2" points="657.98 926.22 679.69 904.51 679.69 922.49 666.98 935.21 657.98 926.22"/><rect class="cls-2" x="460.82" y="369.67" width="34.07" height="24.11" transform="translate(-129.96 449.7) rotate(-45)"/><polygon class="cls-3" points="515.46 361.15 498.42 378.2 481.38 361.15 515.46 361.15"/><polygon class="cls-3" points="597.75 361.14 580.71 378.19 563.66 361.15 563.66 361.14 597.75 361.14"/><polygon class="cls-4" points="621.85 385.24 604.81 402.29 580.71 378.19 597.75 361.14 621.84 385.24 621.85 385.24"/><polygon class="cls-5" points="621.85 385.24 621.85 419.33 604.81 402.29 621.85 385.24"/><polygon class="cls-6" points="621.85 419.33 580.7 460.47 539.57 501.6 539.57 467.53 563.66 443.44 604.81 402.29 621.85 419.33"/><polygon class="cls-4" points="539.57 467.53 539.57 501.6 498.42 460.46 457.28 419.33 474.33 402.29 515.46 443.42 539.57 467.53"/><polygon class="cls-7" points="604.81 402.29 563.66 443.44 539.57 467.53 515.46 443.42 474.33 402.29 498.42 378.2 539.57 419.34 539.57 419.32 580.71 378.19 604.81 402.29"/><line class="cls-8" x1="515.47" y1="361.15" x2="515.47" y2="361.14"/><polygon class="cls-3" points="474.33 402.29 457.28 419.33 457.28 385.24 474.33 402.29"/><polygon class="cls-4" points="539.57 385.24 539.57 419.32 539.56 419.33 498.42 378.2 515.46 361.15 515.47 361.15 539.57 385.24"/><polygon class="cls-2" points="580.71 378.19 539.57 419.32 539.57 385.24 563.66 361.15 580.71 378.19"/><rect class="cls-2" x="584.24" y="656.24" width="34.07" height="24.11" transform="translate(-296.45 620.91) rotate(-45)"/><polygon class="cls-3" points="563.67 688.87 580.71 671.82 597.75 688.87 563.67 688.87"/><polygon class="cls-3" points="481.38 688.88 498.42 671.83 515.47 688.87 515.47 688.88 481.38 688.88"/><polygon class="cls-4" points="457.28 664.77 474.32 647.72 498.42 671.83 481.38 688.88 457.29 664.77 457.28 664.77"/><polygon class="cls-5" points="457.28 664.77 457.28 630.69 474.32 647.72 457.28 664.77"/><polygon class="cls-6" points="457.28 630.69 498.43 589.54 539.56 548.41 539.56 582.49 515.47 606.58 474.32 647.72 457.28 630.69"/><polygon class="cls-4" points="539.56 582.49 539.56 548.41 580.71 589.55 621.85 630.69 604.8 647.72 563.67 606.59 539.56 582.49"/><polygon class="cls-7" points="474.32 647.72 515.47 606.58 539.56 582.49 563.67 606.59 604.8 647.72 580.71 671.82 539.56 630.67 539.56 630.7 498.42 671.83 474.32 647.72"/><line class="cls-8" x1="563.66" y1="688.87" x2="563.66" y2="688.88"/><polygon class="cls-3" points="604.8 647.72 621.85 630.69 621.85 664.77 604.8 647.72"/><polygon class="cls-4" points="539.56 664.77 539.56 630.7 539.58 630.69 580.71 671.82 563.67 688.87 563.66 688.87 539.56 664.77"/><polygon class="cls-2" points="498.42 671.83 539.56 630.7 539.56 664.77 515.47 688.87 498.42 671.83"/><rect class="cls-2" x="296.25" y="276.02" width="34.07" height="24.11" transform="translate(-111.94 305.9) rotate(-45)"/><polygon class="cls-3" points="350.9 267.5 333.86 284.55 316.81 267.5 350.9 267.5"/><polygon class="cls-3" points="433.18 267.49 416.14 284.54 399.1 267.5 399.1 267.49 433.18 267.49"/><polygon class="cls-4" points="457.29 291.6 440.25 308.65 416.14 284.54 433.18 267.49 457.28 291.6 457.29 291.6"/><polygon class="cls-5" points="457.29 291.6 457.29 325.69 440.25 308.65 457.29 291.6"/><polygon class="cls-6" points="457.29 325.69 416.13 366.83 375 407.96 375 373.88 399.1 349.79 440.25 308.65 457.29 325.69"/><polygon class="cls-4" points="375 373.88 375 407.96 333.86 366.82 292.72 325.69 309.77 308.65 350.9 349.78 375 373.88"/><polygon class="cls-7" points="440.25 308.65 399.1 349.79 375 373.88 350.9 349.78 309.77 308.65 333.86 284.55 375 325.7 375 325.67 416.14 284.54 440.25 308.65"/><line class="cls-8" x1="350.91" y1="267.51" x2="350.91" y2="267.49"/><polygon class="cls-3" points="309.77 308.65 292.72 325.69 292.72 291.6 309.77 308.65"/><polygon class="cls-4" points="375 291.6 375 325.67 374.99 325.69 333.86 284.55 350.9 267.5 350.91 267.5 375 291.6"/><polygon class="cls-2" points="416.14 284.54 375 325.67 375 291.6 399.1 267.5 416.14 284.54"/><rect class="cls-2" x="419.67" y="749.87" width="34.07" height="24.11" transform="translate(-410.85 531.96) rotate(-45)"/><polygon class="cls-3" points="399.1 782.49 416.14 765.45 433.19 782.49 399.1 782.49"/><polygon class="cls-3" points="316.82 782.5 333.86 765.46 350.9 782.49 350.9 782.5 316.82 782.5"/><polygon class="cls-4" points="292.71 758.4 309.75 741.35 333.86 765.46 316.82 782.5 292.72 758.4 292.71 758.4"/><polygon class="cls-5" points="292.71 758.4 292.71 724.31 309.75 741.35 292.71 758.4"/><polygon class="cls-6" points="292.71 724.31 333.87 683.17 375 642.04 375 676.12 350.9 700.21 309.75 741.35 292.71 724.31"/><polygon class="cls-4" points="375 676.12 375 642.04 416.14 683.18 457.28 724.31 440.23 741.35 399.1 700.22 375 676.12"/><polygon class="cls-7" points="309.75 741.35 350.9 700.21 375 676.12 399.1 700.22 440.23 741.35 416.14 765.45 375 724.3 375 724.33 333.86 765.46 309.75 741.35"/><line class="cls-8" x1="399.09" y1="782.49" x2="399.09" y2="782.5"/><polygon class="cls-3" points="440.23 741.35 457.28 724.31 457.28 758.4 440.23 741.35"/><polygon class="cls-4" points="375 758.4 375 724.33 375.01 724.31 416.14 765.45 399.1 782.49 399.09 782.49 375 758.4"/><polygon class="cls-2" points="333.86 765.46 375 724.33 375 758.4 350.9 782.49 333.86 765.46"/><path d="M19.61,97.42H33.3V44.84H19.83a4.46,4.46,0,1,1,0-8.91H42.22V97.42h8.91V78.85a4.32,4.32,0,0,1,1.3-3.13A4.45,4.45,0,0,1,60,78.85v23a4.44,4.44,0,0,1-4.46,4.45h-36A4.21,4.21,0,0,1,16.46,105a4.46,4.46,0,0,1-1.3-3.21,4.15,4.15,0,0,1,1.3-3.08A4.32,4.32,0,0,1,19.61,97.42Z"/><path d="M80.89,97.74V44.42a8.69,8.69,0,0,1,8.6-8.59h27.8a8.1,8.1,0,0,1,6,2.54,8.32,8.32,0,0,1,2.52,6.05V97.74a8.6,8.6,0,0,1-8.59,8.59H89.49a8.55,8.55,0,0,1-8.6-8.59ZM117,97.42V44.84H89.8V97.42Z"/><path d="M730.39,952.58H716.7v52.58h13.47a4.46,4.46,0,1,1,0,8.91H707.78V952.58h-8.91v18.57a4.32,4.32,0,0,1-1.3,3.13,4.26,4.26,0,0,1-3.15,1.33,4.44,4.44,0,0,1-4.46-4.46v-23a4.44,4.44,0,0,1,4.46-4.45h36a4.21,4.21,0,0,1,3.15,1.35,4.46,4.46,0,0,1,1.3,3.21,4.15,4.15,0,0,1-1.3,3.08A4.32,4.32,0,0,1,730.39,952.58Z"/><path d="M669.11,952.26v53.32a8.71,8.71,0,0,1-8.6,8.6h-27.8a8.11,8.11,0,0,1-6-2.55,8.3,8.3,0,0,1-2.52-6V952.26a8.6,8.6,0,0,1,8.59-8.59h27.69a8.55,8.55,0,0,1,8.6,8.59Zm-36.08.32v52.58H660.2V952.58Z"/></g></svg>