<svg xmlns="http://www.w3.org/2000/svg" viewBox="0 0 750 1050"><defs><style>.cls-1{fill:#fff5e6;}.cls-2{fill:#ffc766;}.cls-3{fill:#ffb34d;}.cls-4{fill:#ff9f33;}.cls-5{fill:#ff8b1a;}.cls-6{fill:#f70;}.cls-7{fill:#ffab19;}.cls-8{fill:none;stroke:#231f20;stroke-miterlimit:10;}</style></defs><g id="Layer_8" data-name="Layer 8"><rect class="cls-1" width="750" height="1050" rx="63.89"/></g><g id="Layer_2" data-name="Layer 2"><rect class="cls-2" x="28.76" y="119.29" width="17.98" height="12.72" transform="translate(-77.79 63.49) rotate(-45)"/><polygon class="cls-3" points="57.59 114.8 48.6 123.79 39.61 114.8 57.59 114.8"/><polygon class="cls-3" points="101 114.79 92.01 123.79 83.02 114.8 83.02 114.79 101 114.79"/><polygon class="cls-4" points="113.72 127.51 104.73 136.5 92.01 123.79 101 114.79 113.71 127.51 113.72 127.51"/><polygon class="cls-5" points="113.72 127.51 113.72 145.49 104.73 136.5 113.72 127.51"/><polygon class="cls-6" points="113.72 145.49 92.01 167.2 70.31 188.9 70.31 170.92 83.02 158.21 104.73 136.5 113.72 145.49"/><polygon class="cls-4" points="70.31 170.92 70.31 188.9 48.6 167.19 26.9 145.49 35.89 136.5 57.59 158.2 70.31 170.92"/><polygon class="cls-7" points="104.73 136.5 83.02 158.21 70.31 170.92 57.59 158.2 35.89 136.5 48.6 123.79 70.31 145.5 70.31 145.49 92.01 123.79 104.73 136.5"/><line class="cls-8" x1="57.6" y1="114.8" x2="57.6" y2="114.79"/><polygon class="cls-3" points="35.89 136.5 26.9 145.49 26.9 127.51 35.89 136.5"/><polygon class="cls-4" points="70.31 127.51 70.31 145.49 70.3 145.49 48.6 123.79 57.59 114.8 57.6 114.8 70.31 127.51"/><polygon class="cls-2" points="92.01 123.79 70.31 145.49 70.31 127.51 83.02 114.8 92.01 123.79"/><rect class="cls-2" x="296.26" y="182.39" width="34.07" height="24.11" transform="translate(-45.73 278.49) rotate(-45)"/><polygon class="cls-3" points="350.9 173.88 333.87 190.93 316.82 173.88 350.9 173.88"/><polygon class="cls-3" points="433.19 173.87 416.15 190.91 399.1 173.88 399.1 173.87 433.19 173.87"/><polygon class="cls-4" points="457.29 197.97 440.25 215.02 416.15 190.91 433.19 173.87 457.28 197.97 457.29 197.97"/><polygon class="cls-5" points="457.29 197.97 457.29 232.06 440.25 215.02 457.29 197.97"/><polygon class="cls-6" points="457.29 232.06 416.14 273.2 375.01 314.33 375.01 280.25 399.1 256.16 440.25 215.02 457.29 232.06"/><polygon class="cls-4" points="375.01 280.25 375.01 314.33 333.87 273.19 292.72 232.06 309.77 215.02 350.9 256.15 375.01 280.25"/><polygon class="cls-7" points="440.25 215.02 399.1 256.16 375.01 280.25 350.9 256.15 309.77 215.02 333.87 190.93 375.01 232.07 375.01 232.04 416.15 190.91 440.25 215.02"/><line class="cls-8" x1="350.91" y1="173.88" x2="350.91" y2="173.87"/><polygon class="cls-3" points="309.77 215.02 292.72 232.06 292.72 197.97 309.77 215.02"/><polygon class="cls-4" points="375.01 197.97 375.01 232.04 375 232.06 333.87 190.93 350.9 173.88 350.91 173.88 375.01 197.97"/><polygon class="cls-2" points="416.15 190.91 375.01 232.04 375.01 197.97 399.1 173.88 416.15 190.91"/><rect class="cls-2" x="419.68" y="843.51" width="34.07" height="24.11" transform="translate(-477.06 559.4) rotate(-45)"/><polygon class="cls-3" points="399.11 876.14 416.15 859.09 433.2 876.14 399.11 876.14"/><polygon class="cls-3" points="316.83 876.15 333.87 859.1 350.91 876.14 350.91 876.15 316.83 876.15"/><polygon class="cls-4" points="292.72 852.04 309.76 835 333.87 859.1 316.83 876.15 292.73 852.04 292.72 852.04"/><polygon class="cls-5" points="292.72 852.04 292.72 817.96 309.76 835 292.72 852.04"/><polygon class="cls-6" points="292.72 817.96 333.88 776.82 375.01 735.68 375.01 769.76 350.91 793.85 309.76 835 292.72 817.96"/><polygon class="cls-4" points="375.01 769.76 375.01 735.68 416.15 776.83 457.29 817.96 440.24 835 399.11 793.87 375.01 769.76"/><polygon class="cls-7" points="309.76 835 350.91 793.85 375.01 769.76 399.11 793.87 440.24 835 416.15 859.09 375.01 817.95 375.01 817.97 333.87 859.1 309.76 835"/><line class="cls-8" x1="399.1" y1="876.14" x2="399.1" y2="876.15"/><polygon class="cls-3" points="440.24 835 457.29 817.96 457.29 852.04 440.24 835"/><polygon class="cls-4" points="375.01 852.04 375.01 817.97 375.02 817.96 416.15 859.09 399.11 876.14 399.1 876.14 375.01 852.04"/><polygon class="cls-2" points="333.87 859.1 375.01 817.97 375.01 852.04 350.91 876.14 333.87 859.1"/><rect class="cls-2" x="703.26" y="917.99" width="17.98" height="12.72" transform="translate(-445 774.37) rotate(-45)"/><polygon class="cls-3" points="692.41 935.21 701.4 926.21 710.39 935.21 692.41 935.21"/><polygon class="cls-3" points="648.99 935.21 657.98 926.22 666.98 935.21 666.98 935.21 648.99 935.21"/><polygon class="cls-4" points="636.27 922.49 645.26 913.5 657.98 926.22 648.99 935.21 636.28 922.49 636.27 922.49"/><polygon class="cls-5" points="636.27 922.49 636.27 904.51 645.26 913.5 636.27 922.49"/><polygon class="cls-6" points="636.27 904.51 657.99 882.8 679.69 861.1 679.69 879.08 666.98 891.79 645.26 913.5 636.27 904.51"/><polygon class="cls-4" points="679.69 879.08 679.69 861.1 701.4 882.81 723.1 904.51 714.11 913.5 692.41 891.8 679.69 879.08"/><polygon class="cls-7" points="645.26 913.5 666.98 891.79 679.69 879.08 692.41 891.8 714.11 913.5 701.4 926.21 679.69 904.5 679.69 904.51 657.98 926.22 645.26 913.5"/><line class="cls-8" x1="692.4" y1="935.21" x2="692.4" y2="935.21"/><polygon class="cls-3" points="714.11 913.5 723.1 904.51 723.1 922.49 714.11 913.5"/><polygon class="cls-4" points="679.69 922.49 679.69 904.51 679.7 904.51 701.4 926.21 692.41 935.21 692.4 935.21 679.69 922.49"/><polygon class="cls-2" points="657.98 926.22 679.69 904.51 679.69 922.49 666.98 935.21 657.98 926.22"/><path d="M88.9,106.33H48.37V75.56A8.71,8.71,0,0,1,51,69.2a8.52,8.52,0,0,1,6.28-2.66H84.34V44.84H52.51a4.27,4.27,0,0,1-3.19-1.3,4.55,4.55,0,0,1,0-6.31,4.27,4.27,0,0,1,3.19-1.3H84.34a8.75,8.75,0,0,1,6.37,2.63,8.55,8.55,0,0,1,2.65,6.28v21.7a9,9,0,0,1-9,9H57.28V97.42H88.9A4.31,4.31,0,0,1,92,98.72,4.41,4.41,0,0,1,92,105,4.31,4.31,0,0,1,88.9,106.33Z"/><path d="M661.1,943.67h40.53v30.77A8.71,8.71,0,0,1,699,980.8a8.53,8.53,0,0,1-6.29,2.66H665.66v21.7h31.83a4.26,4.26,0,0,1,3.18,1.3,4.53,4.53,0,0,1,0,6.31,4.26,4.26,0,0,1-3.18,1.3H665.66a8.74,8.74,0,0,1-6.37-2.63,8.51,8.51,0,0,1-2.65-6.28v-21.7a9,9,0,0,1,9-9h27.05V952.58H661.1a4.33,4.33,0,0,1-3.14-1.3,4.43,4.43,0,0,1,0-6.31A4.33,4.33,0,0,1,661.1,943.67Z"/></g></svg>