<svg xmlns="http://www.w3.org/2000/svg" viewBox="0 0 750 1050"><defs><style>.cls-1{fill:#fff5e6;}.cls-2{fill:#ffc766;}.cls-3{fill:#ffb34d;}.cls-4{fill:#ff9f33;}.cls-5{fill:#ff8b1a;}.cls-6{fill:#f70;}.cls-7{fill:#ffab19;}.cls-8{fill:none;stroke:#231f20;stroke-miterlimit:10;}</style></defs><g id="Layer_8" data-name="Layer 8"><rect class="cls-1" width="750" height="1050" rx="63.89"/></g><g id="Layer_2" data-name="Layer 2"><rect class="cls-2" x="28.76" y="119.29" width="17.98" height="12.72" transform="translate(-77.79 63.49) rotate(-45)"/><polygon class="cls-3" points="57.59 114.8 48.6 123.79 39.61 114.8 57.59 114.8"/><polygon class="cls-3" points="101 114.79 92.01 123.79 83.02 114.8 83.02 114.79 101 114.79"/><polygon class="cls-4" points="113.72 127.51 104.73 136.5 92.01 123.79 101 114.79 113.71 127.51 113.72 127.51"/><polygon class="cls-5" points="113.72 127.51 113.72 145.49 104.73 136.5 113.72 127.51"/><polygon class="cls-6" points="113.72 145.49 92.01 167.2 70.31 188.9 70.31 170.92 83.02 158.21 104.73 136.5 113.72 145.49"/><polygon class="cls-4" points="70.31 170.92 70.31 188.9 48.6 167.19 26.9 145.49 35.89 136.5 57.59 158.2 70.31 170.92"/><polygon class="cls-7" points="104.73 136.5 83.02 158.21 70.31 170.92 57.59 158.2 35.89 136.5 48.6 123.79 70.31 145.5 70.31 145.49 92.01 123.79 104.73 136.5"/><line class="cls-8" x1="57.6" y1="114.8" x2="57.6" y2="114.79"/><polygon class="cls-3" points="35.89 136.5 26.9 145.49 26.9 127.51 35.89 136.5"/><polygon class="cls-4" points="70.31 127.51 70.31 145.49 70.3 145.49 48.6 123.79 57.59 114.8 57.6 114.8 70.31 127.51"/><polygon class="cls-2" points="92.01 123.79 70.31 145.49 70.31 127.51 83.02 114.8 92.01 123.79"/><rect class="cls-2" x="255.12" y="843.51" width="34.07" height="24.11" transform="translate(-525.26 443.03) rotate(-45)"/><polygon class="cls-3" points="234.55 876.14 251.59 859.09 268.63 876.14 234.55 876.14"/><polygon class="cls-3" points="152.26 876.15 169.3 859.1 186.35 876.14 186.35 876.15 152.26 876.15"/><polygon class="cls-4" points="128.16 852.04 145.2 835 169.3 859.1 152.26 876.15 128.17 852.04 128.16 852.04"/><polygon class="cls-5" points="128.16 852.04 128.16 817.96 145.2 835 128.16 852.04"/><polygon class="cls-6" points="128.16 817.96 169.31 776.82 210.44 735.69 210.44 769.76 186.35 793.85 145.2 835 128.16 817.96"/><polygon class="cls-4" points="210.44 769.76 210.44 735.69 251.59 776.83 292.73 817.96 275.68 835 234.55 793.87 210.44 769.76"/><polygon class="cls-7" points="145.2 835 186.35 793.85 210.44 769.76 234.55 793.87 275.68 835 251.59 859.09 210.44 817.95 210.44 817.97 169.3 859.1 145.2 835"/><line class="cls-8" x1="234.54" y1="876.14" x2="234.54" y2="876.15"/><polygon class="cls-3" points="275.68 835 292.73 817.96 292.73 852.04 275.68 835"/><polygon class="cls-4" points="210.44 852.04 210.44 817.97 210.45 817.96 251.59 859.09 234.55 876.14 234.54 876.14 210.44 852.04"/><polygon class="cls-2" points="169.3 859.1 210.44 817.97 210.44 852.04 186.35 876.14 169.3 859.1"/><rect class="cls-2" x="131.69" y="182.39" width="34.07" height="24.11" transform="translate(-93.93 162.12) rotate(-45)"/><polygon class="cls-3" points="186.34 173.88 169.3 190.93 152.25 173.88 186.34 173.88"/><polygon class="cls-3" points="268.62 173.87 251.58 190.91 234.53 173.88 234.53 173.87 268.62 173.87"/><polygon class="cls-4" points="292.73 197.97 275.69 215.02 251.58 190.91 268.62 173.87 292.71 197.97 292.73 197.97"/><polygon class="cls-5" points="292.73 197.97 292.73 232.06 275.69 215.02 292.73 197.97"/><polygon class="cls-6" points="292.73 232.06 251.57 273.2 210.44 314.33 210.44 280.26 234.53 256.16 275.69 215.02 292.73 232.06"/><polygon class="cls-4" points="210.44 280.26 210.44 314.33 169.3 273.19 128.16 232.06 145.2 215.02 186.34 256.15 210.44 280.26"/><polygon class="cls-7" points="275.69 215.02 234.53 256.16 210.44 280.26 186.34 256.15 145.2 215.02 169.3 190.93 210.44 232.07 210.44 232.05 251.58 190.91 275.69 215.02"/><line class="cls-8" x1="186.35" y1="173.88" x2="186.35" y2="173.87"/><polygon class="cls-3" points="145.2 215.02 128.16 232.06 128.16 197.97 145.2 215.02"/><polygon class="cls-4" points="210.44 197.97 210.44 232.05 210.43 232.06 169.3 190.93 186.34 173.88 186.35 173.88 210.44 197.97"/><polygon class="cls-2" points="251.58 190.91 210.44 232.05 210.44 197.97 234.53 173.88 251.58 190.91"/><rect class="cls-2" x="255.11" y="562.6" width="34.07" height="24.11" transform="translate(-326.63 360.75) rotate(-45)"/><polygon class="cls-3" points="234.54 595.23 251.57 578.18 268.62 595.23 234.54 595.23"/><polygon class="cls-3" points="152.25 595.24 169.29 578.19 186.34 595.23 186.34 595.24 152.25 595.24"/><polygon class="cls-4" points="128.15 571.13 145.19 554.09 169.29 578.19 152.25 595.24 128.16 571.13 128.15 571.13"/><polygon class="cls-5" points="128.15 571.13 128.15 537.05 145.19 554.09 128.15 571.13"/><polygon class="cls-6" points="128.15 537.05 169.3 495.91 210.43 454.78 210.43 488.85 186.34 512.94 145.19 554.09 128.15 537.05"/><polygon class="cls-4" points="210.43 488.85 210.43 454.78 251.57 495.92 292.72 537.05 275.67 554.09 234.54 512.96 210.43 488.85"/><polygon class="cls-7" points="145.19 554.09 186.34 512.94 210.43 488.85 234.54 512.96 275.67 554.09 251.57 578.18 210.43 537.04 210.43 537.06 169.29 578.19 145.19 554.09"/><line class="cls-8" x1="234.53" y1="595.23" x2="234.53" y2="595.24"/><polygon class="cls-3" points="275.67 554.09 292.72 537.05 292.72 571.13 275.67 554.09"/><polygon class="cls-4" points="210.43 571.13 210.43 537.06 210.44 537.05 251.57 578.18 234.54 595.23 234.53 595.23 210.43 571.13"/><polygon class="cls-2" points="169.29 578.19 210.43 537.06 210.43 571.13 186.34 595.23 169.29 578.19"/><rect class="cls-2" x="460.82" y="182.39" width="34.07" height="24.11" transform="translate(2.46 394.85) rotate(-45)"/><polygon class="cls-3" points="515.46 173.88 498.43 190.93 481.38 173.88 515.46 173.88"/><polygon class="cls-3" points="597.75 173.87 580.71 190.91 563.66 173.88 563.66 173.87 597.75 173.87"/><polygon class="cls-4" points="621.85 197.97 604.82 215.02 580.71 190.91 597.75 173.87 621.84 197.97 621.85 197.97"/><polygon class="cls-5" points="621.85 197.97 621.85 232.06 604.82 215.02 621.85 197.97"/><polygon class="cls-6" points="621.85 232.06 580.7 273.2 539.57 314.33 539.57 280.26 563.66 256.16 604.82 215.02 621.85 232.06"/><polygon class="cls-4" points="539.57 280.26 539.57 314.33 498.43 273.19 457.29 232.06 474.33 215.02 515.46 256.15 539.57 280.26"/><polygon class="cls-7" points="604.82 215.02 563.66 256.16 539.57 280.26 515.46 256.15 474.33 215.02 498.43 190.93 539.57 232.07 539.57 232.05 580.71 190.91 604.82 215.02"/><line class="cls-8" x1="515.48" y1="173.88" x2="515.48" y2="173.87"/><polygon class="cls-3" points="474.33 215.02 457.29 232.06 457.29 197.97 474.33 215.02"/><polygon class="cls-4" points="539.57 197.97 539.57 232.05 539.56 232.06 498.43 190.93 515.46 173.88 515.48 173.88 539.57 197.97"/><polygon class="cls-2" points="580.71 190.91 539.57 232.05 539.57 197.97 563.66 173.88 580.71 190.91"/><rect class="cls-2" x="584.25" y="843.51" width="34.07" height="24.11" transform="translate(-428.86 675.76) rotate(-45)"/><polygon class="cls-3" points="563.68 876.14 580.72 859.09 597.76 876.14 563.68 876.14"/><polygon class="cls-3" points="481.39 876.15 498.43 859.1 515.48 876.14 515.48 876.15 481.39 876.15"/><polygon class="cls-4" points="457.29 852.04 474.33 835 498.43 859.1 481.39 876.15 457.3 852.04 457.29 852.04"/><polygon class="cls-5" points="457.29 852.04 457.29 817.96 474.33 835 457.29 852.04"/><polygon class="cls-6" points="457.29 817.96 498.44 776.82 539.58 735.69 539.58 769.76 515.48 793.85 474.33 835 457.29 817.96"/><polygon class="cls-4" points="539.58 769.76 539.58 735.69 580.72 776.83 621.86 817.96 604.81 835 563.68 793.87 539.58 769.76"/><polygon class="cls-7" points="474.33 835 515.48 793.85 539.58 769.76 563.68 793.87 604.81 835 580.72 859.09 539.58 817.95 539.58 817.97 498.43 859.1 474.33 835"/><line class="cls-8" x1="563.67" y1="876.14" x2="563.67" y2="876.15"/><polygon class="cls-3" points="604.81 835 621.86 817.96 621.86 852.04 604.81 835"/><polygon class="cls-4" points="539.58 852.04 539.58 817.97 539.59 817.96 580.72 859.09 563.68 876.14 563.67 876.14 539.58 852.04"/><polygon class="cls-2" points="498.43 859.1 539.58 817.97 539.58 852.04 515.48 876.14 498.43 859.1"/><rect class="cls-2" x="703.26" y="917.99" width="17.98" height="12.72" transform="translate(-445 774.37) rotate(-45)"/><polygon class="cls-3" points="692.41 935.21 701.4 926.21 710.39 935.21 692.41 935.21"/><polygon class="cls-3" points="648.99 935.21 657.98 926.22 666.98 935.21 666.98 935.21 648.99 935.21"/><polygon class="cls-4" points="636.27 922.49 645.26 913.5 657.98 926.22 648.99 935.21 636.28 922.49 636.27 922.49"/><polygon class="cls-5" points="636.27 922.49 636.27 904.51 645.26 913.5 636.27 922.49"/><polygon class="cls-6" points="636.27 904.51 657.99 882.8 679.69 861.1 679.69 879.08 666.98 891.79 645.26 913.5 636.27 904.51"/><polygon class="cls-4" points="679.69 879.08 679.69 861.1 701.4 882.81 723.1 904.51 714.11 913.5 692.41 891.8 679.69 879.08"/><polygon class="cls-7" points="645.26 913.5 666.98 891.79 679.69 879.08 692.41 891.8 714.11 913.5 701.4 926.21 679.69 904.5 679.69 904.51 657.98 926.22 645.26 913.5"/><line class="cls-8" x1="692.4" y1="935.21" x2="692.4" y2="935.21"/><polygon class="cls-3" points="714.11 913.5 723.1 904.51 723.1 922.49 714.11 913.5"/><polygon class="cls-4" points="679.69 922.49 679.69 904.51 679.7 904.51 701.4 926.21 692.41 935.21 692.4 935.21 679.69 922.49"/><polygon class="cls-2" points="657.98 926.22 679.69 904.51 679.69 922.49 666.98 935.21 657.98 926.22"/><rect class="cls-2" x="460.82" y="463.3" width="34.07" height="24.11" transform="translate(-196.17 477.12) rotate(-45)"/><polygon class="cls-3" points="515.46 454.79 498.42 471.83 481.38 454.79 515.46 454.79"/><polygon class="cls-3" points="597.75 454.78 580.71 471.82 563.66 454.79 563.66 454.78 597.75 454.78"/><polygon class="cls-4" points="621.85 478.88 604.81 495.93 580.71 471.82 597.75 454.78 621.84 478.88 621.85 478.88"/><polygon class="cls-5" points="621.85 478.88 621.85 512.97 604.81 495.93 621.85 478.88"/><polygon class="cls-6" points="621.85 512.97 580.7 554.11 539.57 595.24 539.57 561.16 563.66 537.07 604.81 495.93 621.85 512.97"/><polygon class="cls-4" points="539.57 561.16 539.57 595.24 498.42 554.1 457.28 512.97 474.33 495.93 515.46 537.06 539.57 561.16"/><polygon class="cls-7" points="604.81 495.93 563.66 537.07 539.57 561.16 515.46 537.06 474.33 495.93 498.42 471.83 539.57 512.98 539.57 512.96 580.71 471.82 604.81 495.93"/><line class="cls-8" x1="515.47" y1="454.79" x2="515.47" y2="454.78"/><polygon class="cls-3" points="474.33 495.93 457.28 512.97 457.28 478.88 474.33 495.93"/><polygon class="cls-4" points="539.57 478.88 539.57 512.96 539.56 512.97 498.42 471.83 515.46 454.79 515.47 454.79 539.57 478.88"/><polygon class="cls-2" points="580.71 471.82 539.57 512.96 539.57 478.88 563.66 454.79 580.71 471.82"/><rect class="cls-2" x="296.25" y="322.85" width="34.07" height="24.11" transform="translate(-145.05 319.62) rotate(-45)"/><polygon class="cls-3" points="350.9 314.33 333.86 331.38 316.81 314.33 350.9 314.33"/><polygon class="cls-3" points="433.18 314.32 416.14 331.37 399.1 314.33 399.1 314.32 433.18 314.32"/><polygon class="cls-4" points="457.29 338.43 440.25 355.47 416.14 331.37 433.18 314.32 457.28 338.43 457.29 338.43"/><polygon class="cls-5" points="457.29 338.43 457.29 372.51 440.25 355.47 457.29 338.43"/><polygon class="cls-6" points="457.29 372.51 416.13 413.65 375 454.79 375 420.71 399.1 396.62 440.25 355.47 457.29 372.51"/><polygon class="cls-4" points="375 420.71 375 454.79 333.86 413.64 292.72 372.51 309.77 355.47 350.9 396.61 375 420.71"/><polygon class="cls-7" points="440.25 355.47 399.1 396.62 375 420.71 350.9 396.61 309.77 355.47 333.86 331.38 375 372.52 375 372.5 416.14 331.37 440.25 355.47"/><line class="cls-8" x1="350.91" y1="314.33" x2="350.91" y2="314.32"/><polygon class="cls-3" points="309.77 355.47 292.72 372.51 292.72 338.43 309.77 355.47"/><polygon class="cls-4" points="375 338.43 375 372.5 374.99 372.51 333.86 331.38 350.9 314.33 350.91 314.33 375 338.43"/><polygon class="cls-2" points="416.14 331.37 375 372.5 375 338.43 399.1 314.33 416.14 331.37"/><path d="M48.26,44.31V40.49A4.44,4.44,0,0,1,52.72,36H93.15V63.41A4.57,4.57,0,0,1,91.5,67L75.11,81v20.74a4.5,4.5,0,0,1-1.3,3.21,4.23,4.23,0,0,1-3.16,1.35A4.43,4.43,0,0,1,67.44,105a4.26,4.26,0,0,1-1.35-3.13V79.37a4.94,4.94,0,0,1,1.58-3.92L84.13,61.53V45H57.18q-1,3.82-4.46,3.82a4.44,4.44,0,0,1-4.46-4.46Z"/><path d="M701.73,1005.69v3.82a4.44,4.44,0,0,1-4.45,4.45H656.85V986.59A4.59,4.59,0,0,1,658.5,983l16.39-14V948.23a4.46,4.46,0,0,1,1.3-3.21,4.23,4.23,0,0,1,3.16-1.35,4.47,4.47,0,0,1,3.21,1.32,4.26,4.26,0,0,1,1.35,3.14v22.5a4.92,4.92,0,0,1-1.59,3.92l-16.45,13.92v16.58h27c.64-2.55,2.12-3.82,4.46-3.82a4.44,4.44,0,0,1,4.45,4.46Z"/></g></svg>