<svg xmlns="http://www.w3.org/2000/svg" viewBox="0 0 750 1050"><defs><style>.cls-1{fill:#fff5e6;}.cls-2{fill:#ffc766;}.cls-3{fill:#ffb34d;}.cls-4{fill:#ff9f33;}.cls-5{fill:#ff8b1a;}.cls-6{fill:#f70;}.cls-7{fill:#ffab19;}.cls-8{fill:none;stroke:#231f20;stroke-miterlimit:10;}</style></defs><g id="Layer_8" data-name="Layer 8"><rect class="cls-1" width="750" height="1050" rx="63.89"/></g><g id="Layer_2" data-name="Layer 2"><rect class="cls-2" x="28.76" y="119.29" width="17.98" height="12.72" transform="translate(-77.79 63.49) rotate(-45)"/><polygon class="cls-3" points="57.59 114.8 48.6 123.79 39.61 114.8 57.59 114.8"/><polygon class="cls-3" points="101 114.79 92.01 123.78 83.02 114.8 83.02 114.79 101 114.79"/><polygon class="cls-4" points="113.72 127.51 104.73 136.5 92.01 123.78 101 114.79 113.71 127.51 113.72 127.51"/><polygon class="cls-5" points="113.72 127.51 113.72 145.49 104.73 136.5 113.72 127.51"/><polygon class="cls-6" points="113.72 145.49 92.01 167.19 70.31 188.9 70.31 170.92 83.02 158.21 104.73 136.5 113.72 145.49"/><polygon class="cls-4" points="70.31 170.92 70.31 188.9 48.6 167.19 26.9 145.49 35.89 136.5 57.59 158.2 70.31 170.92"/><polygon class="cls-7" points="104.73 136.5 83.02 158.21 70.31 170.92 57.59 158.2 35.89 136.5 48.6 123.79 70.31 145.5 70.31 145.48 92.01 123.78 104.73 136.5"/><line class="cls-8" x1="57.6" y1="114.8" x2="57.6" y2="114.79"/><polygon class="cls-3" points="35.89 136.5 26.9 145.49 26.9 127.51 35.89 136.5"/><polygon class="cls-4" points="70.31 127.51 70.31 145.48 70.3 145.49 48.6 123.79 57.59 114.8 57.6 114.8 70.31 127.51"/><polygon class="cls-2" points="92.01 123.78 70.31 145.48 70.31 127.51 83.02 114.8 92.01 123.78"/><rect class="cls-2" x="703.26" y="917.99" width="17.98" height="12.72" transform="translate(-445 774.37) rotate(-45)"/><polygon class="cls-3" points="692.41 935.2 701.4 926.21 710.39 935.2 692.41 935.2"/><polygon class="cls-3" points="648.99 935.21 657.98 926.22 666.98 935.2 666.98 935.21 648.99 935.21"/><polygon class="cls-4" points="636.27 922.49 645.26 913.5 657.98 926.22 648.99 935.21 636.28 922.49 636.27 922.49"/><polygon class="cls-5" points="636.27 922.49 636.27 904.51 645.26 913.5 636.27 922.49"/><polygon class="cls-6" points="636.27 904.51 657.99 882.8 679.69 861.1 679.69 879.08 666.98 891.79 645.26 913.5 636.27 904.51"/><polygon class="cls-4" points="679.69 879.08 679.69 861.1 701.4 882.81 723.1 904.51 714.11 913.5 692.41 891.8 679.69 879.08"/><polygon class="cls-7" points="645.26 913.5 666.98 891.79 679.69 879.08 692.41 891.8 714.11 913.5 701.4 926.21 679.69 904.5 679.69 904.51 657.98 926.22 645.26 913.5"/><line class="cls-8" x1="692.4" y1="935.2" x2="692.4" y2="935.21"/><polygon class="cls-3" points="714.11 913.5 723.1 904.51 723.1 922.49 714.11 913.5"/><polygon class="cls-4" points="679.69 922.49 679.69 904.51 679.7 904.51 701.4 926.21 692.41 935.2 692.4 935.2 679.69 922.49"/><polygon class="cls-2" points="657.98 926.22 679.69 904.51 679.69 922.49 666.98 935.2 657.98 926.22"/><path d="M52.83,93V78.85a4.46,4.46,0,1,1,8.91,0V93.07a4.1,4.1,0,0,0,1.33,3.08,4.47,4.47,0,0,0,3.23,1.27h9a4.46,4.46,0,0,0,3.21-1.3A4.23,4.23,0,0,0,79.88,93V40.39a4.35,4.35,0,0,1,1.28-3.16,4.16,4.16,0,0,1,3.07-1.3,4.32,4.32,0,0,1,3.19,1.43A4.57,4.57,0,0,1,88.8,40.6V93a12.72,12.72,0,0,1-4.09,9.55,13.14,13.14,0,0,1-9.39,3.93h-9A13.54,13.54,0,0,1,52.83,93Z"/><path d="M697.17,957v14.11a4.46,4.46,0,1,1-8.91,0V956.93a4.1,4.1,0,0,0-1.33-3.08,4.47,4.47,0,0,0-3.23-1.27h-9a4.46,4.46,0,0,0-3.21,1.3,4.21,4.21,0,0,0-1.35,3.16v52.57a4.35,4.35,0,0,1-1.28,3.16,4.16,4.16,0,0,1-3.07,1.3,4.29,4.29,0,0,1-3.19-1.44,4.53,4.53,0,0,1-1.38-3.23V957a12.72,12.72,0,0,1,4.09-9.55,13.14,13.14,0,0,1,9.39-3.93h9A13.54,13.54,0,0,1,697.17,957Z"/><polygon class="cls-4" points="579.85 405.1 264.22 589.84 248.07 455.79 303.9 325.32 366.97 303.19 517.58 302.8 579.85 405.1"/><polygon class="cls-2" points="242.42 408.94 202.7 447.64 157.7 491.49 157.7 396.88 236.15 356.91 242.42 408.94"/><polyline class="cls-6" points="157.7 419.66 191.26 400.48 191.26 403.89 157.7 422.64"/><polyline class="cls-6" points="157.7 472.4 194 442.98 194 439.51 157.7 467.49"/><polyline class="cls-6" points="157.7 447.59 195.01 422.64 195.01 419.04 157.7 443.99"/><polygon class="cls-6" points="264.22 589.84 248.07 455.79 242.42 408.94 202.7 447.64 161.02 608.81 183.37 637.16 264.22 589.84"/><polygon class="cls-4" points="187.02 334.78 187.02 635.02 170.15 644.9 174.33 334.78 187.02 334.78"/><polygon class="cls-2" points="449.5 169.49 449.5 303.5 391.82 332.02 366.43 303.5 354.12 259.49 300.28 275.63 291.06 224.87 275.68 224.87 301.05 153.34 449.5 169.49"/><polygon class="cls-6" points="449.5 169.49 491.94 114.96 384.32 60.42 276.63 82.55 301.05 153.34 449.5 169.49"/><polyline class="cls-6" points="291.06 224.87 289.13 240.26 319.13 237.95 337.59 230.26 289.13 224.87"/><polygon class="cls-6" points="366.43 303.5 389.27 497.48 435.04 304.57 391.82 332.02 366.43 303.5"/><polyline class="cls-5" points="449.5 169.49 487.48 227.95 490.56 259.88 508.25 278.81 552.09 277.08 474.4 334.79 419.02 308.71 419.02 270.25 391.82 247.18 409.8 205.64 391.82 163.22"/><polyline class="cls-6" points="174.33 334.79 156.33 293.23 181.98 183.62 207.63 306.39 187.03 334.79"/><polyline class="cls-2" points="236.15 356.91 187.03 371.39 187.03 381.94"/><polygon class="cls-4" points="170.15 644.9 485.78 460.16 501.93 594.21 446.64 724.37 383.57 746.5 232.96 746.89 170.15 644.9"/><polygon class="cls-2" points="507.58 641.07 547.3 602.36 592.3 558.51 592.3 653.12 513.85 693.09 507.58 641.07"/><polyline class="cls-6" points="592.3 630.34 558.74 649.52 558.74 646.11 592.3 627.36"/><polyline class="cls-6" points="592.3 577.6 556 607.02 556 610.49 592.3 582.51"/><polyline class="cls-6" points="592.3 602.41 554.99 627.36 554.99 630.97 592.3 606.01"/><polygon class="cls-6" points="485.78 460.16 501.93 594.21 507.58 641.07 547.3 602.36 588.98 441.19 566.63 412.84 485.78 460.16"/><polygon class="cls-4" points="562.98 715.22 562.98 414.98 579.85 405.1 575.67 715.22 562.98 715.22"/><polygon class="cls-2" points="300.5 880.51 300.5 746.5 358.18 717.98 383.57 746.5 395.88 790.51 449.72 774.37 458.94 825.13 474.32 825.13 448.95 896.66 300.5 880.51"/><polygon class="cls-6" points="300.5 880.51 258.06 935.04 365.68 989.58 473.37 967.45 448.95 896.66 300.5 880.51"/><polyline class="cls-6" points="458.94 825.13 460.87 809.74 430.87 812.05 412.41 819.74 460.87 825.13"/><polygon class="cls-6" points="383.57 746.5 360.73 552.52 314.96 745.43 358.18 717.98 383.57 746.5"/><polyline class="cls-5" points="300.5 880.51 262.52 822.05 259.44 790.12 241.75 771.19 197.91 772.92 275.6 715.21 330.98 741.29 330.98 779.75 358.18 802.82 340.2 844.36 358.18 886.78"/><polyline class="cls-6" points="575.67 715.21 593.67 756.77 568.02 866.38 542.37 743.61 562.98 715.21"/><polyline class="cls-2" points="513.85 693.09 562.98 678.61 562.98 668.06"/></g></svg>