<svg xmlns="http://www.w3.org/2000/svg" viewBox="0 0 750 1050"><defs><style>.cls-1{fill:#fff5e6;}.cls-2{fill:#ffc766;}.cls-3{fill:#ffb34d;}.cls-4{fill:#ff9f33;}.cls-5{fill:#ff8b1a;}.cls-6{fill:#f70;}.cls-7{fill:#ffab19;}.cls-8{fill:none;stroke:#231f20;stroke-miterlimit:10;}</style></defs><g id="Layer_8" data-name="Layer 8"><rect class="cls-1" width="750" height="1050" rx="63.89"/></g><g id="Layer_2" data-name="Layer 2"><rect class="cls-2" x="28.76" y="119.29" width="17.98" height="12.72" transform="translate(-77.79 63.49) rotate(-45)"/><polygon class="cls-3" points="57.59 114.8 48.6 123.79 39.61 114.8 57.59 114.8"/><polygon class="cls-3" points="101 114.79 92.01 123.78 83.02 114.8 83.02 114.79 101 114.79"/><polygon class="cls-4" points="113.72 127.51 104.73 136.5 92.01 123.78 101 114.79 113.71 127.51 113.72 127.51"/><polygon class="cls-5" points="113.72 127.51 113.72 145.49 104.73 136.5 113.72 127.51"/><polygon class="cls-6" points="113.72 145.49 92.01 167.2 70.31 188.9 70.31 170.92 83.02 158.21 104.73 136.5 113.72 145.49"/><polygon class="cls-4" points="70.31 170.92 70.31 188.9 48.6 167.19 26.9 145.49 35.89 136.5 57.59 158.2 70.31 170.92"/><polygon class="cls-7" points="104.73 136.5 83.02 158.21 70.31 170.92 57.59 158.2 35.89 136.5 48.6 123.79 70.31 145.5 70.31 145.49 92.01 123.78 104.73 136.5"/><line class="cls-8" x1="57.6" y1="114.8" x2="57.6" y2="114.79"/><polygon class="cls-3" points="35.89 136.5 26.9 145.49 26.9 127.51 35.89 136.5"/><polygon class="cls-4" points="70.31 127.51 70.31 145.49 70.3 145.49 48.6 123.79 57.59 114.8 57.6 114.8 70.31 127.51"/><polygon class="cls-2" points="92.01 123.78 70.31 145.49 70.31 127.51 83.02 114.8 92.01 123.78"/><rect class="cls-2" x="255.12" y="843.51" width="34.07" height="24.11" transform="translate(-525.26 443.03) rotate(-45)"/><polygon class="cls-3" points="234.55 876.14 251.59 859.09 268.63 876.14 234.55 876.14"/><polygon class="cls-3" points="152.26 876.15 169.3 859.1 186.35 876.14 186.35 876.15 152.26 876.15"/><polygon class="cls-4" points="128.16 852.04 145.2 835 169.3 859.1 152.26 876.15 128.17 852.04 128.16 852.04"/><polygon class="cls-5" points="128.16 852.04 128.16 817.96 145.2 835 128.16 852.04"/><polygon class="cls-6" points="128.16 817.96 169.31 776.82 210.44 735.68 210.44 769.76 186.35 793.85 145.2 835 128.16 817.96"/><polygon class="cls-4" points="210.44 769.76 210.44 735.68 251.59 776.83 292.73 817.96 275.68 835 234.55 793.86 210.44 769.76"/><polygon class="cls-7" points="145.2 835 186.35 793.85 210.44 769.76 234.55 793.86 275.68 835 251.59 859.09 210.44 817.95 210.44 817.97 169.3 859.1 145.2 835"/><line class="cls-8" x1="234.54" y1="876.14" x2="234.54" y2="876.15"/><polygon class="cls-3" points="275.68 835 292.73 817.96 292.73 852.04 275.68 835"/><polygon class="cls-4" points="210.44 852.04 210.44 817.97 210.45 817.96 251.59 859.09 234.55 876.14 234.54 876.14 210.44 852.04"/><polygon class="cls-2" points="169.3 859.1 210.44 817.97 210.44 852.04 186.35 876.14 169.3 859.1"/><rect class="cls-2" x="131.69" y="182.39" width="34.07" height="24.11" transform="translate(-93.93 162.12) rotate(-45)"/><polygon class="cls-3" points="186.34 173.88 169.3 190.93 152.25 173.88 186.34 173.88"/><polygon class="cls-3" points="268.62 173.87 251.58 190.91 234.53 173.88 234.53 173.87 268.62 173.87"/><polygon class="cls-4" points="292.73 197.97 275.69 215.02 251.58 190.91 268.62 173.87 292.71 197.97 292.73 197.97"/><polygon class="cls-5" points="292.73 197.97 292.73 232.06 275.69 215.02 292.73 197.97"/><polygon class="cls-6" points="292.73 232.06 251.57 273.2 210.44 314.33 210.44 280.25 234.53 256.16 275.69 215.02 292.73 232.06"/><polygon class="cls-4" points="210.44 280.25 210.44 314.33 169.3 273.19 128.16 232.06 145.2 215.02 186.34 256.15 210.44 280.25"/><polygon class="cls-7" points="275.69 215.02 234.53 256.16 210.44 280.25 186.34 256.15 145.2 215.02 169.3 190.93 210.44 232.07 210.44 232.04 251.58 190.91 275.69 215.02"/><line class="cls-8" x1="186.35" y1="173.88" x2="186.35" y2="173.87"/><polygon class="cls-3" points="145.2 215.02 128.16 232.06 128.16 197.97 145.2 215.02"/><polygon class="cls-4" points="210.44 197.97 210.44 232.04 210.43 232.06 169.3 190.93 186.34 173.88 186.35 173.88 210.44 197.97"/><polygon class="cls-2" points="251.58 190.91 210.44 232.04 210.44 197.97 234.53 173.88 251.58 190.91"/><rect class="cls-2" x="460.82" y="182.39" width="34.07" height="24.11" transform="translate(2.47 394.85) rotate(-45)"/><polygon class="cls-3" points="515.46 173.88 498.43 190.93 481.38 173.88 515.46 173.88"/><polygon class="cls-3" points="597.75 173.87 580.71 190.91 563.66 173.88 563.66 173.87 597.75 173.87"/><polygon class="cls-4" points="621.85 197.97 604.82 215.02 580.71 190.91 597.75 173.87 621.84 197.97 621.85 197.97"/><polygon class="cls-5" points="621.85 197.97 621.85 232.06 604.82 215.02 621.85 197.97"/><polygon class="cls-6" points="621.85 232.06 580.7 273.2 539.57 314.33 539.57 280.25 563.66 256.16 604.82 215.02 621.85 232.06"/><polygon class="cls-4" points="539.57 280.25 539.57 314.33 498.43 273.19 457.29 232.06 474.33 215.02 515.46 256.15 539.57 280.25"/><polygon class="cls-7" points="604.82 215.02 563.66 256.16 539.57 280.25 515.46 256.15 474.33 215.02 498.43 190.93 539.57 232.07 539.57 232.04 580.71 190.91 604.82 215.02"/><line class="cls-8" x1="515.48" y1="173.88" x2="515.48" y2="173.87"/><polygon class="cls-3" points="474.33 215.02 457.29 232.06 457.29 197.97 474.33 215.02"/><polygon class="cls-4" points="539.57 197.97 539.57 232.04 539.56 232.06 498.43 190.93 515.46 173.88 515.48 173.88 539.57 197.97"/><polygon class="cls-2" points="580.71 190.91 539.57 232.04 539.57 197.97 563.66 173.88 580.71 190.91"/><rect class="cls-2" x="584.25" y="843.51" width="34.07" height="24.11" transform="translate(-428.86 675.76) rotate(-45)"/><polygon class="cls-3" points="563.68 876.14 580.72 859.09 597.76 876.14 563.68 876.14"/><polygon class="cls-3" points="481.39 876.15 498.43 859.1 515.48 876.14 515.48 876.15 481.39 876.15"/><polygon class="cls-4" points="457.29 852.04 474.33 835 498.43 859.1 481.39 876.15 457.3 852.04 457.29 852.04"/><polygon class="cls-5" points="457.29 852.04 457.29 817.96 474.33 835 457.29 852.04"/><polygon class="cls-6" points="457.29 817.96 498.44 776.82 539.58 735.68 539.58 769.76 515.48 793.85 474.33 835 457.29 817.96"/><polygon class="cls-4" points="539.58 769.76 539.58 735.68 580.72 776.83 621.86 817.96 604.81 835 563.68 793.86 539.58 769.76"/><polygon class="cls-7" points="474.33 835 515.48 793.85 539.58 769.76 563.68 793.86 604.81 835 580.72 859.09 539.58 817.95 539.58 817.97 498.43 859.1 474.33 835"/><line class="cls-8" x1="563.67" y1="876.14" x2="563.67" y2="876.15"/><polygon class="cls-3" points="604.81 835 621.86 817.96 621.86 852.04 604.81 835"/><polygon class="cls-4" points="539.58 852.04 539.58 817.97 539.59 817.96 580.72 859.09 563.68 876.14 563.67 876.14 539.58 852.04"/><polygon class="cls-2" points="498.43 859.1 539.58 817.97 539.58 852.04 515.48 876.14 498.43 859.1"/><rect class="cls-2" x="703.26" y="917.99" width="17.98" height="12.72" transform="translate(-445 774.37) rotate(-45)"/><polygon class="cls-3" points="692.41 935.21 701.4 926.21 710.39 935.21 692.41 935.21"/><polygon class="cls-3" points="648.99 935.21 657.98 926.22 666.98 935.21 666.98 935.21 648.99 935.21"/><polygon class="cls-4" points="636.27 922.49 645.26 913.5 657.98 926.22 648.99 935.21 636.28 922.49 636.27 922.49"/><polygon class="cls-5" points="636.27 922.49 636.27 904.51 645.26 913.5 636.27 922.49"/><polygon class="cls-6" points="636.27 904.51 657.99 882.8 679.69 861.1 679.69 879.08 666.98 891.79 645.26 913.5 636.27 904.51"/><polygon class="cls-4" points="679.69 879.08 679.69 861.1 701.4 882.81 723.1 904.51 714.11 913.5 692.41 891.8 679.69 879.08"/><polygon class="cls-7" points="645.26 913.5 666.98 891.79 679.69 879.08 692.41 891.8 714.11 913.5 701.4 926.21 679.69 904.5 679.69 904.51 657.98 926.22 645.26 913.5"/><line class="cls-8" x1="692.4" y1="935.2" x2="692.4" y2="935.21"/><polygon class="cls-3" points="714.11 913.5 723.1 904.51 723.1 922.49 714.11 913.5"/><polygon class="cls-4" points="679.69 922.49 679.69 904.51 679.7 904.51 701.4 926.21 692.41 935.21 692.4 935.21 679.69 922.49"/><polygon class="cls-2" points="657.98 926.22 679.69 904.51 679.69 922.49 666.98 935.21 657.98 926.22"/><rect class="cls-2" x="296.25" y="463.29" width="34.07" height="24.11" transform="translate(-244.36 360.75) rotate(-45)"/><polygon class="cls-3" points="350.89 454.78 333.86 471.83 316.81 454.78 350.89 454.78"/><polygon class="cls-3" points="433.18 454.77 416.14 471.81 399.09 454.78 399.09 454.77 433.18 454.77"/><polygon class="cls-4" points="457.28 478.87 440.25 495.92 416.14 471.81 433.18 454.77 457.27 478.87 457.28 478.87"/><polygon class="cls-5" points="457.28 478.87 457.28 512.96 440.25 495.92 457.28 478.87"/><polygon class="cls-6" points="457.28 512.96 416.13 554.1 375 595.23 375 561.16 399.09 537.06 440.25 495.92 457.28 512.96"/><polygon class="cls-4" points="375 561.16 375 595.23 333.86 554.09 292.71 512.96 309.76 495.92 350.89 537.05 375 561.16"/><polygon class="cls-7" points="440.25 495.92 399.09 537.06 375 561.16 350.89 537.05 309.76 495.92 333.86 471.83 375 512.97 375 512.95 416.14 471.81 440.25 495.92"/><line class="cls-8" x1="350.91" y1="454.78" x2="350.91" y2="454.77"/><polygon class="cls-3" points="309.76 495.92 292.71 512.96 292.71 478.87 309.76 495.92"/><polygon class="cls-4" points="375 478.87 375 512.95 374.99 512.96 333.86 471.83 350.89 454.78 350.91 454.78 375 478.87"/><polygon class="cls-2" points="416.14 471.81 375 512.95 375 478.87 399.09 454.78 416.14 471.81"/><path d="M64.76,97.42H85.4V75.56H58.45V35.93H89.86a4.46,4.46,0,1,1,0,8.91H67.47V66.65H85.4a9.05,9.05,0,0,1,8.91,8.91V97.42a8.95,8.95,0,0,1-8.91,8.91H64.76A15.21,15.21,0,0,1,58.87,105l-6.73-2.82A4.17,4.17,0,0,1,49.43,98a4.47,4.47,0,0,1,1.22-3.16,3.93,3.93,0,0,1,3-1.3,7.64,7.64,0,0,1,3.08.8l5.89,2.49A4.1,4.1,0,0,0,64.76,97.42Z"/><path d="M685.23,952.58H664.6v21.86h26.95v39.63H660.14a4.54,4.54,0,0,1-4.46-4.46,4.44,4.44,0,0,1,4.46-4.45h22.39V983.35H664.6a9.07,9.07,0,0,1-8.92-8.91V952.58a9,9,0,0,1,8.92-8.91h20.63a15.17,15.17,0,0,1,5.89,1.32l6.74,2.82a4.17,4.17,0,0,1,2.71,4.24,4.47,4.47,0,0,1-1.22,3.16,4,4,0,0,1-3,1.3,7.64,7.64,0,0,1-3.08-.8l-5.89-2.49A4.14,4.14,0,0,0,685.23,952.58Z"/></g></svg>