<svg xmlns="http://www.w3.org/2000/svg" viewBox="0 0 750 1050"><defs><style>.cls-1{fill:#f1f2f2;}.cls-2{fill:#ff3b43;}.cls-3{fill:#e22c34;}.cls-4{fill:#c41e25;}.cls-5{fill:#a70f15;}.cls-6{fill:#8a0006;}.cls-7{fill:#ed242b;}.cls-8{fill:none;stroke:#231f20;stroke-miterlimit:10;}</style></defs><g id="Layer_6" data-name="Layer 6"><rect class="cls-1" width="750" height="1050" rx="63.89"/></g><g id="Layer_2" data-name="Layer 2"><rect class="cls-2" x="584.25" y="843.51" width="34.07" height="24.11" transform="translate(-428.87 675.77) rotate(-45)"/><polygon class="cls-3" points="563.68 876.14 580.72 859.09 597.76 876.14 563.68 876.14"/><polygon class="cls-3" points="481.4 876.15 498.43 859.1 515.48 876.14 515.48 876.15 481.4 876.15"/><polygon class="cls-4" points="457.29 852.05 474.33 835 498.43 859.1 481.4 876.15 457.3 852.05 457.29 852.05"/><polygon class="cls-5" points="457.29 852.05 457.29 817.96 474.33 835 457.29 852.05"/><polygon class="cls-6" points="457.29 817.96 498.44 776.82 539.58 735.69 539.58 769.76 515.48 793.86 474.33 835 457.29 817.96"/><polygon class="cls-4" points="539.58 769.76 539.58 735.69 580.72 776.83 621.86 817.96 604.81 835 563.68 793.87 539.58 769.76"/><polygon class="cls-7" points="474.33 835 515.48 793.86 539.58 769.76 563.68 793.87 604.81 835 580.72 859.09 539.58 817.95 539.58 817.97 498.43 859.1 474.33 835"/><line class="cls-8" x1="563.67" y1="876.14" x2="563.67" y2="876.15"/><polygon class="cls-3" points="604.81 835 621.86 817.96 621.86 852.05 604.81 835"/><polygon class="cls-4" points="539.58 852.05 539.58 817.97 539.59 817.96 580.72 859.09 563.68 876.14 563.67 876.14 539.58 852.05"/><polygon class="cls-2" points="498.43 859.1 539.58 817.97 539.58 852.05 515.48 876.14 498.43 859.1"/><rect class="cls-2" x="255.11" y="843.51" width="34.07" height="24.11" transform="translate(-525.27 443.03) rotate(-45)"/><polygon class="cls-3" points="234.54 876.14 251.58 859.09 268.63 876.14 234.54 876.14"/><polygon class="cls-3" points="152.26 876.15 169.29 859.1 186.34 876.14 186.34 876.15 152.26 876.15"/><polygon class="cls-4" points="128.15 852.05 145.19 835 169.29 859.1 152.26 876.15 128.16 852.05 128.15 852.05"/><polygon class="cls-5" points="128.15 852.05 128.15 817.96 145.19 835 128.15 852.05"/><polygon class="cls-6" points="128.15 817.96 169.31 776.82 210.44 735.69 210.44 769.76 186.34 793.86 145.19 835 128.15 817.96"/><polygon class="cls-4" points="210.44 769.76 210.44 735.69 251.58 776.83 292.72 817.96 275.67 835 234.54 793.87 210.44 769.76"/><polygon class="cls-7" points="145.19 835 186.34 793.86 210.44 769.76 234.54 793.87 275.67 835 251.58 859.09 210.44 817.95 210.44 817.97 169.29 859.1 145.19 835"/><line class="cls-8" x1="234.53" y1="876.14" x2="234.53" y2="876.15"/><polygon class="cls-3" points="275.67 835 292.72 817.96 292.72 852.05 275.67 835"/><polygon class="cls-4" points="210.44 852.05 210.44 817.97 210.45 817.96 251.58 859.09 234.54 876.14 234.53 876.14 210.44 852.05"/><polygon class="cls-2" points="169.29 859.1 210.44 817.97 210.44 852.05 186.34 876.14 169.29 859.1"/><rect class="cls-2" x="584.25" y="656.24" width="34.07" height="24.11" transform="translate(-296.44 620.91) rotate(-45)"/><polygon class="cls-3" points="563.68 688.86 580.72 671.82 597.76 688.86 563.68 688.86"/><polygon class="cls-3" points="481.4 688.87 498.43 671.83 515.48 688.86 515.48 688.87 481.4 688.87"/><polygon class="cls-4" points="457.29 664.77 474.33 647.72 498.43 671.83 481.4 688.87 457.3 664.77 457.29 664.77"/><polygon class="cls-5" points="457.29 664.77 457.29 630.68 474.33 647.72 457.29 664.77"/><polygon class="cls-6" points="457.29 630.68 498.44 589.54 539.58 548.41 539.58 582.48 515.48 606.58 474.33 647.72 457.29 630.68"/><polygon class="cls-4" points="539.58 582.48 539.58 548.41 580.72 589.55 621.86 630.68 604.81 647.72 563.68 606.59 539.58 582.48"/><polygon class="cls-7" points="474.33 647.72 515.48 606.58 539.58 582.48 563.68 606.59 604.81 647.72 580.72 671.82 539.58 630.67 539.58 630.69 498.43 671.83 474.33 647.72"/><line class="cls-8" x1="563.67" y1="688.86" x2="563.67" y2="688.87"/><polygon class="cls-3" points="604.81 647.72 621.86 630.68 621.86 664.77 604.81 647.72"/><polygon class="cls-4" points="539.58 664.77 539.58 630.69 539.59 630.68 580.72 671.82 563.68 688.86 563.67 688.86 539.58 664.77"/><polygon class="cls-2" points="498.43 671.83 539.58 630.69 539.58 664.77 515.48 688.86 498.43 671.83"/><rect class="cls-2" x="255.11" y="656.24" width="34.07" height="24.11" transform="translate(-392.84 388.18) rotate(-45)"/><polygon class="cls-3" points="234.54 688.86 251.58 671.82 268.63 688.86 234.54 688.86"/><polygon class="cls-3" points="152.26 688.87 169.29 671.83 186.34 688.86 186.34 688.87 152.26 688.87"/><polygon class="cls-4" points="128.15 664.77 145.19 647.72 169.29 671.83 152.26 688.87 128.16 664.77 128.15 664.77"/><polygon class="cls-5" points="128.15 664.77 128.15 630.68 145.19 647.72 128.15 664.77"/><polygon class="cls-6" points="128.15 630.68 169.31 589.54 210.44 548.41 210.44 582.48 186.34 606.58 145.19 647.72 128.15 630.68"/><polygon class="cls-4" points="210.44 582.48 210.44 548.41 251.58 589.55 292.72 630.68 275.67 647.72 234.54 606.59 210.44 582.48"/><polygon class="cls-7" points="145.19 647.72 186.34 606.58 210.44 582.48 234.54 606.59 275.67 647.72 251.58 671.82 210.44 630.67 210.44 630.69 169.29 671.83 145.19 647.72"/><line class="cls-8" x1="234.53" y1="688.86" x2="234.53" y2="688.87"/><polygon class="cls-3" points="275.67 647.72 292.72 630.68 292.72 664.77 275.67 647.72"/><polygon class="cls-4" points="210.44 664.77 210.44 630.69 210.45 630.68 251.58 671.82 234.54 688.86 234.53 688.86 210.44 664.77"/><polygon class="cls-2" points="169.29 671.83 210.44 630.69 210.44 664.77 186.34 688.86 169.29 671.83"/><rect class="cls-2" x="131.69" y="182.38" width="34.07" height="24.11" transform="translate(-93.93 162.11) rotate(-45)"/><polygon class="cls-3" points="186.33 173.87 169.29 190.92 152.25 173.87 186.33 173.87"/><polygon class="cls-3" points="268.62 173.86 251.58 190.91 234.53 173.87 234.53 173.86 268.62 173.86"/><polygon class="cls-4" points="292.72 197.96 275.69 215.01 251.58 190.91 268.62 173.86 292.71 197.96 292.72 197.96"/><polygon class="cls-5" points="292.72 197.96 292.72 232.05 275.69 215.01 292.72 197.96"/><polygon class="cls-6" points="292.72 232.05 251.57 273.19 210.44 314.32 210.44 280.25 234.53 256.15 275.69 215.01 292.72 232.05"/><polygon class="cls-4" points="210.44 280.25 210.44 314.32 169.29 273.18 128.15 232.05 145.2 215.01 186.33 256.14 210.44 280.25"/><polygon class="cls-7" points="275.69 215.01 234.53 256.15 210.44 280.25 186.33 256.14 145.2 215.01 169.29 190.92 210.44 232.06 210.44 232.04 251.58 190.91 275.69 215.01"/><line class="cls-8" x1="186.34" y1="173.87" x2="186.34" y2="173.86"/><polygon class="cls-3" points="145.2 215.01 128.15 232.05 128.15 197.96 145.2 215.01"/><polygon class="cls-4" points="210.44 197.96 210.44 232.04 210.43 232.05 169.29 190.92 186.33 173.87 186.34 173.87 210.44 197.96"/><polygon class="cls-2" points="251.58 190.91 210.44 232.04 210.44 197.96 234.53 173.87 251.58 190.91"/><rect class="cls-2" x="460.82" y="182.38" width="34.07" height="24.11" transform="translate(2.47 394.85) rotate(-45)"/><polygon class="cls-3" points="515.47 173.87 498.43 190.92 481.38 173.87 515.47 173.87"/><polygon class="cls-3" points="597.75 173.86 580.72 190.91 563.67 173.87 563.67 173.86 597.75 173.86"/><polygon class="cls-4" points="621.86 197.96 604.82 215.01 580.72 190.91 597.75 173.86 621.85 197.96 621.86 197.96"/><polygon class="cls-5" points="621.86 197.96 621.86 232.05 604.82 215.01 621.86 197.96"/><polygon class="cls-6" points="621.86 232.05 580.71 273.19 539.58 314.32 539.58 280.25 563.67 256.15 604.82 215.01 621.86 232.05"/><polygon class="cls-4" points="539.58 280.25 539.58 314.32 498.43 273.18 457.29 232.05 474.34 215.01 515.47 256.14 539.58 280.25"/><polygon class="cls-7" points="604.82 215.01 563.67 256.15 539.58 280.25 515.47 256.14 474.34 215.01 498.43 190.92 539.58 232.06 539.58 232.04 580.72 190.91 604.82 215.01"/><line class="cls-8" x1="515.48" y1="173.87" x2="515.48" y2="173.86"/><polygon class="cls-3" points="474.34 215.01 457.29 232.05 457.29 197.96 474.34 215.01"/><polygon class="cls-4" points="539.58 197.96 539.58 232.04 539.56 232.05 498.43 190.92 515.47 173.87 515.48 173.87 539.58 197.96"/><polygon class="cls-2" points="580.72 190.91 539.58 232.04 539.58 197.96 563.67 173.87 580.72 190.91"/><rect class="cls-2" x="131.69" y="369.66" width="34.07" height="24.11" transform="translate(-226.35 216.97) rotate(-45)"/><polygon class="cls-3" points="186.33 361.14 169.29 378.19 152.25 361.14 186.33 361.14"/><polygon class="cls-3" points="268.62 361.13 251.58 378.18 234.53 361.14 234.53 361.13 268.62 361.13"/><polygon class="cls-4" points="292.72 385.24 275.69 402.29 251.58 378.18 268.62 361.13 292.71 385.24 292.72 385.24"/><polygon class="cls-5" points="292.72 385.24 292.72 419.32 275.69 402.29 292.72 385.24"/><polygon class="cls-6" points="292.72 419.32 251.57 460.47 210.44 501.6 210.44 467.52 234.53 443.43 275.69 402.29 292.72 419.32"/><polygon class="cls-4" points="210.44 467.52 210.44 501.6 169.29 460.45 128.15 419.32 145.2 402.29 186.33 443.42 210.44 467.52"/><polygon class="cls-7" points="275.69 402.29 234.53 443.43 210.44 467.52 186.33 443.42 145.2 402.29 169.29 378.19 210.44 419.33 210.44 419.31 251.58 378.18 275.69 402.29"/><line class="cls-8" x1="186.34" y1="361.14" x2="186.34" y2="361.13"/><polygon class="cls-3" points="145.2 402.29 128.15 419.32 128.15 385.24 145.2 402.29"/><polygon class="cls-4" points="210.44 385.24 210.44 419.31 210.43 419.32 169.29 378.19 186.33 361.14 186.34 361.14 210.44 385.24"/><polygon class="cls-2" points="251.58 378.18 210.44 419.31 210.44 385.24 234.53 361.14 251.58 378.18"/><rect class="cls-2" x="460.82" y="369.66" width="34.07" height="24.11" transform="translate(-129.95 449.7) rotate(-45)"/><polygon class="cls-3" points="515.47 361.14 498.43 378.19 481.38 361.14 515.47 361.14"/><polygon class="cls-3" points="597.75 361.13 580.72 378.18 563.67 361.14 563.67 361.13 597.75 361.13"/><polygon class="cls-4" points="621.86 385.24 604.82 402.29 580.72 378.18 597.75 361.13 621.85 385.24 621.86 385.24"/><polygon class="cls-5" points="621.86 385.24 621.86 419.32 604.82 402.29 621.86 385.24"/><polygon class="cls-6" points="621.86 419.32 580.71 460.47 539.58 501.6 539.58 467.52 563.67 443.43 604.82 402.29 621.86 419.32"/><polygon class="cls-4" points="539.58 467.52 539.58 501.6 498.43 460.45 457.29 419.32 474.34 402.29 515.47 443.42 539.58 467.52"/><polygon class="cls-7" points="604.82 402.29 563.67 443.43 539.58 467.52 515.47 443.42 474.34 402.29 498.43 378.19 539.58 419.33 539.58 419.31 580.72 378.18 604.82 402.29"/><line class="cls-8" x1="515.48" y1="361.14" x2="515.48" y2="361.13"/><polygon class="cls-3" points="474.34 402.29 457.29 419.32 457.29 385.24 474.34 402.29"/><polygon class="cls-4" points="539.58 385.24 539.58 419.31 539.56 419.32 498.43 378.19 515.47 361.14 515.48 361.14 539.58 385.24"/><polygon class="cls-2" points="580.72 378.18 539.58 419.31 539.58 385.24 563.67 361.14 580.72 378.18"/><rect class="cls-2" x="419.69" y="749.88" width="34.07" height="24.11" transform="translate(-410.85 531.98) rotate(-45)"/><polygon class="cls-3" points="399.12 782.5 416.15 765.46 433.2 782.5 399.12 782.5"/><polygon class="cls-3" points="316.83 782.51 333.87 765.47 350.92 782.5 350.92 782.51 316.83 782.51"/><polygon class="cls-4" points="292.73 758.41 309.76 741.36 333.87 765.47 316.83 782.51 292.74 758.41 292.73 758.41"/><polygon class="cls-5" points="292.73 758.41 292.73 724.33 309.76 741.36 292.73 758.41"/><polygon class="cls-6" points="292.73 724.33 333.88 683.18 375.01 642.05 375.01 676.13 350.92 700.22 309.76 741.36 292.73 724.33"/><polygon class="cls-4" points="375.01 676.13 375.01 642.05 416.15 683.19 457.3 724.33 440.25 741.36 399.12 700.23 375.01 676.13"/><polygon class="cls-7" points="309.76 741.36 350.92 700.22 375.01 676.13 399.12 700.23 440.25 741.36 416.15 765.46 375.01 724.31 375.01 724.34 333.87 765.47 309.76 741.36"/><line class="cls-8" x1="399.11" y1="782.5" x2="399.11" y2="782.52"/><polygon class="cls-3" points="440.25 741.36 457.3 724.33 457.3 758.41 440.25 741.36"/><polygon class="cls-4" points="375.01 758.41 375.01 724.34 375.02 724.33 416.15 765.46 399.12 782.5 399.11 782.5 375.01 758.41"/><polygon class="cls-2" points="333.87 765.47 375.01 724.34 375.01 758.41 350.92 782.5 333.87 765.47"/><rect class="cls-2" x="296.25" y="276.02" width="34.07" height="24.11" transform="translate(-111.94 305.9) rotate(-45)"/><polygon class="cls-3" points="350.9 267.5 333.86 284.55 316.81 267.5 350.9 267.5"/><polygon class="cls-3" points="433.18 267.49 416.14 284.54 399.1 267.5 399.1 267.49 433.18 267.49"/><polygon class="cls-4" points="457.29 291.6 440.25 308.64 416.14 284.54 433.18 267.49 457.27 291.6 457.29 291.6"/><polygon class="cls-5" points="457.29 291.6 457.29 325.68 440.25 308.64 457.29 291.6"/><polygon class="cls-6" points="457.29 325.68 416.13 366.82 375 407.96 375 373.88 399.1 349.79 440.25 308.64 457.29 325.68"/><polygon class="cls-4" points="375 373.88 375 407.96 333.86 366.81 292.72 325.68 309.76 308.64 350.9 349.78 375 373.88"/><polygon class="cls-7" points="440.25 308.64 399.1 349.79 375 373.88 350.9 349.78 309.76 308.64 333.86 284.55 375 325.69 375 325.67 416.14 284.54 440.25 308.64"/><line class="cls-8" x1="350.91" y1="267.5" x2="350.91" y2="267.49"/><polygon class="cls-3" points="309.76 308.64 292.72 325.68 292.72 291.6 309.76 308.64"/><polygon class="cls-4" points="375 291.6 375 325.67 374.99 325.68 333.86 284.55 350.9 267.5 350.91 267.5 375 291.6"/><polygon class="cls-2" points="416.14 284.54 375 325.67 375 291.6 399.1 267.5 416.14 284.54"/><path d="M19.61,97.42H33.3V44.84H19.83a4.46,4.46,0,1,1,0-8.91H42.21V97.42h8.92V78.85a4.32,4.32,0,0,1,1.3-3.13A4.45,4.45,0,0,1,60,78.85v23a4.44,4.44,0,0,1-4.46,4.45h-36A4.21,4.21,0,0,1,16.46,105a4.46,4.46,0,0,1-1.3-3.21,4.15,4.15,0,0,1,1.3-3.08A4.36,4.36,0,0,1,19.61,97.42Z"/><path d="M80.89,97.74V44.42a8.69,8.69,0,0,1,8.6-8.59h27.8a8.1,8.1,0,0,1,6,2.54,8.32,8.32,0,0,1,2.52,6.05V97.74a8.6,8.6,0,0,1-8.59,8.59H89.49a8.55,8.55,0,0,1-8.6-8.59ZM117,97.42V44.84H89.8V97.42Z"/><rect class="cls-2" x="28.76" y="119.29" width="17.98" height="12.72" transform="translate(-77.79 63.49) rotate(-45)"/><polygon class="cls-3" points="57.59 114.79 48.6 123.79 39.61 114.79 57.59 114.79"/><polygon class="cls-3" points="101 114.79 92.02 123.78 83.02 114.79 83.02 114.79 101 114.79"/><polygon class="cls-4" points="113.72 127.5 104.73 136.5 92.02 123.78 101 114.79 113.72 127.5 113.72 127.5"/><polygon class="cls-5" points="113.72 127.5 113.72 145.49 104.73 136.5 113.72 127.5"/><polygon class="cls-6" points="113.72 145.49 92.01 167.2 70.31 188.9 70.31 170.92 83.02 158.21 104.73 136.5 113.72 145.49"/><polygon class="cls-4" points="70.31 170.92 70.31 188.9 48.6 167.19 26.89 145.49 35.89 136.5 57.59 158.2 70.31 170.92"/><polygon class="cls-7" points="104.73 136.5 83.02 158.21 70.31 170.92 57.59 158.2 35.89 136.5 48.6 123.79 70.31 145.5 70.31 145.48 92.02 123.78 104.73 136.5"/><line class="cls-8" x1="57.6" y1="114.79" x2="57.6" y2="114.79"/><polygon class="cls-3" points="35.89 136.5 26.89 145.49 26.89 127.5 35.89 136.5"/><polygon class="cls-4" points="70.31 127.5 70.31 145.48 70.3 145.49 48.6 123.79 57.59 114.79 57.59 114.79 70.31 127.5"/><polygon class="cls-2" points="92.02 123.78 70.31 145.48 70.31 127.5 83.02 114.79 92.02 123.78"/><path d="M730.39,952.58H716.7v52.58h13.47a4.46,4.46,0,1,1,0,8.91H707.79V952.58h-8.92v18.57a4.32,4.32,0,0,1-1.3,3.13,4.26,4.26,0,0,1-3.15,1.33,4.44,4.44,0,0,1-4.46-4.46v-23a4.44,4.44,0,0,1,4.46-4.45h36a4.21,4.21,0,0,1,3.15,1.35,4.46,4.46,0,0,1,1.3,3.21,4.15,4.15,0,0,1-1.3,3.08A4.32,4.32,0,0,1,730.39,952.58Z"/><path d="M669.11,952.26v53.32a8.71,8.71,0,0,1-8.6,8.6h-27.8a8.11,8.11,0,0,1-6-2.55,8.3,8.3,0,0,1-2.52-6V952.26a8.6,8.6,0,0,1,8.59-8.59h27.69a8.55,8.55,0,0,1,8.6,8.59Zm-36.08.32v52.58H660.2V952.58Z"/><rect class="cls-2" x="703.26" y="917.99" width="17.98" height="12.72" transform="translate(-445 774.38) rotate(-45)"/><polygon class="cls-3" points="692.41 935.21 701.4 926.21 710.39 935.21 692.41 935.21"/><polygon class="cls-3" points="649 935.21 657.99 926.22 666.98 935.21 666.98 935.21 649 935.21"/><polygon class="cls-4" points="636.28 922.5 645.27 913.5 657.99 926.22 649 935.21 636.28 922.5 636.28 922.5"/><polygon class="cls-5" points="636.28 922.5 636.28 904.51 645.27 913.5 636.28 922.5"/><polygon class="cls-6" points="636.28 904.51 657.99 882.8 679.69 861.1 679.69 879.08 666.98 891.79 645.27 913.5 636.28 904.51"/><polygon class="cls-4" points="679.69 879.08 679.69 861.1 701.4 882.81 723.11 904.51 714.11 913.5 692.41 891.8 679.69 879.08"/><polygon class="cls-7" points="645.27 913.5 666.98 891.79 679.69 879.08 692.41 891.8 714.11 913.5 701.4 926.21 679.69 904.5 679.69 904.52 657.99 926.22 645.27 913.5"/><line class="cls-8" x1="692.4" y1="935.21" x2="692.4" y2="935.21"/><polygon class="cls-3" points="714.11 913.5 723.11 904.51 723.11 922.5 714.11 913.5"/><polygon class="cls-4" points="679.69 922.5 679.69 904.52 679.7 904.51 701.4 926.21 692.41 935.21 692.4 935.21 679.69 922.5"/><polygon class="cls-2" points="657.99 926.22 679.69 904.52 679.69 922.5 666.98 935.21 657.99 926.22"/></g></svg>