<svg xmlns="http://www.w3.org/2000/svg" viewBox="0 0 750 1050"><defs><style>.cls-1{fill:#f1f2f2;}.cls-2{fill:#ff3b43;}.cls-3{fill:#e22c34;}.cls-4{fill:#c41e25;}.cls-5{fill:#a70f15;}.cls-6{fill:#8a0006;}.cls-7{fill:#ed242b;}.cls-8{fill:none;stroke:#231f20;stroke-miterlimit:10;}</style></defs><g id="Layer_6" data-name="Layer 6"><rect class="cls-1" width="750" height="1050" rx="63.89"/></g><g id="Layer_2" data-name="Layer 2"><rect class="cls-2" x="419.68" y="843.51" width="34.07" height="24.11" transform="translate(-477.07 559.39) rotate(-45)"/><polygon class="cls-3" points="399.11 876.14 416.14 859.09 433.19 876.14 399.11 876.14"/><polygon class="cls-3" points="316.82 876.15 333.86 859.1 350.91 876.14 350.91 876.15 316.82 876.15"/><polygon class="cls-4" points="292.72 852.05 309.75 835 333.86 859.1 316.82 876.15 292.73 852.05 292.72 852.05"/><polygon class="cls-5" points="292.72 852.05 292.72 817.96 309.75 835 292.72 852.05"/><polygon class="cls-6" points="292.72 817.96 333.87 776.82 375 735.69 375 769.76 350.91 793.86 309.75 835 292.72 817.96"/><polygon class="cls-4" points="375 769.76 375 735.69 416.14 776.83 457.28 817.96 440.24 835 399.11 793.87 375 769.76"/><polygon class="cls-7" points="309.75 835 350.91 793.86 375 769.76 399.11 793.87 440.24 835 416.14 859.09 375 817.95 375 817.97 333.86 859.1 309.75 835"/><line class="cls-8" x1="399.09" y1="876.14" x2="399.09" y2="876.15"/><polygon class="cls-3" points="440.24 835 457.28 817.96 457.28 852.05 440.24 835"/><polygon class="cls-4" points="375 852.05 375 817.97 375.01 817.96 416.14 859.09 399.11 876.14 399.09 876.14 375 852.05"/><polygon class="cls-2" points="333.86 859.1 375 817.97 375 852.05 350.91 876.14 333.86 859.1"/><rect class="cls-2" x="296.25" y="182.38" width="34.07" height="24.11" transform="translate(-45.73 278.48) rotate(-45)"/><polygon class="cls-3" points="350.89 173.87 333.86 190.92 316.81 173.87 350.89 173.87"/><polygon class="cls-3" points="433.18 173.86 416.14 190.91 399.09 173.87 399.09 173.86 433.18 173.86"/><polygon class="cls-4" points="457.28 197.96 440.25 215.01 416.14 190.91 433.18 173.86 457.27 197.96 457.28 197.96"/><polygon class="cls-5" points="457.28 197.96 457.28 232.05 440.25 215.01 457.28 197.96"/><polygon class="cls-6" points="457.28 232.05 416.13 273.19 375 314.32 375 280.25 399.09 256.15 440.25 215.01 457.28 232.05"/><polygon class="cls-4" points="375 280.25 375 314.32 333.86 273.18 292.72 232.05 309.76 215.01 350.89 256.14 375 280.25"/><polygon class="cls-7" points="440.25 215.01 399.09 256.15 375 280.25 350.89 256.14 309.76 215.01 333.86 190.92 375 232.06 375 232.04 416.14 190.91 440.25 215.01"/><line class="cls-8" x1="350.91" y1="173.87" x2="350.91" y2="173.86"/><polygon class="cls-3" points="309.76 215.01 292.72 232.05 292.72 197.96 309.76 215.01"/><polygon class="cls-4" points="375 197.96 375 232.04 374.99 232.05 333.86 190.92 350.89 173.87 350.91 173.87 375 197.96"/><polygon class="cls-2" points="416.14 190.91 375 232.04 375 197.96 399.09 173.87 416.14 190.91"/><rect class="cls-2" x="296.25" y="463.3" width="34.07" height="24.11" transform="translate(-244.36 360.75) rotate(-45)"/><polygon class="cls-3" points="350.9 454.78 333.86 471.83 316.81 454.78 350.9 454.78"/><polygon class="cls-3" points="433.18 454.77 416.14 471.82 399.1 454.78 399.1 454.77 433.18 454.77"/><polygon class="cls-4" points="457.29 478.87 440.25 495.92 416.14 471.82 433.18 454.77 457.27 478.87 457.29 478.87"/><polygon class="cls-5" points="457.29 478.87 457.29 512.96 440.25 495.92 457.29 478.87"/><polygon class="cls-6" points="457.29 512.96 416.13 554.1 375 595.23 375 561.16 399.1 537.06 440.25 495.92 457.29 512.96"/><polygon class="cls-4" points="375 561.16 375 595.23 333.86 554.09 292.72 512.96 309.76 495.92 350.9 537.05 375 561.16"/><polygon class="cls-7" points="440.25 495.92 399.1 537.06 375 561.16 350.9 537.05 309.76 495.92 333.86 471.83 375 512.97 375 512.95 416.14 471.82 440.25 495.92"/><line class="cls-8" x1="350.91" y1="454.78" x2="350.91" y2="454.77"/><polygon class="cls-3" points="309.76 495.92 292.72 512.96 292.72 478.87 309.76 495.92"/><polygon class="cls-4" points="375 478.87 375 512.95 374.99 512.96 333.86 471.83 350.9 454.78 350.91 454.78 375 478.87"/><polygon class="cls-2" points="416.14 471.82 375 512.95 375 478.87 399.1 454.78 416.14 471.82"/><path d="M93.36,44.84V61.56A12.74,12.74,0,0,1,89.75,71a13.23,13.23,0,0,1,3.71,9v17.4a8.53,8.53,0,0,1-2.65,6.29,8.72,8.72,0,0,1-6.36,2.62H52.93a4.46,4.46,0,1,1,0-8.91H84.34V80A4.46,4.46,0,0,0,83,76.81a4.23,4.23,0,0,0-3.16-1.35H62a4.35,4.35,0,0,1-3.16-1.28,4.54,4.54,0,0,1,0-6.34A4.33,4.33,0,0,1,62,66.54H80a4.31,4.31,0,0,0,3.13-1.3,4.25,4.25,0,0,0,1.33-3.15V44.84H52.61a4.46,4.46,0,1,1,0-8.91H84.45a8.93,8.93,0,0,1,8.91,8.91Z"/><rect class="cls-2" x="28.76" y="119.29" width="17.98" height="12.72" transform="translate(-77.79 63.49) rotate(-45)"/><polygon class="cls-3" points="57.59 114.79 48.6 123.79 39.61 114.79 57.59 114.79"/><polygon class="cls-3" points="101 114.79 92.02 123.78 83.02 114.79 83.02 114.79 101 114.79"/><polygon class="cls-4" points="113.72 127.5 104.73 136.5 92.02 123.78 101 114.79 113.72 127.5 113.72 127.5"/><polygon class="cls-5" points="113.72 127.5 113.72 145.49 104.73 136.5 113.72 127.5"/><polygon class="cls-6" points="113.72 145.49 92.01 167.2 70.31 188.9 70.31 170.92 83.02 158.21 104.73 136.5 113.72 145.49"/><polygon class="cls-4" points="70.31 170.92 70.31 188.9 48.6 167.19 26.89 145.49 35.89 136.5 57.59 158.2 70.31 170.92"/><polygon class="cls-7" points="104.73 136.5 83.02 158.21 70.31 170.92 57.59 158.2 35.89 136.5 48.6 123.79 70.31 145.5 70.31 145.48 92.02 123.78 104.73 136.5"/><line class="cls-8" x1="57.6" y1="114.79" x2="57.6" y2="114.79"/><polygon class="cls-3" points="35.89 136.5 26.89 145.49 26.89 127.5 35.89 136.5"/><polygon class="cls-4" points="70.31 127.5 70.31 145.48 70.3 145.49 48.6 123.79 57.59 114.79 57.59 114.79 70.31 127.5"/><polygon class="cls-2" points="92.02 123.78 70.31 145.48 70.31 127.5 83.02 114.79 92.02 123.78"/><path d="M656.64,1005.16V988.44a12.75,12.75,0,0,1,3.61-9.44,13.23,13.23,0,0,1-3.71-9v-17.4a8.53,8.53,0,0,1,2.65-6.29,8.72,8.72,0,0,1,6.36-2.62h31.52a4.46,4.46,0,1,1,0,8.91H665.66V970a4.46,4.46,0,0,0,1.3,3.21,4.23,4.23,0,0,0,3.16,1.35h17.93a4.35,4.35,0,0,1,3.16,1.28,4.54,4.54,0,0,1,0,6.34,4.33,4.33,0,0,1-3.16,1.3H670a4.31,4.31,0,0,0-3.13,1.3,4.25,4.25,0,0,0-1.33,3.15v17.25h31.84a4.46,4.46,0,1,1,0,8.91H665.55a8.93,8.93,0,0,1-8.91-8.91Z"/><rect class="cls-2" x="703.26" y="917.99" width="17.98" height="12.72" transform="translate(-445 774.38) rotate(-45)"/><polygon class="cls-3" points="692.41 935.21 701.4 926.21 710.39 935.21 692.41 935.21"/><polygon class="cls-3" points="649 935.21 657.99 926.22 666.98 935.21 666.98 935.21 649 935.21"/><polygon class="cls-4" points="636.28 922.5 645.27 913.5 657.99 926.22 649 935.21 636.28 922.5 636.28 922.5"/><polygon class="cls-5" points="636.28 922.5 636.28 904.51 645.27 913.5 636.28 922.5"/><polygon class="cls-6" points="636.28 904.51 657.99 882.8 679.69 861.1 679.69 879.08 666.98 891.79 645.27 913.5 636.28 904.51"/><polygon class="cls-4" points="679.69 879.08 679.69 861.1 701.4 882.81 723.11 904.51 714.11 913.5 692.41 891.8 679.69 879.08"/><polygon class="cls-7" points="645.27 913.5 666.98 891.79 679.69 879.08 692.41 891.8 714.11 913.5 701.4 926.21 679.69 904.5 679.69 904.52 657.99 926.22 645.27 913.5"/><line class="cls-8" x1="692.4" y1="935.21" x2="692.4" y2="935.21"/><polygon class="cls-3" points="714.11 913.5 723.11 904.51 723.11 922.5 714.11 913.5"/><polygon class="cls-4" points="679.69 922.5 679.69 904.52 679.7 904.51 701.4 926.21 692.41 935.21 692.4 935.21 679.69 922.5"/><polygon class="cls-2" points="657.99 926.22 679.69 904.52 679.69 922.5 666.98 935.21 657.99 926.22"/></g></svg>