<svg xmlns="http://www.w3.org/2000/svg" viewBox="0 0 750 1050"><defs><style>.cls-1{fill:#f1f2f2;}.cls-2{fill:#ff3b43;}.cls-3{fill:#e22c34;}.cls-4{fill:#c41e25;}.cls-5{fill:#a70f15;}.cls-6{fill:#8a0006;}.cls-7{fill:#ed242b;}.cls-8{fill:none;stroke:#231f20;stroke-miterlimit:10;}</style></defs><g id="Layer_6" data-name="Layer 6"><rect class="cls-1" width="750" height="1050" rx="63.89"/></g><g id="Layer_2" data-name="Layer 2"><rect class="cls-2" x="584.25" y="843.56" width="34.07" height="24.11" transform="translate(-428.9 675.78) rotate(-45)"/><polygon class="cls-3" points="563.68 876.19 580.72 859.14 597.76 876.19 563.68 876.19"/><polygon class="cls-3" points="481.4 876.2 498.43 859.15 515.48 876.19 515.48 876.2 481.4 876.2"/><polygon class="cls-4" points="457.29 852.09 474.33 835.04 498.43 859.15 481.4 876.2 457.3 852.09 457.29 852.09"/><polygon class="cls-5" points="457.29 852.09 457.29 818.01 474.33 835.04 457.29 852.09"/><polygon class="cls-6" points="457.29 818.01 498.44 776.87 539.58 735.73 539.58 769.81 515.48 793.9 474.33 835.04 457.29 818.01"/><polygon class="cls-4" points="539.58 769.81 539.58 735.73 580.72 776.88 621.86 818.01 604.81 835.04 563.68 793.91 539.58 769.81"/><polygon class="cls-7" points="474.33 835.04 515.48 793.9 539.58 769.81 563.68 793.91 604.81 835.04 580.72 859.14 539.58 818 539.58 818.02 498.43 859.15 474.33 835.04"/><line class="cls-8" x1="563.67" y1="876.19" x2="563.67" y2="876.2"/><polygon class="cls-3" points="604.81 835.04 621.86 818.01 621.86 852.09 604.81 835.04"/><polygon class="cls-4" points="539.58 852.09 539.58 818.02 539.59 818.01 580.72 859.14 563.68 876.19 563.67 876.19 539.58 852.09"/><polygon class="cls-2" points="498.43 859.15 539.58 818.02 539.58 852.09 515.48 876.19 498.43 859.15"/><rect class="cls-2" x="255.11" y="843.56" width="34.07" height="24.11" transform="translate(-525.3 443.04) rotate(-45)"/><polygon class="cls-3" points="234.54 876.19 251.58 859.14 268.63 876.19 234.54 876.19"/><polygon class="cls-3" points="152.26 876.2 169.29 859.15 186.34 876.19 186.34 876.2 152.26 876.2"/><polygon class="cls-4" points="128.15 852.09 145.19 835.04 169.29 859.15 152.26 876.2 128.16 852.09 128.15 852.09"/><polygon class="cls-5" points="128.15 852.09 128.15 818.01 145.19 835.04 128.15 852.09"/><polygon class="cls-6" points="128.15 818.01 169.31 776.87 210.44 735.73 210.44 769.81 186.34 793.9 145.19 835.04 128.15 818.01"/><polygon class="cls-4" points="210.44 769.81 210.44 735.73 251.58 776.88 292.72 818.01 275.67 835.04 234.54 793.91 210.44 769.81"/><polygon class="cls-7" points="145.19 835.04 186.34 793.9 210.44 769.81 234.54 793.91 275.67 835.04 251.58 859.14 210.44 818 210.44 818.02 169.29 859.15 145.19 835.04"/><line class="cls-8" x1="234.53" y1="876.19" x2="234.53" y2="876.2"/><polygon class="cls-3" points="275.67 835.04 292.72 818.01 292.72 852.09 275.67 835.04"/><polygon class="cls-4" points="210.44 852.09 210.44 818.02 210.45 818.01 251.58 859.14 234.54 876.19 234.53 876.19 210.44 852.09"/><polygon class="cls-2" points="169.29 859.15 210.44 818.02 210.44 852.09 186.34 876.19 169.29 859.15"/><rect class="cls-2" x="131.69" y="182.43" width="34.07" height="24.11" transform="translate(-93.96 162.13) rotate(-45)"/><polygon class="cls-3" points="186.33 173.91 169.29 190.96 152.25 173.91 186.33 173.91"/><polygon class="cls-3" points="268.62 173.9 251.58 190.95 234.53 173.91 234.53 173.9 268.62 173.9"/><polygon class="cls-4" points="292.72 198.01 275.69 215.06 251.58 190.95 268.62 173.9 292.71 198.01 292.72 198.01"/><polygon class="cls-5" points="292.72 198.01 292.72 232.09 275.69 215.06 292.72 198.01"/><polygon class="cls-6" points="292.72 232.09 251.57 273.24 210.44 314.37 210.44 280.29 234.53 256.2 275.69 215.06 292.72 232.09"/><polygon class="cls-4" points="210.44 280.29 210.44 314.37 169.29 273.23 128.15 232.09 145.2 215.06 186.33 256.19 210.44 280.29"/><polygon class="cls-7" points="275.69 215.06 234.53 256.2 210.44 280.29 186.33 256.19 145.2 215.06 169.29 190.96 210.44 232.1 210.44 232.08 251.58 190.95 275.69 215.06"/><line class="cls-8" x1="186.34" y1="173.92" x2="186.34" y2="173.9"/><polygon class="cls-3" points="145.2 215.06 128.15 232.09 128.15 198.01 145.2 215.06"/><polygon class="cls-4" points="210.44 198.01 210.44 232.08 210.43 232.09 169.29 190.96 186.33 173.91 186.34 173.91 210.44 198.01"/><polygon class="cls-2" points="251.58 190.95 210.44 232.08 210.44 198.01 234.53 173.91 251.58 190.95"/><rect class="cls-2" x="460.82" y="182.43" width="34.07" height="24.11" transform="translate(2.44 394.86) rotate(-45)"/><polygon class="cls-3" points="515.47 173.91 498.43 190.96 481.38 173.91 515.47 173.91"/><polygon class="cls-3" points="597.75 173.9 580.72 190.95 563.67 173.91 563.67 173.9 597.75 173.9"/><polygon class="cls-4" points="621.86 198.01 604.82 215.06 580.72 190.95 597.75 173.9 621.85 198.01 621.86 198.01"/><polygon class="cls-5" points="621.86 198.01 621.86 232.09 604.82 215.06 621.86 198.01"/><polygon class="cls-6" points="621.86 232.09 580.71 273.24 539.58 314.37 539.58 280.29 563.67 256.2 604.82 215.06 621.86 232.09"/><polygon class="cls-4" points="539.58 280.29 539.58 314.37 498.43 273.23 457.29 232.09 474.34 215.06 515.47 256.19 539.58 280.29"/><polygon class="cls-7" points="604.82 215.06 563.67 256.2 539.58 280.29 515.47 256.19 474.34 215.06 498.43 190.96 539.58 232.1 539.58 232.08 580.72 190.95 604.82 215.06"/><line class="cls-8" x1="515.48" y1="173.92" x2="515.48" y2="173.9"/><polygon class="cls-3" points="474.34 215.06 457.29 232.09 457.29 198.01 474.34 215.06"/><polygon class="cls-4" points="539.58 198.01 539.58 232.08 539.56 232.09 498.43 190.96 515.47 173.91 515.48 173.91 539.58 198.01"/><polygon class="cls-2" points="580.72 190.95 539.58 232.08 539.58 198.01 563.67 173.91 580.72 190.95"/><rect class="cls-2" x="255.11" y="562.59" width="34.07" height="24.11" transform="translate(-326.63 360.75) rotate(-45)"/><polygon class="cls-3" points="234.54 595.22 251.58 578.17 268.63 595.22 234.54 595.22"/><polygon class="cls-3" points="152.26 595.23 169.29 578.18 186.34 595.22 186.34 595.23 152.26 595.23"/><polygon class="cls-4" points="128.15 571.13 145.19 554.08 169.29 578.18 152.26 595.23 128.16 571.13 128.15 571.13"/><polygon class="cls-5" points="128.15 571.13 128.15 537.04 145.19 554.08 128.15 571.13"/><polygon class="cls-6" points="128.15 537.04 169.31 495.9 210.44 454.77 210.44 488.84 186.34 512.94 145.19 554.08 128.15 537.04"/><polygon class="cls-4" points="210.44 488.84 210.44 454.77 251.58 495.91 292.72 537.04 275.67 554.08 234.54 512.95 210.44 488.84"/><polygon class="cls-7" points="145.19 554.08 186.34 512.94 210.44 488.84 234.54 512.95 275.67 554.08 251.58 578.17 210.44 537.03 210.44 537.05 169.29 578.18 145.19 554.08"/><line class="cls-8" x1="234.53" y1="595.22" x2="234.53" y2="595.23"/><polygon class="cls-3" points="275.67 554.08 292.72 537.04 292.72 571.13 275.67 554.08"/><polygon class="cls-4" points="210.44 571.13 210.44 537.05 210.45 537.04 251.58 578.17 234.54 595.22 234.53 595.22 210.44 571.13"/><polygon class="cls-2" points="169.29 578.18 210.44 537.05 210.44 571.13 186.34 595.22 169.29 578.18"/><rect class="cls-2" x="460.82" y="463.3" width="34.07" height="24.11" transform="translate(-196.16 477.13) rotate(-45)"/><polygon class="cls-3" points="515.47 454.78 498.43 471.83 481.38 454.78 515.47 454.78"/><polygon class="cls-3" points="597.75 454.77 580.72 471.82 563.67 454.78 563.67 454.77 597.75 454.77"/><polygon class="cls-4" points="621.86 478.87 604.82 495.92 580.72 471.82 597.75 454.77 621.85 478.87 621.86 478.87"/><polygon class="cls-5" points="621.86 478.87 621.86 512.96 604.82 495.92 621.86 478.87"/><polygon class="cls-6" points="621.86 512.96 580.71 554.1 539.58 595.23 539.58 561.16 563.67 537.06 604.82 495.92 621.86 512.96"/><polygon class="cls-4" points="539.58 561.16 539.58 595.23 498.43 554.09 457.29 512.96 474.34 495.92 515.47 537.05 539.58 561.16"/><polygon class="cls-7" points="604.82 495.92 563.67 537.06 539.58 561.16 515.47 537.05 474.34 495.92 498.43 471.83 539.58 512.97 539.58 512.95 580.72 471.82 604.82 495.92"/><line class="cls-8" x1="515.48" y1="454.78" x2="515.48" y2="454.77"/><polygon class="cls-3" points="474.34 495.92 457.29 512.96 457.29 478.87 474.34 495.92"/><polygon class="cls-4" points="539.58 478.87 539.58 512.95 539.56 512.96 498.43 471.83 515.47 454.78 515.48 454.78 539.58 478.87"/><polygon class="cls-2" points="580.72 471.82 539.58 512.95 539.58 478.87 563.67 454.78 580.72 471.82"/><rect class="cls-2" x="296.25" y="322.86" width="34.07" height="24.11" transform="translate(-145.06 319.62) rotate(-45)"/><polygon class="cls-3" points="350.89 314.35 333.86 331.39 316.81 314.35 350.89 314.35"/><polygon class="cls-3" points="433.18 314.34 416.14 331.38 399.09 314.35 399.09 314.34 433.18 314.34"/><polygon class="cls-4" points="457.28 338.44 440.25 355.49 416.14 331.38 433.18 314.34 457.27 338.44 457.28 338.44"/><polygon class="cls-5" points="457.28 338.44 457.28 372.53 440.25 355.49 457.28 338.44"/><polygon class="cls-6" points="457.28 372.53 416.13 413.67 375 454.8 375 420.73 399.09 396.63 440.25 355.49 457.28 372.53"/><polygon class="cls-4" points="375 420.73 375 454.8 333.86 413.66 292.72 372.53 309.76 355.49 350.89 396.62 375 420.73"/><polygon class="cls-7" points="440.25 355.49 399.09 396.63 375 420.73 350.89 396.62 309.76 355.49 333.86 331.39 375 372.54 375 372.52 416.14 331.38 440.25 355.49"/><line class="cls-8" x1="350.91" y1="314.35" x2="350.91" y2="314.34"/><polygon class="cls-3" points="309.76 355.49 292.72 372.53 292.72 338.44 309.76 355.49"/><polygon class="cls-4" points="375 338.44 375 372.52 374.99 372.53 333.86 331.39 350.89 314.35 350.91 314.35 375 338.44"/><polygon class="cls-2" points="416.14 331.38 375 372.52 375 338.44 399.09 314.35 416.14 331.38"/><path d="M48.26,44.36V40.54a4.44,4.44,0,0,1,4.46-4.45H93.15V63.46a4.59,4.59,0,0,1-1.65,3.61l-16.39,14v20.75a4.46,4.46,0,0,1-1.3,3.21,4.23,4.23,0,0,1-3.16,1.35,4.4,4.4,0,0,1-3.21-1.33,4.23,4.23,0,0,1-1.35-3.13V79.42a4.93,4.93,0,0,1,1.58-3.92L84.13,61.58V45H57.18c-.64,2.54-2.13,3.82-4.46,3.82a4.44,4.44,0,0,1-4.46-4.46Z"/><rect class="cls-2" x="28.76" y="119.33" width="17.98" height="12.72" transform="translate(-77.82 63.51) rotate(-45)"/><polygon class="cls-3" points="57.59 114.84 48.6 123.83 39.61 114.84 57.59 114.84"/><polygon class="cls-3" points="101 114.83 92.02 123.83 83.02 114.84 83.02 114.83 101 114.83"/><polygon class="cls-4" points="113.72 127.55 104.73 136.55 92.02 123.83 101 114.83 113.72 127.55 113.72 127.55"/><polygon class="cls-5" points="113.72 127.55 113.72 145.54 104.73 136.55 113.72 127.55"/><polygon class="cls-6" points="113.72 145.54 92.01 167.24 70.31 188.94 70.31 170.97 83.02 158.25 104.73 136.55 113.72 145.54"/><polygon class="cls-4" points="70.31 170.97 70.31 188.94 48.6 167.24 26.89 145.54 35.89 136.55 57.59 158.25 70.31 170.97"/><polygon class="cls-7" points="104.73 136.55 83.02 158.25 70.31 170.97 57.59 158.25 35.89 136.55 48.6 123.83 70.31 145.54 70.31 145.53 92.02 123.83 104.73 136.55"/><line class="cls-8" x1="57.6" y1="114.84" x2="57.6" y2="114.83"/><polygon class="cls-3" points="35.89 136.55 26.89 145.54 26.89 127.55 35.89 136.55"/><polygon class="cls-4" points="70.31 127.55 70.31 145.53 70.3 145.54 48.6 123.83 57.59 114.84 57.59 114.84 70.31 127.55"/><polygon class="cls-2" points="92.02 123.83 70.31 145.53 70.31 127.55 83.02 114.84 92.02 123.83"/><path d="M701.74,1005.73v3.82a4.44,4.44,0,0,1-4.46,4.46H656.85V986.63a4.55,4.55,0,0,1,1.65-3.6l16.39-14V948.28a4.46,4.46,0,0,1,1.3-3.21,4.24,4.24,0,0,1,3.16-1.36,4.44,4.44,0,0,1,3.21,1.33,4.26,4.26,0,0,1,1.35,3.13v22.5a5,5,0,0,1-1.58,3.93l-16.46,13.92v16.58h27q1-3.83,4.46-3.82a4.44,4.44,0,0,1,4.46,4.45Z"/><rect class="cls-2" x="703.26" y="918.04" width="17.98" height="12.72" transform="translate(-445.04 774.39) rotate(-45)"/><polygon class="cls-3" points="692.41 935.25 701.4 926.26 710.39 935.25 692.41 935.25"/><polygon class="cls-3" points="649 935.26 657.99 926.26 666.98 935.25 666.98 935.26 649 935.26"/><polygon class="cls-4" points="636.28 922.54 645.27 913.55 657.99 926.26 649 935.26 636.28 922.54 636.28 922.54"/><polygon class="cls-5" points="636.28 922.54 636.28 904.56 645.27 913.55 636.28 922.54"/><polygon class="cls-6" points="636.28 904.56 657.99 882.85 679.69 861.15 679.69 879.13 666.98 891.84 645.27 913.55 636.28 904.56"/><polygon class="cls-4" points="679.69 879.13 679.69 861.15 701.4 882.86 723.11 904.56 714.11 913.55 692.41 891.85 679.69 879.13"/><polygon class="cls-7" points="645.27 913.55 666.98 891.84 679.69 879.13 692.41 891.85 714.11 913.55 701.4 926.26 679.69 904.55 679.69 904.56 657.99 926.26 645.27 913.55"/><line class="cls-8" x1="692.4" y1="935.25" x2="692.4" y2="935.26"/><polygon class="cls-3" points="714.11 913.55 723.11 904.56 723.11 922.54 714.11 913.55"/><polygon class="cls-4" points="679.69 922.54 679.69 904.56 679.7 904.56 701.4 926.26 692.41 935.25 692.4 935.25 679.69 922.54"/><polygon class="cls-2" points="657.99 926.26 679.69 904.56 679.69 922.54 666.98 935.25 657.99 926.26"/></g></svg>