<svg xmlns="http://www.w3.org/2000/svg" viewBox="0 0 750 1050"><defs><style>.cls-1{fill:#f1f2f2;}.cls-2{fill:#ff3b43;}.cls-3{fill:#e22c34;}.cls-4{fill:#c41e25;}.cls-5{fill:#a70f15;}.cls-6{fill:#8a0006;}.cls-7{fill:#ed242b;}.cls-8{fill:none;stroke:#231f20;stroke-miterlimit:10;}</style></defs><g id="Layer_6" data-name="Layer 6"><rect class="cls-1" width="750" height="1050" rx="63.89"/></g><g id="Layer_2" data-name="Layer 2"><rect class="cls-2" x="584.25" y="843.51" width="34.07" height="24.11" transform="translate(-428.87 675.77) rotate(-45)"/><polygon class="cls-3" points="563.68 876.14 580.72 859.09 597.76 876.14 563.68 876.14"/><polygon class="cls-3" points="481.4 876.15 498.43 859.1 515.48 876.14 515.48 876.15 481.4 876.15"/><polygon class="cls-4" points="457.29 852.05 474.33 835 498.43 859.1 481.4 876.15 457.3 852.05 457.29 852.05"/><polygon class="cls-5" points="457.29 852.05 457.29 817.96 474.33 835 457.29 852.05"/><polygon class="cls-6" points="457.29 817.96 498.44 776.82 539.58 735.69 539.58 769.76 515.48 793.86 474.33 835 457.29 817.96"/><polygon class="cls-4" points="539.58 769.76 539.58 735.69 580.72 776.83 621.86 817.96 604.81 835 563.68 793.87 539.58 769.76"/><polygon class="cls-7" points="474.33 835 515.48 793.86 539.58 769.76 563.68 793.87 604.81 835 580.72 859.09 539.58 817.95 539.58 817.97 498.43 859.1 474.33 835"/><line class="cls-8" x1="563.67" y1="876.14" x2="563.67" y2="876.15"/><polygon class="cls-3" points="604.81 835 621.86 817.96 621.86 852.05 604.81 835"/><polygon class="cls-4" points="539.58 852.05 539.58 817.97 539.59 817.96 580.72 859.09 563.68 876.14 563.67 876.14 539.58 852.05"/><polygon class="cls-2" points="498.43 859.1 539.58 817.97 539.58 852.05 515.48 876.14 498.43 859.1"/><rect class="cls-2" x="255.11" y="843.51" width="34.07" height="24.11" transform="translate(-525.27 443.03) rotate(-45)"/><polygon class="cls-3" points="234.54 876.14 251.58 859.09 268.63 876.14 234.54 876.14"/><polygon class="cls-3" points="152.26 876.15 169.29 859.1 186.34 876.14 186.34 876.15 152.26 876.15"/><polygon class="cls-4" points="128.15 852.05 145.19 835 169.29 859.1 152.26 876.15 128.16 852.05 128.15 852.05"/><polygon class="cls-5" points="128.15 852.05 128.15 817.96 145.19 835 128.15 852.05"/><polygon class="cls-6" points="128.15 817.96 169.31 776.82 210.44 735.69 210.44 769.76 186.34 793.86 145.19 835 128.15 817.96"/><polygon class="cls-4" points="210.44 769.76 210.44 735.69 251.58 776.83 292.72 817.96 275.67 835 234.54 793.87 210.44 769.76"/><polygon class="cls-7" points="145.19 835 186.34 793.86 210.44 769.76 234.54 793.87 275.67 835 251.58 859.09 210.44 817.95 210.44 817.97 169.29 859.1 145.19 835"/><line class="cls-8" x1="234.53" y1="876.14" x2="234.53" y2="876.15"/><polygon class="cls-3" points="275.67 835 292.72 817.96 292.72 852.05 275.67 835"/><polygon class="cls-4" points="210.44 852.05 210.44 817.97 210.45 817.96 251.58 859.09 234.54 876.14 234.53 876.14 210.44 852.05"/><polygon class="cls-2" points="169.29 859.1 210.44 817.97 210.44 852.05 186.34 876.14 169.29 859.1"/><rect class="cls-2" x="131.69" y="182.38" width="34.07" height="24.11" transform="translate(-93.93 162.11) rotate(-45)"/><polygon class="cls-3" points="186.33 173.87 169.29 190.92 152.25 173.87 186.33 173.87"/><polygon class="cls-3" points="268.62 173.86 251.58 190.91 234.53 173.87 234.53 173.86 268.62 173.86"/><polygon class="cls-4" points="292.72 197.96 275.69 215.01 251.58 190.91 268.62 173.86 292.71 197.96 292.72 197.96"/><polygon class="cls-5" points="292.72 197.96 292.72 232.05 275.69 215.01 292.72 197.96"/><polygon class="cls-6" points="292.72 232.05 251.57 273.19 210.44 314.32 210.44 280.25 234.53 256.15 275.69 215.01 292.72 232.05"/><polygon class="cls-4" points="210.44 280.25 210.44 314.32 169.29 273.18 128.15 232.05 145.2 215.01 186.33 256.14 210.44 280.25"/><polygon class="cls-7" points="275.69 215.01 234.53 256.15 210.44 280.25 186.33 256.14 145.2 215.01 169.29 190.92 210.44 232.06 210.44 232.04 251.58 190.91 275.69 215.01"/><line class="cls-8" x1="186.34" y1="173.87" x2="186.34" y2="173.86"/><polygon class="cls-3" points="145.2 215.01 128.15 232.05 128.15 197.96 145.2 215.01"/><polygon class="cls-4" points="210.44 197.96 210.44 232.04 210.43 232.05 169.29 190.92 186.33 173.87 186.34 173.87 210.44 197.96"/><polygon class="cls-2" points="251.58 190.91 210.44 232.04 210.44 197.96 234.53 173.87 251.58 190.91"/><rect class="cls-2" x="460.82" y="182.38" width="34.07" height="24.11" transform="translate(2.47 394.85) rotate(-45)"/><polygon class="cls-3" points="515.47 173.87 498.43 190.92 481.38 173.87 515.47 173.87"/><polygon class="cls-3" points="597.75 173.86 580.72 190.91 563.67 173.87 563.67 173.86 597.75 173.86"/><polygon class="cls-4" points="621.86 197.96 604.82 215.01 580.72 190.91 597.75 173.86 621.85 197.96 621.86 197.96"/><polygon class="cls-5" points="621.86 197.96 621.86 232.05 604.82 215.01 621.86 197.96"/><polygon class="cls-6" points="621.86 232.05 580.71 273.19 539.58 314.32 539.58 280.25 563.67 256.15 604.82 215.01 621.86 232.05"/><polygon class="cls-4" points="539.58 280.25 539.58 314.32 498.43 273.18 457.29 232.05 474.34 215.01 515.47 256.14 539.58 280.25"/><polygon class="cls-7" points="604.82 215.01 563.67 256.15 539.58 280.25 515.47 256.14 474.34 215.01 498.43 190.92 539.58 232.06 539.58 232.04 580.72 190.91 604.82 215.01"/><line class="cls-8" x1="515.48" y1="173.87" x2="515.48" y2="173.86"/><polygon class="cls-3" points="474.34 215.01 457.29 232.05 457.29 197.96 474.34 215.01"/><polygon class="cls-4" points="539.58 197.96 539.58 232.04 539.56 232.05 498.43 190.92 515.47 173.87 515.48 173.87 539.58 197.96"/><polygon class="cls-2" points="580.72 190.91 539.58 232.04 539.58 197.96 563.67 173.87 580.72 190.91"/><path d="M77.6,101.88V83.31H50.76V40.39a4.61,4.61,0,0,1,4.56-4.56,4.24,4.24,0,0,1,3.13,1.35,4.44,4.44,0,0,1,1.33,3.21v33.9H77.6V48.19A4.5,4.5,0,0,1,78.9,45a4.35,4.35,0,0,1,6.32,0,4.5,4.5,0,0,1,1.3,3.21v26.1a4.46,4.46,0,1,1,0,8.91v18.68A4.25,4.25,0,0,1,85.19,105a4.45,4.45,0,0,1-7.59-3.15Z"/><rect class="cls-2" x="28.76" y="119.29" width="17.98" height="12.72" transform="translate(-77.79 63.49) rotate(-45)"/><polygon class="cls-3" points="57.59 114.79 48.6 123.79 39.61 114.79 57.59 114.79"/><polygon class="cls-3" points="101 114.79 92.02 123.78 83.02 114.79 83.02 114.79 101 114.79"/><polygon class="cls-4" points="113.72 127.5 104.73 136.5 92.02 123.78 101 114.79 113.72 127.5 113.72 127.5"/><polygon class="cls-5" points="113.72 127.5 113.72 145.49 104.73 136.5 113.72 127.5"/><polygon class="cls-6" points="113.72 145.49 92.01 167.2 70.31 188.9 70.31 170.92 83.02 158.21 104.73 136.5 113.72 145.49"/><polygon class="cls-4" points="70.31 170.92 70.31 188.9 48.6 167.19 26.89 145.49 35.89 136.5 57.59 158.2 70.31 170.92"/><polygon class="cls-7" points="104.73 136.5 83.02 158.21 70.31 170.92 57.59 158.2 35.89 136.5 48.6 123.79 70.31 145.5 70.31 145.48 92.02 123.78 104.73 136.5"/><line class="cls-8" x1="57.6" y1="114.79" x2="57.6" y2="114.79"/><polygon class="cls-3" points="35.89 136.5 26.89 145.49 26.89 127.5 35.89 136.5"/><polygon class="cls-4" points="70.31 127.5 70.31 145.48 70.3 145.49 48.6 123.79 57.59 114.79 57.59 114.79 70.31 127.5"/><polygon class="cls-2" points="92.02 123.78 70.31 145.48 70.31 127.5 83.02 114.79 92.02 123.78"/><path d="M672.4,948.12v18.57h26.84v42.92a4.61,4.61,0,0,1-4.56,4.56,4.24,4.24,0,0,1-3.13-1.35,4.44,4.44,0,0,1-1.33-3.21v-33.9H672.4v26.1a4.5,4.5,0,0,1-1.3,3.21,4.35,4.35,0,0,1-6.32,0,4.5,4.5,0,0,1-1.3-3.21v-26.1a4.46,4.46,0,1,1,0-8.91V948.12a4.25,4.25,0,0,1,1.33-3.15,4.45,4.45,0,0,1,7.59,3.15Z"/><rect class="cls-2" x="703.26" y="917.99" width="17.98" height="12.72" transform="translate(-445 774.38) rotate(-45)"/><polygon class="cls-3" points="692.41 935.21 701.4 926.21 710.39 935.21 692.41 935.21"/><polygon class="cls-3" points="649 935.21 657.99 926.22 666.98 935.21 666.98 935.21 649 935.21"/><polygon class="cls-4" points="636.28 922.5 645.27 913.5 657.99 926.22 649 935.21 636.28 922.5 636.28 922.5"/><polygon class="cls-5" points="636.28 922.5 636.28 904.51 645.27 913.5 636.28 922.5"/><polygon class="cls-6" points="636.28 904.51 657.99 882.8 679.69 861.1 679.69 879.08 666.98 891.79 645.27 913.5 636.28 904.51"/><polygon class="cls-4" points="679.69 879.08 679.69 861.1 701.4 882.81 723.11 904.51 714.11 913.5 692.41 891.8 679.69 879.08"/><polygon class="cls-7" points="645.27 913.5 666.98 891.79 679.69 879.08 692.41 891.8 714.11 913.5 701.4 926.21 679.69 904.5 679.69 904.52 657.99 926.22 645.27 913.5"/><line class="cls-8" x1="692.4" y1="935.21" x2="692.4" y2="935.21"/><polygon class="cls-3" points="714.11 913.5 723.11 904.51 723.11 922.5 714.11 913.5"/><polygon class="cls-4" points="679.69 922.5 679.69 904.52 679.7 904.51 701.4 926.21 692.41 935.21 692.4 935.21 679.69 922.5"/><polygon class="cls-2" points="657.99 926.22 679.69 904.52 679.69 922.5 666.98 935.21 657.99 926.22"/></g></svg>