<svg xmlns="http://www.w3.org/2000/svg" viewBox="0 0 750 1050"><defs><style>.cls-1{fill:#f1f2f2;}.cls-2{fill:#ff3b43;}.cls-3{fill:#e22c34;}.cls-4{fill:#c41e25;}.cls-5{fill:#a70f15;}.cls-6{fill:#8a0006;}.cls-7{fill:#ed242b;}.cls-8{fill:none;stroke:#231f20;stroke-miterlimit:10;}</style></defs><g id="Layer_6" data-name="Layer 6"><rect class="cls-1" width="750" height="1050" rx="63.89"/></g><g id="Layer_2" data-name="Layer 2"><rect class="cls-2" x="419.68" y="843.55" width="34.07" height="24.11" transform="translate(-477.09 559.4) rotate(-45)"/><polygon class="cls-3" points="399.11 876.18 416.14 859.13 433.19 876.18 399.11 876.18"/><polygon class="cls-3" points="316.82 876.19 333.86 859.14 350.91 876.18 350.91 876.19 316.82 876.19"/><polygon class="cls-4" points="292.72 852.08 309.75 835.03 333.86 859.14 316.82 876.19 292.73 852.08 292.72 852.08"/><polygon class="cls-5" points="292.72 852.08 292.72 818 309.75 835.03 292.72 852.08"/><polygon class="cls-6" points="292.72 818 333.87 776.85 375 735.72 375 769.8 350.91 793.89 309.75 835.03 292.72 818"/><polygon class="cls-4" points="375 769.8 375 735.72 416.14 776.87 457.28 818 440.24 835.03 399.11 793.9 375 769.8"/><polygon class="cls-7" points="309.75 835.03 350.91 793.89 375 769.8 399.11 793.9 440.24 835.03 416.14 859.13 375 817.99 375 818.01 333.86 859.14 309.75 835.03"/><line class="cls-8" x1="399.09" y1="876.18" x2="399.09" y2="876.19"/><polygon class="cls-3" points="440.24 835.03 457.28 818 457.28 852.08 440.24 835.03"/><polygon class="cls-4" points="375 852.08 375 818.01 375.01 818 416.14 859.13 399.11 876.18 399.09 876.18 375 852.08"/><polygon class="cls-2" points="333.86 859.14 375 818.01 375 852.08 350.91 876.18 333.86 859.14"/><rect class="cls-2" x="296.25" y="182.42" width="34.07" height="24.11" transform="translate(-45.76 278.49) rotate(-45)"/><polygon class="cls-3" points="350.89 173.9 333.86 190.95 316.81 173.9 350.89 173.9"/><polygon class="cls-3" points="433.18 173.89 416.14 190.94 399.09 173.9 399.09 173.89 433.18 173.89"/><polygon class="cls-4" points="457.28 198 440.25 215.05 416.14 190.94 433.18 173.89 457.27 198 457.28 198"/><polygon class="cls-5" points="457.28 198 457.28 232.08 440.25 215.05 457.28 198"/><polygon class="cls-6" points="457.28 232.08 416.13 273.23 375 314.36 375 280.28 399.09 256.19 440.25 215.05 457.28 232.08"/><polygon class="cls-4" points="375 280.28 375 314.36 333.86 273.21 292.72 232.08 309.76 215.05 350.89 256.18 375 280.28"/><polygon class="cls-7" points="440.25 215.05 399.09 256.19 375 280.28 350.89 256.18 309.76 215.05 333.86 190.95 375 232.09 375 232.07 416.14 190.94 440.25 215.05"/><line class="cls-8" x1="350.91" y1="173.9" x2="350.91" y2="173.89"/><polygon class="cls-3" points="309.76 215.05 292.72 232.08 292.72 198 309.76 215.05"/><polygon class="cls-4" points="375 198 375 232.07 374.99 232.08 333.86 190.95 350.89 173.9 350.91 173.9 375 198"/><polygon class="cls-2" points="416.14 190.94 375 232.07 375 198 399.09 173.9 416.14 190.94"/><path d="M88.9,106.37H48.37V75.6A8.74,8.74,0,0,1,51,69.23a8.51,8.51,0,0,1,6.28-2.65H84.34V44.88H52.51a4.23,4.23,0,0,1-3.18-1.3,4.53,4.53,0,0,1,0-6.31A4.23,4.23,0,0,1,52.51,36H84.34a8.73,8.73,0,0,1,6.37,2.62,8.59,8.59,0,0,1,2.65,6.29v21.7a9,9,0,0,1-9,9H57.28V97.46H88.9A4.31,4.31,0,0,1,92,98.76a4.41,4.41,0,0,1,0,6.31A4.31,4.31,0,0,1,88.9,106.37Z"/><rect class="cls-2" x="28.76" y="119.32" width="17.98" height="12.72" transform="translate(-77.82 63.5) rotate(-45)"/><polygon class="cls-3" points="57.59 114.83 48.6 123.82 39.61 114.83 57.59 114.83"/><polygon class="cls-3" points="101 114.82 92.02 123.82 83.02 114.83 83.02 114.82 101 114.82"/><polygon class="cls-4" points="113.72 127.54 104.73 136.54 92.02 123.82 101 114.82 113.72 127.54 113.72 127.54"/><polygon class="cls-5" points="113.72 127.54 113.72 145.53 104.73 136.54 113.72 127.54"/><polygon class="cls-6" points="113.72 145.53 92.01 167.23 70.31 188.93 70.31 170.96 83.02 158.24 104.73 136.54 113.72 145.53"/><polygon class="cls-4" points="70.31 170.96 70.31 188.93 48.6 167.23 26.89 145.53 35.89 136.54 57.59 158.24 70.31 170.96"/><polygon class="cls-7" points="104.73 136.54 83.02 158.24 70.31 170.96 57.59 158.24 35.89 136.54 48.6 123.82 70.31 145.53 70.31 145.52 92.02 123.82 104.73 136.54"/><line class="cls-8" x1="57.6" y1="114.83" x2="57.6" y2="114.82"/><polygon class="cls-3" points="35.89 136.54 26.89 145.53 26.89 127.54 35.89 136.54"/><polygon class="cls-4" points="70.31 127.54 70.31 145.52 70.3 145.53 48.6 123.82 57.59 114.83 57.59 114.83 70.31 127.54"/><polygon class="cls-2" points="92.02 123.82 70.31 145.52 70.31 127.54 83.02 114.83 92.02 123.82"/><path d="M661.1,943.7h40.53v30.77a8.74,8.74,0,0,1-2.63,6.37,8.51,8.51,0,0,1-6.28,2.65H665.66v21.7h31.83a4.23,4.23,0,0,1,3.18,1.3,4.53,4.53,0,0,1,0,6.31,4.23,4.23,0,0,1-3.18,1.3H665.66a8.73,8.73,0,0,1-6.37-2.62,8.57,8.57,0,0,1-2.65-6.29v-21.7a9,9,0,0,1,9-9h27.06V952.62H661.1a4.33,4.33,0,0,1-3.13-1.3,4.42,4.42,0,0,1,0-6.32A4.33,4.33,0,0,1,661.1,943.7Z"/><rect class="cls-2" x="703.26" y="918.03" width="17.98" height="12.72" transform="translate(-445.03 774.39) rotate(-45)"/><polygon class="cls-3" points="692.41 935.24 701.4 926.25 710.39 935.24 692.41 935.24"/><polygon class="cls-3" points="649 935.25 657.99 926.25 666.98 935.24 666.98 935.25 649 935.25"/><polygon class="cls-4" points="636.28 922.53 645.27 913.54 657.99 926.25 649 935.25 636.28 922.53 636.28 922.53"/><polygon class="cls-5" points="636.28 922.53 636.28 904.55 645.27 913.54 636.28 922.53"/><polygon class="cls-6" points="636.28 904.55 657.99 882.84 679.69 861.14 679.69 879.12 666.98 891.83 645.27 913.54 636.28 904.55"/><polygon class="cls-4" points="679.69 879.12 679.69 861.14 701.4 882.85 723.11 904.55 714.11 913.54 692.41 891.84 679.69 879.12"/><polygon class="cls-7" points="645.27 913.54 666.98 891.83 679.69 879.12 692.41 891.84 714.11 913.54 701.4 926.25 679.69 904.54 679.69 904.55 657.99 926.25 645.27 913.54"/><line class="cls-8" x1="692.4" y1="935.24" x2="692.4" y2="935.25"/><polygon class="cls-3" points="714.11 913.54 723.11 904.55 723.11 922.53 714.11 913.54"/><polygon class="cls-4" points="679.69 922.53 679.69 904.55 679.7 904.55 701.4 926.25 692.41 935.24 692.4 935.24 679.69 922.53"/><polygon class="cls-2" points="657.99 926.25 679.69 904.55 679.69 922.53 666.98 935.24 657.99 926.25"/></g></svg>