<svg xmlns="http://www.w3.org/2000/svg" viewBox="0 0 750 1050"><defs><style>.cls-1{fill:#f1f2f2;}.cls-2{fill:#8a0006;}</style></defs><g id="Layer_6" data-name="Layer 6"><rect class="cls-1" width="750" height="1050" rx="63.89"/></g><g id="Layer_9" data-name="Layer 9"><path class="cls-2" d="M655.89,44.56a46.94,46.94,0,0,1,46.89,46.88V958.56a46.94,46.94,0,0,1-46.89,46.88H94.11a46.94,46.94,0,0,1-46.89-46.88V91.44A46.94,46.94,0,0,1,94.11,44.56H655.89m0-17H94.11A63.89,63.89,0,0,0,30.22,91.44V958.56a63.89,63.89,0,0,0,63.89,63.88H655.89a63.89,63.89,0,0,0,63.89-63.88V91.44a63.89,63.89,0,0,0-63.89-63.88Z"/><polygon class="cls-2" points="605.29 53.56 596.2 62.65 587.11 53.56 605.29 53.56"/><rect class="cls-2" x="582.19" y="68.44" width="28.07" height="28.07" transform="translate(232.95 -397.44) rotate(45)"/><path class="cls-2" d="M693.63,91.59v21.17L670,136.39l0,0L616.05,82.49l0,0L645,53.56h10.6A38,38,0,0,1,693.63,91.59Z"/><rect class="cls-2" x="655.97" y="142.2" width="28.07" height="28.07" transform="translate(306.71 -428) rotate(45)"/><polygon class="cls-2" points="693.63 152.45 693.63 160.09 689.81 156.27 689.85 156.23 693.63 152.45"/><polygon class="cls-2" points="457.75 53.56 448.69 62.62 439.63 53.56 457.75 53.56"/><rect class="cls-2" x="434.68" y="68.41" width="28.07" height="28.07" transform="translate(189.72 -293.14) rotate(45)"/><polygon class="cls-2" points="576.37 82.48 522.45 136.4 468.52 82.48 468.56 82.45 522.45 28.56 576.37 82.48"/><rect class="cls-2" x="508.44" y="142.19" width="28.07" height="28.07" transform="translate(263.5 -323.68) rotate(45)"/><rect class="cls-2" x="558.09" y="118.12" width="76.26" height="76.26" transform="translate(285.11 -375.83) rotate(45)"/><rect class="cls-2" x="582.21" y="215.96" width="28.07" height="28.07" transform="translate(337.26 -354.25) rotate(45)"/><polygon class="cls-2" points="693.63 199.75 693.63 260.3 670 283.92 669.98 283.95 616.06 230.03 616.05 230.02 616.09 229.99 669.98 176.1 693.63 199.75"/><rect class="cls-2" x="655.97" y="289.74" width="28.07" height="28.07" transform="translate(411.04 -384.79) rotate(45)"/><polygon class="cls-2" points="693.63 299.98 693.63 307.58 689.84 303.78 689.85 303.77 693.63 299.98"/><polygon class="cls-2" points="310.22 53.56 301.19 62.6 301.16 62.62 292.1 53.56 310.22 53.56"/><rect class="cls-2" x="287.15" y="68.41" width="28.07" height="28.07" transform="translate(146.51 -188.82) rotate(45)"/><polygon class="cls-2" points="428.86 82.45 374.94 136.37 321.02 82.45 321.03 82.44 349.91 53.56 374.94 28.53 399.97 53.56 428.86 82.45"/><rect class="cls-2" x="360.93" y="142.16" width="28.07" height="28.07" transform="translate(220.27 -219.39) rotate(45)"/><rect class="cls-2" x="410.57" y="118.1" width="76.26" height="76.26" transform="translate(241.89 -271.52) rotate(45)"/><rect class="cls-2" x="434.68" y="215.94" width="28.07" height="28.07" transform="translate(294.04 -249.93) rotate(45)"/><rect class="cls-2" x="484.34" y="191.87" width="76.26" height="76.26" transform="translate(315.66 -302.08) rotate(45)"/><rect class="cls-2" x="508.46" y="289.71" width="28.07" height="28.07" transform="translate(367.81 -280.49) rotate(45)"/><rect class="cls-2" x="558.1" y="265.65" width="76.26" height="76.26" transform="translate(389.43 -332.62) rotate(45)"/><rect class="cls-2" x="582.22" y="363.49" width="28.07" height="28.07" transform="translate(441.58 -311.04) rotate(45)"/><polygon class="cls-2" points="693.63 347.23 670.01 323.61 670 323.62 616.09 377.52 616.08 377.53 670.01 431.45 670.03 431.43 693.63 407.83 693.63 347.23"/><rect class="cls-2" x="656" y="437.24" width="28.07" height="28.07" transform="translate(515.35 -341.61) rotate(45)"/><polygon class="cls-2" points="693.63 447.52 693.63 455.1 689.84 451.31 689.88 451.28 693.63 447.52"/><polygon class="cls-2" points="162.68 53.56 153.69 62.55 153.66 62.58 144.64 53.56 162.68 53.56"/><rect class="cls-2" x="139.65" y="68.37" width="28.07" height="28.07" transform="translate(103.28 -84.54) rotate(45)"/><polygon class="cls-2" points="281.34 82.43 281.33 82.44 227.44 136.33 227.42 136.36 173.5 82.43 202.37 53.56 252.47 53.56 281.34 82.43"/><rect class="cls-2" x="213.41" y="142.15" width="28.07" height="28.07" transform="translate(177.05 -115.08) rotate(45)"/><rect class="cls-2" x="263.07" y="118.06" width="76.26" height="76.26" transform="translate(198.66 -167.23) rotate(45)"/><rect class="cls-2" x="287.19" y="215.9" width="28.07" height="28.07" transform="translate(250.82 -145.65) rotate(45)"/><rect class="cls-2" x="336.83" y="191.84" width="76.26" height="76.26" transform="translate(272.44 -197.78) rotate(45)"/><rect class="cls-2" x="360.95" y="289.68" width="28.07" height="28.07" transform="translate(324.59 -176.19) rotate(45)"/><rect class="cls-2" x="410.6" y="265.61" width="76.26" height="76.26" transform="translate(346.2 -228.34) rotate(45)"/><rect class="cls-2" x="434.72" y="363.45" width="28.07" height="28.07" transform="translate(398.35 -206.76) rotate(45)"/><rect class="cls-2" x="484.36" y="339.39" width="76.26" height="76.26" transform="translate(419.98 -258.88) rotate(45)"/><rect class="cls-2" x="508.48" y="437.23" width="28.07" height="28.07" transform="translate(472.13 -237.3) rotate(45)"/><rect class="cls-2" x="558.14" y="413.14" width="76.26" height="76.26" transform="translate(493.74 -289.45) rotate(45)"/><rect class="cls-2" x="582.26" y="510.98" width="28.07" height="28.07" transform="translate(545.89 -267.87) rotate(45)"/><polygon class="cls-2" points="693.63 494.74 693.63 555.36 670.05 578.95 670.02 578.97 616.1 525.05 616.14 525.02 670.02 471.13 693.63 494.74"/><rect class="cls-2" x="656.01" y="584.76" width="28.07" height="28.07" transform="translate(619.66 -298.41) rotate(45)"/><path class="cls-2" d="M133.83,82.41,79.91,136.33,56.37,112.79V91.59a38,38,0,0,1,38-38H105Z"/><rect class="cls-2" x="65.9" y="142.12" width="28.07" height="28.07" transform="translate(133.83 -10.78) rotate(45)"/><rect class="cls-2" x="115.53" y="118.06" width="76.26" height="76.26" transform="translate(155.45 -62.91) rotate(45)"/><rect class="cls-2" x="139.65" y="215.9" width="28.07" height="28.07" transform="translate(207.6 -41.33) rotate(45)"/><rect class="cls-2" x="189.31" y="191.82" width="76.26" height="76.26" transform="translate(229.21 -93.48) rotate(45)"/><rect class="cls-2" x="213.43" y="289.66" width="28.07" height="28.07" transform="translate(281.37 -71.89) rotate(45)"/><rect class="cls-2" x="263.07" y="265.6" width="76.26" height="76.26" transform="translate(302.99 -124.02) rotate(45)"/><rect class="cls-2" x="287.19" y="363.44" width="28.07" height="28.07" transform="translate(355.14 -102.44) rotate(45)"/><rect class="cls-2" x="336.84" y="339.36" width="76.26" height="76.26" transform="translate(376.75 -154.58) rotate(45)"/><rect class="cls-2" x="360.96" y="437.2" width="28.07" height="28.07" transform="translate(428.91 -133) rotate(45)"/><rect class="cls-2" x="410.6" y="413.14" width="76.26" height="76.26" transform="translate(450.53 -185.13) rotate(45)"/><rect class="cls-2" x="434.72" y="510.98" width="28.07" height="28.07" transform="translate(502.68 -163.54) rotate(45)"/><rect class="cls-2" x="484.38" y="486.9" width="76.26" height="76.26" transform="translate(524.29 -215.69) rotate(45)"/><rect class="cls-2" x="508.5" y="584.74" width="28.07" height="28.07" transform="translate(576.44 -194.11) rotate(45)"/><rect class="cls-2" x="558.14" y="560.68" width="76.26" height="76.26" transform="translate(598.06 -246.24) rotate(45)"/><rect class="cls-2" x="582.26" y="658.52" width="28.07" height="28.07" transform="translate(650.22 -224.65) rotate(45)"/><polygon class="cls-2" points="60.08 156.16 56.37 159.87 56.37 152.45 60.08 156.16"/><polygon class="cls-2" points="133.83 229.94 79.93 283.84 79.91 283.86 56.37 260.32 56.37 199.56 79.91 176.02 133.83 229.94"/><rect class="cls-2" x="65.9" y="289.65" width="28.07" height="28.07" transform="translate(238.15 32.43) rotate(45)"/><rect class="cls-2" x="115.56" y="265.57" width="76.26" height="76.26" transform="translate(259.76 -19.72) rotate(45)"/><rect class="cls-2" x="139.68" y="363.41" width="28.07" height="28.07" transform="translate(311.91 1.86) rotate(45)"/><rect class="cls-2" x="189.32" y="339.35" width="76.26" height="76.26" transform="translate(333.54 -50.27) rotate(45)"/><rect class="cls-2" x="213.44" y="437.19" width="28.07" height="28.07" transform="translate(385.69 -28.69) rotate(45)"/><rect class="cls-2" x="263.09" y="413.11" width="76.26" height="76.26" transform="translate(407.3 -80.83) rotate(45)"/><rect class="cls-2" x="287.21" y="510.95" width="28.07" height="28.07" transform="translate(459.45 -59.25) rotate(45)"/><rect class="cls-2" x="336.85" y="486.89" width="76.26" height="76.26" transform="translate(481.07 -111.37) rotate(45)"/><rect class="cls-2" x="360.97" y="584.73" width="28.07" height="28.07" transform="translate(533.23 -89.79) rotate(45)"/><rect class="cls-2" x="410.63" y="560.65" width="76.26" height="76.26" transform="translate(554.84 -141.94) rotate(45)"/><rect class="cls-2" x="434.75" y="658.49" width="28.07" height="28.07" transform="translate(606.99 -120.36) rotate(45)"/><rect class="cls-2" x="484.39" y="634.43" width="76.26" height="76.26" transform="translate(628.61 -172.49) rotate(45)"/><rect class="cls-2" x="508.51" y="732.27" width="28.07" height="28.07" transform="translate(680.76 -150.9) rotate(45)"/><polygon class="cls-2" points="60.09 303.68 60.09 303.69 56.37 307.4 56.37 299.96 60.09 303.68"/><polygon class="cls-2" points="133.87 377.44 79.98 431.34 79.95 431.36 56.37 407.78 56.37 347.1 79.95 323.52 133.87 377.44"/><rect class="cls-2" x="65.94" y="437.15" width="28.07" height="28.07" transform="translate(342.46 75.6) rotate(45)"/><rect class="cls-2" x="115.58" y="413.09" width="76.26" height="76.26" transform="translate(364.08 23.47) rotate(45)"/><rect class="cls-2" x="139.7" y="510.93" width="28.07" height="28.07" transform="translate(416.23 45.05) rotate(45)"/><rect class="cls-2" x="189.35" y="486.85" width="76.26" height="76.26" transform="translate(437.85 -7.09) rotate(45)"/><rect class="cls-2" x="213.47" y="584.69" width="28.07" height="28.07" transform="translate(490 14.49) rotate(45)"/><rect class="cls-2" x="263.11" y="560.63" width="76.26" height="76.26" transform="translate(511.62 -37.64) rotate(45)"/><rect class="cls-2" x="287.23" y="658.47" width="28.07" height="28.07" transform="translate(563.77 -16.05) rotate(45)"/><rect class="cls-2" x="336.89" y="634.39" width="76.26" height="76.26" transform="translate(585.38 -68.2) rotate(45)"/><rect class="cls-2" x="361.01" y="732.23" width="28.07" height="28.07" transform="translate(637.53 -46.62) rotate(45)"/><rect class="cls-2" x="410.65" y="708.17" width="76.26" height="76.26" transform="translate(659.16 -98.75) rotate(45)"/><rect class="cls-2" x="434.77" y="806.01" width="28.07" height="28.07" transform="translate(711.31 -77.16) rotate(45)"/><polygon class="cls-2" points="60.11 451.21 56.37 454.95 56.37 447.47 60.11 451.21"/><polygon class="cls-2" points="133.86 524.99 79.97 578.89 79.94 578.91 56.37 555.34 56.37 494.63 79.94 471.06 133.86 524.99"/><rect class="cls-2" x="65.93" y="584.7" width="28.07" height="28.07" transform="translate(446.79 118.82) rotate(45)"/><rect class="cls-2" x="115.59" y="560.62" width="76.26" height="76.26" transform="translate(468.4 66.68) rotate(45)"/><rect class="cls-2" x="139.7" y="658.46" width="28.07" height="28.07" transform="translate(520.55 88.26) rotate(45)"/><rect class="cls-2" x="189.34" y="634.4" width="76.26" height="76.26" transform="translate(542.17 36.13) rotate(45)"/><rect class="cls-2" x="213.46" y="732.24" width="28.07" height="28.07" transform="translate(594.33 57.72) rotate(45)"/><rect class="cls-2" x="263.12" y="708.16" width="76.26" height="76.26" transform="translate(615.94 5.56) rotate(45)"/><rect class="cls-2" x="287.24" y="806" width="28.07" height="28.07" transform="translate(668.09 27.15) rotate(45)"/><rect class="cls-2" x="336.88" y="781.94" width="76.26" height="76.26" transform="translate(689.71 -24.98) rotate(45)"/><rect class="cls-2" x="361" y="879.78" width="28.07" height="28.07" transform="translate(741.86 -3.4) rotate(45)"/><polygon class="cls-2" points="60.11 598.74 56.37 602.48 56.37 595 60.11 598.74"/><polygon class="cls-2" points="133.88 672.51 79.99 726.41 79.96 726.43 56.37 702.84 56.37 642.17 79.96 618.58 133.88 672.51"/><rect class="cls-2" x="65.95" y="732.22" width="28.07" height="28.07" transform="translate(551.1 162.02) rotate(45)"/><rect class="cls-2" x="115.59" y="708.16" width="76.26" height="76.26" transform="translate(572.73 109.89) rotate(45)"/><rect class="cls-2" x="139.7" y="806" width="28.07" height="28.07" transform="translate(624.88 131.47) rotate(45)"/><rect class="cls-2" x="189.37" y="781.91" width="76.26" height="76.26" transform="translate(646.49 79.32) rotate(45)"/><rect class="cls-2" x="213.48" y="879.75" width="28.07" height="28.07" transform="translate(698.64 100.9) rotate(45)"/><rect class="cls-2" x="263.12" y="855.69" width="76.26" height="76.26" transform="translate(720.26 48.78) rotate(45)"/><rect class="cls-2" x="287.24" y="953.53" width="28.07" height="28.07" transform="translate(772.41 70.36) rotate(45)"/><polygon class="cls-2" points="60.13 746.26 56.37 750.02 56.37 742.5 60.13 746.26"/><polygon class="cls-2" points="133.89 820.04 79.99 873.93 79.96 873.96 56.37 850.37 56.37 789.7 79.96 766.11 133.89 820.04"/><rect class="cls-2" x="65.95" y="879.75" width="28.07" height="28.07" transform="translate(655.43 205.22) rotate(45)"/><rect class="cls-2" x="115.62" y="855.66" width="76.26" height="76.26" transform="translate(677.04 153.07) rotate(45)"/><rect class="cls-2" x="139.73" y="953.5" width="28.07" height="28.07" transform="translate(729.19 174.66) rotate(45)"/><polygon class="cls-2" points="281.42 967.57 252.55 996.44 202.45 996.44 173.58 967.57 173.61 967.54 227.5 913.65 281.42 967.57"/><polygon class="cls-2" points="60.14 893.78 56.37 897.56 56.37 890 60.14 893.78"/><path class="cls-2" d="M133.93,967.53h0L105,996.44H94.41a38,38,0,0,1-38-38V937.25L80,913.61Z"/><polygon class="cls-2" points="162.81 996.44 144.71 996.44 153.76 987.39 162.81 996.44"/><polygon class="cls-2" points="693.63 595.06 693.63 602.58 689.87 598.82 693.63 595.06"/><polygon class="cls-2" points="693.63 642.25 693.63 702.9 670.06 726.47 670.03 726.5 616.11 672.58 616.14 672.55 670.03 618.65 693.63 642.25"/><rect class="cls-2" x="656.02" y="732.29" width="28.07" height="28.07" transform="translate(723.98 -255.21) rotate(45)"/><polygon class="cls-2" points="689.9 746.32 693.63 742.6 693.63 750.12 689.87 746.36 689.9 746.32"/><polygon class="cls-2" points="743.82 800.26 743.79 800.28 743.81 800.25 743.82 800.26"/><rect class="cls-2" x="558.16" y="708.2" width="76.26" height="76.26" transform="translate(702.38 -203.04) rotate(45)"/><rect class="cls-2" x="582.27" y="806.04" width="28.07" height="28.07" transform="translate(754.53 -181.46) rotate(45)"/><polygon class="cls-2" points="693.63 789.77 693.63 850.44 670.07 874.01 670.04 874.03 616.12 820.11 616.15 820.07 670.04 766.18 693.63 789.77"/><rect class="cls-2" x="656.03" y="879.82" width="28.07" height="28.07" transform="translate(828.31 -212) rotate(45)"/><polygon class="cls-2" points="693.63 890.13 693.63 897.59 689.9 893.86 689.91 893.85 693.63 890.13"/><rect class="cls-2" x="484.42" y="781.94" width="76.26" height="76.26" transform="translate(732.92 -129.3) rotate(45)"/><rect class="cls-2" x="508.53" y="879.78" width="28.07" height="28.07" transform="translate(785.08 -107.72) rotate(45)"/><rect class="cls-2" x="558.17" y="855.72" width="76.26" height="76.26" transform="translate(806.7 -159.85) rotate(45)"/><rect class="cls-2" x="582.29" y="953.56" width="28.07" height="28.07" transform="translate(858.85 -138.26) rotate(45)"/><path class="cls-2" d="M693.63,937.23v21.18a38,38,0,0,1-38,38H645L616.16,967.6h0l53.89-53.89,0,0Z"/><rect class="cls-2" x="410.65" y="855.7" width="76.26" height="76.26" transform="translate(763.48 -55.54) rotate(45)"/><rect class="cls-2" x="434.77" y="953.54" width="28.07" height="28.07" transform="translate(815.63 -33.95) rotate(45)"/><polygon class="cls-2" points="576.46 967.61 547.63 996.44 497.43 996.44 468.61 967.61 468.65 967.58 522.53 913.69 576.46 967.61"/><polygon class="cls-2" points="605.3 996.44 587.32 996.44 596.31 987.45 605.3 996.44"/><polygon class="cls-2" points="428.94 967.59 400.09 996.44 349.95 996.44 321.1 967.59 321.12 967.57 375.02 913.67 428.94 967.59"/><polygon class="cls-2" points="457.77 996.44 439.79 996.44 448.78 987.45 457.77 996.44"/><polygon class="cls-2" points="310.29 996.44 292.25 996.44 301.27 987.42 310.29 996.44"/></g></svg>