<svg xmlns="http://www.w3.org/2000/svg" viewBox="0 0 750 1050"><defs><style>.cls-1{fill:#fff5e6;}.cls-2{fill:#ffc766;}.cls-3{fill:#ff9f33;}.cls-4{fill:#ffb34d;}.cls-5{fill:#ff8b1a;}.cls-6{fill:#f70;}.cls-7{fill:#ffab19;}</style></defs><g id="Layer_8" data-name="Layer 8"><rect class="cls-1" width="750" height="1050" rx="63.89"/></g><g id="Layer_4" data-name="Layer 4"><path d="M19.61,97.42H33.3V44.84H19.83a4.46,4.46,0,1,1,0-8.91H42.21V97.42h8.92V78.85a4.31,4.31,0,0,1,1.3-3.13,4.26,4.26,0,0,1,3.15-1.33A4.44,4.44,0,0,1,60,78.85v23a4.44,4.44,0,0,1-4.46,4.45h-36A4.21,4.21,0,0,1,16.46,105a4.46,4.46,0,0,1-1.3-3.21,4.15,4.15,0,0,1,1.3-3.08A4.32,4.32,0,0,1,19.61,97.42Z"/><path d="M80.89,97.74V44.42a8.71,8.71,0,0,1,8.6-8.6h27.8a8.11,8.11,0,0,1,6,2.55,8.3,8.3,0,0,1,2.52,6.05V97.74a8.6,8.6,0,0,1-8.59,8.59H89.49a8.55,8.55,0,0,1-8.6-8.59ZM117,97.42V44.84H89.8V97.42Z"/><path d="M730.39,952.58H716.7v52.58h13.47a4.46,4.46,0,1,1,0,8.91H707.79V952.58h-8.92v18.57a4.32,4.32,0,0,1-1.3,3.13,4.26,4.26,0,0,1-3.15,1.33,4.44,4.44,0,0,1-4.46-4.46v-23a4.44,4.44,0,0,1,4.46-4.45h36a4.21,4.21,0,0,1,3.15,1.35,4.46,4.46,0,0,1,1.3,3.21,4.15,4.15,0,0,1-1.3,3.08A4.32,4.32,0,0,1,730.39,952.58Z"/><path d="M669.11,952.26v53.32a8.71,8.71,0,0,1-8.6,8.6h-27.8a8.11,8.11,0,0,1-6-2.55,8.3,8.3,0,0,1-2.52-6V952.26a8.6,8.6,0,0,1,8.59-8.59h27.69a8.55,8.55,0,0,1,8.6,8.59Zm-36.08.32v52.58H660.2V952.58Z"/><polygon class="cls-2" points="191.93 285.47 191.93 328.01 171.55 328.01 191.92 285.48 191.93 285.47"/><polygon class="cls-3" points="212.32 328.01 191.93 328.01 191.93 285.47 191.94 285.48 212.32 328.01"/><rect class="cls-4" x="144.1" y="237.64" width="31.88" height="15.95"/><polygon class="cls-2" points="144.1 237.63 144.1 253.59 128.15 253.59 144.1 237.63"/><rect class="cls-4" x="128.15" y="253.59" width="15.95" height="31.88"/><polygon class="cls-3" points="144.1 285.47 144.1 301.41 128.15 285.47 144.1 285.47"/><rect class="cls-5" x="144.1" y="285.47" width="31.88" height="15.94"/><polygon class="cls-6" points="191.93 285.47 175.99 301.41 175.99 285.47 191.93 285.47"/><rect class="cls-7" x="144.1" y="253.59" width="95.65" height="31.88"/><polygon class="cls-4" points="191.93 253.59 175.99 253.59 175.99 237.63 191.93 253.59"/><polygon class="cls-3" points="175.99 221.69 175.99 237.63 160.04 221.69 175.99 221.69"/><polygon class="cls-6" points="223.81 221.69 207.87 237.63 207.87 221.69 223.81 221.69"/><rect class="cls-5" x="207.87" y="189.81" width="15.94" height="31.88"/><rect class="cls-4" x="160.04" y="189.81" width="15.94" height="31.88"/><polygon class="cls-2" points="175.99 173.87 175.99 189.81 160.04 189.81 175.99 173.87"/><rect class="cls-4" x="175.99" y="173.87" width="31.88" height="15.94"/><polygon class="cls-3" points="223.81 189.81 207.87 189.81 207.87 173.87 223.81 189.81"/><rect class="cls-4" x="207.87" y="237.64" width="31.88" height="15.95"/><polygon class="cls-3" points="255.71 253.59 239.75 253.59 239.75 237.63 255.71 253.59"/><rect class="cls-5" x="239.75" y="253.59" width="15.95" height="31.88"/><polygon class="cls-6" points="255.71 285.47 239.75 301.41 239.75 285.47 255.71 285.47"/><rect class="cls-5" x="207.87" y="285.47" width="31.88" height="15.94"/><polygon class="cls-3" points="207.87 285.47 207.87 301.41 191.93 285.47 207.87 285.47"/><polygon class="cls-5" points="207.87 221.69 207.87 237.63 191.93 221.69 207.87 221.69"/><polygon class="cls-5" points="191.93 221.69 175.99 237.63 175.99 221.69 191.93 221.69"/><rect class="cls-7" x="175.99" y="189.81" width="31.88" height="31.88"/><polygon class="cls-4" points="191.93 221.69 191.93 253.59 175.99 237.63 191.93 221.69"/><polygon class="cls-4" points="207.87 237.63 207.87 253.59 191.93 253.59 207.87 237.63"/><polygon class="cls-5" points="207.87 237.63 191.93 253.59 191.93 221.69 207.87 237.63"/><polygon class="cls-2" points="558.07 581.6 558.07 539.06 578.45 539.06 558.08 581.59 558.07 581.6"/><polygon class="cls-3" points="537.68 539.06 558.07 539.06 558.07 581.6 558.06 581.59 537.68 539.06"/><rect class="cls-4" x="574.01" y="613.48" width="31.88" height="15.95"/><polygon class="cls-2" points="605.9 629.44 605.9 613.48 621.85 613.48 605.9 629.44"/><rect class="cls-4" x="605.9" y="581.6" width="15.95" height="31.88"/><polygon class="cls-3" points="605.9 581.6 605.9 565.66 621.85 581.6 605.9 581.6"/><rect class="cls-5" x="574.01" y="565.66" width="31.88" height="15.94"/><polygon class="cls-6" points="558.07 581.6 574.01 565.66 574.01 581.6 558.07 581.6"/><rect class="cls-7" x="510.25" y="581.6" width="95.65" height="31.88"/><polygon class="cls-4" points="558.07 613.48 574.01 613.48 574.01 629.44 558.07 613.48"/><polygon class="cls-3" points="574.01 645.38 574.01 629.44 589.96 645.38 574.01 645.38"/><polygon class="cls-6" points="526.19 645.38 542.13 629.44 542.13 645.38 526.19 645.38"/><rect class="cls-5" x="526.19" y="645.38" width="15.94" height="31.88"/><rect class="cls-4" x="574.01" y="645.38" width="15.94" height="31.88"/><polygon class="cls-2" points="574.01 693.2 574.01 677.26 589.96 677.26 574.01 693.2"/><rect class="cls-4" x="542.13" y="677.26" width="31.88" height="15.94"/><polygon class="cls-3" points="526.19 677.26 542.13 677.26 542.13 693.2 526.19 677.26"/><rect class="cls-4" x="510.25" y="613.48" width="31.88" height="15.95"/><polygon class="cls-3" points="494.3 613.48 510.25 613.48 510.25 629.44 494.3 613.48"/><rect class="cls-5" x="494.29" y="581.6" width="15.95" height="31.88"/><polygon class="cls-6" points="494.3 581.6 510.25 565.66 510.25 581.6 494.3 581.6"/><rect class="cls-5" x="510.25" y="565.66" width="31.88" height="15.94"/><polygon class="cls-3" points="542.13 581.6 542.13 565.66 558.07 581.6 542.13 581.6"/><polygon class="cls-5" points="542.13 645.38 542.13 629.44 558.07 645.38 542.13 645.38"/><polygon class="cls-5" points="558.07 645.38 574.01 629.44 574.01 645.38 558.07 645.38"/><rect class="cls-7" x="542.13" y="645.38" width="31.88" height="31.88"/><polygon class="cls-4" points="558.07 645.38 558.07 613.48 574.01 629.44 558.07 645.38"/><polygon class="cls-4" points="542.13 629.44 542.13 613.48 558.07 613.48 542.13 629.44"/><polygon class="cls-5" points="542.13 629.44 558.07 613.48 558.07 645.38 542.13 629.44"/><polygon class="cls-2" points="558.07 764.31 558.07 721.76 578.45 721.76 558.08 764.3 558.07 764.31"/><polygon class="cls-3" points="537.68 721.76 558.07 721.76 558.07 764.31 558.06 764.3 537.68 721.76"/><rect class="cls-4" x="574.01" y="796.19" width="31.88" height="15.95"/><polygon class="cls-2" points="605.9 812.14 605.9 796.19 621.85 796.19 605.9 812.14"/><rect class="cls-4" x="605.9" y="764.3" width="15.95" height="31.88"/><polygon class="cls-3" points="605.9 764.3 605.9 748.36 621.85 764.3 605.9 764.3"/><rect class="cls-5" x="574.01" y="748.36" width="31.88" height="15.94"/><polygon class="cls-6" points="558.07 764.3 574.01 748.36 574.01 764.3 558.07 764.3"/><rect class="cls-7" x="510.25" y="764.3" width="95.65" height="31.88"/><polygon class="cls-4" points="558.07 796.19 574.01 796.19 574.01 812.14 558.07 796.19"/><polygon class="cls-3" points="574.01 828.08 574.01 812.14 589.96 828.08 574.01 828.08"/><polygon class="cls-6" points="526.19 828.08 542.13 812.14 542.13 828.08 526.19 828.08"/><rect class="cls-5" x="526.19" y="828.08" width="15.94" height="31.88"/><rect class="cls-4" x="574.01" y="828.08" width="15.94" height="31.88"/><polygon class="cls-2" points="574.01 875.91 574.01 859.97 589.96 859.97 574.01 875.91"/><rect class="cls-4" x="542.13" y="859.97" width="31.88" height="15.94"/><polygon class="cls-3" points="526.19 859.97 542.13 859.97 542.13 875.91 526.19 859.97"/><rect class="cls-4" x="510.25" y="796.19" width="31.88" height="15.95"/><polygon class="cls-3" points="494.3 796.19 510.25 796.19 510.25 812.14 494.3 796.19"/><rect class="cls-5" x="494.29" y="764.3" width="15.95" height="31.88"/><polygon class="cls-6" points="494.3 764.3 510.25 748.36 510.25 764.3 494.3 764.3"/><rect class="cls-5" x="510.25" y="748.36" width="31.88" height="15.94"/><polygon class="cls-3" points="542.13 764.3 542.13 748.36 558.07 764.3 542.13 764.3"/><polygon class="cls-5" points="542.13 828.08 542.13 812.14 558.07 828.08 542.13 828.08"/><polygon class="cls-5" points="558.07 828.08 574.01 812.14 574.01 828.08 558.07 828.08"/><rect class="cls-7" x="542.13" y="828.08" width="31.88" height="31.88"/><polygon class="cls-4" points="558.07 828.08 558.07 796.19 574.01 812.14 558.07 828.08"/><polygon class="cls-4" points="542.13 812.14 542.13 796.19 558.07 796.19 542.13 812.14"/><polygon class="cls-5" points="542.13 812.14 558.07 796.19 558.07 828.08 542.13 812.14"/><polygon class="cls-2" points="191.93 468.18 191.93 510.72 171.55 510.72 191.92 468.19 191.93 468.18"/><polygon class="cls-3" points="212.32 510.72 191.93 510.72 191.93 468.18 191.94 468.19 212.32 510.72"/><rect class="cls-4" x="144.1" y="420.34" width="31.88" height="15.95"/><polygon class="cls-2" points="144.1 420.34 144.1 436.3 128.15 436.3 144.1 420.34"/><rect class="cls-4" x="128.15" y="436.29" width="15.95" height="31.88"/><polygon class="cls-3" points="144.1 468.18 144.1 484.12 128.15 468.18 144.1 468.18"/><rect class="cls-5" x="144.1" y="468.18" width="31.88" height="15.94"/><polygon class="cls-6" points="191.93 468.18 175.99 484.12 175.99 468.18 191.93 468.18"/><rect class="cls-7" x="144.1" y="436.29" width="95.65" height="31.88"/><polygon class="cls-4" points="191.93 436.3 175.99 436.3 175.99 420.34 191.93 436.3"/><polygon class="cls-3" points="175.99 404.4 175.99 420.34 160.04 404.4 175.99 404.4"/><polygon class="cls-6" points="223.81 404.4 207.87 420.34 207.87 404.4 223.81 404.4"/><rect class="cls-5" x="207.87" y="372.52" width="15.94" height="31.88"/><rect class="cls-4" x="160.04" y="372.52" width="15.94" height="31.88"/><polygon class="cls-2" points="175.99 356.57 175.99 372.52 160.04 372.52 175.99 356.57"/><rect class="cls-4" x="175.99" y="356.57" width="31.88" height="15.94"/><polygon class="cls-3" points="223.81 372.52 207.87 372.52 207.87 356.57 223.81 372.52"/><rect class="cls-4" x="207.87" y="420.34" width="31.88" height="15.95"/><polygon class="cls-3" points="255.71 436.3 239.75 436.3 239.75 420.34 255.71 436.3"/><rect class="cls-5" x="239.75" y="436.29" width="15.95" height="31.88"/><polygon class="cls-6" points="255.71 468.18 239.75 484.12 239.75 468.18 255.71 468.18"/><rect class="cls-5" x="207.87" y="468.18" width="31.88" height="15.94"/><polygon class="cls-3" points="207.87 468.18 207.87 484.12 191.93 468.18 207.87 468.18"/><polygon class="cls-5" points="207.87 404.4 207.87 420.34 191.93 404.4 207.87 404.4"/><polygon class="cls-5" points="191.93 404.4 175.99 420.34 175.99 404.4 191.93 404.4"/><rect class="cls-7" x="175.99" y="372.52" width="31.88" height="31.88"/><polygon class="cls-4" points="191.93 404.4 191.93 436.3 175.99 420.34 191.93 404.4"/><polygon class="cls-4" points="207.87 420.34 207.87 436.3 191.93 436.3 207.87 420.34"/><polygon class="cls-5" points="207.87 420.34 191.93 436.3 191.93 404.4 207.87 420.34"/><polygon class="cls-2" points="558.07 285.25 558.07 327.79 537.69 327.79 558.06 285.26 558.07 285.25"/><polygon class="cls-3" points="578.47 327.79 558.07 327.79 558.07 285.25 558.09 285.26 578.47 327.79"/><rect class="cls-4" x="510.25" y="237.41" width="31.88" height="15.95"/><polygon class="cls-2" points="510.25 237.41 510.25 253.37 494.3 253.37 510.25 237.41"/><rect class="cls-4" x="494.29" y="253.37" width="15.95" height="31.88"/><polygon class="cls-3" points="510.25 285.25 510.25 301.19 494.3 285.25 510.25 285.25"/><rect class="cls-5" x="510.25" y="285.25" width="31.88" height="15.94"/><polygon class="cls-6" points="558.07 285.25 542.13 301.19 542.13 285.25 558.07 285.25"/><rect class="cls-7" x="510.25" y="253.37" width="95.65" height="31.88"/><polygon class="cls-4" points="558.07 253.37 542.13 253.37 542.13 237.41 558.07 253.37"/><polygon class="cls-3" points="542.13 221.47 542.13 237.41 526.19 221.47 542.13 221.47"/><polygon class="cls-6" points="589.96 221.47 574.01 237.41 574.01 221.47 589.96 221.47"/><rect class="cls-5" x="574.01" y="189.59" width="15.94" height="31.88"/><rect class="cls-4" x="526.19" y="189.59" width="15.94" height="31.88"/><polygon class="cls-2" points="542.13 173.65 542.13 189.59 526.19 189.59 542.13 173.65"/><rect class="cls-4" x="542.13" y="173.65" width="31.88" height="15.94"/><polygon class="cls-3" points="589.96 189.59 574.01 189.59 574.01 173.65 589.96 189.59"/><rect class="cls-4" x="574.01" y="237.41" width="31.88" height="15.95"/><polygon class="cls-3" points="621.85 253.37 605.9 253.37 605.9 237.41 621.85 253.37"/><rect class="cls-5" x="605.9" y="253.37" width="15.95" height="31.88"/><polygon class="cls-6" points="621.85 285.25 605.9 301.19 605.9 285.25 621.85 285.25"/><rect class="cls-5" x="574.01" y="285.25" width="31.88" height="15.94"/><polygon class="cls-3" points="574.01 285.25 574.01 301.19 558.07 285.25 574.01 285.25"/><polygon class="cls-5" points="574.01 221.47 574.01 237.41 558.07 221.47 574.01 221.47"/><polygon class="cls-5" points="558.07 221.47 542.13 237.41 542.13 221.47 558.07 221.47"/><rect class="cls-7" x="542.13" y="189.59" width="31.88" height="31.88"/><polygon class="cls-4" points="558.07 221.47 558.07 253.37 542.13 237.41 558.07 221.47"/><polygon class="cls-4" points="574.01 237.41 574.01 253.37 558.07 253.37 574.01 237.41"/><polygon class="cls-5" points="574.01 237.41 558.07 253.37 558.07 221.47 574.01 237.41"/><polygon class="cls-2" points="191.93 581.82 191.93 539.28 212.31 539.28 191.94 581.81 191.93 581.82"/><polygon class="cls-3" points="171.53 539.28 191.93 539.28 191.93 581.82 191.91 581.81 171.53 539.28"/><rect class="cls-4" x="207.87" y="613.7" width="31.88" height="15.95"/><polygon class="cls-2" points="239.75 629.66 239.75 613.71 255.71 613.71 239.75 629.66"/><rect class="cls-4" x="239.75" y="581.82" width="15.95" height="31.88"/><polygon class="cls-3" points="239.75 581.82 239.75 565.88 255.71 581.82 239.75 581.82"/><rect class="cls-5" x="207.87" y="565.88" width="31.88" height="15.94"/><polygon class="cls-6" points="191.93 581.82 207.87 565.88 207.87 581.82 191.93 581.82"/><rect class="cls-7" x="144.1" y="581.82" width="95.65" height="31.88"/><polygon class="cls-4" points="191.93 613.71 207.87 613.71 207.87 629.66 191.93 613.71"/><polygon class="cls-3" points="207.87 645.6 207.87 629.66 223.81 645.6 207.87 645.6"/><polygon class="cls-6" points="160.04 645.6 175.99 629.66 175.99 645.6 160.04 645.6"/><rect class="cls-5" x="160.04" y="645.6" width="15.94" height="31.88"/><rect class="cls-4" x="207.87" y="645.6" width="15.94" height="31.88"/><polygon class="cls-2" points="207.87 693.42 207.87 677.48 223.81 677.48 207.87 693.42"/><rect class="cls-4" x="175.99" y="677.48" width="31.88" height="15.94"/><polygon class="cls-3" points="160.04 677.48 175.99 677.48 175.99 693.42 160.04 677.48"/><rect class="cls-4" x="144.1" y="613.7" width="31.88" height="15.95"/><polygon class="cls-3" points="128.15 613.71 144.1 613.71 144.1 629.66 128.15 613.71"/><rect class="cls-5" x="128.15" y="581.82" width="15.95" height="31.88"/><polygon class="cls-6" points="128.15 581.82 144.1 565.88 144.1 581.82 128.15 581.82"/><rect class="cls-5" x="144.1" y="565.88" width="31.88" height="15.94"/><polygon class="cls-3" points="175.99 581.82 175.99 565.88 191.93 581.82 175.99 581.82"/><polygon class="cls-5" points="175.99 645.6 175.99 629.66 191.93 645.6 175.99 645.6"/><polygon class="cls-5" points="191.93 645.6 207.87 629.66 207.87 645.6 191.93 645.6"/><rect class="cls-7" x="175.99" y="645.6" width="31.88" height="31.88"/><polygon class="cls-4" points="191.93 645.6 191.93 613.71 207.87 629.66 191.93 645.6"/><polygon class="cls-4" points="175.99 629.66 175.99 613.71 191.93 613.71 175.99 629.66"/><polygon class="cls-5" points="175.99 629.66 191.93 613.71 191.93 645.6 175.99 629.66"/><polygon class="cls-2" points="191.93 764.53 191.93 721.99 212.31 721.99 191.94 764.52 191.93 764.53"/><polygon class="cls-3" points="171.53 721.99 191.93 721.99 191.93 764.53 191.91 764.52 171.53 721.99"/><rect class="cls-4" x="207.87" y="796.41" width="31.88" height="15.95"/><polygon class="cls-2" points="239.75 812.36 239.75 796.41 255.71 796.41 239.75 812.36"/><rect class="cls-4" x="239.75" y="764.53" width="15.95" height="31.88"/><polygon class="cls-3" points="239.75 764.53 239.75 748.59 255.71 764.53 239.75 764.53"/><rect class="cls-5" x="207.87" y="748.59" width="31.88" height="15.94"/><polygon class="cls-6" points="191.93 764.53 207.87 748.59 207.87 764.53 191.93 764.53"/><rect class="cls-7" x="144.1" y="764.53" width="95.65" height="31.88"/><polygon class="cls-4" points="191.93 796.41 207.87 796.41 207.87 812.36 191.93 796.41"/><polygon class="cls-3" points="207.87 828.3 207.87 812.36 223.81 828.3 207.87 828.3"/><polygon class="cls-6" points="160.04 828.3 175.99 812.36 175.99 828.3 160.04 828.3"/><rect class="cls-5" x="160.04" y="828.31" width="15.94" height="31.88"/><rect class="cls-4" x="207.87" y="828.31" width="15.94" height="31.88"/><polygon class="cls-2" points="207.87 876.13 207.87 860.19 223.81 860.19 207.87 876.13"/><rect class="cls-4" x="175.99" y="860.19" width="31.88" height="15.94"/><polygon class="cls-3" points="160.04 860.19 175.99 860.19 175.99 876.13 160.04 860.19"/><rect class="cls-4" x="144.1" y="796.41" width="31.88" height="15.95"/><polygon class="cls-3" points="128.15 796.41 144.1 796.41 144.1 812.36 128.15 796.41"/><rect class="cls-5" x="128.15" y="764.53" width="15.95" height="31.88"/><polygon class="cls-6" points="128.15 764.53 144.1 748.59 144.1 764.53 128.15 764.53"/><rect class="cls-5" x="144.1" y="748.59" width="31.88" height="15.94"/><polygon class="cls-3" points="175.99 764.53 175.99 748.59 191.93 764.53 175.99 764.53"/><polygon class="cls-5" points="175.99 828.3 175.99 812.36 191.93 828.3 175.99 828.3"/><polygon class="cls-5" points="191.93 828.3 207.87 812.36 207.87 828.3 191.93 828.3"/><rect class="cls-7" x="175.99" y="828.31" width="31.88" height="31.88"/><polygon class="cls-4" points="191.93 828.3 191.93 796.41 207.87 812.36 191.93 828.3"/><polygon class="cls-4" points="175.99 812.36 175.99 796.41 191.93 796.41 175.99 812.36"/><polygon class="cls-5" points="175.99 812.36 191.93 796.41 191.93 828.3 175.99 812.36"/><polygon class="cls-2" points="558.07 467.95 558.07 510.5 537.69 510.5 558.06 467.96 558.07 467.95"/><polygon class="cls-3" points="578.47 510.5 558.07 510.5 558.07 467.95 558.09 467.96 578.47 510.5"/><rect class="cls-4" x="510.25" y="420.12" width="31.88" height="15.95"/><polygon class="cls-2" points="510.25 420.12 510.25 436.07 494.3 436.07 510.25 420.12"/><rect class="cls-4" x="494.29" y="436.07" width="15.95" height="31.88"/><polygon class="cls-3" points="510.25 467.95 510.25 483.9 494.3 467.95 510.25 467.95"/><rect class="cls-5" x="510.25" y="467.96" width="31.88" height="15.94"/><polygon class="cls-6" points="558.07 467.95 542.13 483.9 542.13 467.95 558.07 467.95"/><rect class="cls-7" x="510.25" y="436.07" width="95.65" height="31.88"/><polygon class="cls-4" points="558.07 436.07 542.13 436.07 542.13 420.12 558.07 436.07"/><polygon class="cls-3" points="542.13 404.18 542.13 420.12 526.19 404.18 542.13 404.18"/><polygon class="cls-6" points="589.96 404.18 574.01 420.12 574.01 404.18 589.96 404.18"/><rect class="cls-5" x="574.01" y="372.29" width="15.94" height="31.88"/><rect class="cls-4" x="526.19" y="372.29" width="15.94" height="31.88"/><polygon class="cls-2" points="542.13 356.35 542.13 372.29 526.19 372.29 542.13 356.35"/><rect class="cls-4" x="542.13" y="356.35" width="31.88" height="15.94"/><polygon class="cls-3" points="589.96 372.29 574.01 372.29 574.01 356.35 589.96 372.29"/><rect class="cls-4" x="574.01" y="420.12" width="31.88" height="15.95"/><polygon class="cls-3" points="621.85 436.07 605.9 436.07 605.9 420.12 621.85 436.07"/><rect class="cls-5" x="605.9" y="436.07" width="15.95" height="31.88"/><polygon class="cls-6" points="621.85 467.95 605.9 483.9 605.9 467.95 621.85 467.95"/><rect class="cls-5" x="574.01" y="467.96" width="31.88" height="15.94"/><polygon class="cls-3" points="574.01 467.95 574.01 483.9 558.07 467.95 574.01 467.95"/><polygon class="cls-5" points="574.01 404.18 574.01 420.12 558.07 404.18 574.01 404.18"/><polygon class="cls-5" points="558.07 404.18 542.13 420.12 542.13 404.18 558.07 404.18"/><rect class="cls-7" x="542.13" y="372.29" width="31.88" height="31.88"/><polygon class="cls-4" points="558.07 404.18 558.07 436.07 542.13 420.12 558.07 404.18"/><polygon class="cls-4" points="574.01 420.12 574.01 436.07 558.07 436.07 574.01 420.12"/><polygon class="cls-5" points="574.01 420.12 558.07 436.07 558.07 404.18 574.01 420.12"/><polygon class="cls-2" points="375 672.95 375 630.41 395.38 630.41 375.01 672.94 375 672.95"/><polygon class="cls-3" points="354.61 630.41 375 630.41 375 672.95 374.99 672.94 354.61 630.41"/><rect class="cls-4" x="390.94" y="704.84" width="31.88" height="15.95"/><polygon class="cls-2" points="422.82 720.79 422.82 704.84 438.78 704.84 422.82 720.79"/><rect class="cls-4" x="422.82" y="672.95" width="15.95" height="31.88"/><polygon class="cls-3" points="422.82 672.95 422.82 657.01 438.78 672.95 422.82 672.95"/><rect class="cls-5" x="390.94" y="657.01" width="31.88" height="15.94"/><polygon class="cls-6" points="375 672.95 390.94 657.01 390.94 672.95 375 672.95"/><rect class="cls-7" x="327.18" y="672.95" width="95.65" height="31.88"/><polygon class="cls-4" points="375 704.84 390.94 704.84 390.94 720.79 375 704.84"/><polygon class="cls-3" points="390.94 736.73 390.94 720.79 406.88 736.73 390.94 736.73"/><polygon class="cls-6" points="343.12 736.73 359.06 720.79 359.06 736.73 343.12 736.73"/><rect class="cls-5" x="343.12" y="736.73" width="15.94" height="31.88"/><rect class="cls-4" x="390.94" y="736.73" width="15.94" height="31.88"/><polygon class="cls-2" points="390.94 784.55 390.94 768.61 406.88 768.61 390.94 784.55"/><rect class="cls-4" x="359.06" y="768.61" width="31.88" height="15.94"/><polygon class="cls-3" points="343.12 768.61 359.06 768.61 359.06 784.55 343.12 768.61"/><rect class="cls-4" x="327.18" y="704.84" width="31.88" height="15.95"/><polygon class="cls-3" points="311.22 704.84 327.18 704.84 327.18 720.79 311.22 704.84"/><rect class="cls-5" x="311.22" y="672.95" width="15.95" height="31.88"/><polygon class="cls-6" points="311.22 672.95 327.18 657.01 327.18 672.95 311.22 672.95"/><rect class="cls-5" x="327.18" y="657.01" width="31.88" height="15.94"/><polygon class="cls-3" points="359.06 672.95 359.06 657.01 375 672.95 359.06 672.95"/><polygon class="cls-5" points="359.06 736.73 359.06 720.79 375 736.73 359.06 736.73"/><polygon class="cls-5" points="375 736.73 390.94 720.79 390.94 736.73 375 736.73"/><rect class="cls-7" x="359.06" y="736.73" width="31.88" height="31.88"/><polygon class="cls-4" points="375 736.73 375 704.84 390.94 720.79 375 736.73"/><polygon class="cls-4" points="359.06 720.79 359.06 704.84 375 704.84 359.06 720.79"/><polygon class="cls-5" points="359.06 720.79 375 704.84 375 736.73 359.06 720.79"/><polygon class="cls-2" points="375 376.82 375 419.37 354.62 419.37 374.99 376.83 375 376.82"/><polygon class="cls-3" points="395.39 419.37 375 419.37 375 376.82 375.01 376.83 395.39 419.37"/><rect class="cls-4" x="327.18" y="328.99" width="31.88" height="15.95"/><polygon class="cls-2" points="327.18 328.99 327.18 344.94 311.22 344.94 327.18 328.99"/><rect class="cls-4" x="311.22" y="344.94" width="15.95" height="31.88"/><polygon class="cls-3" points="327.18 376.82 327.18 392.77 311.22 376.82 327.18 376.82"/><rect class="cls-5" x="327.18" y="376.82" width="31.88" height="15.94"/><polygon class="cls-6" points="375 376.82 359.06 392.77 359.06 376.82 375 376.82"/><rect class="cls-7" x="327.18" y="344.94" width="95.65" height="31.88"/><polygon class="cls-4" points="375 344.94 359.06 344.94 359.06 328.99 375 344.94"/><polygon class="cls-3" points="359.06 313.05 359.06 328.99 343.12 313.05 359.06 313.05"/><polygon class="cls-6" points="406.88 313.05 390.94 328.99 390.94 313.05 406.88 313.05"/><rect class="cls-5" x="390.94" y="281.16" width="15.94" height="31.88"/><rect class="cls-4" x="343.12" y="281.16" width="15.94" height="31.88"/><polygon class="cls-2" points="359.06 265.22 359.06 281.16 343.12 281.16 359.06 265.22"/><rect class="cls-4" x="359.06" y="265.22" width="31.88" height="15.94"/><polygon class="cls-3" points="406.88 281.16 390.94 281.16 390.94 265.22 406.88 281.16"/><rect class="cls-4" x="390.94" y="328.99" width="31.88" height="15.95"/><polygon class="cls-3" points="438.78 344.94 422.82 344.94 422.82 328.99 438.78 344.94"/><rect class="cls-5" x="422.82" y="344.94" width="15.95" height="31.88"/><polygon class="cls-6" points="438.78 376.82 422.82 392.77 422.82 376.82 438.78 376.82"/><rect class="cls-5" x="390.94" y="376.82" width="31.88" height="15.94"/><polygon class="cls-3" points="390.94 376.82 390.94 392.77 375 376.82 390.94 376.82"/><polygon class="cls-5" points="390.94 313.05 390.94 328.99 375 313.05 390.94 313.05"/><polygon class="cls-5" points="375 313.05 359.06 328.99 359.06 313.05 375 313.05"/><rect class="cls-7" x="359.06" y="281.16" width="31.88" height="31.88"/><polygon class="cls-4" points="375 313.05 375 344.94 359.06 328.99 375 313.05"/><polygon class="cls-4" points="390.94 328.99 390.94 344.94 375 344.94 390.94 328.99"/><polygon class="cls-5" points="390.94 328.99 375 344.94 375 313.05 390.94 328.99"/><polygon class="cls-2" points="70.31 187.1 70.31 214.67 57.1 214.67 70.3 187.11 70.31 187.1"/><polygon class="cls-3" points="83.52 214.67 70.31 214.67 70.31 187.1 70.32 187.11 83.52 214.67"/><rect class="cls-4" x="39.32" y="156.11" width="20.66" height="10.34"/><polygon class="cls-2" points="39.32 156.11 39.32 166.44 28.99 166.44 39.32 156.11"/><rect class="cls-4" x="28.99" y="166.44" width="10.34" height="20.66"/><polygon class="cls-3" points="39.32 187.1 39.32 197.43 28.99 187.1 39.32 187.1"/><rect class="cls-5" x="39.32" y="187.1" width="20.66" height="10.33"/><polygon class="cls-6" points="70.31 187.1 59.98 197.43 59.98 187.1 70.31 187.1"/><rect class="cls-7" x="39.32" y="166.44" width="61.97" height="20.66"/><polygon class="cls-4" points="70.31 166.44 59.98 166.44 59.98 156.11 70.31 166.44"/><polygon class="cls-3" points="59.98 145.78 59.98 156.11 49.65 145.78 59.98 145.78"/><polygon class="cls-6" points="90.97 145.78 80.64 156.11 80.64 145.78 90.97 145.78"/><rect class="cls-5" x="80.64" y="125.12" width="10.33" height="20.66"/><rect class="cls-4" x="49.65" y="125.12" width="10.33" height="20.66"/><polygon class="cls-2" points="59.98 114.79 59.98 125.12 49.65 125.12 59.98 114.79"/><rect class="cls-4" x="59.98" y="114.79" width="20.66" height="10.33"/><polygon class="cls-3" points="90.97 125.12 80.64 125.12 80.64 114.79 90.97 125.12"/><rect class="cls-4" x="80.64" y="156.11" width="20.66" height="10.34"/><polygon class="cls-3" points="111.63 166.44 101.3 166.44 101.3 156.11 111.63 166.44"/><rect class="cls-5" x="101.3" y="166.44" width="10.34" height="20.66"/><polygon class="cls-6" points="111.63 187.1 101.3 197.43 101.3 187.1 111.63 187.1"/><rect class="cls-5" x="80.64" y="187.1" width="20.66" height="10.33"/><polygon class="cls-3" points="80.64 187.1 80.64 197.43 70.31 187.1 80.64 187.1"/><polygon class="cls-5" points="80.64 145.78 80.64 156.11 70.31 145.78 80.64 145.78"/><polygon class="cls-5" points="70.31 145.78 59.98 156.11 59.98 145.78 70.31 145.78"/><rect class="cls-7" x="59.98" y="125.12" width="20.66" height="20.66"/><polygon class="cls-4" points="70.31 145.78 70.31 166.44 59.98 156.11 70.31 145.78"/><polygon class="cls-4" points="80.64 156.11 80.64 166.44 70.31 166.44 80.64 156.11"/><polygon class="cls-5" points="80.64 156.11 70.31 166.44 70.31 145.78 80.64 156.11"/><polygon class="cls-2" points="679.69 862.9 679.69 835.33 692.89 835.33 679.7 862.89 679.69 862.9"/><polygon class="cls-3" points="666.48 835.33 679.69 835.33 679.69 862.9 679.68 862.89 666.48 835.33"/><rect class="cls-4" x="690.02" y="883.55" width="20.66" height="10.34"/><polygon class="cls-2" points="710.68 893.89 710.68 883.55 721.01 883.55 710.68 893.89"/><rect class="cls-4" x="710.68" y="862.9" width="10.34" height="20.66"/><polygon class="cls-3" points="710.68 862.9 710.68 852.57 721.01 862.9 710.68 862.9"/><rect class="cls-5" x="690.02" y="852.57" width="20.66" height="10.33"/><polygon class="cls-6" points="679.69 862.9 690.02 852.57 690.02 862.9 679.69 862.9"/><rect class="cls-7" x="648.7" y="862.9" width="61.97" height="20.66"/><polygon class="cls-4" points="679.69 883.55 690.02 883.55 690.02 893.89 679.69 883.55"/><polygon class="cls-3" points="690.02 904.22 690.02 893.89 700.35 904.22 690.02 904.22"/><polygon class="cls-6" points="659.03 904.22 669.36 893.89 669.36 904.22 659.03 904.22"/><rect class="cls-5" x="659.03" y="904.22" width="10.33" height="20.66"/><rect class="cls-4" x="690.02" y="904.22" width="10.33" height="20.66"/><polygon class="cls-2" points="690.02 935.21 690.02 924.88 700.35 924.88 690.02 935.21"/><rect class="cls-4" x="669.36" y="924.88" width="20.66" height="10.33"/><polygon class="cls-3" points="659.03 924.88 669.36 924.88 669.36 935.21 659.03 924.88"/><rect class="cls-4" x="648.7" y="883.55" width="20.66" height="10.34"/><polygon class="cls-3" points="638.37 883.55 648.7 883.55 648.7 893.89 638.37 883.55"/><rect class="cls-5" x="638.37" y="862.9" width="10.34" height="20.66"/><polygon class="cls-6" points="638.37 862.9 648.7 852.57 648.7 862.9 638.37 862.9"/><rect class="cls-5" x="648.7" y="852.57" width="20.66" height="10.33"/><polygon class="cls-3" points="669.36 862.9 669.36 852.57 679.69 862.9 669.36 862.9"/><polygon class="cls-5" points="669.36 904.22 669.36 893.89 679.69 904.22 669.36 904.22"/><polygon class="cls-5" points="679.69 904.22 690.02 893.89 690.02 904.22 679.69 904.22"/><rect class="cls-7" x="669.36" y="904.22" width="20.66" height="20.66"/><polygon class="cls-4" points="679.69 904.22 679.69 883.55 690.02 893.89 679.69 904.22"/><polygon class="cls-4" points="669.36 893.89 669.36 883.55 679.69 883.55 669.36 893.89"/><polygon class="cls-5" points="669.36 893.89 679.69 883.55 679.69 904.22 669.36 893.89"/></g></svg>