<svg xmlns="http://www.w3.org/2000/svg" viewBox="0 0 750 1050"><defs><style>.cls-1{fill:#fff5e6;}.cls-2{fill:#ffc766;}.cls-3{fill:#ff9f33;}.cls-4{fill:#ffb34d;}.cls-5{fill:#ff8b1a;}.cls-6{fill:#f70;}.cls-7{fill:#ffab19;}</style></defs><g id="Layer_8" data-name="Layer 8"><rect class="cls-1" width="750" height="1050" rx="63.89"/></g><g id="Layer_4" data-name="Layer 4"><polygon class="cls-2" points="70.31 187.1 70.31 214.67 57.1 214.67 70.3 187.11 70.31 187.1"/><polygon class="cls-3" points="83.52 214.67 70.31 214.67 70.31 187.1 70.32 187.11 83.52 214.67"/><rect class="cls-4" x="39.32" y="156.11" width="20.66" height="10.34"/><polygon class="cls-2" points="39.32 156.11 39.32 166.44 28.99 166.44 39.32 156.11"/><rect class="cls-4" x="28.99" y="166.45" width="10.34" height="20.66"/><polygon class="cls-3" points="39.32 187.1 39.32 197.43 28.99 187.1 39.32 187.1"/><rect class="cls-5" x="39.32" y="187.1" width="20.66" height="10.33"/><polygon class="cls-6" points="70.31 187.1 59.98 197.43 59.98 187.1 70.31 187.1"/><rect class="cls-7" x="39.32" y="166.45" width="61.97" height="20.66"/><polygon class="cls-4" points="70.31 166.44 59.98 166.44 59.98 156.11 70.31 166.44"/><polygon class="cls-3" points="59.98 145.78 59.98 156.11 49.65 145.78 59.98 145.78"/><polygon class="cls-6" points="90.97 145.78 80.64 156.11 80.64 145.78 90.97 145.78"/><rect class="cls-5" x="80.64" y="125.12" width="10.33" height="20.66"/><rect class="cls-4" x="49.65" y="125.12" width="10.33" height="20.66"/><polygon class="cls-2" points="59.98 114.79 59.98 125.12 49.65 125.12 59.98 114.79"/><rect class="cls-4" x="59.98" y="114.79" width="20.66" height="10.33"/><polygon class="cls-3" points="90.97 125.12 80.64 125.12 80.64 114.79 90.97 125.12"/><rect class="cls-4" x="80.64" y="156.11" width="20.66" height="10.34"/><polygon class="cls-3" points="111.63 166.44 101.3 166.44 101.3 156.11 111.63 166.44"/><rect class="cls-5" x="101.3" y="166.45" width="10.34" height="20.66"/><polygon class="cls-6" points="111.63 187.1 101.3 197.43 101.3 187.1 111.63 187.1"/><rect class="cls-5" x="80.64" y="187.1" width="20.66" height="10.33"/><polygon class="cls-3" points="80.64 187.1 80.64 197.43 70.31 187.1 80.64 187.1"/><polygon class="cls-5" points="80.64 145.78 80.64 156.11 70.31 145.78 80.64 145.78"/><polygon class="cls-5" points="70.31 145.78 59.98 156.11 59.98 145.78 70.31 145.78"/><rect class="cls-7" x="59.98" y="125.12" width="20.66" height="20.66"/><polygon class="cls-4" points="70.31 145.78 70.31 166.44 59.98 156.11 70.31 145.78"/><polygon class="cls-4" points="80.64 156.11 80.64 166.44 70.31 166.44 80.64 156.11"/><polygon class="cls-5" points="80.64 156.11 70.31 166.44 70.31 145.78 80.64 156.11"/><polygon class="cls-2" points="679.69 862.9 679.69 835.33 692.89 835.33 679.7 862.89 679.69 862.9"/><polygon class="cls-3" points="666.48 835.33 679.69 835.33 679.69 862.9 679.68 862.89 666.48 835.33"/><rect class="cls-4" x="690.02" y="883.55" width="20.66" height="10.34"/><polygon class="cls-2" points="710.68 893.89 710.68 883.55 721.01 883.55 710.68 893.89"/><rect class="cls-4" x="710.68" y="862.9" width="10.34" height="20.66"/><polygon class="cls-3" points="710.68 862.9 710.68 852.57 721.01 862.9 710.68 862.9"/><rect class="cls-5" x="690.02" y="852.57" width="20.66" height="10.33"/><polygon class="cls-6" points="679.69 862.9 690.02 852.57 690.02 862.9 679.69 862.9"/><rect class="cls-7" x="648.7" y="862.9" width="61.97" height="20.66"/><polygon class="cls-4" points="679.69 883.55 690.02 883.55 690.02 893.89 679.69 883.55"/><polygon class="cls-3" points="690.02 904.22 690.02 893.89 700.35 904.22 690.02 904.22"/><polygon class="cls-6" points="659.03 904.22 669.36 893.89 669.36 904.22 659.03 904.22"/><rect class="cls-5" x="659.03" y="904.22" width="10.33" height="20.66"/><rect class="cls-4" x="690.02" y="904.22" width="10.33" height="20.66"/><polygon class="cls-2" points="690.02 935.21 690.02 924.88 700.35 924.88 690.02 935.21"/><rect class="cls-4" x="669.36" y="924.88" width="20.66" height="10.33"/><polygon class="cls-3" points="659.03 924.88 669.36 924.88 669.36 935.21 659.03 924.88"/><rect class="cls-4" x="648.7" y="883.55" width="20.66" height="10.34"/><polygon class="cls-3" points="638.37 883.55 648.7 883.55 648.7 893.89 638.37 883.55"/><rect class="cls-5" x="638.37" y="862.9" width="10.34" height="20.66"/><polygon class="cls-6" points="638.37 862.9 648.7 852.57 648.7 862.9 638.37 862.9"/><rect class="cls-5" x="648.7" y="852.57" width="20.66" height="10.33"/><polygon class="cls-3" points="669.36 862.9 669.36 852.57 679.69 862.9 669.36 862.9"/><polygon class="cls-5" points="669.36 904.22 669.36 893.89 679.69 904.22 669.36 904.22"/><polygon class="cls-5" points="679.69 904.22 690.02 893.89 690.02 904.22 679.69 904.22"/><rect class="cls-7" x="669.36" y="904.22" width="20.66" height="20.66"/><polygon class="cls-4" points="679.69 904.22 679.69 883.55 690.02 893.89 679.69 904.22"/><polygon class="cls-4" points="669.36 893.89 669.36 883.55 679.69 883.55 669.36 893.89"/><polygon class="cls-5" points="669.36 893.89 679.69 883.55 679.69 904.22 669.36 893.89"/><path d="M52.83,93V78.85a4.46,4.46,0,1,1,8.91,0V93.07a4.1,4.1,0,0,0,1.33,3.08,4.47,4.47,0,0,0,3.23,1.27h9a4.46,4.46,0,0,0,3.21-1.3A4.23,4.23,0,0,0,79.88,93V40.39a4.35,4.35,0,0,1,1.28-3.16,4.13,4.13,0,0,1,3.07-1.3,4.32,4.32,0,0,1,3.19,1.43A4.57,4.57,0,0,1,88.8,40.6V93a12.75,12.75,0,0,1-4.09,9.55,13.14,13.14,0,0,1-9.39,3.93h-9A13.54,13.54,0,0,1,52.83,93Z"/><path d="M697.17,957v14.11a4.46,4.46,0,1,1-8.91,0V956.93a4.1,4.1,0,0,0-1.33-3.08,4.47,4.47,0,0,0-3.23-1.27h-9a4.46,4.46,0,0,0-3.21,1.3,4.23,4.23,0,0,0-1.35,3.16v52.57a4.35,4.35,0,0,1-1.28,3.16,4.13,4.13,0,0,1-3.07,1.3,4.32,4.32,0,0,1-3.19-1.43,4.57,4.57,0,0,1-1.38-3.24V957a12.72,12.72,0,0,1,4.09-9.55,13.14,13.14,0,0,1,9.39-3.93h9A13.54,13.54,0,0,1,697.17,957Z"/><polygon class="cls-3" points="579.85 405.1 264.22 589.84 248.07 455.79 303.9 325.31 366.97 303.19 517.58 302.8 579.85 405.1"/><polygon class="cls-2" points="242.42 408.94 202.7 447.64 157.7 491.49 157.7 396.88 236.15 356.91 242.42 408.94"/><polyline class="cls-6" points="157.7 419.66 191.26 400.48 191.26 403.89 157.7 422.64"/><polyline class="cls-6" points="157.7 472.39 194 442.98 194 439.51 157.7 467.49"/><polyline class="cls-6" points="157.7 447.59 195.01 422.64 195.01 419.03 157.7 443.98"/><polygon class="cls-6" points="264.22 589.84 248.07 455.79 242.42 408.94 202.7 447.64 161.02 608.81 183.37 637.16 264.22 589.84"/><polygon class="cls-3" points="187.02 334.78 187.02 635.02 170.15 644.9 174.33 334.78 187.02 334.78"/><polygon class="cls-2" points="449.5 169.49 449.5 303.5 391.82 332.02 366.43 303.5 354.12 259.49 300.28 275.63 291.06 224.87 275.68 224.87 301.05 153.34 449.5 169.49"/><polygon class="cls-6" points="449.5 169.49 491.94 114.96 384.32 60.42 276.63 82.55 301.05 153.34 449.5 169.49"/><polyline class="cls-6" points="291.06 224.87 289.13 240.25 319.13 237.95 337.59 230.26 289.13 224.87"/><polygon class="cls-6" points="366.43 303.5 389.27 497.48 435.04 304.57 391.82 332.02 366.43 303.5"/><polyline class="cls-5" points="449.5 169.49 487.48 227.95 490.56 259.88 508.25 278.81 552.09 277.08 474.4 334.79 419.02 308.71 419.02 270.25 391.82 247.18 409.8 205.64 391.82 163.22"/><polyline class="cls-6" points="174.33 334.79 156.33 293.23 181.98 183.62 207.63 306.39 187.03 334.79"/><polyline class="cls-2" points="236.15 356.91 187.03 371.39 187.03 381.94"/><polygon class="cls-3" points="170.15 644.9 485.78 460.16 501.93 594.21 446.64 724.37 383.57 746.5 232.96 746.89 170.15 644.9"/><polygon class="cls-2" points="507.58 641.06 547.3 602.36 592.3 558.51 592.3 653.12 513.85 693.09 507.58 641.06"/><polyline class="cls-6" points="592.3 630.34 558.74 649.52 558.74 646.11 592.3 627.36"/><polyline class="cls-6" points="592.3 577.6 556 607.02 556 610.48 592.3 582.51"/><polyline class="cls-6" points="592.3 602.41 554.99 627.36 554.99 630.96 592.3 606.01"/><polygon class="cls-6" points="485.78 460.16 501.93 594.21 507.58 641.06 547.3 602.36 588.98 441.19 566.63 412.84 485.78 460.16"/><polygon class="cls-3" points="562.98 715.22 562.98 414.98 579.85 405.1 575.67 715.22 562.98 715.22"/><polygon class="cls-2" points="300.5 880.51 300.5 746.5 358.18 717.98 383.57 746.5 395.88 790.51 449.72 774.36 458.94 825.13 474.32 825.13 448.95 896.66 300.5 880.51"/><polygon class="cls-6" points="300.5 880.51 258.06 935.04 365.68 989.58 473.37 967.45 448.95 896.66 300.5 880.51"/><polyline class="cls-6" points="458.94 825.13 460.87 809.74 430.87 812.05 412.41 819.74 460.87 825.13"/><polygon class="cls-6" points="383.57 746.5 360.73 552.52 314.96 745.43 358.18 717.98 383.57 746.5"/><polyline class="cls-5" points="300.5 880.51 262.52 822.05 259.44 790.12 241.75 771.19 197.91 772.92 275.6 715.21 330.98 741.29 330.98 779.75 358.18 802.82 340.2 844.36 358.18 886.78"/><polyline class="cls-6" points="575.67 715.21 593.67 756.77 568.02 866.38 542.37 743.61 562.98 715.21"/><polyline class="cls-2" points="513.85 693.09 562.98 678.6 562.98 668.06"/></g></svg>