<svg xmlns="http://www.w3.org/2000/svg" viewBox="0 0 750 1050"><defs><style>.cls-1{fill:#fff5e6;}.cls-2{fill:#ffc766;}.cls-3{fill:#ff9f33;}.cls-4{fill:#ffb34d;}.cls-5{fill:#ff8b1a;}.cls-6{fill:#f70;}.cls-7{fill:#ffab19;}</style></defs><g id="Layer_8" data-name="Layer 8"><rect class="cls-1" width="750" height="1050" rx="63.89"/></g><g id="Layer_4" data-name="Layer 4"><path d="M88.9,106.33H48.37V75.56A8.73,8.73,0,0,1,51,69.2a8.52,8.52,0,0,1,6.28-2.66H84.34V44.85H52.51a4.27,4.27,0,0,1-3.18-1.31,4.46,4.46,0,0,1,3.18-7.61H84.34a8.74,8.74,0,0,1,6.37,2.63,8.52,8.52,0,0,1,2.65,6.29V66.54a9,9,0,0,1-9,9H57.28V97.42H88.9A4.33,4.33,0,0,1,92,98.72,4.42,4.42,0,0,1,92,105,4.32,4.32,0,0,1,88.9,106.33Z"/><path d="M661.1,943.67h40.53v30.77A8.72,8.72,0,0,1,699,980.8a8.54,8.54,0,0,1-6.29,2.66H665.66v21.69h31.83a4.41,4.41,0,0,1,4.46,4.46,4.39,4.39,0,0,1-4.46,4.46H665.66a8.73,8.73,0,0,1-6.36-2.63,8.53,8.53,0,0,1-2.66-6.29V983.46a9,9,0,0,1,9-9h27.06V952.58H661.1a4.35,4.35,0,0,1-3.13-1.3,4.42,4.42,0,0,1,0-6.32A4.34,4.34,0,0,1,661.1,943.67Z"/><polygon class="cls-2" points="375 764.53 375 721.99 395.38 721.99 375.01 764.52 375 764.53"/><polygon class="cls-3" points="354.61 721.99 375 721.99 375 764.53 374.99 764.52 354.61 721.99"/><rect class="cls-4" x="390.94" y="796.41" width="31.88" height="15.95"/><polygon class="cls-2" points="422.82 812.36 422.82 796.41 438.78 796.41 422.82 812.36"/><rect class="cls-4" x="422.82" y="764.53" width="15.95" height="31.88"/><polygon class="cls-3" points="422.82 764.53 422.82 748.59 438.78 764.53 422.82 764.53"/><rect class="cls-5" x="390.94" y="748.59" width="31.88" height="15.94"/><polygon class="cls-6" points="375 764.53 390.94 748.59 390.94 764.53 375 764.53"/><rect class="cls-7" x="327.18" y="764.53" width="95.65" height="31.88"/><polygon class="cls-4" points="375 796.41 390.94 796.41 390.94 812.36 375 796.41"/><polygon class="cls-3" points="390.94 828.31 390.94 812.36 406.88 828.31 390.94 828.31"/><polygon class="cls-6" points="343.12 828.31 359.06 812.36 359.06 828.31 343.12 828.31"/><rect class="cls-5" x="343.12" y="828.31" width="15.94" height="31.88"/><rect class="cls-4" x="390.94" y="828.31" width="15.94" height="31.88"/><polygon class="cls-2" points="390.94 876.13 390.94 860.19 406.88 860.19 390.94 876.13"/><rect class="cls-4" x="359.06" y="860.19" width="31.88" height="15.94"/><polygon class="cls-3" points="343.12 860.19 359.06 860.19 359.06 876.13 343.12 860.19"/><rect class="cls-4" x="327.18" y="796.41" width="31.88" height="15.95"/><polygon class="cls-3" points="311.22 796.41 327.18 796.41 327.18 812.36 311.22 796.41"/><rect class="cls-5" x="311.22" y="764.53" width="15.95" height="31.88"/><polygon class="cls-6" points="311.22 764.53 327.18 748.59 327.18 764.53 311.22 764.53"/><rect class="cls-5" x="327.18" y="748.59" width="31.88" height="15.94"/><polygon class="cls-3" points="359.06 764.53 359.06 748.59 375 764.53 359.06 764.53"/><polygon class="cls-5" points="359.06 828.31 359.06 812.36 375 828.31 359.06 828.31"/><polygon class="cls-5" points="375 828.31 390.94 812.36 390.94 828.31 375 828.31"/><rect class="cls-7" x="359.06" y="828.31" width="31.88" height="31.88"/><polygon class="cls-4" points="375 828.31 375 796.41 390.94 812.36 375 828.31"/><polygon class="cls-4" points="359.06 812.36 359.06 796.41 375 796.41 359.06 812.36"/><polygon class="cls-5" points="359.06 812.36 375 796.41 375 828.31 359.06 812.36"/><polygon class="cls-2" points="375 285.25 375 327.79 354.62 327.79 374.99 285.26 375 285.25"/><polygon class="cls-3" points="395.39 327.79 375 327.79 375 285.25 375.01 285.26 395.39 327.79"/><rect class="cls-4" x="327.18" y="237.41" width="31.88" height="15.95"/><polygon class="cls-2" points="327.18 237.41 327.18 253.37 311.22 253.37 327.18 237.41"/><rect class="cls-4" x="311.22" y="253.37" width="15.95" height="31.88"/><polygon class="cls-3" points="327.18 285.25 327.18 301.19 311.22 285.25 327.18 285.25"/><rect class="cls-5" x="327.18" y="285.25" width="31.88" height="15.94"/><polygon class="cls-6" points="375 285.25 359.06 301.19 359.06 285.25 375 285.25"/><rect class="cls-7" x="327.18" y="253.37" width="95.65" height="31.88"/><polygon class="cls-4" points="375 253.37 359.06 253.37 359.06 237.41 375 253.37"/><polygon class="cls-3" points="359.06 221.47 359.06 237.41 343.12 221.47 359.06 221.47"/><polygon class="cls-6" points="406.88 221.47 390.94 237.41 390.94 221.47 406.88 221.47"/><rect class="cls-5" x="390.94" y="189.59" width="15.94" height="31.88"/><rect class="cls-4" x="343.12" y="189.59" width="15.94" height="31.88"/><polygon class="cls-2" points="359.06 173.65 359.06 189.59 343.12 189.59 359.06 173.65"/><rect class="cls-4" x="359.06" y="173.65" width="31.88" height="15.94"/><polygon class="cls-3" points="406.88 189.59 390.94 189.59 390.94 173.65 406.88 189.59"/><rect class="cls-4" x="390.94" y="237.41" width="31.88" height="15.95"/><polygon class="cls-3" points="438.78 253.37 422.82 253.37 422.82 237.41 438.78 253.37"/><rect class="cls-5" x="422.82" y="253.37" width="15.95" height="31.88"/><polygon class="cls-6" points="438.78 285.25 422.82 301.19 422.82 285.25 438.78 285.25"/><rect class="cls-5" x="390.94" y="285.25" width="31.88" height="15.94"/><polygon class="cls-3" points="390.94 285.25 390.94 301.19 375 285.25 390.94 285.25"/><polygon class="cls-5" points="390.94 221.47 390.94 237.41 375 221.47 390.94 221.47"/><polygon class="cls-5" points="375 221.47 359.06 237.41 359.06 221.47 375 221.47"/><rect class="cls-7" x="359.06" y="189.59" width="31.88" height="31.88"/><polygon class="cls-4" points="375 221.47 375 253.37 359.06 237.41 375 221.47"/><polygon class="cls-4" points="390.94 237.41 390.94 253.37 375 253.37 390.94 237.41"/><polygon class="cls-5" points="390.94 237.41 375 253.37 375 221.47 390.94 237.41"/><polygon class="cls-2" points="70.31 187.1 70.31 214.67 57.1 214.67 70.3 187.11 70.31 187.1"/><polygon class="cls-3" points="83.52 214.67 70.31 214.67 70.31 187.1 70.32 187.11 83.52 214.67"/><rect class="cls-4" x="39.32" y="156.11" width="20.66" height="10.34"/><polygon class="cls-2" points="39.32 156.11 39.32 166.44 28.99 166.44 39.32 156.11"/><rect class="cls-4" x="28.99" y="166.45" width="10.34" height="20.66"/><polygon class="cls-3" points="39.32 187.1 39.32 197.43 28.99 187.1 39.32 187.1"/><rect class="cls-5" x="39.32" y="187.1" width="20.66" height="10.33"/><polygon class="cls-6" points="70.31 187.1 59.98 197.43 59.98 187.1 70.31 187.1"/><rect class="cls-7" x="39.32" y="166.45" width="61.97" height="20.66"/><polygon class="cls-4" points="70.31 166.44 59.98 166.44 59.98 156.11 70.31 166.44"/><polygon class="cls-3" points="59.98 145.78 59.98 156.11 49.65 145.78 59.98 145.78"/><polygon class="cls-6" points="90.97 145.78 80.64 156.11 80.64 145.78 90.97 145.78"/><rect class="cls-5" x="80.64" y="125.12" width="10.33" height="20.66"/><rect class="cls-4" x="49.65" y="125.12" width="10.33" height="20.66"/><polygon class="cls-2" points="59.98 114.79 59.98 125.12 49.65 125.12 59.98 114.79"/><rect class="cls-4" x="59.98" y="114.79" width="20.66" height="10.33"/><polygon class="cls-3" points="90.97 125.12 80.64 125.12 80.64 114.79 90.97 125.12"/><rect class="cls-4" x="80.64" y="156.11" width="20.66" height="10.34"/><polygon class="cls-3" points="111.63 166.44 101.3 166.44 101.3 156.11 111.63 166.44"/><rect class="cls-5" x="101.3" y="166.45" width="10.34" height="20.66"/><polygon class="cls-6" points="111.63 187.1 101.3 197.43 101.3 187.1 111.63 187.1"/><rect class="cls-5" x="80.64" y="187.1" width="20.66" height="10.33"/><polygon class="cls-3" points="80.64 187.1 80.64 197.43 70.31 187.1 80.64 187.1"/><polygon class="cls-5" points="80.64 145.78 80.64 156.11 70.31 145.78 80.64 145.78"/><polygon class="cls-5" points="70.31 145.78 59.98 156.11 59.98 145.78 70.31 145.78"/><rect class="cls-7" x="59.98" y="125.12" width="20.66" height="20.66"/><polygon class="cls-4" points="70.31 145.78 70.31 166.44 59.98 156.11 70.31 145.78"/><polygon class="cls-4" points="80.64 156.11 80.64 166.44 70.31 166.44 80.64 156.11"/><polygon class="cls-5" points="80.64 156.11 70.31 166.44 70.31 145.78 80.64 156.11"/><polygon class="cls-2" points="679.69 862.9 679.69 835.33 692.89 835.33 679.7 862.89 679.69 862.9"/><polygon class="cls-3" points="666.48 835.33 679.69 835.33 679.69 862.9 679.68 862.89 666.48 835.33"/><rect class="cls-4" x="690.02" y="883.56" width="20.66" height="10.34"/><polygon class="cls-2" points="710.68 893.89 710.68 883.55 721.01 883.55 710.68 893.89"/><rect class="cls-4" x="710.68" y="862.9" width="10.34" height="20.66"/><polygon class="cls-3" points="710.68 862.9 710.68 852.57 721.01 862.9 710.68 862.9"/><rect class="cls-5" x="690.02" y="852.57" width="20.66" height="10.33"/><polygon class="cls-6" points="679.69 862.9 690.02 852.57 690.02 862.9 679.69 862.9"/><rect class="cls-7" x="648.7" y="862.9" width="61.97" height="20.66"/><polygon class="cls-4" points="679.69 883.55 690.02 883.55 690.02 893.89 679.69 883.55"/><polygon class="cls-3" points="690.02 904.22 690.02 893.89 700.35 904.22 690.02 904.22"/><polygon class="cls-6" points="659.03 904.22 669.36 893.89 669.36 904.22 659.03 904.22"/><rect class="cls-5" x="659.03" y="904.22" width="10.33" height="20.66"/><rect class="cls-4" x="690.02" y="904.22" width="10.33" height="20.66"/><polygon class="cls-2" points="690.02 935.21 690.02 924.88 700.35 924.88 690.02 935.21"/><rect class="cls-4" x="669.36" y="924.88" width="20.66" height="10.33"/><polygon class="cls-3" points="659.03 924.88 669.36 924.88 669.36 935.21 659.03 924.88"/><rect class="cls-4" x="648.7" y="883.56" width="20.66" height="10.34"/><polygon class="cls-3" points="638.37 883.55 648.7 883.55 648.7 893.89 638.37 883.55"/><rect class="cls-5" x="638.37" y="862.9" width="10.34" height="20.66"/><polygon class="cls-6" points="638.37 862.9 648.7 852.57 648.7 862.9 638.37 862.9"/><rect class="cls-5" x="648.7" y="852.57" width="20.66" height="10.33"/><polygon class="cls-3" points="669.36 862.9 669.36 852.57 679.69 862.9 669.36 862.9"/><polygon class="cls-5" points="669.36 904.22 669.36 893.89 679.69 904.22 669.36 904.22"/><polygon class="cls-5" points="679.69 904.22 690.02 893.89 690.02 904.22 679.69 904.22"/><rect class="cls-7" x="669.36" y="904.22" width="20.66" height="20.66"/><polygon class="cls-4" points="679.69 904.22 679.69 883.55 690.02 893.89 679.69 904.22"/><polygon class="cls-4" points="669.36 893.89 669.36 883.55 679.69 883.55 669.36 893.89"/><polygon class="cls-5" points="669.36 893.89 679.69 883.55 679.69 904.22 669.36 893.89"/></g></svg>