<svg xmlns="http://www.w3.org/2000/svg" viewBox="0 0 750 1050"><defs><style>.cls-1{fill:#fff5e6;}.cls-2{fill:#ffc766;}.cls-3{fill:#ff9f33;}.cls-4{fill:#ffb34d;}.cls-5{fill:#ff8b1a;}.cls-6{fill:#f70;}.cls-7{fill:#ffab19;}.cls-8{fill:none;stroke:#ff9f33;stroke-miterlimit:10;stroke-width:4px;}</style></defs><g id="Layer_8" data-name="Layer 8"><rect class="cls-1" width="750" height="1050" rx="63.89"/></g><g id="Layer_4" data-name="Layer 4"><polygon class="cls-2" points="70.31 187.1 70.31 214.67 57.1 214.67 70.3 187.11 70.31 187.1"/><polygon class="cls-3" points="83.52 214.67 70.31 214.67 70.31 187.1 70.32 187.11 83.52 214.67"/><rect class="cls-4" x="39.32" y="156.11" width="20.66" height="10.34"/><polygon class="cls-2" points="39.32 156.11 39.32 166.44 28.99 166.44 39.32 156.11"/><rect class="cls-4" x="28.99" y="166.45" width="10.34" height="20.66"/><polygon class="cls-3" points="39.32 187.1 39.32 197.43 28.99 187.1 39.32 187.1"/><rect class="cls-5" x="39.32" y="187.1" width="20.66" height="10.33"/><polygon class="cls-6" points="70.31 187.1 59.98 197.43 59.98 187.1 70.31 187.1"/><rect class="cls-7" x="39.32" y="166.45" width="61.97" height="20.66"/><polygon class="cls-4" points="70.31 166.44 59.98 166.44 59.98 156.11 70.31 166.44"/><polygon class="cls-3" points="59.98 145.78 59.98 156.11 49.65 145.78 59.98 145.78"/><polygon class="cls-6" points="90.97 145.78 80.64 156.11 80.64 145.78 90.97 145.78"/><rect class="cls-5" x="80.64" y="125.12" width="10.33" height="20.66"/><rect class="cls-4" x="49.65" y="125.12" width="10.33" height="20.66"/><polygon class="cls-2" points="59.98 114.79 59.98 125.12 49.65 125.12 59.98 114.79"/><rect class="cls-4" x="59.98" y="114.79" width="20.66" height="10.33"/><polygon class="cls-3" points="90.97 125.12 80.64 125.12 80.64 114.79 90.97 125.12"/><rect class="cls-4" x="80.64" y="156.11" width="20.66" height="10.34"/><polygon class="cls-3" points="111.63 166.44 101.3 166.44 101.3 156.11 111.63 166.44"/><rect class="cls-5" x="101.3" y="166.45" width="10.34" height="20.66"/><polygon class="cls-6" points="111.63 187.1 101.3 197.43 101.3 187.1 111.63 187.1"/><rect class="cls-5" x="80.64" y="187.1" width="20.66" height="10.33"/><polygon class="cls-3" points="80.64 187.1 80.64 197.43 70.31 187.1 80.64 187.1"/><polygon class="cls-5" points="80.64 145.78 80.64 156.11 70.31 145.78 80.64 145.78"/><polygon class="cls-5" points="70.31 145.78 59.98 156.11 59.98 145.78 70.31 145.78"/><rect class="cls-7" x="59.98" y="125.12" width="20.66" height="20.66"/><polygon class="cls-4" points="70.31 145.78 70.31 166.44 59.98 156.11 70.31 145.78"/><polygon class="cls-4" points="80.64 156.11 80.64 166.44 70.31 166.44 80.64 156.11"/><polygon class="cls-5" points="80.64 156.11 70.31 166.44 70.31 145.78 80.64 156.11"/><polygon class="cls-2" points="679.69 862.9 679.69 835.33 692.89 835.33 679.7 862.89 679.69 862.9"/><polygon class="cls-3" points="666.48 835.33 679.69 835.33 679.69 862.9 679.68 862.89 666.48 835.33"/><rect class="cls-4" x="690.02" y="883.55" width="20.66" height="10.34"/><polygon class="cls-2" points="710.68 893.89 710.68 883.55 721.01 883.55 710.68 893.89"/><rect class="cls-4" x="710.68" y="862.9" width="10.34" height="20.66"/><polygon class="cls-3" points="710.68 862.9 710.68 852.57 721.01 862.9 710.68 862.9"/><rect class="cls-5" x="690.02" y="852.57" width="20.66" height="10.33"/><polygon class="cls-6" points="679.69 862.9 690.02 852.57 690.02 862.9 679.69 862.9"/><rect class="cls-7" x="648.7" y="862.9" width="61.97" height="20.66"/><polygon class="cls-4" points="679.69 883.55 690.02 883.55 690.02 893.89 679.69 883.55"/><polygon class="cls-3" points="690.02 904.22 690.02 893.89 700.35 904.22 690.02 904.22"/><polygon class="cls-6" points="659.03 904.22 669.36 893.89 669.36 904.22 659.03 904.22"/><rect class="cls-5" x="659.03" y="904.22" width="10.33" height="20.66"/><rect class="cls-4" x="690.02" y="904.22" width="10.33" height="20.66"/><polygon class="cls-2" points="690.02 935.21 690.02 924.88 700.35 924.88 690.02 935.21"/><rect class="cls-4" x="669.36" y="924.88" width="20.66" height="10.33"/><polygon class="cls-3" points="659.03 924.88 669.36 924.88 669.36 935.21 659.03 924.88"/><rect class="cls-4" x="648.7" y="883.55" width="20.66" height="10.34"/><polygon class="cls-3" points="638.37 883.55 648.7 883.55 648.7 893.89 638.37 883.55"/><rect class="cls-5" x="638.37" y="862.9" width="10.34" height="20.66"/><polygon class="cls-6" points="638.37 862.9 648.7 852.57 648.7 862.9 638.37 862.9"/><rect class="cls-5" x="648.7" y="852.57" width="20.66" height="10.33"/><polygon class="cls-3" points="669.36 862.9 669.36 852.57 679.69 862.9 669.36 862.9"/><polygon class="cls-5" points="669.36 904.22 669.36 893.89 679.69 904.22 669.36 904.22"/><polygon class="cls-5" points="679.69 904.22 690.02 893.89 690.02 904.22 679.69 904.22"/><rect class="cls-7" x="669.36" y="904.22" width="20.66" height="20.66"/><polygon class="cls-4" points="679.69 904.22 679.69 883.55 690.02 893.89 679.69 904.22"/><polygon class="cls-4" points="669.36 893.89 669.36 883.55 679.69 883.55 669.36 893.89"/><polygon class="cls-5" points="669.36 893.89 679.69 883.55 679.69 904.22 669.36 893.89"/><polyline class="cls-8" points="148.54 361.19 164.81 302.79 204.38 280.44"/><path d="M55.53,55.45l19-16.39a12.31,12.31,0,0,1,7.86-3.13,10.6,10.6,0,0,1,7.72,3.24,9.7,9.7,0,0,1,3.26,6.95V73.38q0,7.75-6.63,13.37l-6,5.09L83,97.52h6a4.46,4.46,0,1,1,0,8.92H76.81L73.54,98l-6.08,5.06a12.69,12.69,0,0,1-8.11,3.35,10.52,10.52,0,0,1-7.82-3.21,10.66,10.66,0,0,1-3.16-7.77V70.57a20.51,20.51,0,0,1,1.43-8A20.77,20.77,0,0,1,55.53,55.45Zm24.83-9.92L61.39,62a11.85,11.85,0,0,0-3.3,4.14,15.14,15.14,0,0,0-.81,5.57V94.92c0,1.84.71,2.76,2.12,2.76a2.55,2.55,0,0,0,1.65-.7l9.07-7.77-3-7.77a7,7,0,0,1-.65-2.64,4.06,4.06,0,0,1,1.33-3A4.37,4.37,0,0,1,71,74.55a4,4,0,0,1,4.14,2.55l2.3,6a32.3,32.3,0,0,0,5.38-5,7.41,7.41,0,0,0,1.54-4.69V47.12c0-1.48-.68-2.22-2-2.22A2.63,2.63,0,0,0,80.36,45.53Z"/><path d="M694.47,994.55l-19,16.39a12.26,12.26,0,0,1-7.85,3.13,10.6,10.6,0,0,1-7.72-3.24,9.7,9.7,0,0,1-3.26-7V976.61q0-7.74,6.63-13.37l6-5.09L667,952.47h-6a4.46,4.46,0,1,1,0-8.91h12.2l3.26,8.41,6.09-5.06a12.67,12.67,0,0,1,8.11-3.35,10.52,10.52,0,0,1,7.82,3.21,10.66,10.66,0,0,1,3.16,7.77v24.89a20.51,20.51,0,0,1-1.43,8A20.77,20.77,0,0,1,694.47,994.55Zm-24.84,9.92,19-16.42a11.85,11.85,0,0,0,3.3-4.14,15.19,15.19,0,0,0,.8-5.58V955.08c0-1.84-.7-2.76-2.11-2.76a2.5,2.5,0,0,0-1.65.7l-9.07,7.77,3,7.77a7,7,0,0,1,.64,2.64,4,4,0,0,1-1.32,2.95,4.37,4.37,0,0,1-3.14,1.3,4,4,0,0,1-4.15-2.55l-2.29-6a32.3,32.3,0,0,0-5.38,5,7.41,7.41,0,0,0-1.54,4.69v26.26c0,1.48.68,2.22,2.05,2.22A2.6,2.6,0,0,0,669.63,1004.47Z"/><polygon class="cls-3" points="566.4 412.97 264.22 589.84 238.54 550.04 303.9 325.31 366.97 303.18 517.58 302.79 566.4 412.97"/><polyline class="cls-6" points="264.22 589.84 183.37 637.16 157.4 583.11 124.51 428.44 156.24 422.52 264.22 589.84"/><polygon class="cls-2" points="449.5 169.48 449.5 303.5 391.82 332.02 366.43 303.5 354.12 259.49 300.28 275.63 291.06 224.87 275.68 224.87 301.05 153.34 449.5 169.48"/><polygon class="cls-6" points="449.5 169.49 491.94 114.95 467.7 102.67 444.51 118.81 447.18 88.59 425.85 78.81 404.22 100.15 404.34 70.56 377.55 68.15 362.59 94.22 350.59 70.22 326.75 72.25 319.18 102.52 301.59 77.42 276.63 82.55 301.05 153.34 449.5 169.49"/><polygon class="cls-6" points="366.43 303.5 344.51 348.89 377.85 464.44 435.04 348 435.04 304.57 391.82 332.02 366.43 303.5"/><polygon class="cls-2" points="124.51 428.44 120.07 349.33 185.4 356.91 156.24 422.52 124.51 428.44"/><polygon class="cls-6" points="201.89 281.84 192.85 294.33 198.13 312 212.22 305.69 213.5 285.49 225.74 295.89 244.81 290.67 236.81 276.74 220.99 275.19 239.48 265.18 241.85 249 219.59 252.15 212.59 266.67 207.92 248.96 195.11 244.52 192.59 258.22 201.56 271.43 185.4 265 176.74 276.74 185.63 285.11 201.89 281.84"/><polygon class="cls-2" points="196.81 277.33 205.4 266.67 222.29 266.67 219.63 284.15 207.48 286.81 196.81 277.33"/><polyline class="cls-6" points="294.63 244.52 324.68 247.01 296.78 256.33"/><polyline class="cls-5" points="342.92 157.89 365.7 184.29 365.7 206.52 351.48 213.63 339.63 209.18 349.4 220.15 369.85 220.15 382.29 192 380.73 176.52 388.51 186.07 382 215.41 379.92 242.68 398.29 251.85 398.29 271.11 420.81 285.92 431.77 318.22 465.25 332.02 481.55 364.44 520.66 361.18 550 383.97 579.85 378.67 605.11 340.74 584.96 302.79 540.51 298.96 531.63 266.96 491.94 253.33 487.77 202.37 455.18 189.04 449.5 169.49"/><polyline class="cls-8" points="601.31 688.81 585.04 747.2 545.47 769.56"/><polygon class="cls-3" points="183.45 637.03 485.63 460.16 511.31 499.96 445.95 724.68 382.88 746.81 232.26 747.2 183.45 637.03"/><polyline class="cls-6" points="485.63 460.16 566.48 412.84 592.44 466.89 625.33 621.55 593.61 627.48 485.63 460.16"/><polygon class="cls-2" points="300.35 880.51 300.35 746.5 358.03 717.98 383.42 746.5 395.72 790.51 449.56 774.37 458.79 825.13 474.17 825.13 448.8 896.66 300.35 880.51"/><polygon class="cls-6" points="300.34 880.51 257.9 935.04 282.15 947.33 305.33 931.18 302.67 961.41 324 971.18 345.63 949.85 345.51 979.43 372.3 981.85 387.26 955.78 399.25 979.78 423.09 977.75 430.67 947.48 448.26 972.58 473.21 967.45 448.79 896.66 300.34 880.51"/><polygon class="cls-6" points="383.41 746.5 405.33 701.11 372 585.55 314.81 702 314.81 745.43 358.03 717.98 383.41 746.5"/><polygon class="cls-2" points="625.33 621.55 629.78 700.66 564.44 693.09 593.61 627.48 625.33 621.55"/><polygon class="cls-6" points="547.96 768.15 557 755.66 551.72 738 537.63 744.31 536.35 764.51 524.11 754.11 505.04 759.33 513.04 773.26 528.86 774.8 510.37 784.81 508 801 530.26 797.85 537.25 783.33 541.93 801.04 554.74 805.48 557.26 791.78 548.28 778.57 564.44 785 573.11 773.26 564.22 764.89 547.96 768.15"/><polygon class="cls-2" points="553.04 772.66 544.44 783.33 527.56 783.33 530.22 765.85 542.37 763.18 553.04 772.66"/><polyline class="cls-6" points="455.22 805.48 425.17 802.98 453.07 793.66"/><polyline class="cls-5" points="406.93 892.1 384.15 865.7 384.15 843.48 398.37 836.37 410.22 840.81 400.44 829.85 380 829.85 367.56 858 369.12 873.47 361.33 863.92 367.85 834.59 369.93 807.32 351.56 798.15 351.56 778.89 329.04 764.07 318.07 731.78 284.59 717.98 268.3 685.55 229.19 688.81 199.85 666.03 169.99 671.33 144.74 709.26 164.89 747.2 209.33 751.04 218.22 783.04 257.9 796.66 262.07 847.63 294.67 860.96 300.34 880.51"/></g></svg>