<svg xmlns="http://www.w3.org/2000/svg" viewBox="0 0 750 1050"><defs><style>.cls-1{fill:#fff5e6;}.cls-2{fill:#ffc766;}.cls-3{fill:#ff9f33;}.cls-4{fill:#ffb34d;}.cls-5{fill:#ff8b1a;}.cls-6{fill:#f70;}.cls-7{fill:#ffab19;}</style></defs><g id="Layer_8" data-name="Layer 8"><rect class="cls-1" width="750" height="1050" rx="63.89"/></g><g id="Layer_4" data-name="Layer 4"><path d="M64.77,97.42H85.4V75.56H58.45V35.93H89.86a4.46,4.46,0,1,1,0,8.92H67.47v21.8H85.4a9.07,9.07,0,0,1,8.92,8.91V97.42a9,9,0,0,1-8.92,8.91H64.77A15.17,15.17,0,0,1,58.88,105l-6.74-2.81A4.19,4.19,0,0,1,49.43,98a4.47,4.47,0,0,1,1.22-3.16,4,4,0,0,1,3-1.29,7.61,7.61,0,0,1,3.08.79l5.89,2.5A4.22,4.22,0,0,0,64.77,97.42Z"/><path d="M685.24,952.58H664.6v21.86h26.95v39.63h-31.4a4.46,4.46,0,1,1,0-8.92h22.38v-21.8H664.6a9.05,9.05,0,0,1-8.91-8.91V952.58a8.95,8.95,0,0,1,8.91-8.91h20.64a15.21,15.21,0,0,1,5.89,1.32l6.74,2.81a4.19,4.19,0,0,1,2.7,4.25,4.43,4.43,0,0,1-1.22,3.16,3.92,3.92,0,0,1-3,1.29,7.65,7.65,0,0,1-3.08-.79l-5.89-2.5A4.18,4.18,0,0,0,685.24,952.58Z"/><polygon class="cls-2" points="191.93 285.47 191.93 328.01 171.55 328.01 191.92 285.48 191.93 285.47"/><polygon class="cls-3" points="212.32 328.01 191.93 328.01 191.93 285.47 191.94 285.48 212.32 328.01"/><rect class="cls-4" x="144.1" y="237.64" width="31.88" height="15.95"/><polygon class="cls-2" points="144.1 237.64 144.1 253.59 128.15 253.59 144.1 237.64"/><rect class="cls-4" x="128.15" y="253.59" width="15.95" height="31.88"/><polygon class="cls-3" points="144.1 285.47 144.1 301.41 128.15 285.47 144.1 285.47"/><rect class="cls-5" x="144.1" y="285.47" width="31.88" height="15.94"/><polygon class="cls-6" points="191.93 285.47 175.99 301.41 175.99 285.47 191.93 285.47"/><rect class="cls-7" x="144.1" y="253.59" width="95.65" height="31.88"/><polygon class="cls-4" points="191.93 253.59 175.99 253.59 175.99 237.64 191.93 253.59"/><polygon class="cls-3" points="175.99 221.69 175.99 237.64 160.04 221.69 175.99 221.69"/><polygon class="cls-6" points="223.81 221.69 207.87 237.64 207.87 221.69 223.81 221.69"/><rect class="cls-5" x="207.87" y="189.81" width="15.94" height="31.88"/><rect class="cls-4" x="160.04" y="189.81" width="15.94" height="31.88"/><polygon class="cls-2" points="175.99 173.87 175.99 189.81 160.04 189.81 175.99 173.87"/><rect class="cls-4" x="175.99" y="173.87" width="31.88" height="15.94"/><polygon class="cls-3" points="223.81 189.81 207.87 189.81 207.87 173.87 223.81 189.81"/><rect class="cls-4" x="207.87" y="237.64" width="31.88" height="15.95"/><polygon class="cls-3" points="255.71 253.59 239.75 253.59 239.75 237.64 255.71 253.59"/><rect class="cls-5" x="239.75" y="253.59" width="15.95" height="31.88"/><polygon class="cls-6" points="255.71 285.47 239.75 301.41 239.75 285.47 255.71 285.47"/><rect class="cls-5" x="207.87" y="285.47" width="31.88" height="15.94"/><polygon class="cls-3" points="207.87 285.47 207.87 301.41 191.93 285.47 207.87 285.47"/><polygon class="cls-5" points="207.87 221.69 207.87 237.64 191.93 221.69 207.87 221.69"/><polygon class="cls-5" points="191.93 221.69 175.99 237.64 175.99 221.69 191.93 221.69"/><rect class="cls-7" x="175.99" y="189.81" width="31.88" height="31.88"/><polygon class="cls-4" points="191.93 221.69 191.93 253.59 175.99 237.64 191.93 221.69"/><polygon class="cls-4" points="207.87 237.64 207.87 253.59 191.93 253.59 207.87 237.64"/><polygon class="cls-5" points="207.87 237.64 191.93 253.59 191.93 221.69 207.87 237.64"/><polygon class="cls-2" points="558.07 764.31 558.07 721.76 578.45 721.76 558.08 764.3 558.07 764.31"/><polygon class="cls-3" points="537.68 721.76 558.07 721.76 558.07 764.31 558.06 764.3 537.68 721.76"/><rect class="cls-4" x="574.01" y="796.19" width="31.88" height="15.95"/><polygon class="cls-2" points="605.9 812.14 605.9 796.19 621.85 796.19 605.9 812.14"/><rect class="cls-4" x="605.9" y="764.31" width="15.95" height="31.88"/><polygon class="cls-3" points="605.9 764.3 605.9 748.36 621.85 764.3 605.9 764.3"/><rect class="cls-5" x="574.01" y="748.36" width="31.88" height="15.94"/><polygon class="cls-6" points="558.07 764.3 574.01 748.36 574.01 764.3 558.07 764.3"/><rect class="cls-7" x="510.25" y="764.31" width="95.65" height="31.88"/><polygon class="cls-4" points="558.07 796.19 574.01 796.19 574.01 812.14 558.07 796.19"/><polygon class="cls-3" points="574.01 828.08 574.01 812.14 589.96 828.08 574.01 828.08"/><polygon class="cls-6" points="526.19 828.08 542.13 812.14 542.13 828.08 526.19 828.08"/><rect class="cls-5" x="526.19" y="828.08" width="15.94" height="31.88"/><rect class="cls-4" x="574.01" y="828.08" width="15.94" height="31.88"/><polygon class="cls-2" points="574.01 875.91 574.01 859.97 589.96 859.97 574.01 875.91"/><rect class="cls-4" x="542.13" y="859.97" width="31.88" height="15.94"/><polygon class="cls-3" points="526.19 859.97 542.13 859.97 542.13 875.91 526.19 859.97"/><rect class="cls-4" x="510.25" y="796.19" width="31.88" height="15.95"/><polygon class="cls-3" points="494.3 796.19 510.25 796.19 510.25 812.14 494.3 796.19"/><rect class="cls-5" x="494.29" y="764.31" width="15.95" height="31.88"/><polygon class="cls-6" points="494.3 764.3 510.25 748.36 510.25 764.3 494.3 764.3"/><rect class="cls-5" x="510.25" y="748.36" width="31.88" height="15.94"/><polygon class="cls-3" points="542.13 764.3 542.13 748.36 558.07 764.3 542.13 764.3"/><polygon class="cls-5" points="542.13 828.08 542.13 812.14 558.07 828.08 542.13 828.08"/><polygon class="cls-5" points="558.07 828.08 574.01 812.14 574.01 828.08 558.07 828.08"/><rect class="cls-7" x="542.13" y="828.08" width="31.88" height="31.88"/><polygon class="cls-4" points="558.07 828.08 558.07 796.19 574.01 812.14 558.07 828.08"/><polygon class="cls-4" points="542.13 812.14 542.13 796.19 558.07 796.19 542.13 812.14"/><polygon class="cls-5" points="542.13 812.14 558.07 796.19 558.07 828.08 542.13 812.14"/><polygon class="cls-2" points="558.07 285.25 558.07 327.79 537.69 327.79 558.06 285.26 558.07 285.25"/><polygon class="cls-3" points="578.47 327.79 558.07 327.79 558.07 285.25 558.09 285.26 578.47 327.79"/><rect class="cls-4" x="510.25" y="237.41" width="31.88" height="15.95"/><polygon class="cls-2" points="510.25 237.41 510.25 253.37 494.3 253.37 510.25 237.41"/><rect class="cls-4" x="494.29" y="253.37" width="15.95" height="31.88"/><polygon class="cls-3" points="510.25 285.25 510.25 301.19 494.3 285.25 510.25 285.25"/><rect class="cls-5" x="510.25" y="285.25" width="31.88" height="15.94"/><polygon class="cls-6" points="558.07 285.25 542.13 301.19 542.13 285.25 558.07 285.25"/><rect class="cls-7" x="510.25" y="253.37" width="95.65" height="31.88"/><polygon class="cls-4" points="558.07 253.37 542.13 253.37 542.13 237.41 558.07 253.37"/><polygon class="cls-3" points="542.13 221.47 542.13 237.41 526.19 221.47 542.13 221.47"/><polygon class="cls-6" points="589.96 221.47 574.01 237.41 574.01 221.47 589.96 221.47"/><rect class="cls-5" x="574.01" y="189.59" width="15.94" height="31.88"/><rect class="cls-4" x="526.19" y="189.59" width="15.94" height="31.88"/><polygon class="cls-2" points="542.13 173.65 542.13 189.59 526.19 189.59 542.13 173.65"/><rect class="cls-4" x="542.13" y="173.65" width="31.88" height="15.94"/><polygon class="cls-3" points="589.96 189.59 574.01 189.59 574.01 173.65 589.96 189.59"/><rect class="cls-4" x="574.01" y="237.41" width="31.88" height="15.95"/><polygon class="cls-3" points="621.85 253.37 605.9 253.37 605.9 237.41 621.85 253.37"/><rect class="cls-5" x="605.9" y="253.37" width="15.95" height="31.88"/><polygon class="cls-6" points="621.85 285.25 605.9 301.19 605.9 285.25 621.85 285.25"/><rect class="cls-5" x="574.01" y="285.25" width="31.88" height="15.94"/><polygon class="cls-3" points="574.01 285.25 574.01 301.19 558.07 285.25 574.01 285.25"/><polygon class="cls-5" points="574.01 221.47 574.01 237.41 558.07 221.47 574.01 221.47"/><polygon class="cls-5" points="558.07 221.47 542.13 237.41 542.13 221.47 558.07 221.47"/><rect class="cls-7" x="542.13" y="189.59" width="31.88" height="31.88"/><polygon class="cls-4" points="558.07 221.47 558.07 253.37 542.13 237.41 558.07 221.47"/><polygon class="cls-4" points="574.01 237.41 574.01 253.37 558.07 253.37 574.01 237.41"/><polygon class="cls-5" points="574.01 237.41 558.07 253.37 558.07 221.47 574.01 237.41"/><polygon class="cls-2" points="191.93 764.53 191.93 721.99 212.31 721.99 191.94 764.52 191.93 764.53"/><polygon class="cls-3" points="171.53 721.99 191.93 721.99 191.93 764.53 191.91 764.52 171.53 721.99"/><rect class="cls-4" x="207.87" y="796.41" width="31.88" height="15.95"/><polygon class="cls-2" points="239.75 812.36 239.75 796.41 255.71 796.41 239.75 812.36"/><rect class="cls-4" x="239.75" y="764.53" width="15.95" height="31.88"/><polygon class="cls-3" points="239.75 764.53 239.75 748.59 255.71 764.53 239.75 764.53"/><rect class="cls-5" x="207.87" y="748.59" width="31.88" height="15.94"/><polygon class="cls-6" points="191.93 764.53 207.87 748.59 207.87 764.53 191.93 764.53"/><rect class="cls-7" x="144.1" y="764.53" width="95.65" height="31.88"/><polygon class="cls-4" points="191.93 796.41 207.87 796.41 207.87 812.36 191.93 796.41"/><polygon class="cls-3" points="207.87 828.31 207.87 812.36 223.81 828.31 207.87 828.31"/><polygon class="cls-6" points="160.04 828.31 175.99 812.36 175.99 828.31 160.04 828.31"/><rect class="cls-5" x="160.04" y="828.31" width="15.94" height="31.88"/><rect class="cls-4" x="207.87" y="828.31" width="15.94" height="31.88"/><polygon class="cls-2" points="207.87 876.13 207.87 860.19 223.81 860.19 207.87 876.13"/><rect class="cls-4" x="175.99" y="860.19" width="31.88" height="15.94"/><polygon class="cls-3" points="160.04 860.19 175.99 860.19 175.99 876.13 160.04 860.19"/><rect class="cls-4" x="144.1" y="796.41" width="31.88" height="15.95"/><polygon class="cls-3" points="128.15 796.41 144.1 796.41 144.1 812.36 128.15 796.41"/><rect class="cls-5" x="128.15" y="764.53" width="15.95" height="31.88"/><polygon class="cls-6" points="128.15 764.53 144.1 748.59 144.1 764.53 128.15 764.53"/><rect class="cls-5" x="144.1" y="748.59" width="31.88" height="15.94"/><polygon class="cls-3" points="175.99 764.53 175.99 748.59 191.93 764.53 175.99 764.53"/><polygon class="cls-5" points="175.99 828.31 175.99 812.36 191.93 828.31 175.99 828.31"/><polygon class="cls-5" points="191.93 828.31 207.87 812.36 207.87 828.31 191.93 828.31"/><rect class="cls-7" x="175.99" y="828.31" width="31.88" height="31.88"/><polygon class="cls-4" points="191.93 828.31 191.93 796.41 207.87 812.36 191.93 828.31"/><polygon class="cls-4" points="175.99 812.36 175.99 796.41 191.93 796.41 175.99 812.36"/><polygon class="cls-5" points="175.99 812.36 191.93 796.41 191.93 828.31 175.99 812.36"/><polygon class="cls-2" points="375 559.53 375 602.07 354.62 602.07 374.99 559.54 375 559.53"/><polygon class="cls-3" points="395.39 602.07 375 602.07 375 559.53 375.01 559.54 395.39 602.07"/><rect class="cls-4" x="327.18" y="511.69" width="31.88" height="15.95"/><polygon class="cls-2" points="327.18 511.69 327.18 527.65 311.22 527.65 327.18 511.69"/><rect class="cls-4" x="311.22" y="527.65" width="15.95" height="31.88"/><polygon class="cls-3" points="327.18 559.53 327.18 575.47 311.22 559.53 327.18 559.53"/><rect class="cls-5" x="327.18" y="559.53" width="31.88" height="15.94"/><polygon class="cls-6" points="375 559.53 359.06 575.47 359.06 559.53 375 559.53"/><rect class="cls-7" x="327.18" y="527.65" width="95.65" height="31.88"/><polygon class="cls-4" points="375 527.65 359.06 527.65 359.06 511.69 375 527.65"/><polygon class="cls-3" points="359.06 495.75 359.06 511.69 343.12 495.75 359.06 495.75"/><polygon class="cls-6" points="406.88 495.75 390.94 511.69 390.94 495.75 406.88 495.75"/><rect class="cls-5" x="390.94" y="463.87" width="15.94" height="31.88"/><rect class="cls-4" x="343.12" y="463.87" width="15.94" height="31.88"/><polygon class="cls-2" points="359.06 447.93 359.06 463.87 343.12 463.87 359.06 447.93"/><rect class="cls-4" x="359.06" y="447.93" width="31.88" height="15.94"/><polygon class="cls-3" points="406.88 463.87 390.94 463.87 390.94 447.93 406.88 463.87"/><rect class="cls-4" x="390.94" y="511.69" width="31.88" height="15.95"/><polygon class="cls-3" points="438.78 527.65 422.82 527.65 422.82 511.69 438.78 527.65"/><rect class="cls-5" x="422.82" y="527.65" width="15.95" height="31.88"/><polygon class="cls-6" points="438.78 559.53 422.82 575.47 422.82 559.53 438.78 559.53"/><rect class="cls-5" x="390.94" y="559.53" width="31.88" height="15.94"/><polygon class="cls-3" points="390.94 559.53 390.94 575.47 375 559.53 390.94 559.53"/><polygon class="cls-5" points="390.94 495.75 390.94 511.69 375 495.75 390.94 495.75"/><polygon class="cls-5" points="375 495.75 359.06 511.69 359.06 495.75 375 495.75"/><rect class="cls-7" x="359.06" y="463.87" width="31.88" height="31.88"/><polygon class="cls-4" points="375 495.75 375 527.65 359.06 511.69 375 495.75"/><polygon class="cls-4" points="390.94 511.69 390.94 527.65 375 527.65 390.94 511.69"/><polygon class="cls-5" points="390.94 511.69 375 527.65 375 495.75 390.94 511.69"/><polygon class="cls-2" points="70.31 187.1 70.31 214.67 57.1 214.67 70.3 187.11 70.31 187.1"/><polygon class="cls-3" points="83.52 214.67 70.31 214.67 70.31 187.1 70.32 187.11 83.52 214.67"/><rect class="cls-4" x="39.32" y="156.11" width="20.66" height="10.34"/><polygon class="cls-2" points="39.32 156.11 39.32 166.44 28.99 166.44 39.32 156.11"/><rect class="cls-4" x="28.99" y="166.45" width="10.34" height="20.66"/><polygon class="cls-3" points="39.32 187.1 39.32 197.43 28.99 187.1 39.32 187.1"/><rect class="cls-5" x="39.32" y="187.1" width="20.66" height="10.33"/><polygon class="cls-6" points="70.31 187.1 59.98 197.43 59.98 187.1 70.31 187.1"/><rect class="cls-7" x="39.32" y="166.45" width="61.97" height="20.66"/><polygon class="cls-4" points="70.31 166.44 59.98 166.44 59.98 156.11 70.31 166.44"/><polygon class="cls-3" points="59.98 145.78 59.98 156.11 49.65 145.78 59.98 145.78"/><polygon class="cls-6" points="90.97 145.78 80.64 156.11 80.64 145.78 90.97 145.78"/><rect class="cls-5" x="80.64" y="125.12" width="10.33" height="20.66"/><rect class="cls-4" x="49.65" y="125.12" width="10.33" height="20.66"/><polygon class="cls-2" points="59.98 114.79 59.98 125.12 49.65 125.12 59.98 114.79"/><rect class="cls-4" x="59.98" y="114.79" width="20.66" height="10.33"/><polygon class="cls-3" points="90.97 125.12 80.64 125.12 80.64 114.79 90.97 125.12"/><rect class="cls-4" x="80.64" y="156.11" width="20.66" height="10.34"/><polygon class="cls-3" points="111.63 166.44 101.3 166.44 101.3 156.11 111.63 166.44"/><rect class="cls-5" x="101.3" y="166.45" width="10.34" height="20.66"/><polygon class="cls-6" points="111.63 187.1 101.3 197.43 101.3 187.1 111.63 187.1"/><rect class="cls-5" x="80.64" y="187.1" width="20.66" height="10.33"/><polygon class="cls-3" points="80.64 187.1 80.64 197.43 70.31 187.1 80.64 187.1"/><polygon class="cls-5" points="80.64 145.78 80.64 156.11 70.31 145.78 80.64 145.78"/><polygon class="cls-5" points="70.31 145.78 59.98 156.11 59.98 145.78 70.31 145.78"/><rect class="cls-7" x="59.98" y="125.12" width="20.66" height="20.66"/><polygon class="cls-4" points="70.31 145.78 70.31 166.44 59.98 156.11 70.31 145.78"/><polygon class="cls-4" points="80.64 156.11 80.64 166.44 70.31 166.44 80.64 156.11"/><polygon class="cls-5" points="80.64 156.11 70.31 166.44 70.31 145.78 80.64 156.11"/><polygon class="cls-2" points="679.69 862.9 679.69 835.33 692.89 835.33 679.7 862.89 679.69 862.9"/><polygon class="cls-3" points="666.48 835.33 679.69 835.33 679.69 862.9 679.68 862.89 666.48 835.33"/><rect class="cls-4" x="690.02" y="883.56" width="20.66" height="10.34"/><polygon class="cls-2" points="710.68 893.89 710.68 883.55 721.01 883.55 710.68 893.89"/><rect class="cls-4" x="710.68" y="862.9" width="10.34" height="20.66"/><polygon class="cls-3" points="710.68 862.9 710.68 852.57 721.01 862.9 710.68 862.9"/><rect class="cls-5" x="690.02" y="852.57" width="20.66" height="10.33"/><polygon class="cls-6" points="679.69 862.9 690.02 852.57 690.02 862.9 679.69 862.9"/><rect class="cls-7" x="648.7" y="862.9" width="61.97" height="20.66"/><polygon class="cls-4" points="679.69 883.55 690.02 883.55 690.02 893.89 679.69 883.55"/><polygon class="cls-3" points="690.02 904.22 690.02 893.89 700.35 904.22 690.02 904.22"/><polygon class="cls-6" points="659.03 904.22 669.36 893.89 669.36 904.22 659.03 904.22"/><rect class="cls-5" x="659.03" y="904.22" width="10.33" height="20.66"/><rect class="cls-4" x="690.02" y="904.22" width="10.33" height="20.66"/><polygon class="cls-2" points="690.02 935.21 690.02 924.88 700.35 924.88 690.02 935.21"/><rect class="cls-4" x="669.36" y="924.88" width="20.66" height="10.33"/><polygon class="cls-3" points="659.03 924.88 669.36 924.88 669.36 935.21 659.03 924.88"/><rect class="cls-4" x="648.7" y="883.56" width="20.66" height="10.34"/><polygon class="cls-3" points="638.37 883.55 648.7 883.55 648.7 893.89 638.37 883.55"/><rect class="cls-5" x="638.37" y="862.9" width="10.34" height="20.66"/><polygon class="cls-6" points="638.37 862.9 648.7 852.57 648.7 862.9 638.37 862.9"/><rect class="cls-5" x="648.7" y="852.57" width="20.66" height="10.33"/><polygon class="cls-3" points="669.36 862.9 669.36 852.57 679.69 862.9 669.36 862.9"/><polygon class="cls-5" points="669.36 904.22 669.36 893.89 679.69 904.22 669.36 904.22"/><polygon class="cls-5" points="679.69 904.22 690.02 893.89 690.02 904.22 679.69 904.22"/><rect class="cls-7" x="669.36" y="904.22" width="20.66" height="20.66"/><polygon class="cls-4" points="679.69 904.22 679.69 883.55 690.02 893.89 679.69 904.22"/><polygon class="cls-4" points="669.36 893.89 669.36 883.55 679.69 883.55 669.36 893.89"/><polygon class="cls-5" points="669.36 893.89 679.69 883.55 679.69 904.22 669.36 893.89"/></g></svg>