<svg xmlns="http://www.w3.org/2000/svg" viewBox="0 0 750 1050"><defs><style>.cls-1{fill:#f1f2f2;}.cls-2{fill:#ff3b43;}.cls-3{fill:#c41e25;}.cls-4{fill:#8a0006;}</style></defs><g id="Layer_6" data-name="Layer 6"><rect class="cls-1" width="750" height="1050" rx="63.89"/></g><g id="Layer_3" data-name="Layer 3"><path d="M48.74,100.23l17.95-61a4.35,4.35,0,0,1,4.5-3.32c2.22,0,3.61.94,4.19,2.81l17.77,61.92a4.53,4.53,0,0,1,.21,1.32,4.35,4.35,0,0,1-1.27,3.16,4,4,0,0,1-2.92,1.3,4.19,4.19,0,0,1-4.45-3.24L81.19,91.11H60.78l-3.88,13a2.66,2.66,0,0,1-1.33,1.6,4.53,4.53,0,0,1-2.56.77,4.29,4.29,0,0,1-3.25-1.33,4.44,4.44,0,0,1-1.28-3.23A5.45,5.45,0,0,1,48.74,100.23ZM71.13,56.57,63.49,82.09H78.56Z"/><path d="M701.26,949.77l-18,61a4.35,4.35,0,0,1-4.5,3.32c-2.22,0-3.61-.94-4.19-2.81l-17.77-61.92a4.53,4.53,0,0,1-.21-1.32,4.35,4.35,0,0,1,1.28-3.16,3.94,3.94,0,0,1,2.91-1.3,4.21,4.21,0,0,1,4.46,3.24l3.52,12.09h20.41l3.88-13a2.71,2.71,0,0,1,1.33-1.61,4.59,4.59,0,0,1,2.56-.76,4.29,4.29,0,0,1,3.25,1.33,4.44,4.44,0,0,1,1.28,3.23A5.45,5.45,0,0,1,701.26,949.77Zm-22.39,43.66,7.65-25.52H671.44Z"/><polygon class="cls-2" points="70.31 114.79 70.31 151.85 33.26 151.85 70.31 114.79"/><polygon class="cls-3" points="107.36 151.85 70.31 151.85 70.31 114.79 107.36 151.85"/><polygon class="cls-4" points="107.36 151.85 70.31 188.9 70.31 151.85 107.36 151.85"/><polygon class="cls-3" points="70.31 151.85 70.31 188.9 33.26 151.85 70.31 151.85"/><polygon class="cls-2" points="679.69 861.1 679.69 898.15 642.64 898.15 679.69 861.1"/><polygon class="cls-3" points="716.74 898.15 679.69 898.15 679.69 861.1 716.74 898.15"/><polygon class="cls-4" points="716.74 898.15 679.69 935.21 679.69 898.15 716.74 898.15"/><polygon class="cls-3" points="679.69 898.15 679.69 935.21 642.64 898.15 679.69 898.15"/><polygon class="cls-2" points="375 446.04 375 525 296.04 525 375 446.04"/><polygon class="cls-3" points="453.96 525 375 525 375 446.04 453.96 525"/><polygon class="cls-4" points="453.96 525 375 603.96 375 525 453.96 525"/><polygon class="cls-3" points="375 525 375 603.96 296.04 525 375 525"/></g></svg>