<svg xmlns="http://www.w3.org/2000/svg" viewBox="0 0 750 1050"><defs><style>.cls-1{fill:#f1f2f2;}.cls-2{fill:#ff3b43;}.cls-3{fill:#c41e25;}.cls-4{fill:#8a0006;}</style></defs><g id="Layer_6" data-name="Layer 6"><rect class="cls-1" width="750" height="1050" rx="63.89"/></g><g id="Layer_3" data-name="Layer 3"><path d="M88.9,106.23H84.45a4.35,4.35,0,0,1-3.13-1.3,4.44,4.44,0,0,1,0-6.31,4.29,4.29,0,0,1,3.16-1.3V67.87H53a4.54,4.54,0,0,1-4.46-4.46V40.28A4.53,4.53,0,0,1,53,35.83H88.9a4.53,4.53,0,0,1,4.46,4.45v61.49a4.44,4.44,0,0,1-4.46,4.46ZM84.55,58.85v-14h-27v14Z"/><path d="M661.1,943.77h4.46a4.36,4.36,0,0,1,3.13,1.3,4.45,4.45,0,0,1-3.13,7.61v29.45H697a4.54,4.54,0,0,1,4.46,4.46v23.13a4.53,4.53,0,0,1-4.46,4.45H661.1a4.53,4.53,0,0,1-4.46-4.45V948.23a4.44,4.44,0,0,1,4.46-4.46Zm4.35,47.38v14h27.06v-14Z"/><polygon class="cls-2" points="207.12 718.22 207.12 797.19 128.16 797.19 207.12 718.22"/><polygon class="cls-3" points="286.08 797.19 207.12 797.19 207.12 718.22 286.08 797.19"/><polygon class="cls-4" points="286.08 797.19 207.12 876.15 207.12 797.19 286.08 797.19"/><polygon class="cls-3" points="207.12 797.19 207.12 876.15 128.16 797.19 207.12 797.19"/><polygon class="cls-2" points="207.12 173.85 207.12 252.82 128.16 252.82 207.12 173.85"/><polygon class="cls-3" points="286.08 252.82 207.12 252.82 207.12 173.85 286.08 252.82"/><polygon class="cls-4" points="286.08 252.82 207.12 331.78 207.12 252.82 286.08 252.82"/><polygon class="cls-3" points="207.12 252.82 207.12 331.78 128.16 252.82 207.12 252.82"/><polygon class="cls-2" points="70.31 114.79 70.31 151.84 33.26 151.84 70.31 114.79"/><polygon class="cls-3" points="107.36 151.84 70.31 151.84 70.31 114.79 107.36 151.84"/><polygon class="cls-4" points="107.36 151.84 70.31 188.9 70.31 151.84 107.36 151.84"/><polygon class="cls-3" points="70.31 151.84 70.31 188.9 33.26 151.84 70.31 151.84"/><polygon class="cls-2" points="679.69 861.1 679.69 898.15 642.64 898.15 679.69 861.1"/><polygon class="cls-3" points="716.74 898.15 679.69 898.15 679.69 861.1 716.74 898.15"/><polygon class="cls-4" points="716.74 898.15 679.69 935.21 679.69 898.15 716.74 898.15"/><polygon class="cls-3" points="679.69 898.15 679.69 935.21 642.64 898.15 679.69 898.15"/><polygon class="cls-2" points="207.12 355.31 207.12 434.27 128.16 434.27 207.12 355.31"/><polygon class="cls-3" points="286.08 434.27 207.12 434.27 207.12 355.31 286.08 434.27"/><polygon class="cls-4" points="286.08 434.27 207.12 513.24 207.12 434.27 286.08 434.27"/><polygon class="cls-3" points="207.12 434.27 207.12 513.24 128.16 434.27 207.12 434.27"/><polygon class="cls-2" points="207.12 536.77 207.12 615.73 128.16 615.73 207.12 536.77"/><polygon class="cls-3" points="286.08 615.73 207.12 615.73 207.12 536.77 286.08 615.73"/><polygon class="cls-4" points="286.08 615.73 207.12 694.69 207.12 615.73 286.08 615.73"/><polygon class="cls-3" points="207.12 615.73 207.12 694.69 128.16 615.73 207.12 615.73"/><polygon class="cls-2" points="542.9 718.22 542.9 797.19 463.93 797.19 542.9 718.22"/><polygon class="cls-3" points="621.86 797.19 542.9 797.19 542.9 718.22 621.86 797.19"/><polygon class="cls-4" points="621.86 797.19 542.9 876.15 542.9 797.19 621.86 797.19"/><polygon class="cls-3" points="542.9 797.19 542.9 876.15 463.93 797.19 542.9 797.19"/><polygon class="cls-2" points="542.9 173.85 542.9 252.82 463.93 252.82 542.9 173.85"/><polygon class="cls-3" points="621.86 252.82 542.9 252.82 542.9 173.85 621.86 252.82"/><polygon class="cls-4" points="621.86 252.82 542.9 331.78 542.9 252.82 621.86 252.82"/><polygon class="cls-3" points="542.9 252.82 542.9 331.78 463.93 252.82 542.9 252.82"/><polygon class="cls-2" points="542.9 355.31 542.9 434.27 463.93 434.27 542.9 355.31"/><polygon class="cls-3" points="621.86 434.27 542.9 434.27 542.9 355.31 621.86 434.27"/><polygon class="cls-4" points="621.86 434.27 542.9 513.24 542.9 434.27 621.86 434.27"/><polygon class="cls-3" points="542.9 434.27 542.9 513.24 463.93 434.27 542.9 434.27"/><polygon class="cls-2" points="542.9 536.77 542.9 615.73 463.93 615.73 542.9 536.77"/><polygon class="cls-3" points="621.86 615.73 542.9 615.73 542.9 536.77 621.86 615.73"/><polygon class="cls-4" points="621.86 615.73 542.9 694.69 542.9 615.73 621.86 615.73"/><polygon class="cls-3" points="542.9 615.73 542.9 694.69 463.93 615.73 542.9 615.73"/><polygon class="cls-2" points="375 446.04 375 525 296.04 525 375 446.04"/><polygon class="cls-3" points="453.96 525 375 525 375 446.04 453.96 525"/><polygon class="cls-4" points="453.96 525 375 603.96 375 525 453.96 525"/><polygon class="cls-3" points="375 525 375 603.96 296.04 525 375 525"/></g></svg>