<svg xmlns="http://www.w3.org/2000/svg" viewBox="0 0 750 1050"><defs><style>.cls-1{fill:#f1f2f2;}.cls-2{fill:#ff3b43;}.cls-3{fill:#c41e25;}.cls-4{fill:#8a0006;}.cls-5{fill:#a70f15;}</style></defs><g id="Layer_6" data-name="Layer 6"><rect class="cls-1" width="750" height="1050" rx="63.89"/></g><g id="Layer_3" data-name="Layer 3"><polygon class="cls-2" points="70.31 114.79 70.31 151.84 33.26 151.84 70.31 114.79"/><polygon class="cls-3" points="107.36 151.84 70.31 151.84 70.31 114.79 107.36 151.84"/><polygon class="cls-4" points="107.36 151.84 70.31 188.89 70.31 151.84 107.36 151.84"/><polygon class="cls-3" points="70.31 151.84 70.31 188.89 33.26 151.84 70.31 151.84"/><polygon class="cls-2" points="679.69 861.1 679.69 898.15 642.64 898.15 679.69 861.1"/><polygon class="cls-3" points="716.74 898.15 679.69 898.15 679.69 861.1 716.74 898.15"/><polygon class="cls-4" points="716.74 898.15 679.69 935.21 679.69 898.15 716.74 898.15"/><polygon class="cls-3" points="679.69 898.15 679.69 935.21 642.64 898.15 679.69 898.15"/><path d="M52.83,93V78.85a4.46,4.46,0,1,1,8.91,0V93.07a4.1,4.1,0,0,0,1.33,3.08,4.47,4.47,0,0,0,3.23,1.27h9a4.46,4.46,0,0,0,3.21-1.3A4.23,4.23,0,0,0,79.88,93V40.39a4.35,4.35,0,0,1,1.28-3.16,4.16,4.16,0,0,1,3.07-1.3,4.32,4.32,0,0,1,3.19,1.43A4.57,4.57,0,0,1,88.8,40.6V93a12.72,12.72,0,0,1-4.09,9.55,13.14,13.14,0,0,1-9.39,3.93h-9A13.54,13.54,0,0,1,52.83,93Z"/><path d="M697.17,957v14.11a4.46,4.46,0,1,1-8.91,0V956.93a4.1,4.1,0,0,0-1.33-3.08,4.47,4.47,0,0,0-3.23-1.27h-9a4.46,4.46,0,0,0-3.21,1.3,4.23,4.23,0,0,0-1.35,3.16v52.57a4.35,4.35,0,0,1-1.28,3.16,4.13,4.13,0,0,1-3.07,1.3,4.32,4.32,0,0,1-3.19-1.43,4.57,4.57,0,0,1-1.38-3.24V957a12.72,12.72,0,0,1,4.09-9.55,13.14,13.14,0,0,1,9.39-3.93h9A13.54,13.54,0,0,1,697.17,957Z"/><polygon class="cls-3" points="579.85 405.1 264.22 589.84 248.07 455.79 303.9 325.31 366.97 303.19 517.58 302.8 579.85 405.1"/><polygon class="cls-2" points="242.42 408.94 202.7 447.64 157.7 491.49 157.7 396.88 236.15 356.91 242.42 408.94"/><polyline class="cls-4" points="157.7 419.66 191.26 400.48 191.26 403.89 157.7 422.64"/><polyline class="cls-4" points="157.7 472.39 194 442.98 194 439.51 157.7 467.49"/><polyline class="cls-4" points="157.7 447.59 195.01 422.64 195.01 419.03 157.7 443.98"/><polygon class="cls-4" points="264.22 589.84 248.07 455.79 242.42 408.94 202.7 447.64 161.02 608.81 183.37 637.16 264.22 589.84"/><polygon class="cls-3" points="187.02 334.78 187.02 635.02 170.15 644.9 174.33 334.78 187.02 334.78"/><polygon class="cls-2" points="449.5 169.49 449.5 303.5 391.82 332.02 366.43 303.5 354.12 259.49 300.28 275.63 291.06 224.87 275.68 224.87 301.05 153.34 449.5 169.49"/><polygon class="cls-4" points="449.5 169.49 491.94 114.96 384.32 60.42 276.63 82.55 301.05 153.34 449.5 169.49"/><polyline class="cls-4" points="291.06 224.87 289.13 240.25 319.13 237.95 337.59 230.26 289.13 224.87"/><polygon class="cls-4" points="366.43 303.5 389.27 497.48 435.04 304.57 391.82 332.02 366.43 303.5"/><polyline class="cls-5" points="449.5 169.49 487.48 227.95 490.56 259.88 508.25 278.81 552.09 277.08 474.4 334.79 419.02 308.71 419.02 270.25 391.82 247.18 409.8 205.64 391.82 163.22"/><polyline class="cls-4" points="174.33 334.79 156.33 293.23 181.98 183.62 207.63 306.39 187.03 334.79"/><polyline class="cls-2" points="236.15 356.91 187.03 371.39 187.03 381.94"/><polygon class="cls-3" points="170.15 644.9 485.78 460.16 501.93 594.21 446.64 724.37 383.57 746.5 232.96 746.89 170.15 644.9"/><polygon class="cls-2" points="507.58 641.06 547.3 602.36 592.3 558.51 592.3 653.12 513.85 693.09 507.58 641.06"/><polyline class="cls-4" points="592.3 630.34 558.74 649.52 558.74 646.11 592.3 627.36"/><polyline class="cls-4" points="592.3 577.6 556 607.02 556 610.49 592.3 582.51"/><polyline class="cls-4" points="592.3 602.41 554.99 627.36 554.99 630.96 592.3 606.01"/><polygon class="cls-4" points="485.78 460.16 501.93 594.21 507.58 641.06 547.3 602.36 588.98 441.19 566.63 412.84 485.78 460.16"/><polygon class="cls-3" points="562.98 715.22 562.98 414.98 579.85 405.1 575.67 715.22 562.98 715.22"/><polygon class="cls-2" points="300.5 880.51 300.5 746.5 358.18 717.98 383.57 746.5 395.88 790.51 449.72 774.37 458.94 825.13 474.32 825.13 448.95 896.66 300.5 880.51"/><polygon class="cls-4" points="300.5 880.51 258.06 935.04 365.68 989.58 473.37 967.45 448.95 896.66 300.5 880.51"/><polyline class="cls-4" points="458.94 825.13 460.87 809.74 430.87 812.05 412.41 819.74 460.87 825.13"/><polygon class="cls-4" points="383.57 746.5 360.73 552.52 314.96 745.43 358.18 717.98 383.57 746.5"/><polyline class="cls-5" points="300.5 880.51 262.52 822.05 259.44 790.12 241.75 771.19 197.91 772.92 275.6 715.21 330.98 741.29 330.98 779.75 358.18 802.82 340.2 844.36 358.18 886.78"/><polyline class="cls-4" points="575.67 715.21 593.67 756.77 568.02 866.38 542.37 743.61 562.98 715.21"/><polyline class="cls-2" points="513.85 693.09 562.98 678.6 562.98 668.06"/></g></svg>