<svg xmlns="http://www.w3.org/2000/svg" viewBox="0 0 750 1050"><defs><style>.cls-1{fill:#f1f2f2;}.cls-2{fill:#ff3b43;}.cls-3{fill:#c41e25;}.cls-4{fill:#8a0006;}</style></defs><g id="Layer_6" data-name="Layer 6"><rect class="cls-1" width="750" height="1050" rx="63.89"/></g><g id="Layer_3" data-name="Layer 3"><path d="M64.77,97.42H85.4V75.56H58.45V35.93H89.86a4.46,4.46,0,1,1,0,8.91H67.47V66.65H85.4a9.07,9.07,0,0,1,8.92,8.91V97.42a9,9,0,0,1-8.92,8.91H64.77A15.17,15.17,0,0,1,58.88,105l-6.74-2.81A4.19,4.19,0,0,1,49.43,98a4.47,4.47,0,0,1,1.22-3.16,4,4,0,0,1,3-1.29,7.61,7.61,0,0,1,3.08.79l5.89,2.49A4.14,4.14,0,0,0,64.77,97.42Z"/><path d="M685.24,952.58H664.6v21.86h26.95v39.63H660.14a4.53,4.53,0,0,1-4.45-4.46,4.46,4.46,0,0,1,4.45-4.46h22.39v-21.8H664.6a9.05,9.05,0,0,1-8.91-8.91V952.58a8.95,8.95,0,0,1,8.91-8.91h20.64a15.21,15.21,0,0,1,5.89,1.32l6.74,2.81a4.19,4.19,0,0,1,2.7,4.25,4.47,4.47,0,0,1-1.22,3.16,3.92,3.92,0,0,1-3,1.29,7.65,7.65,0,0,1-3.08-.79l-5.89-2.5A4.18,4.18,0,0,0,685.24,952.58Z"/><polygon class="cls-2" points="207.12 718.22 207.12 797.19 128.16 797.19 207.12 718.22"/><polygon class="cls-3" points="286.08 797.19 207.12 797.19 207.12 718.22 286.08 797.19"/><polygon class="cls-4" points="286.08 797.19 207.12 876.15 207.12 797.19 286.08 797.19"/><polygon class="cls-3" points="207.12 797.19 207.12 876.15 128.16 797.19 207.12 797.19"/><polygon class="cls-2" points="207.12 173.85 207.12 252.82 128.16 252.82 207.12 173.85"/><polygon class="cls-3" points="286.08 252.82 207.12 252.82 207.12 173.85 286.08 252.82"/><polygon class="cls-4" points="286.08 252.82 207.12 331.78 207.12 252.82 286.08 252.82"/><polygon class="cls-3" points="207.12 252.82 207.12 331.78 128.16 252.82 207.12 252.82"/><polygon class="cls-2" points="70.31 114.79 70.31 151.85 33.26 151.85 70.31 114.79"/><polygon class="cls-3" points="107.36 151.85 70.31 151.85 70.31 114.79 107.36 151.85"/><polygon class="cls-4" points="107.36 151.85 70.31 188.9 70.31 151.85 107.36 151.85"/><polygon class="cls-3" points="70.31 151.85 70.31 188.9 33.26 151.85 70.31 151.85"/><polygon class="cls-2" points="679.69 861.1 679.69 898.15 642.64 898.15 679.69 861.1"/><polygon class="cls-3" points="716.74 898.15 679.69 898.15 679.69 861.1 716.74 898.15"/><polygon class="cls-4" points="716.74 898.15 679.69 935.21 679.69 898.15 716.74 898.15"/><polygon class="cls-3" points="679.69 898.15 679.69 935.21 642.64 898.15 679.69 898.15"/><polygon class="cls-2" points="542.9 718.22 542.9 797.19 463.93 797.19 542.9 718.22"/><polygon class="cls-3" points="621.86 797.19 542.9 797.19 542.9 718.22 621.86 797.19"/><polygon class="cls-4" points="621.86 797.19 542.9 876.15 542.9 797.19 621.86 797.19"/><polygon class="cls-3" points="542.9 797.19 542.9 876.15 463.93 797.19 542.9 797.19"/><polygon class="cls-2" points="542.9 173.85 542.9 252.82 463.93 252.82 542.9 173.85"/><polygon class="cls-3" points="621.86 252.82 542.9 252.82 542.9 173.85 621.86 252.82"/><polygon class="cls-4" points="621.86 252.82 542.9 331.78 542.9 252.82 621.86 252.82"/><polygon class="cls-3" points="542.9 252.82 542.9 331.78 463.93 252.82 542.9 252.82"/><polygon class="cls-2" points="375 446.04 375 525 296.04 525 375 446.04"/><polygon class="cls-3" points="453.96 525 375 525 375 446.04 453.96 525"/><polygon class="cls-4" points="453.96 525 375 603.96 375 525 453.96 525"/><polygon class="cls-3" points="375 525 375 603.96 296.04 525 375 525"/></g></svg>