<svg xmlns="http://www.w3.org/2000/svg" viewBox="0 0 750 1050"><defs><style>.cls-1{fill:#f1f2f2;}.cls-2{fill:#ff3b43;}.cls-3{fill:#c41e25;}.cls-4{fill:#8a0006;}</style></defs><g id="Layer_6" data-name="Layer 6"><rect class="cls-1" width="750" height="1050" rx="63.89"/></g><g id="Layer_3" data-name="Layer 3"><polygon class="cls-2" points="207.12 718.22 207.12 797.19 128.16 797.19 207.12 718.22"/><polygon class="cls-3" points="286.08 797.19 207.12 797.19 207.12 718.22 286.08 797.19"/><polygon class="cls-4" points="286.08 797.19 207.12 876.15 207.12 797.19 286.08 797.19"/><polygon class="cls-3" points="207.12 797.19 207.12 876.15 128.16 797.19 207.12 797.19"/><polygon class="cls-2" points="207.12 173.85 207.12 252.82 128.16 252.82 207.12 173.85"/><polygon class="cls-3" points="286.08 252.82 207.12 252.82 207.12 173.85 286.08 252.82"/><polygon class="cls-4" points="286.08 252.82 207.12 331.78 207.12 252.82 286.08 252.82"/><polygon class="cls-3" points="207.12 252.82 207.12 331.78 128.16 252.82 207.12 252.82"/><polygon class="cls-2" points="70.31 114.79 70.31 151.85 33.26 151.85 70.31 114.79"/><polygon class="cls-3" points="107.36 151.85 70.31 151.85 70.31 114.79 107.36 151.85"/><polygon class="cls-4" points="107.36 151.85 70.31 188.9 70.31 151.85 107.36 151.85"/><polygon class="cls-3" points="70.31 151.85 70.31 188.9 33.26 151.85 70.31 151.85"/><polygon class="cls-2" points="679.69 861.1 679.69 898.15 642.64 898.15 679.69 861.1"/><polygon class="cls-3" points="716.74 898.15 679.69 898.15 679.69 861.1 716.74 898.15"/><polygon class="cls-4" points="716.74 898.15 679.69 935.21 679.69 898.15 716.74 898.15"/><polygon class="cls-3" points="679.69 898.15 679.69 935.21 642.64 898.15 679.69 898.15"/><polygon class="cls-2" points="207.12 355.31 207.12 434.27 128.16 434.27 207.12 355.31"/><polygon class="cls-3" points="286.08 434.27 207.12 434.27 207.12 355.31 286.08 434.27"/><polygon class="cls-4" points="286.08 434.27 207.12 513.24 207.12 434.27 286.08 434.27"/><polygon class="cls-3" points="207.12 434.27 207.12 513.24 128.16 434.27 207.12 434.27"/><polygon class="cls-2" points="207.12 536.77 207.12 615.73 128.16 615.73 207.12 536.77"/><polygon class="cls-3" points="286.08 615.73 207.12 615.73 207.12 536.77 286.08 615.73"/><polygon class="cls-4" points="286.08 615.73 207.12 694.69 207.12 615.73 286.08 615.73"/><polygon class="cls-3" points="207.12 615.73 207.12 694.69 128.16 615.73 207.12 615.73"/><polygon class="cls-2" points="542.9 718.22 542.9 797.19 463.93 797.19 542.9 718.22"/><polygon class="cls-3" points="621.86 797.19 542.9 797.19 542.9 718.22 621.86 797.19"/><polygon class="cls-4" points="621.86 797.19 542.9 876.15 542.9 797.19 621.86 797.19"/><polygon class="cls-3" points="542.9 797.19 542.9 876.15 463.93 797.19 542.9 797.19"/><polygon class="cls-2" points="542.9 173.85 542.9 252.82 463.93 252.82 542.9 173.85"/><polygon class="cls-3" points="621.86 252.82 542.9 252.82 542.9 173.85 621.86 252.82"/><polygon class="cls-4" points="621.86 252.82 542.9 331.78 542.9 252.82 621.86 252.82"/><polygon class="cls-3" points="542.9 252.82 542.9 331.78 463.93 252.82 542.9 252.82"/><polygon class="cls-2" points="542.9 355.31 542.9 434.27 463.93 434.27 542.9 355.31"/><polygon class="cls-3" points="621.86 434.27 542.9 434.27 542.9 355.31 621.86 434.27"/><polygon class="cls-4" points="621.86 434.27 542.9 513.24 542.9 434.27 621.86 434.27"/><polygon class="cls-3" points="542.9 434.27 542.9 513.24 463.93 434.27 542.9 434.27"/><polygon class="cls-2" points="542.9 536.77 542.9 615.73 463.93 615.73 542.9 536.77"/><polygon class="cls-3" points="621.86 615.73 542.9 615.73 542.9 536.77 621.86 615.73"/><polygon class="cls-4" points="621.86 615.73 542.9 694.69 542.9 615.73 621.86 615.73"/><polygon class="cls-3" points="542.9 615.73 542.9 694.69 463.93 615.73 542.9 615.73"/><polygon class="cls-2" points="375 264.58 375 343.54 296.04 343.54 375 264.58"/><polygon class="cls-3" points="453.96 343.54 375 343.54 375 264.58 453.96 343.54"/><polygon class="cls-4" points="453.96 343.54 375 422.51 375 343.54 453.96 343.54"/><polygon class="cls-3" points="375 343.54 375 422.51 296.04 343.54 375 343.54"/><polygon class="cls-2" points="375 627.49 375 706.46 296.04 706.46 375 627.49"/><polygon class="cls-3" points="453.96 706.46 375 706.46 375 627.49 453.96 706.46"/><polygon class="cls-4" points="453.96 706.46 375 785.42 375 706.46 453.96 706.46"/><polygon class="cls-3" points="375 706.46 375 785.42 296.04 706.46 375 706.46"/><path d="M19.62,97.42H33.3V44.84H19.83a4.46,4.46,0,1,1,0-8.91H42.22V97.42h8.91V78.85a4.32,4.32,0,0,1,1.3-3.13A4.45,4.45,0,0,1,60,78.85v23a4.44,4.44,0,0,1-4.46,4.45h-36A4.21,4.21,0,0,1,16.46,105a4.46,4.46,0,0,1-1.3-3.21,4.15,4.15,0,0,1,1.3-3.08A4.33,4.33,0,0,1,19.62,97.42Z"/><path d="M80.89,97.74V44.42a8.69,8.69,0,0,1,8.6-8.59h27.8a8.1,8.1,0,0,1,6,2.54,8.32,8.32,0,0,1,2.52,6.05V97.74a8.6,8.6,0,0,1-8.59,8.59H89.49a8.55,8.55,0,0,1-8.6-8.59ZM117,97.42V44.84H89.8V97.42Z"/><path d="M730.39,952.58H716.7v52.58h13.47a4.46,4.46,0,1,1,0,8.91H707.79V952.58h-8.92v18.57a4.32,4.32,0,0,1-1.3,3.13,4.26,4.26,0,0,1-3.15,1.33,4.44,4.44,0,0,1-4.46-4.46v-23a4.44,4.44,0,0,1,4.46-4.45h36a4.21,4.21,0,0,1,3.15,1.35,4.46,4.46,0,0,1,1.3,3.21,4.15,4.15,0,0,1-1.3,3.08A4.32,4.32,0,0,1,730.39,952.58Z"/><path d="M669.11,952.26v53.32a8.71,8.71,0,0,1-8.6,8.6h-27.8a8.11,8.11,0,0,1-6-2.55,8.3,8.3,0,0,1-2.52-6V952.26a8.6,8.6,0,0,1,8.59-8.59h27.69a8.55,8.55,0,0,1,8.6,8.59Zm-36.08.32v52.58H660.2V952.58Z"/></g></svg>