<svg xmlns="http://www.w3.org/2000/svg" viewBox="0 0 750 1050"><defs><style>.cls-1{fill:#f1f2f2;}.cls-2{fill:#ff3b43;}.cls-3{fill:#c41e25;}.cls-4{fill:#8a0006;}</style></defs><g id="Layer_6" data-name="Layer 6"><rect class="cls-1" width="750" height="1050" rx="63.89"/></g><g id="Layer_3" data-name="Layer 3"><path d="M48.27,44.31V40.5A4.44,4.44,0,0,1,52.72,36H93.15V63.41A4.57,4.57,0,0,1,91.5,67L75.11,81v20.74a4.46,4.46,0,0,1-1.3,3.21,4.23,4.23,0,0,1-3.16,1.35A4.47,4.47,0,0,1,67.44,105a4.26,4.26,0,0,1-1.35-3.13V79.38a5,5,0,0,1,1.58-3.93L84.13,61.53V45H57.18c-.64,2.55-2.12,3.82-4.46,3.82a4.44,4.44,0,0,1-4.45-4.46Z"/><path d="M701.74,1005.69v3.81a4.44,4.44,0,0,1-4.46,4.46H656.85V986.59A4.56,4.56,0,0,1,658.5,983l16.39-14V948.23a4.5,4.5,0,0,1,1.3-3.21,4.23,4.23,0,0,1,3.16-1.35,4.43,4.43,0,0,1,3.21,1.32,4.26,4.26,0,0,1,1.35,3.13v22.5a5,5,0,0,1-1.58,3.93l-16.46,13.92v16.58h27c.63-2.55,2.12-3.82,4.45-3.82a4.44,4.44,0,0,1,4.46,4.46Z"/><polygon class="cls-2" points="207.12 718.22 207.12 797.19 128.16 797.19 207.12 718.22"/><polygon class="cls-3" points="286.08 797.19 207.12 797.19 207.12 718.22 286.08 797.19"/><polygon class="cls-4" points="286.08 797.19 207.12 876.15 207.12 797.19 286.08 797.19"/><polygon class="cls-3" points="207.12 797.19 207.12 876.15 128.16 797.19 207.12 797.19"/><polygon class="cls-2" points="207.12 173.85 207.12 252.82 128.16 252.82 207.12 173.85"/><polygon class="cls-3" points="286.08 252.82 207.12 252.82 207.12 173.85 286.08 252.82"/><polygon class="cls-4" points="286.08 252.82 207.12 331.78 207.12 252.82 286.08 252.82"/><polygon class="cls-3" points="207.12 252.82 207.12 331.78 128.16 252.82 207.12 252.82"/><polygon class="cls-2" points="70.31 114.79 70.31 151.84 33.26 151.84 70.31 114.79"/><polygon class="cls-3" points="107.36 151.84 70.31 151.84 70.31 114.79 107.36 151.84"/><polygon class="cls-4" points="107.36 151.84 70.31 188.9 70.31 151.84 107.36 151.84"/><polygon class="cls-3" points="70.31 151.84 70.31 188.9 33.26 151.84 70.31 151.84"/><polygon class="cls-2" points="679.69 861.1 679.69 898.15 642.64 898.15 679.69 861.1"/><polygon class="cls-3" points="716.74 898.15 679.69 898.15 679.69 861.1 716.74 898.15"/><polygon class="cls-4" points="716.74 898.15 679.69 935.21 679.69 898.15 716.74 898.15"/><polygon class="cls-3" points="679.69 898.15 679.69 935.21 642.64 898.15 679.69 898.15"/><polygon class="cls-2" points="207.12 446.04 207.12 525 128.16 525 207.12 446.04"/><polygon class="cls-3" points="286.08 525 207.12 525 207.12 446.04 286.08 525"/><polygon class="cls-4" points="286.08 525 207.12 603.97 207.12 525 286.08 525"/><polygon class="cls-3" points="207.12 525 207.12 603.97 128.16 525 207.12 525"/><polygon class="cls-2" points="542.9 718.22 542.9 797.19 463.93 797.19 542.9 718.22"/><polygon class="cls-3" points="621.86 797.19 542.9 797.19 542.9 718.22 621.86 797.19"/><polygon class="cls-4" points="621.86 797.19 542.9 876.15 542.9 797.19 621.86 797.19"/><polygon class="cls-3" points="542.9 797.19 542.9 876.15 463.93 797.19 542.9 797.19"/><polygon class="cls-2" points="542.9 173.85 542.9 252.82 463.93 252.82 542.9 173.85"/><polygon class="cls-3" points="621.86 252.82 542.9 252.82 542.9 173.85 621.86 252.82"/><polygon class="cls-4" points="621.86 252.82 542.9 331.78 542.9 252.82 621.86 252.82"/><polygon class="cls-3" points="542.9 252.82 542.9 331.78 463.93 252.82 542.9 252.82"/><polygon class="cls-2" points="542.9 446.04 542.9 525 463.93 525 542.9 446.04"/><polygon class="cls-3" points="621.86 525 542.9 525 542.9 446.04 621.86 525"/><polygon class="cls-4" points="621.86 525 542.9 603.97 542.9 525 621.86 525"/><polygon class="cls-3" points="542.9 525 542.9 603.97 463.93 525 542.9 525"/><polygon class="cls-2" points="375 309.95 375 388.91 296.04 388.91 375 309.95"/><polygon class="cls-3" points="453.96 388.91 375 388.91 375 309.95 453.96 388.91"/><polygon class="cls-4" points="453.96 388.91 375 467.87 375 388.91 453.96 388.91"/><polygon class="cls-3" points="375 388.91 375 467.87 296.04 388.91 375 388.91"/></g></svg>