<svg xmlns="http://www.w3.org/2000/svg" viewBox="0 0 750 1050"><defs><style>.cls-1{fill:#f1f2f2;}.cls-2{fill:#ff3b43;}.cls-3{fill:#c41e25;}.cls-4{fill:#8a0006;}</style></defs><g id="Layer_6" data-name="Layer 6"><rect class="cls-1" width="750" height="1050" rx="63.89"/></g><g id="Layer_3" data-name="Layer 3"><path d="M48.16,97.32V75.56a8.51,8.51,0,0,1,2.65-6.28,8.74,8.74,0,0,1,6.37-2.63V40.39a4.35,4.35,0,0,1,1.27-3.16,4.3,4.3,0,0,1,3.18-1.3H79.78a4.44,4.44,0,0,1,4.46,4.46V66.65a8.72,8.72,0,0,1,6.26,2.57,8.52,8.52,0,0,1,2.65,6.34V97.42a9,9,0,0,1-8.91,8.91H57.18a8.48,8.48,0,0,1-6.39-2.75A8.81,8.81,0,0,1,48.16,97.32Zm9-21.76V97.42H84.24V75.56Zm8.91-30.72V66.65h9.23V44.84Z"/><path d="M701.84,952.68v21.76a8.51,8.51,0,0,1-2.65,6.28,8.73,8.73,0,0,1-6.36,2.63v26.26a4.35,4.35,0,0,1-1.28,3.16,4.3,4.3,0,0,1-3.18,1.3H670.22a4.44,4.44,0,0,1-4.45-4.46V983.35a8.71,8.71,0,0,1-6.26-2.57,8.49,8.49,0,0,1-2.66-6.34V952.58a9,9,0,0,1,8.92-8.91h27.06a8.48,8.48,0,0,1,6.39,2.75A8.84,8.84,0,0,1,701.84,952.68Zm-9,21.76V952.58H665.77v21.86Zm-8.92,30.71v-21.8h-9.23v21.8Z"/><polygon class="cls-2" points="207.12 718.22 207.12 797.19 128.16 797.19 207.12 718.22"/><polygon class="cls-3" points="286.08 797.19 207.12 797.19 207.12 718.22 286.08 797.19"/><polygon class="cls-4" points="286.08 797.19 207.12 876.15 207.12 797.19 286.08 797.19"/><polygon class="cls-3" points="207.12 797.19 207.12 876.15 128.16 797.19 207.12 797.19"/><polygon class="cls-2" points="207.12 173.85 207.12 252.82 128.16 252.82 207.12 173.85"/><polygon class="cls-3" points="286.08 252.82 207.12 252.82 207.12 173.85 286.08 252.82"/><polygon class="cls-4" points="286.08 252.82 207.12 331.78 207.12 252.82 286.08 252.82"/><polygon class="cls-3" points="207.12 252.82 207.12 331.78 128.16 252.82 207.12 252.82"/><polygon class="cls-2" points="70.31 114.79 70.31 151.85 33.26 151.85 70.31 114.79"/><polygon class="cls-3" points="107.36 151.85 70.31 151.85 70.31 114.79 107.36 151.85"/><polygon class="cls-4" points="107.36 151.85 70.31 188.9 70.31 151.85 107.36 151.85"/><polygon class="cls-3" points="70.31 151.85 70.31 188.9 33.26 151.85 70.31 151.85"/><polygon class="cls-2" points="679.69 861.1 679.69 898.15 642.64 898.15 679.69 861.1"/><polygon class="cls-3" points="716.74 898.15 679.69 898.15 679.69 861.1 716.74 898.15"/><polygon class="cls-4" points="716.74 898.15 679.69 935.21 679.69 898.15 716.74 898.15"/><polygon class="cls-3" points="679.69 898.15 679.69 935.21 642.64 898.15 679.69 898.15"/><polygon class="cls-2" points="207.12 355.31 207.12 434.27 128.16 434.27 207.12 355.31"/><polygon class="cls-3" points="286.08 434.27 207.12 434.27 207.12 355.31 286.08 434.27"/><polygon class="cls-4" points="286.08 434.27 207.12 513.24 207.12 434.27 286.08 434.27"/><polygon class="cls-3" points="207.12 434.27 207.12 513.24 128.16 434.27 207.12 434.27"/><polygon class="cls-2" points="207.12 536.77 207.12 615.73 128.16 615.73 207.12 536.77"/><polygon class="cls-3" points="286.08 615.73 207.12 615.73 207.12 536.77 286.08 615.73"/><polygon class="cls-4" points="286.08 615.73 207.12 694.69 207.12 615.73 286.08 615.73"/><polygon class="cls-3" points="207.12 615.73 207.12 694.69 128.16 615.73 207.12 615.73"/><polygon class="cls-2" points="542.9 718.22 542.9 797.19 463.93 797.19 542.9 718.22"/><polygon class="cls-3" points="621.86 797.19 542.9 797.19 542.9 718.22 621.86 797.19"/><polygon class="cls-4" points="621.86 797.19 542.9 876.15 542.9 797.19 621.86 797.19"/><polygon class="cls-3" points="542.9 797.19 542.9 876.15 463.93 797.19 542.9 797.19"/><polygon class="cls-2" points="542.9 173.85 542.9 252.82 463.93 252.82 542.9 173.85"/><polygon class="cls-3" points="621.86 252.82 542.9 252.82 542.9 173.85 621.86 252.82"/><polygon class="cls-4" points="621.86 252.82 542.9 331.78 542.9 252.82 621.86 252.82"/><polygon class="cls-3" points="542.9 252.82 542.9 331.78 463.93 252.82 542.9 252.82"/><polygon class="cls-2" points="542.9 355.31 542.9 434.27 463.93 434.27 542.9 355.31"/><polygon class="cls-3" points="621.86 434.27 542.9 434.27 542.9 355.31 621.86 434.27"/><polygon class="cls-4" points="621.86 434.27 542.9 513.24 542.9 434.27 621.86 434.27"/><polygon class="cls-3" points="542.9 434.27 542.9 513.24 463.93 434.27 542.9 434.27"/><polygon class="cls-2" points="542.9 536.77 542.9 615.73 463.93 615.73 542.9 536.77"/><polygon class="cls-3" points="621.86 615.73 542.9 615.73 542.9 536.77 621.86 615.73"/><polygon class="cls-4" points="621.86 615.73 542.9 694.69 542.9 615.73 621.86 615.73"/><polygon class="cls-3" points="542.9 615.73 542.9 694.69 463.93 615.73 542.9 615.73"/></g></svg>