<svg xmlns="http://www.w3.org/2000/svg" viewBox="0 0 750 1050"><defs><style>.cls-1{fill:#f1f2f2;}.cls-2{fill:#ff3b43;}.cls-3{fill:#c41e25;}.cls-4{fill:#8a0006;}</style></defs><g id="Layer_6" data-name="Layer 6"><rect class="cls-1" width="750" height="1050" rx="63.89"/></g><g id="Layer_3" data-name="Layer 3"><path d="M77.6,101.88V83.31H50.76V40.39a4.61,4.61,0,0,1,4.56-4.56,4.24,4.24,0,0,1,3.13,1.35,4.4,4.4,0,0,1,1.33,3.21v33.9H77.6V48.19A4.5,4.5,0,0,1,78.9,45a4.35,4.35,0,0,1,6.32,0,4.5,4.5,0,0,1,1.3,3.21v26.1a4.46,4.46,0,1,1,0,8.91v18.68A4.25,4.25,0,0,1,85.19,105a4.45,4.45,0,0,1-7.59-3.15Z"/><path d="M672.4,948.12v18.57h26.84v42.92a4.61,4.61,0,0,1-4.56,4.56,4.26,4.26,0,0,1-3.13-1.35,4.43,4.43,0,0,1-1.32-3.21v-33.9H672.4v26.1a4.46,4.46,0,0,1-1.3,3.21,4.34,4.34,0,0,1-6.31,0,4.46,4.46,0,0,1-1.3-3.21v-26.1a4.46,4.46,0,1,1,0-8.91V948.12a4.27,4.27,0,0,1,1.32-3.16,4.48,4.48,0,0,1,6.29,0A4.29,4.29,0,0,1,672.4,948.12Z"/><polygon class="cls-2" points="207.12 718.22 207.12 797.19 128.16 797.19 207.12 718.22"/><polygon class="cls-3" points="286.08 797.19 207.12 797.19 207.12 718.22 286.08 797.19"/><polygon class="cls-4" points="286.08 797.19 207.12 876.15 207.12 797.19 286.08 797.19"/><polygon class="cls-3" points="207.12 797.19 207.12 876.15 128.16 797.19 207.12 797.19"/><polygon class="cls-2" points="207.12 173.85 207.12 252.82 128.16 252.82 207.12 173.85"/><polygon class="cls-3" points="286.08 252.82 207.12 252.82 207.12 173.85 286.08 252.82"/><polygon class="cls-4" points="286.08 252.82 207.12 331.78 207.12 252.82 286.08 252.82"/><polygon class="cls-3" points="207.12 252.82 207.12 331.78 128.16 252.82 207.12 252.82"/><polygon class="cls-2" points="70.31 114.79 70.31 151.85 33.26 151.85 70.31 114.79"/><polygon class="cls-3" points="107.36 151.85 70.31 151.85 70.31 114.79 107.36 151.85"/><polygon class="cls-4" points="107.36 151.85 70.31 188.9 70.31 151.85 107.36 151.85"/><polygon class="cls-3" points="70.31 151.85 70.31 188.9 33.26 151.85 70.31 151.85"/><polygon class="cls-2" points="679.69 861.1 679.69 898.15 642.64 898.15 679.69 861.1"/><polygon class="cls-3" points="716.74 898.15 679.69 898.15 679.69 861.1 716.74 898.15"/><polygon class="cls-4" points="716.74 898.15 679.69 935.21 679.69 898.15 716.74 898.15"/><polygon class="cls-3" points="679.69 898.15 679.69 935.21 642.64 898.15 679.69 898.15"/><polygon class="cls-2" points="542.9 718.22 542.9 797.19 463.93 797.19 542.9 718.22"/><polygon class="cls-3" points="621.86 797.19 542.9 797.19 542.9 718.22 621.86 797.19"/><polygon class="cls-4" points="621.86 797.19 542.9 876.15 542.9 797.19 621.86 797.19"/><polygon class="cls-3" points="542.9 797.19 542.9 876.15 463.93 797.19 542.9 797.19"/><polygon class="cls-2" points="542.9 173.85 542.9 252.82 463.93 252.82 542.9 173.85"/><polygon class="cls-3" points="621.86 252.82 542.9 252.82 542.9 173.85 621.86 252.82"/><polygon class="cls-4" points="621.86 252.82 542.9 331.78 542.9 252.82 621.86 252.82"/><polygon class="cls-3" points="542.9 252.82 542.9 331.78 463.93 252.82 542.9 252.82"/></g></svg>