<svg xmlns="http://www.w3.org/2000/svg" viewBox="0 0 750 1050"><defs><style>.cls-1{fill:#f1f2f2;}.cls-2{fill:#ff3b43;}.cls-3{fill:#c41e25;}.cls-4{fill:#8a0006;}</style></defs><g id="Layer_6" data-name="Layer 6"><rect class="cls-1" width="750" height="1050" rx="63.89"/></g><g id="Layer_3" data-name="Layer 3"><path d="M53,35.93H57.5a4.26,4.26,0,0,1,3.15,1.33,4.45,4.45,0,0,1-3.15,7.59V74.29H88.9A4.23,4.23,0,0,1,92,75.64a4.42,4.42,0,0,1,1.33,3.21v23A4.23,4.23,0,0,1,92,105a4.49,4.49,0,0,1-3.21,1.29H53A4.43,4.43,0,0,1,49.83,105a4.26,4.26,0,0,1-1.35-3.13V40.39a4.27,4.27,0,0,1,1.32-3.16A4.5,4.5,0,0,1,53,35.93Zm4.35,47.38V97.42h27V83.31Z"/><path d="M697,1014.07h-4.45a4.46,4.46,0,1,1,0-8.92V975.71H661.1a4.24,4.24,0,0,1-3.13-1.35,4.46,4.46,0,0,1-1.33-3.21v-23A4.2,4.2,0,0,1,658,945a4.49,4.49,0,0,1,3.21-1.29H697a4.43,4.43,0,0,1,3.21,1.32,4.27,4.27,0,0,1,1.36,3.13v61.49a4.28,4.28,0,0,1-1.33,3.16A4.47,4.47,0,0,1,697,1014.07Zm-4.35-47.38V952.58h-27v14.11Z"/><polygon class="cls-2" points="207.12 718.22 207.12 797.19 128.16 797.19 207.12 718.22"/><polygon class="cls-3" points="286.08 797.19 207.12 797.19 207.12 718.22 286.08 797.19"/><polygon class="cls-4" points="286.08 797.19 207.12 876.15 207.12 797.19 286.08 797.19"/><polygon class="cls-3" points="207.12 797.19 207.12 876.15 128.16 797.19 207.12 797.19"/><polygon class="cls-2" points="207.12 173.86 207.12 252.82 128.16 252.82 207.12 173.86"/><polygon class="cls-3" points="286.08 252.82 207.12 252.82 207.12 173.86 286.08 252.82"/><polygon class="cls-4" points="286.08 252.82 207.12 331.78 207.12 252.82 286.08 252.82"/><polygon class="cls-3" points="207.12 252.82 207.12 331.78 128.16 252.82 207.12 252.82"/><polygon class="cls-2" points="70.31 114.79 70.31 151.85 33.26 151.85 70.31 114.79"/><polygon class="cls-3" points="107.36 151.85 70.31 151.85 70.31 114.79 107.36 151.85"/><polygon class="cls-4" points="107.36 151.85 70.31 188.9 70.31 151.85 107.36 151.85"/><polygon class="cls-3" points="70.31 151.85 70.31 188.9 33.26 151.85 70.31 151.85"/><polygon class="cls-2" points="679.69 861.1 679.69 898.15 642.64 898.15 679.69 861.1"/><polygon class="cls-3" points="716.74 898.15 679.69 898.15 679.69 861.1 716.74 898.15"/><polygon class="cls-4" points="716.74 898.15 679.69 935.21 679.69 898.15 716.74 898.15"/><polygon class="cls-3" points="679.69 898.15 679.69 935.21 642.64 898.15 679.69 898.15"/><polygon class="cls-2" points="207.12 446.04 207.12 525 128.16 525 207.12 446.04"/><polygon class="cls-3" points="286.08 525 207.12 525 207.12 446.04 286.08 525"/><polygon class="cls-4" points="286.08 525 207.12 603.97 207.12 525 286.08 525"/><polygon class="cls-3" points="207.12 525 207.12 603.97 128.16 525 207.12 525"/><polygon class="cls-2" points="542.9 718.22 542.9 797.19 463.93 797.19 542.9 718.22"/><polygon class="cls-3" points="621.86 797.19 542.9 797.19 542.9 718.22 621.86 797.19"/><polygon class="cls-4" points="621.86 797.19 542.9 876.15 542.9 797.19 621.86 797.19"/><polygon class="cls-3" points="542.9 797.19 542.9 876.15 463.93 797.19 542.9 797.19"/><polygon class="cls-2" points="542.9 173.86 542.9 252.82 463.93 252.82 542.9 173.86"/><polygon class="cls-3" points="621.86 252.82 542.9 252.82 542.9 173.86 621.86 252.82"/><polygon class="cls-4" points="621.86 252.82 542.9 331.78 542.9 252.82 621.86 252.82"/><polygon class="cls-3" points="542.9 252.82 542.9 331.78 463.93 252.82 542.9 252.82"/><polygon class="cls-2" points="542.9 446.04 542.9 525 463.93 525 542.9 446.04"/><polygon class="cls-3" points="621.86 525 542.9 525 542.9 446.04 621.86 525"/><polygon class="cls-4" points="621.86 525 542.9 603.97 542.9 525 621.86 525"/><polygon class="cls-3" points="542.9 525 542.9 603.97 463.93 525 542.9 525"/></g></svg>