<svg xmlns="http://www.w3.org/2000/svg" viewBox="0 0 750 1050"><defs><style>.cls-1{fill:#f1f2f2;}.cls-2{fill:#ff3b43;}.cls-3{fill:#c41e25;}.cls-4{fill:#8a0006;}</style></defs><g id="Layer_6" data-name="Layer 6"><rect class="cls-1" width="750" height="1050" rx="63.89"/></g><g id="Layer_3" data-name="Layer 3"><path d="M93.36,44.84V61.56A12.74,12.74,0,0,1,89.75,71a13.25,13.25,0,0,1,3.72,9v17.4a8.54,8.54,0,0,1-2.66,6.29,8.71,8.71,0,0,1-6.36,2.62H52.93a4.46,4.46,0,1,1,0-8.91H84.34V80A4.46,4.46,0,0,0,83,76.81a4.22,4.22,0,0,0-3.15-1.35H62a4.32,4.32,0,0,1-3.15-1.28A4.47,4.47,0,0,1,62,66.54H80a4.31,4.31,0,0,0,3.13-1.3,4.21,4.21,0,0,0,1.33-3.15V44.84H52.62a4.46,4.46,0,1,1,0-8.91H84.45a8.93,8.93,0,0,1,8.91,8.91Z"/><path d="M656.64,1005.15V988.44a12.78,12.78,0,0,1,3.61-9.44,13.23,13.23,0,0,1-3.71-9v-17.4a8.53,8.53,0,0,1,2.65-6.29,8.73,8.73,0,0,1,6.37-2.62h31.51a4.46,4.46,0,1,1,0,8.91H665.66V970a4.5,4.5,0,0,0,1.3,3.21,4.23,4.23,0,0,0,3.16,1.35h17.93a4.35,4.35,0,0,1,3.16,1.28,4.47,4.47,0,0,1-3.16,7.64H670a4.32,4.32,0,0,0-3.13,1.3,4.24,4.24,0,0,0-1.32,3.15v17.24h31.83a4.46,4.46,0,1,1,0,8.92H665.56a8.93,8.93,0,0,1-8.92-8.92Z"/><polygon class="cls-2" points="375.01 718.22 375.01 797.19 296.04 797.19 375.01 718.22"/><polygon class="cls-3" points="453.97 797.19 375.01 797.19 375.01 718.22 453.97 797.19"/><polygon class="cls-4" points="453.97 797.19 375.01 876.15 375.01 797.19 453.97 797.19"/><polygon class="cls-3" points="375.01 797.19 375.01 876.15 296.04 797.19 375.01 797.19"/><polygon class="cls-2" points="70.31 114.79 70.31 151.85 33.26 151.85 70.31 114.79"/><polygon class="cls-3" points="107.36 151.85 70.31 151.85 70.31 114.79 107.36 151.85"/><polygon class="cls-4" points="107.36 151.85 70.31 188.9 70.31 151.85 107.36 151.85"/><polygon class="cls-3" points="70.31 151.85 70.31 188.9 33.26 151.85 70.31 151.85"/><polygon class="cls-2" points="679.69 861.1 679.69 898.15 642.64 898.15 679.69 861.1"/><polygon class="cls-3" points="716.74 898.15 679.69 898.15 679.69 861.1 716.74 898.15"/><polygon class="cls-4" points="716.74 898.15 679.69 935.21 679.69 898.15 716.74 898.15"/><polygon class="cls-3" points="679.69 898.15 679.69 935.21 642.64 898.15 679.69 898.15"/><polygon class="cls-2" points="375.01 173.85 375.01 252.82 296.04 252.82 375.01 173.85"/><polygon class="cls-3" points="453.97 252.82 375.01 252.82 375.01 173.85 453.97 252.82"/><polygon class="cls-4" points="453.97 252.82 375.01 331.78 375.01 252.82 453.97 252.82"/><polygon class="cls-3" points="375.01 252.82 375.01 331.78 296.04 252.82 375.01 252.82"/><polygon class="cls-2" points="375.01 446.04 375.01 525 296.04 525 375.01 446.04"/><polygon class="cls-3" points="453.97 525 375.01 525 375.01 446.04 453.97 525"/><polygon class="cls-4" points="453.97 525 375.01 603.96 375.01 525 453.97 525"/><polygon class="cls-3" points="375.01 525 375.01 603.96 296.04 525 375.01 525"/></g></svg>