<svg xmlns="http://www.w3.org/2000/svg" viewBox="0 0 750 1050"><defs><style>.cls-1{fill:#f1f2f2;}.cls-2{fill:#595959;}.cls-3{fill:#2d2d2d;}.cls-4{fill:#434343;}.cls-5{fill:#161616;}.cls-6{fill:#1c1c1c;}</style></defs><g id="Layer_6" data-name="Layer 6"><rect class="cls-1" width="750" height="1050" rx="63.89"/></g><g id="Layer_4" data-name="Layer 4"><path d="M53,35.93H57.5a4.26,4.26,0,0,1,3.15,1.33,4.45,4.45,0,0,1-3.15,7.59V74.29H88.9A4.26,4.26,0,0,1,92,75.64a4.45,4.45,0,0,1,1.32,3.21v23A4.23,4.23,0,0,1,92,105a4.49,4.49,0,0,1-3.21,1.29H53A4.43,4.43,0,0,1,49.83,105a4.26,4.26,0,0,1-1.35-3.13V40.39a4.27,4.27,0,0,1,1.32-3.16A4.5,4.5,0,0,1,53,35.93Zm4.35,47.38V97.42h27V83.31Z"/><path d="M697,1014.07h-4.45a4.28,4.28,0,0,1-3.16-1.33,4.35,4.35,0,0,1-1.3-3.13,4.46,4.46,0,0,1,4.46-4.46V975.71H661.1a4.26,4.26,0,0,1-3.13-1.35,4.46,4.46,0,0,1-1.33-3.21v-23A4.24,4.24,0,0,1,658,945a4.49,4.49,0,0,1,3.21-1.29H697a4.43,4.43,0,0,1,3.21,1.32,4.23,4.23,0,0,1,1.36,3.13v61.49a4.25,4.25,0,0,1-1.33,3.16A4.47,4.47,0,0,1,697,1014.07Zm-4.34-47.38V952.58h-27v14.11Z"/><polygon class="cls-2" points="191.93 285.46 191.93 328 171.55 328 191.92 285.47 191.93 285.46"/><polygon class="cls-3" points="212.32 328 191.93 328 191.93 285.46 191.94 285.47 212.32 328"/><rect class="cls-4" x="144.11" y="237.62" width="31.88" height="15.95"/><polygon class="cls-2" points="144.11 237.62 144.11 253.58 128.16 253.58 144.11 237.62"/><rect class="cls-4" x="128.15" y="253.58" width="15.95" height="31.88"/><polygon class="cls-3" points="144.11 285.46 144.11 301.4 128.16 285.46 144.11 285.46"/><rect class="cls-5" x="144.11" y="285.46" width="31.88" height="15.94"/><polygon points="191.93 285.46 175.99 301.4 175.99 285.46 191.93 285.46"/><rect class="cls-6" x="144.11" y="253.58" width="95.65" height="31.88"/><polygon class="cls-4" points="191.93 253.58 175.99 253.58 175.99 237.62 191.93 253.58"/><polygon class="cls-3" points="175.99 221.68 175.99 237.62 160.05 221.68 175.99 221.68"/><polygon points="223.82 221.68 207.88 237.62 207.88 221.68 223.82 221.68"/><rect class="cls-5" x="207.87" y="189.8" width="15.94" height="31.88"/><rect class="cls-4" x="160.05" y="189.8" width="15.94" height="31.88"/><polygon class="cls-2" points="175.99 173.86 175.99 189.8 160.05 189.8 175.99 173.86"/><rect class="cls-4" x="175.99" y="173.86" width="31.88" height="15.94"/><polygon class="cls-3" points="223.82 189.8 207.88 189.8 207.88 173.86 223.82 189.8"/><rect class="cls-4" x="207.87" y="237.62" width="31.88" height="15.95"/><polygon class="cls-3" points="255.71 253.58 239.76 253.58 239.76 237.62 255.71 253.58"/><rect class="cls-5" x="239.76" y="253.58" width="15.95" height="31.88"/><polygon points="255.71 285.46 239.76 301.4 239.76 285.46 255.71 285.46"/><rect class="cls-5" x="207.87" y="285.46" width="31.88" height="15.94"/><polygon class="cls-3" points="207.88 285.46 207.88 301.4 191.93 285.46 207.88 285.46"/><polygon class="cls-5" points="207.88 221.68 207.88 237.62 191.93 221.68 207.88 221.68"/><polygon class="cls-5" points="191.93 221.68 175.99 237.62 175.99 221.68 191.93 221.68"/><rect class="cls-6" x="175.99" y="189.8" width="31.88" height="31.88"/><polygon class="cls-4" points="191.93 221.68 191.93 253.58 175.99 237.62 191.93 221.68"/><polygon class="cls-4" points="207.88 237.62 207.88 253.58 191.93 253.58 207.88 237.62"/><polygon class="cls-5" points="207.88 237.62 191.93 253.58 191.93 221.68 207.88 237.62"/><polygon class="cls-2" points="558.08 764.55 558.08 722 578.46 722 558.09 764.54 558.08 764.55"/><polygon class="cls-3" points="537.69 722 558.08 722 558.08 764.55 558.07 764.54 537.69 722"/><rect class="cls-4" x="574.02" y="796.43" width="31.88" height="15.95"/><polygon class="cls-2" points="605.91 812.38 605.91 796.43 621.86 796.43 605.91 812.38"/><rect class="cls-4" x="605.91" y="764.55" width="15.95" height="31.88"/><polygon class="cls-3" points="605.91 764.55 605.91 748.61 621.86 764.55 605.91 764.55"/><rect class="cls-5" x="574.02" y="748.61" width="31.88" height="15.94"/><polygon points="558.08 764.55 574.02 748.61 574.02 764.55 558.08 764.55"/><rect class="cls-6" x="510.26" y="764.55" width="95.65" height="31.88"/><polygon class="cls-4" points="558.08 796.43 574.02 796.43 574.02 812.38 558.08 796.43"/><polygon class="cls-3" points="574.02 828.33 574.02 812.38 589.97 828.33 574.02 828.33"/><polygon points="526.2 828.33 542.14 812.38 542.14 828.33 526.2 828.33"/><rect class="cls-5" x="526.2" y="828.33" width="15.94" height="31.88"/><rect class="cls-4" x="574.02" y="828.33" width="15.94" height="31.88"/><polygon class="cls-2" points="574.02 876.15 574.02 860.21 589.97 860.21 574.02 876.15"/><rect class="cls-4" x="542.14" y="860.21" width="31.88" height="15.94"/><polygon class="cls-3" points="526.2 860.21 542.14 860.21 542.14 876.15 526.2 860.21"/><rect class="cls-4" x="510.26" y="796.43" width="31.88" height="15.95"/><polygon class="cls-3" points="494.3 796.43 510.26 796.43 510.26 812.38 494.3 796.43"/><rect class="cls-5" x="494.3" y="764.55" width="15.95" height="31.88"/><polygon points="494.3 764.55 510.26 748.61 510.26 764.55 494.3 764.55"/><rect class="cls-5" x="510.26" y="748.61" width="31.88" height="15.94"/><polygon class="cls-3" points="542.14 764.55 542.14 748.61 558.08 764.55 542.14 764.55"/><polygon class="cls-5" points="542.14 828.33 542.14 812.38 558.08 828.33 542.14 828.33"/><polygon class="cls-5" points="558.08 828.33 574.02 812.38 574.02 828.33 558.08 828.33"/><rect class="cls-6" x="542.14" y="828.33" width="31.88" height="31.88"/><polygon class="cls-4" points="558.08 828.33 558.08 796.43 574.02 812.38 558.08 828.33"/><polygon class="cls-4" points="542.14 812.38 542.14 796.43 558.08 796.43 542.14 812.38"/><polygon class="cls-5" points="542.14 812.38 558.08 796.43 558.08 828.33 542.14 812.38"/><polygon class="cls-2" points="558.08 285.46 558.08 328 537.7 328 558.07 285.47 558.08 285.46"/><polygon class="cls-3" points="578.47 328 558.08 328 558.08 285.46 558.09 285.47 578.47 328"/><rect class="cls-4" x="510.25" y="237.62" width="31.88" height="15.95"/><polygon class="cls-2" points="510.25 237.62 510.25 253.58 494.3 253.58 510.25 237.62"/><rect class="cls-4" x="494.3" y="253.58" width="15.95" height="31.88"/><polygon class="cls-3" points="510.25 285.46 510.25 301.4 494.3 285.46 510.25 285.46"/><rect class="cls-5" x="510.25" y="285.46" width="31.88" height="15.94"/><polygon points="558.08 285.46 542.13 301.4 542.13 285.46 558.08 285.46"/><rect class="cls-6" x="510.25" y="253.58" width="95.65" height="31.88"/><polygon class="cls-4" points="558.08 253.58 542.13 253.58 542.13 237.62 558.08 253.58"/><polygon class="cls-3" points="542.13 221.68 542.13 237.62 526.19 221.68 542.13 221.68"/><polygon points="589.96 221.68 574.02 237.62 574.02 221.68 589.96 221.68"/><rect class="cls-5" x="574.02" y="189.8" width="15.94" height="31.88"/><rect class="cls-4" x="526.19" y="189.8" width="15.94" height="31.88"/><polygon class="cls-2" points="542.13 173.86 542.13 189.8 526.19 189.8 542.13 173.86"/><rect class="cls-4" x="542.13" y="173.86" width="31.88" height="15.94"/><polygon class="cls-3" points="589.96 189.8 574.02 189.8 574.02 173.86 589.96 189.8"/><rect class="cls-4" x="574.02" y="237.62" width="31.88" height="15.95"/><polygon class="cls-3" points="621.85 253.58 605.9 253.58 605.9 237.62 621.85 253.58"/><rect class="cls-5" x="605.9" y="253.58" width="15.95" height="31.88"/><polygon points="621.85 285.46 605.9 301.4 605.9 285.46 621.85 285.46"/><rect class="cls-5" x="574.02" y="285.46" width="31.88" height="15.94"/><polygon class="cls-3" points="574.02 285.46 574.02 301.4 558.08 285.46 574.02 285.46"/><polygon class="cls-5" points="574.02 221.68 574.02 237.62 558.08 221.68 574.02 221.68"/><polygon class="cls-5" points="558.08 221.68 542.13 237.62 542.13 221.68 558.08 221.68"/><rect class="cls-6" x="542.13" y="189.8" width="31.88" height="31.88"/><polygon class="cls-4" points="558.08 221.68 558.08 253.58 542.13 237.62 558.08 221.68"/><polygon class="cls-4" points="574.02 237.62 574.02 253.58 558.08 253.58 574.02 237.62"/><polygon class="cls-5" points="574.02 237.62 558.08 253.58 558.08 221.68 574.02 237.62"/><polygon class="cls-2" points="191.93 490.47 191.93 447.93 212.31 447.93 191.94 490.46 191.93 490.47"/><polygon class="cls-3" points="171.54 447.93 191.93 447.93 191.93 490.47 191.92 490.46 171.54 447.93"/><rect class="cls-4" x="207.87" y="522.36" width="31.88" height="15.95"/><polygon class="cls-2" points="239.76 538.31 239.76 522.36 255.71 522.36 239.76 538.31"/><rect class="cls-4" x="239.76" y="490.47" width="15.95" height="31.88"/><polygon class="cls-3" points="239.76 490.47 239.76 474.53 255.71 490.47 239.76 490.47"/><rect class="cls-5" x="207.87" y="474.53" width="31.88" height="15.94"/><polygon points="191.93 490.47 207.88 474.53 207.88 490.47 191.93 490.47"/><rect class="cls-6" x="144.11" y="490.47" width="95.65" height="31.88"/><polygon class="cls-4" points="191.93 522.36 207.88 522.36 207.88 538.31 191.93 522.36"/><polygon class="cls-3" points="207.88 554.25 207.88 538.31 223.82 554.25 207.88 554.25"/><polygon points="160.05 554.25 175.99 538.31 175.99 554.25 160.05 554.25"/><rect class="cls-5" x="160.05" y="554.25" width="15.94" height="31.88"/><rect class="cls-4" x="207.87" y="554.25" width="15.94" height="31.88"/><polygon class="cls-2" points="207.88 602.08 207.88 586.13 223.82 586.13 207.88 602.08"/><rect class="cls-4" x="175.99" y="586.13" width="31.88" height="15.94"/><polygon class="cls-3" points="160.05 586.13 175.99 586.13 175.99 602.08 160.05 586.13"/><rect class="cls-4" x="144.11" y="522.36" width="31.88" height="15.95"/><polygon class="cls-3" points="128.16 522.36 144.11 522.36 144.11 538.31 128.16 522.36"/><rect class="cls-5" x="128.15" y="490.47" width="15.95" height="31.88"/><polygon points="128.16 490.47 144.11 474.53 144.11 490.47 128.16 490.47"/><rect class="cls-5" x="144.11" y="474.53" width="31.88" height="15.94"/><polygon class="cls-3" points="175.99 490.47 175.99 474.53 191.93 490.47 175.99 490.47"/><polygon class="cls-5" points="175.99 554.25 175.99 538.31 191.93 554.25 175.99 554.25"/><polygon class="cls-5" points="191.93 554.25 207.88 538.31 207.88 554.25 191.93 554.25"/><rect class="cls-6" x="175.99" y="554.25" width="31.88" height="31.88"/><polygon class="cls-4" points="191.93 554.25 191.93 522.36 207.88 538.31 191.93 554.25"/><polygon class="cls-4" points="175.99 538.31 175.99 522.36 191.93 522.36 175.99 538.31"/><polygon class="cls-5" points="175.99 538.31 191.93 522.36 191.93 554.25 175.99 538.31"/><polygon class="cls-2" points="70.31 187.1 70.31 214.67 57.1 214.67 70.3 187.11 70.31 187.1"/><polygon class="cls-3" points="83.52 214.67 70.31 214.67 70.31 187.1 70.32 187.11 83.52 214.67"/><rect class="cls-4" x="39.32" y="156.11" width="20.66" height="10.34"/><polygon class="cls-2" points="39.32 156.11 39.32 166.45 28.99 166.45 39.32 156.11"/><rect class="cls-4" x="28.99" y="166.45" width="10.34" height="20.66"/><polygon class="cls-3" points="39.32 187.1 39.32 197.43 28.99 187.1 39.32 187.1"/><rect class="cls-5" x="39.32" y="187.1" width="20.66" height="10.33"/><polygon points="70.31 187.1 59.98 197.43 59.98 187.1 70.31 187.1"/><rect class="cls-6" x="39.32" y="166.45" width="61.97" height="20.66"/><polygon class="cls-4" points="70.31 166.45 59.98 166.45 59.98 156.11 70.31 166.45"/><polygon class="cls-3" points="59.98 145.78 59.98 156.11 49.65 145.78 59.98 145.78"/><polygon points="90.97 145.78 80.64 156.11 80.64 145.78 90.97 145.78"/><rect class="cls-5" x="80.64" y="125.12" width="10.33" height="20.66"/><rect class="cls-4" x="49.65" y="125.12" width="10.33" height="20.66"/><polygon class="cls-2" points="59.98 114.79 59.98 125.12 49.65 125.12 59.98 114.79"/><rect class="cls-4" x="59.98" y="114.79" width="20.66" height="10.33"/><polygon class="cls-3" points="90.97 125.12 80.64 125.12 80.64 114.79 90.97 125.12"/><rect class="cls-4" x="80.64" y="156.11" width="20.66" height="10.34"/><polygon class="cls-3" points="111.63 166.45 101.3 166.45 101.3 156.11 111.63 166.45"/><rect class="cls-5" x="101.3" y="166.45" width="10.34" height="20.66"/><polygon points="111.63 187.1 101.3 197.43 101.3 187.1 111.63 187.1"/><rect class="cls-5" x="80.64" y="187.1" width="20.66" height="10.33"/><polygon class="cls-3" points="80.64 187.1 80.64 197.43 70.31 187.1 80.64 187.1"/><polygon class="cls-5" points="80.64 145.78 80.64 156.11 70.31 145.78 80.64 145.78"/><polygon class="cls-5" points="70.31 145.78 59.98 156.11 59.98 145.78 70.31 145.78"/><rect class="cls-6" x="59.98" y="125.12" width="20.66" height="20.66"/><polygon class="cls-4" points="70.31 145.78 70.31 166.45 59.98 156.11 70.31 145.78"/><polygon class="cls-4" points="80.64 156.11 80.64 166.45 70.31 166.45 80.64 156.11"/><polygon class="cls-5" points="80.64 156.11 70.31 166.45 70.31 145.78 80.64 156.11"/><polygon class="cls-2" points="679.69 862.9 679.69 835.33 692.89 835.33 679.7 862.89 679.69 862.9"/><polygon class="cls-3" points="666.48 835.33 679.69 835.33 679.69 862.9 679.68 862.89 666.48 835.33"/><rect class="cls-4" x="690.02" y="883.56" width="20.66" height="10.34"/><polygon class="cls-2" points="710.68 893.89 710.68 883.56 721.01 883.56 710.68 893.89"/><rect class="cls-4" x="710.68" y="862.9" width="10.34" height="20.66"/><polygon class="cls-3" points="710.68 862.9 710.68 852.57 721.01 862.9 710.68 862.9"/><rect class="cls-5" x="690.02" y="852.57" width="20.66" height="10.33"/><polygon points="679.69 862.9 690.02 852.57 690.02 862.9 679.69 862.9"/><rect class="cls-6" x="648.7" y="862.9" width="61.97" height="20.66"/><polygon class="cls-4" points="679.69 883.56 690.02 883.56 690.02 893.89 679.69 883.56"/><polygon class="cls-3" points="690.02 904.22 690.02 893.89 700.35 904.22 690.02 904.22"/><polygon points="659.03 904.22 669.36 893.89 669.36 904.22 659.03 904.22"/><rect class="cls-5" x="659.03" y="904.22" width="10.33" height="20.66"/><rect class="cls-4" x="690.02" y="904.22" width="10.33" height="20.66"/><polygon class="cls-2" points="690.02 935.21 690.02 924.88 700.35 924.88 690.02 935.21"/><rect class="cls-4" x="669.36" y="924.88" width="20.66" height="10.33"/><polygon class="cls-3" points="659.03 924.88 669.36 924.88 669.36 935.21 659.03 924.88"/><rect class="cls-4" x="648.7" y="883.56" width="20.66" height="10.34"/><polygon class="cls-3" points="638.37 883.56 648.71 883.56 648.71 893.89 638.37 883.56"/><rect class="cls-5" x="638.37" y="862.9" width="10.34" height="20.66"/><polygon points="638.37 862.9 648.71 852.57 648.71 862.9 638.37 862.9"/><rect class="cls-5" x="648.7" y="852.57" width="20.66" height="10.33"/><polygon class="cls-3" points="669.36 862.9 669.36 852.57 679.69 862.9 669.36 862.9"/><polygon class="cls-5" points="669.36 904.22 669.36 893.89 679.69 904.22 669.36 904.22"/><polygon class="cls-5" points="679.69 904.22 690.02 893.89 690.02 904.22 679.69 904.22"/><rect class="cls-6" x="669.36" y="904.22" width="20.66" height="20.66"/><polygon class="cls-4" points="679.69 904.22 679.69 883.56 690.02 893.89 679.69 904.22"/><polygon class="cls-4" points="669.36 893.89 669.36 883.56 679.69 883.56 669.36 893.89"/><polygon class="cls-5" points="669.36 893.89 679.69 883.56 679.69 904.22 669.36 893.89"/><polygon class="cls-2" points="191.94 764.55 191.94 722 212.32 722 191.95 764.54 191.94 764.55"/><polygon class="cls-3" points="171.55 722 191.94 722 191.94 764.55 191.93 764.54 171.55 722"/><rect class="cls-4" x="207.88" y="796.43" width="31.88" height="15.95"/><polygon class="cls-2" points="239.76 812.38 239.76 796.43 255.72 796.43 239.76 812.38"/><rect class="cls-4" x="239.76" y="764.55" width="15.95" height="31.88"/><polygon class="cls-3" points="239.76 764.55 239.76 748.61 255.72 764.55 239.76 764.55"/><rect class="cls-5" x="207.88" y="748.61" width="31.88" height="15.94"/><polygon points="191.94 764.55 207.88 748.61 207.88 764.55 191.94 764.55"/><rect class="cls-6" x="144.12" y="764.55" width="95.65" height="31.88"/><polygon class="cls-4" points="191.94 796.43 207.88 796.43 207.88 812.38 191.94 796.43"/><polygon class="cls-3" points="207.88 828.33 207.88 812.38 223.82 828.33 207.88 828.33"/><polygon points="160.06 828.33 176 812.38 176 828.33 160.06 828.33"/><rect class="cls-5" x="160.06" y="828.33" width="15.94" height="31.88"/><rect class="cls-4" x="207.88" y="828.33" width="15.94" height="31.88"/><polygon class="cls-2" points="207.88 876.15 207.88 860.21 223.82 860.21 207.88 876.15"/><rect class="cls-4" x="176" y="860.21" width="31.88" height="15.94"/><polygon class="cls-3" points="160.06 860.21 176 860.21 176 876.15 160.06 860.21"/><rect class="cls-4" x="144.12" y="796.43" width="31.88" height="15.95"/><polygon class="cls-3" points="128.16 796.43 144.12 796.43 144.12 812.38 128.16 796.43"/><rect class="cls-5" x="128.16" y="764.55" width="15.95" height="31.88"/><polygon points="128.16 764.55 144.12 748.61 144.12 764.55 128.16 764.55"/><rect class="cls-5" x="144.12" y="748.61" width="31.88" height="15.94"/><polygon class="cls-3" points="176 764.55 176 748.61 191.94 764.55 176 764.55"/><polygon class="cls-5" points="176 828.33 176 812.38 191.94 828.33 176 828.33"/><polygon class="cls-5" points="191.94 828.33 207.88 812.38 207.88 828.33 191.94 828.33"/><rect class="cls-6" x="176" y="828.33" width="31.88" height="31.88"/><polygon class="cls-4" points="191.94 828.33 191.94 796.43 207.88 812.38 191.94 828.33"/><polygon class="cls-4" points="176 812.38 176 796.43 191.94 796.43 176 812.38"/><polygon class="cls-5" points="176 812.38 191.94 796.43 191.94 828.33 176 812.38"/><polygon class="cls-2" points="558.08 559.53 558.08 602.08 537.7 602.08 558.07 559.54 558.08 559.53"/><polygon class="cls-3" points="578.47 602.08 558.08 602.08 558.08 559.53 558.09 559.54 578.47 602.08"/><rect class="cls-4" x="510.25" y="511.7" width="31.88" height="15.95"/><polygon class="cls-2" points="510.25 511.7 510.25 527.65 494.3 527.65 510.25 511.7"/><rect class="cls-4" x="494.3" y="527.65" width="15.95" height="31.88"/><polygon class="cls-3" points="510.25 559.53 510.25 575.48 494.3 559.53 510.25 559.53"/><rect class="cls-5" x="510.25" y="559.53" width="31.88" height="15.94"/><polygon points="558.08 559.53 542.13 575.48 542.13 559.53 558.08 559.53"/><rect class="cls-6" x="510.25" y="527.65" width="95.65" height="31.88"/><polygon class="cls-4" points="558.08 527.65 542.13 527.65 542.13 511.7 558.08 527.65"/><polygon class="cls-3" points="542.13 495.75 542.13 511.7 526.19 495.75 542.13 495.75"/><polygon points="589.96 495.75 574.02 511.7 574.02 495.75 589.96 495.75"/><rect class="cls-5" x="574.02" y="463.87" width="15.94" height="31.88"/><rect class="cls-4" x="526.19" y="463.87" width="15.94" height="31.88"/><polygon class="cls-2" points="542.13 447.93 542.13 463.87 526.19 463.87 542.13 447.93"/><rect class="cls-4" x="542.13" y="447.93" width="31.88" height="15.94"/><polygon class="cls-3" points="589.96 463.87 574.02 463.87 574.02 447.93 589.96 463.87"/><rect class="cls-4" x="574.02" y="511.7" width="31.88" height="15.95"/><polygon class="cls-3" points="621.85 527.65 605.9 527.65 605.9 511.7 621.85 527.65"/><rect class="cls-5" x="605.9" y="527.65" width="15.95" height="31.88"/><polygon points="621.85 559.53 605.9 575.48 605.9 559.53 621.85 559.53"/><rect class="cls-5" x="574.02" y="559.53" width="31.88" height="15.94"/><polygon class="cls-3" points="574.02 559.53 574.02 575.48 558.08 559.53 574.02 559.53"/><polygon class="cls-5" points="574.02 495.75 574.02 511.7 558.08 495.75 574.02 495.75"/><polygon class="cls-5" points="558.08 495.75 542.13 511.7 542.13 495.75 558.08 495.75"/><rect class="cls-6" x="542.13" y="463.87" width="31.88" height="31.88"/><polygon class="cls-4" points="558.08 495.75 558.08 527.65 542.13 511.7 558.08 495.75"/><polygon class="cls-4" points="574.02 511.7 574.02 527.65 558.08 527.65 574.02 511.7"/><polygon class="cls-5" points="574.02 511.7 558.08 527.65 558.08 495.75 574.02 511.7"/></g></svg>