<svg xmlns="http://www.w3.org/2000/svg" viewBox="0 0 750 1050"><defs><style>.cls-1{fill:#f1f2f2;}.cls-2{fill:#595959;}.cls-3{fill:#2d2d2d;}.cls-4{fill:#434343;}.cls-5{fill:#161616;}.cls-6{fill:#1c1c1c;}</style></defs><g id="Layer_6" data-name="Layer 6"><rect class="cls-1" width="750" height="1050" rx="63.89"/></g><g id="Layer_4" data-name="Layer 4"><path d="M88.9,106.23H84.45a4.31,4.31,0,0,1-3.13-1.3,4.44,4.44,0,0,1,0-6.31,4.29,4.29,0,0,1,3.16-1.3V67.87H53a4.54,4.54,0,0,1-4.46-4.46V40.28A4.53,4.53,0,0,1,53,35.83H88.9a4.53,4.53,0,0,1,4.46,4.45v61.49a4.44,4.44,0,0,1-4.46,4.46ZM84.55,58.85v-14h-27v14Z"/><path d="M661.1,943.77h4.46a4.36,4.36,0,0,1,3.13,1.3,4.45,4.45,0,0,1-3.13,7.61v29.45H697a4.53,4.53,0,0,1,4.45,4.46v23.13a4.51,4.51,0,0,1-4.45,4.45H661.1a4.53,4.53,0,0,1-4.46-4.45V948.23a4.44,4.44,0,0,1,4.46-4.46Zm4.35,47.38v14h27.06v-14Z"/><polygon class="cls-2" points="191.93 285.46 191.93 328 171.55 328 191.92 285.47 191.93 285.46"/><polygon class="cls-3" points="212.32 328 191.93 328 191.93 285.46 191.94 285.47 212.32 328"/><rect class="cls-4" x="144.11" y="237.62" width="31.88" height="15.95"/><polygon class="cls-2" points="144.11 237.62 144.11 253.58 128.16 253.58 144.11 237.62"/><rect class="cls-4" x="128.15" y="253.58" width="15.95" height="31.88"/><polygon class="cls-3" points="144.11 285.46 144.11 301.4 128.16 285.46 144.11 285.46"/><rect class="cls-5" x="144.11" y="285.46" width="31.88" height="15.94"/><polygon points="191.93 285.46 175.99 301.4 175.99 285.46 191.93 285.46"/><rect class="cls-6" x="144.11" y="253.58" width="95.65" height="31.88"/><polygon class="cls-4" points="191.93 253.58 175.99 253.58 175.99 237.62 191.93 253.58"/><polygon class="cls-3" points="175.99 221.68 175.99 237.62 160.05 221.68 175.99 221.68"/><polygon points="223.82 221.68 207.88 237.62 207.88 221.68 223.82 221.68"/><rect class="cls-5" x="207.87" y="189.8" width="15.94" height="31.88"/><rect class="cls-4" x="160.05" y="189.8" width="15.94" height="31.88"/><polygon class="cls-2" points="175.99 173.86 175.99 189.8 160.05 189.8 175.99 173.86"/><rect class="cls-4" x="175.99" y="173.86" width="31.88" height="15.94"/><polygon class="cls-3" points="223.82 189.8 207.88 189.8 207.88 173.86 223.82 189.8"/><rect class="cls-4" x="207.87" y="237.62" width="31.88" height="15.95"/><polygon class="cls-3" points="255.71 253.58 239.76 253.58 239.76 237.62 255.71 253.58"/><rect class="cls-5" x="239.76" y="253.58" width="15.95" height="31.88"/><polygon points="255.71 285.46 239.76 301.4 239.76 285.46 255.71 285.46"/><rect class="cls-5" x="207.87" y="285.46" width="31.88" height="15.94"/><polygon class="cls-3" points="207.88 285.46 207.88 301.4 191.93 285.46 207.88 285.46"/><polygon class="cls-5" points="207.88 221.68 207.88 237.62 191.93 221.68 207.88 221.68"/><polygon class="cls-5" points="191.93 221.68 175.99 237.62 175.99 221.68 191.93 221.68"/><rect class="cls-6" x="175.99" y="189.8" width="31.88" height="31.88"/><polygon class="cls-4" points="191.93 221.68 191.93 253.58 175.99 237.62 191.93 221.68"/><polygon class="cls-4" points="207.88 237.62 207.88 253.58 191.93 253.58 207.88 237.62"/><polygon class="cls-5" points="207.88 237.62 191.93 253.58 191.93 221.68 207.88 237.62"/><polygon class="cls-2" points="558.08 581.83 558.08 539.29 578.46 539.29 558.09 581.82 558.08 581.83"/><polygon class="cls-3" points="537.68 539.29 558.08 539.29 558.08 581.83 558.06 581.82 537.68 539.29"/><rect class="cls-4" x="574.02" y="613.71" width="31.88" height="15.95"/><polygon class="cls-2" points="605.9 629.67 605.9 613.71 621.85 613.71 605.9 629.67"/><rect class="cls-4" x="605.9" y="581.83" width="15.95" height="31.88"/><polygon class="cls-3" points="605.9 581.83 605.9 565.89 621.85 581.83 605.9 581.83"/><rect class="cls-5" x="574.02" y="565.89" width="31.88" height="15.94"/><polygon points="558.08 581.83 574.02 565.89 574.02 581.83 558.08 581.83"/><rect class="cls-6" x="510.25" y="581.83" width="95.65" height="31.88"/><polygon class="cls-4" points="558.08 613.71 574.02 613.71 574.02 629.67 558.08 613.71"/><polygon class="cls-3" points="574.02 645.61 574.02 629.67 589.96 645.61 574.02 645.61"/><polygon points="526.19 645.61 542.13 629.67 542.13 645.61 526.19 645.61"/><rect class="cls-5" x="526.19" y="645.61" width="15.94" height="31.88"/><rect class="cls-4" x="574.02" y="645.61" width="15.94" height="31.88"/><polygon class="cls-2" points="574.02 693.43 574.02 677.49 589.96 677.49 574.02 693.43"/><rect class="cls-4" x="542.13" y="677.49" width="31.88" height="15.94"/><polygon class="cls-3" points="526.19 677.49 542.13 677.49 542.13 693.43 526.19 677.49"/><rect class="cls-4" x="510.25" y="613.71" width="31.88" height="15.95"/><polygon class="cls-3" points="494.3 613.71 510.25 613.71 510.25 629.67 494.3 613.71"/><rect class="cls-5" x="494.3" y="581.83" width="15.95" height="31.88"/><polygon points="494.3 581.83 510.25 565.89 510.25 581.83 494.3 581.83"/><rect class="cls-5" x="510.25" y="565.89" width="31.88" height="15.94"/><polygon class="cls-3" points="542.13 581.83 542.13 565.89 558.08 581.83 542.13 581.83"/><polygon class="cls-5" points="542.13 645.61 542.13 629.67 558.08 645.61 542.13 645.61"/><polygon class="cls-5" points="558.08 645.61 574.02 629.67 574.02 645.61 558.08 645.61"/><rect class="cls-6" x="542.13" y="645.61" width="31.88" height="31.88"/><polygon class="cls-4" points="558.08 645.61 558.08 613.71 574.02 629.67 558.08 645.61"/><polygon class="cls-4" points="542.13 629.67 542.13 613.71 558.08 613.71 542.13 629.67"/><polygon class="cls-5" points="542.13 629.67 558.08 613.71 558.08 645.61 542.13 629.67"/><polygon class="cls-2" points="558.08 764.55 558.08 722 578.46 722 558.09 764.54 558.08 764.55"/><polygon class="cls-3" points="537.69 722 558.08 722 558.08 764.55 558.07 764.54 537.69 722"/><rect class="cls-4" x="574.02" y="796.43" width="31.88" height="15.95"/><polygon class="cls-2" points="605.91 812.38 605.91 796.43 621.86 796.43 605.91 812.38"/><rect class="cls-4" x="605.91" y="764.55" width="15.95" height="31.88"/><polygon class="cls-3" points="605.91 764.55 605.91 748.61 621.86 764.55 605.91 764.55"/><rect class="cls-5" x="574.02" y="748.61" width="31.88" height="15.94"/><polygon points="558.08 764.55 574.02 748.61 574.02 764.55 558.08 764.55"/><rect class="cls-6" x="510.26" y="764.55" width="95.65" height="31.88"/><polygon class="cls-4" points="558.08 796.43 574.02 796.43 574.02 812.38 558.08 796.43"/><polygon class="cls-3" points="574.02 828.33 574.02 812.38 589.97 828.33 574.02 828.33"/><polygon points="526.2 828.33 542.14 812.38 542.14 828.33 526.2 828.33"/><rect class="cls-5" x="526.2" y="828.33" width="15.94" height="31.88"/><rect class="cls-4" x="574.02" y="828.33" width="15.94" height="31.88"/><polygon class="cls-2" points="574.02 876.15 574.02 860.21 589.97 860.21 574.02 876.15"/><rect class="cls-4" x="542.14" y="860.21" width="31.88" height="15.94"/><polygon class="cls-3" points="526.2 860.21 542.14 860.21 542.14 876.15 526.2 860.21"/><rect class="cls-4" x="510.26" y="796.43" width="31.88" height="15.95"/><polygon class="cls-3" points="494.3 796.43 510.26 796.43 510.26 812.38 494.3 796.43"/><rect class="cls-5" x="494.3" y="764.55" width="15.95" height="31.88"/><polygon points="494.3 764.55 510.26 748.61 510.26 764.55 494.3 764.55"/><rect class="cls-5" x="510.26" y="748.61" width="31.88" height="15.94"/><polygon class="cls-3" points="542.14 764.55 542.14 748.61 558.08 764.55 542.14 764.55"/><polygon class="cls-5" points="542.14 828.33 542.14 812.38 558.08 828.33 542.14 828.33"/><polygon class="cls-5" points="558.08 828.33 574.02 812.38 574.02 828.33 558.08 828.33"/><rect class="cls-6" x="542.14" y="828.33" width="31.88" height="31.88"/><polygon class="cls-4" points="558.08 828.33 558.08 796.43 574.02 812.38 558.08 828.33"/><polygon class="cls-4" points="542.14 812.38 542.14 796.43 558.08 796.43 542.14 812.38"/><polygon class="cls-5" points="542.14 812.38 558.08 796.43 558.08 828.33 542.14 812.38"/><polygon class="cls-2" points="191.93 468.17 191.93 510.72 171.55 510.72 191.92 468.18 191.93 468.17"/><polygon class="cls-3" points="212.32 510.72 191.93 510.72 191.93 468.17 191.94 468.18 212.32 510.72"/><rect class="cls-4" x="144.11" y="420.34" width="31.88" height="15.95"/><polygon class="cls-2" points="144.11 420.34 144.11 436.29 128.16 436.29 144.11 420.34"/><rect class="cls-4" x="128.15" y="436.29" width="15.95" height="31.88"/><polygon class="cls-3" points="144.11 468.18 144.11 484.12 128.16 468.18 144.11 468.18"/><rect class="cls-5" x="144.11" y="468.17" width="31.88" height="15.94"/><polygon points="191.93 468.18 175.99 484.12 175.99 468.18 191.93 468.18"/><rect class="cls-6" x="144.11" y="436.29" width="95.65" height="31.88"/><polygon class="cls-4" points="191.93 436.29 175.99 436.29 175.99 420.34 191.93 436.29"/><polygon class="cls-3" points="175.99 404.4 175.99 420.34 160.05 404.4 175.99 404.4"/><polygon points="223.82 404.4 207.87 420.34 207.87 404.4 223.82 404.4"/><rect class="cls-5" x="207.87" y="372.51" width="15.94" height="31.88"/><rect class="cls-4" x="160.05" y="372.51" width="15.94" height="31.88"/><polygon class="cls-2" points="175.99 356.57 175.99 372.51 160.05 372.51 175.99 356.57"/><rect class="cls-4" x="175.99" y="356.57" width="31.88" height="15.94"/><polygon class="cls-3" points="223.82 372.51 207.87 372.51 207.87 356.57 223.82 372.51"/><rect class="cls-4" x="207.87" y="420.34" width="31.88" height="15.95"/><polygon class="cls-3" points="255.71 436.29 239.76 436.29 239.76 420.34 255.71 436.29"/><rect class="cls-5" x="239.76" y="436.29" width="15.95" height="31.88"/><polygon points="255.71 468.18 239.76 484.12 239.76 468.18 255.71 468.18"/><rect class="cls-5" x="207.87" y="468.17" width="31.88" height="15.94"/><polygon class="cls-3" points="207.87 468.18 207.87 484.12 191.93 468.18 207.87 468.18"/><polygon class="cls-5" points="207.87 404.4 207.87 420.34 191.93 404.4 207.87 404.4"/><polygon class="cls-5" points="191.93 404.4 175.99 420.34 175.99 404.4 191.93 404.4"/><rect class="cls-6" x="175.99" y="372.51" width="31.88" height="31.88"/><polygon class="cls-4" points="191.93 404.4 191.93 436.29 175.99 420.34 191.93 404.4"/><polygon class="cls-4" points="207.87 420.34 207.87 436.29 191.93 436.29 207.87 420.34"/><polygon class="cls-5" points="207.87 420.34 191.93 436.29 191.93 404.4 207.87 420.34"/><polygon class="cls-2" points="558.08 285.46 558.08 328 537.7 328 558.07 285.47 558.08 285.46"/><polygon class="cls-3" points="578.47 328 558.08 328 558.08 285.46 558.09 285.47 578.47 328"/><rect class="cls-4" x="510.25" y="237.62" width="31.88" height="15.95"/><polygon class="cls-2" points="510.25 237.62 510.25 253.58 494.3 253.58 510.25 237.62"/><rect class="cls-4" x="494.3" y="253.58" width="15.95" height="31.88"/><polygon class="cls-3" points="510.25 285.46 510.25 301.4 494.3 285.46 510.25 285.46"/><rect class="cls-5" x="510.25" y="285.46" width="31.88" height="15.94"/><polygon points="558.08 285.46 542.13 301.4 542.13 285.46 558.08 285.46"/><rect class="cls-6" x="510.25" y="253.58" width="95.65" height="31.88"/><polygon class="cls-4" points="558.08 253.58 542.13 253.58 542.13 237.62 558.08 253.58"/><polygon class="cls-3" points="542.13 221.68 542.13 237.62 526.19 221.68 542.13 221.68"/><polygon points="589.96 221.68 574.02 237.62 574.02 221.68 589.96 221.68"/><rect class="cls-5" x="574.02" y="189.8" width="15.94" height="31.88"/><rect class="cls-4" x="526.19" y="189.8" width="15.94" height="31.88"/><polygon class="cls-2" points="542.13 173.86 542.13 189.8 526.19 189.8 542.13 173.86"/><rect class="cls-4" x="542.13" y="173.86" width="31.88" height="15.94"/><polygon class="cls-3" points="589.96 189.8 574.02 189.8 574.02 173.86 589.96 189.8"/><rect class="cls-4" x="574.02" y="237.62" width="31.88" height="15.95"/><polygon class="cls-3" points="621.85 253.58 605.9 253.58 605.9 237.62 621.85 253.58"/><rect class="cls-5" x="605.9" y="253.58" width="15.95" height="31.88"/><polygon points="621.85 285.46 605.9 301.4 605.9 285.46 621.85 285.46"/><rect class="cls-5" x="574.02" y="285.46" width="31.88" height="15.94"/><polygon class="cls-3" points="574.02 285.46 574.02 301.4 558.08 285.46 574.02 285.46"/><polygon class="cls-5" points="574.02 221.68 574.02 237.62 558.08 221.68 574.02 221.68"/><polygon class="cls-5" points="558.08 221.68 542.13 237.62 542.13 221.68 558.08 221.68"/><rect class="cls-6" x="542.13" y="189.8" width="31.88" height="31.88"/><polygon class="cls-4" points="558.08 221.68 558.08 253.58 542.13 237.62 558.08 221.68"/><polygon class="cls-4" points="574.02 237.62 574.02 253.58 558.08 253.58 574.02 237.62"/><polygon class="cls-5" points="574.02 237.62 558.08 253.58 558.08 221.68 574.02 237.62"/><polygon class="cls-2" points="191.93 581.83 191.93 539.29 212.31 539.29 191.94 581.82 191.93 581.83"/><polygon class="cls-3" points="171.54 539.29 191.93 539.29 191.93 581.83 191.92 581.82 171.54 539.29"/><rect class="cls-4" x="207.87" y="613.71" width="31.88" height="15.95"/><polygon class="cls-2" points="239.76 629.67 239.76 613.71 255.71 613.71 239.76 629.67"/><rect class="cls-4" x="239.76" y="581.83" width="15.95" height="31.88"/><polygon class="cls-3" points="239.76 581.83 239.76 565.89 255.71 581.83 239.76 581.83"/><rect class="cls-5" x="207.87" y="565.89" width="31.88" height="15.94"/><polygon points="191.93 581.83 207.88 565.89 207.88 581.83 191.93 581.83"/><rect class="cls-6" x="144.11" y="581.83" width="95.65" height="31.88"/><polygon class="cls-4" points="191.93 613.71 207.88 613.71 207.88 629.67 191.93 613.71"/><polygon class="cls-3" points="207.88 645.61 207.88 629.67 223.82 645.61 207.88 645.61"/><polygon points="160.05 645.61 175.99 629.67 175.99 645.61 160.05 645.61"/><rect class="cls-5" x="160.05" y="645.61" width="15.94" height="31.88"/><rect class="cls-4" x="207.87" y="645.61" width="15.94" height="31.88"/><polygon class="cls-2" points="207.88 693.43 207.88 677.49 223.82 677.49 207.88 693.43"/><rect class="cls-4" x="175.99" y="677.49" width="31.88" height="15.94"/><polygon class="cls-3" points="160.05 677.49 175.99 677.49 175.99 693.43 160.05 677.49"/><rect class="cls-4" x="144.11" y="613.71" width="31.88" height="15.95"/><polygon class="cls-3" points="128.16 613.71 144.11 613.71 144.11 629.67 128.16 613.71"/><rect class="cls-5" x="128.15" y="581.83" width="15.95" height="31.88"/><polygon points="128.16 581.83 144.11 565.89 144.11 581.83 128.16 581.83"/><rect class="cls-5" x="144.11" y="565.89" width="31.88" height="15.94"/><polygon class="cls-3" points="175.99 581.83 175.99 565.89 191.93 581.83 175.99 581.83"/><polygon class="cls-5" points="175.99 645.61 175.99 629.67 191.93 645.61 175.99 645.61"/><polygon class="cls-5" points="191.93 645.61 207.88 629.67 207.88 645.61 191.93 645.61"/><rect class="cls-6" x="175.99" y="645.61" width="31.88" height="31.88"/><polygon class="cls-4" points="191.93 645.61 191.93 613.71 207.88 629.67 191.93 645.61"/><polygon class="cls-4" points="175.99 629.67 175.99 613.71 191.93 613.71 175.99 629.67"/><polygon class="cls-5" points="175.99 629.67 191.93 613.71 191.93 645.61 175.99 629.67"/><polygon class="cls-2" points="70.31 187.1 70.31 214.67 57.1 214.67 70.3 187.11 70.31 187.1"/><polygon class="cls-3" points="83.52 214.67 70.31 214.67 70.31 187.1 70.32 187.11 83.52 214.67"/><rect class="cls-4" x="39.32" y="156.11" width="20.66" height="10.34"/><polygon class="cls-2" points="39.32 156.11 39.32 166.45 28.99 166.45 39.32 156.11"/><rect class="cls-4" x="28.99" y="166.45" width="10.34" height="20.66"/><polygon class="cls-3" points="39.32 187.1 39.32 197.43 28.99 187.1 39.32 187.1"/><rect class="cls-5" x="39.32" y="187.1" width="20.66" height="10.33"/><polygon points="70.31 187.1 59.98 197.43 59.98 187.1 70.31 187.1"/><rect class="cls-6" x="39.32" y="166.45" width="61.97" height="20.66"/><polygon class="cls-4" points="70.31 166.45 59.98 166.45 59.98 156.11 70.31 166.45"/><polygon class="cls-3" points="59.98 145.78 59.98 156.11 49.65 145.78 59.98 145.78"/><polygon points="90.97 145.78 80.64 156.11 80.64 145.78 90.97 145.78"/><rect class="cls-5" x="80.64" y="125.12" width="10.33" height="20.66"/><rect class="cls-4" x="49.65" y="125.12" width="10.33" height="20.66"/><polygon class="cls-2" points="59.98 114.79 59.98 125.12 49.65 125.12 59.98 114.79"/><rect class="cls-4" x="59.98" y="114.79" width="20.66" height="10.33"/><polygon class="cls-3" points="90.97 125.12 80.64 125.12 80.64 114.79 90.97 125.12"/><rect class="cls-4" x="80.64" y="156.11" width="20.66" height="10.34"/><polygon class="cls-3" points="111.63 166.45 101.3 166.45 101.3 156.11 111.63 166.45"/><rect class="cls-5" x="101.3" y="166.45" width="10.34" height="20.66"/><polygon points="111.63 187.1 101.3 197.43 101.3 187.1 111.63 187.1"/><rect class="cls-5" x="80.64" y="187.1" width="20.66" height="10.33"/><polygon class="cls-3" points="80.64 187.1 80.64 197.43 70.31 187.1 80.64 187.1"/><polygon class="cls-5" points="80.64 145.78 80.64 156.11 70.31 145.78 80.64 145.78"/><polygon class="cls-5" points="70.31 145.78 59.98 156.11 59.98 145.78 70.31 145.78"/><rect class="cls-6" x="59.98" y="125.12" width="20.66" height="20.66"/><polygon class="cls-4" points="70.31 145.78 70.31 166.45 59.98 156.11 70.31 145.78"/><polygon class="cls-4" points="80.64 156.11 80.64 166.45 70.31 166.45 80.64 156.11"/><polygon class="cls-5" points="80.64 156.11 70.31 166.45 70.31 145.78 80.64 156.11"/><polygon class="cls-2" points="679.69 862.9 679.69 835.33 692.89 835.33 679.7 862.89 679.69 862.9"/><polygon class="cls-3" points="666.48 835.33 679.69 835.33 679.69 862.9 679.68 862.89 666.48 835.33"/><rect class="cls-4" x="690.02" y="883.56" width="20.66" height="10.34"/><polygon class="cls-2" points="710.68 893.89 710.68 883.55 721.01 883.55 710.68 893.89"/><rect class="cls-4" x="710.68" y="862.9" width="10.34" height="20.66"/><polygon class="cls-3" points="710.68 862.9 710.68 852.57 721.01 862.9 710.68 862.9"/><rect class="cls-5" x="690.02" y="852.57" width="20.66" height="10.33"/><polygon points="679.69 862.9 690.02 852.57 690.02 862.9 679.69 862.9"/><rect class="cls-6" x="648.7" y="862.9" width="61.97" height="20.66"/><polygon class="cls-4" points="679.69 883.55 690.02 883.55 690.02 893.89 679.69 883.55"/><polygon class="cls-3" points="690.02 904.22 690.02 893.89 700.35 904.22 690.02 904.22"/><polygon points="659.03 904.22 669.36 893.89 669.36 904.22 659.03 904.22"/><rect class="cls-5" x="659.03" y="904.22" width="10.33" height="20.66"/><rect class="cls-4" x="690.02" y="904.22" width="10.33" height="20.66"/><polygon class="cls-2" points="690.02 935.21 690.02 924.88 700.35 924.88 690.02 935.21"/><rect class="cls-4" x="669.36" y="924.88" width="20.66" height="10.33"/><polygon class="cls-3" points="659.03 924.88 669.36 924.88 669.36 935.21 659.03 924.88"/><rect class="cls-4" x="648.7" y="883.56" width="20.66" height="10.34"/><polygon class="cls-3" points="638.37 883.55 648.71 883.55 648.71 893.89 638.37 883.55"/><rect class="cls-5" x="638.37" y="862.9" width="10.34" height="20.66"/><polygon points="638.37 862.9 648.71 852.57 648.71 862.9 638.37 862.9"/><rect class="cls-5" x="648.7" y="852.57" width="20.66" height="10.33"/><polygon class="cls-3" points="669.36 862.9 669.36 852.57 679.69 862.9 669.36 862.9"/><polygon class="cls-5" points="669.36 904.22 669.36 893.89 679.69 904.22 669.36 904.22"/><polygon class="cls-5" points="679.69 904.22 690.02 893.89 690.02 904.22 679.69 904.22"/><rect class="cls-6" x="669.36" y="904.22" width="20.66" height="20.66"/><polygon class="cls-4" points="679.69 904.22 679.69 883.55 690.02 893.89 679.69 904.22"/><polygon class="cls-4" points="669.36 893.89 669.36 883.55 679.69 883.55 669.36 893.89"/><polygon class="cls-5" points="669.36 893.89 679.69 883.55 679.69 904.22 669.36 893.89"/><polygon class="cls-2" points="191.94 764.55 191.94 722 212.32 722 191.95 764.54 191.94 764.55"/><polygon class="cls-3" points="171.55 722 191.94 722 191.94 764.55 191.93 764.54 171.55 722"/><rect class="cls-4" x="207.88" y="796.43" width="31.88" height="15.95"/><polygon class="cls-2" points="239.76 812.38 239.76 796.43 255.72 796.43 239.76 812.38"/><rect class="cls-4" x="239.76" y="764.55" width="15.95" height="31.88"/><polygon class="cls-3" points="239.76 764.55 239.76 748.61 255.72 764.55 239.76 764.55"/><rect class="cls-5" x="207.88" y="748.61" width="31.88" height="15.94"/><polygon points="191.94 764.55 207.88 748.61 207.88 764.55 191.94 764.55"/><rect class="cls-6" x="144.12" y="764.55" width="95.65" height="31.88"/><polygon class="cls-4" points="191.94 796.43 207.88 796.43 207.88 812.38 191.94 796.43"/><polygon class="cls-3" points="207.88 828.33 207.88 812.38 223.82 828.33 207.88 828.33"/><polygon points="160.06 828.33 176 812.38 176 828.33 160.06 828.33"/><rect class="cls-5" x="160.06" y="828.33" width="15.94" height="31.88"/><rect class="cls-4" x="207.88" y="828.33" width="15.94" height="31.88"/><polygon class="cls-2" points="207.88 876.15 207.88 860.21 223.82 860.21 207.88 876.15"/><rect class="cls-4" x="176" y="860.21" width="31.88" height="15.94"/><polygon class="cls-3" points="160.06 860.21 176 860.21 176 876.15 160.06 860.21"/><rect class="cls-4" x="144.12" y="796.43" width="31.88" height="15.95"/><polygon class="cls-3" points="128.16 796.43 144.12 796.43 144.12 812.38 128.16 796.43"/><rect class="cls-5" x="128.16" y="764.55" width="15.95" height="31.88"/><polygon points="128.16 764.55 144.12 748.61 144.12 764.55 128.16 764.55"/><rect class="cls-5" x="144.12" y="748.61" width="31.88" height="15.94"/><polygon class="cls-3" points="176 764.55 176 748.61 191.94 764.55 176 764.55"/><polygon class="cls-5" points="176 828.33 176 812.38 191.94 828.33 176 828.33"/><polygon class="cls-5" points="191.94 828.33 207.88 812.38 207.88 828.33 191.94 828.33"/><rect class="cls-6" x="176" y="828.33" width="31.88" height="31.88"/><polygon class="cls-4" points="191.94 828.33 191.94 796.43 207.88 812.38 191.94 828.33"/><polygon class="cls-4" points="176 812.38 176 796.43 191.94 796.43 176 812.38"/><polygon class="cls-5" points="176 812.38 191.94 796.43 191.94 828.33 176 812.38"/><polygon class="cls-2" points="558.08 468.17 558.08 510.72 537.7 510.72 558.07 468.18 558.08 468.17"/><polygon class="cls-3" points="578.47 510.72 558.08 510.72 558.08 468.17 558.09 468.18 578.47 510.72"/><rect class="cls-4" x="510.25" y="420.34" width="31.88" height="15.95"/><polygon class="cls-2" points="510.25 420.34 510.25 436.29 494.3 436.29 510.25 420.34"/><rect class="cls-4" x="494.3" y="436.29" width="15.95" height="31.88"/><polygon class="cls-3" points="510.25 468.18 510.25 484.12 494.3 468.18 510.25 468.18"/><rect class="cls-5" x="510.25" y="468.17" width="31.88" height="15.94"/><polygon points="558.08 468.18 542.13 484.12 542.13 468.18 558.08 468.18"/><rect class="cls-6" x="510.25" y="436.29" width="95.65" height="31.88"/><polygon class="cls-4" points="558.08 436.29 542.13 436.29 542.13 420.34 558.08 436.29"/><polygon class="cls-3" points="542.13 404.4 542.13 420.34 526.19 404.4 542.13 404.4"/><polygon points="589.96 404.4 574.02 420.34 574.02 404.4 589.96 404.4"/><rect class="cls-5" x="574.02" y="372.51" width="15.94" height="31.88"/><rect class="cls-4" x="526.19" y="372.51" width="15.94" height="31.88"/><polygon class="cls-2" points="542.13 356.57 542.13 372.51 526.19 372.51 542.13 356.57"/><rect class="cls-4" x="542.13" y="356.57" width="31.88" height="15.94"/><polygon class="cls-3" points="589.96 372.51 574.02 372.51 574.02 356.57 589.96 372.51"/><rect class="cls-4" x="574.02" y="420.34" width="31.88" height="15.95"/><polygon class="cls-3" points="621.85 436.29 605.9 436.29 605.9 420.34 621.85 436.29"/><rect class="cls-5" x="605.9" y="436.29" width="15.95" height="31.88"/><polygon points="621.85 468.18 605.9 484.12 605.9 468.18 621.85 468.18"/><rect class="cls-5" x="574.02" y="468.17" width="31.88" height="15.94"/><polygon class="cls-3" points="574.02 468.18 574.02 484.12 558.08 468.18 574.02 468.18"/><polygon class="cls-5" points="574.02 404.4 574.02 420.34 558.08 404.4 574.02 404.4"/><polygon class="cls-5" points="558.08 404.4 542.13 420.34 542.13 404.4 558.08 404.4"/><rect class="cls-6" x="542.13" y="372.51" width="31.88" height="31.88"/><polygon class="cls-4" points="558.08 404.4 558.08 436.29 542.13 420.34 558.08 404.4"/><polygon class="cls-4" points="574.02 420.34 574.02 436.29 558.08 436.29 574.02 420.34"/><polygon class="cls-5" points="574.02 420.34 558.08 436.29 558.08 404.4 574.02 420.34"/><polygon class="cls-2" points="375 559.53 375 602.07 354.62 602.07 374.99 559.54 375 559.53"/><polygon class="cls-3" points="395.39 602.07 375 602.07 375 559.53 375.01 559.54 395.39 602.07"/><rect class="cls-4" x="327.17" y="511.69" width="31.88" height="15.95"/><polygon class="cls-2" points="327.17 511.69 327.17 527.65 311.22 527.65 327.17 511.69"/><rect class="cls-4" x="311.22" y="527.65" width="15.95" height="31.88"/><polygon class="cls-3" points="327.17 559.53 327.17 575.47 311.22 559.53 327.17 559.53"/><rect class="cls-5" x="327.17" y="559.53" width="31.88" height="15.94"/><polygon points="375 559.53 359.06 575.47 359.06 559.53 375 559.53"/><rect class="cls-6" x="327.17" y="527.65" width="95.65" height="31.88"/><polygon class="cls-4" points="375 527.65 359.06 527.65 359.06 511.69 375 527.65"/><polygon class="cls-3" points="359.06 495.75 359.06 511.69 343.11 495.75 359.06 495.75"/><polygon points="406.88 495.75 390.94 511.69 390.94 495.75 406.88 495.75"/><rect class="cls-5" x="390.94" y="463.87" width="15.94" height="31.88"/><rect class="cls-4" x="343.11" y="463.87" width="15.94" height="31.88"/><polygon class="cls-2" points="359.06 447.93 359.06 463.87 343.11 463.87 359.06 447.93"/><rect class="cls-4" x="359.05" y="447.93" width="31.88" height="15.94"/><polygon class="cls-3" points="406.88 463.87 390.94 463.87 390.94 447.93 406.88 463.87"/><rect class="cls-4" x="390.94" y="511.69" width="31.88" height="15.95"/><polygon class="cls-3" points="438.77 527.65 422.82 527.65 422.82 511.69 438.77 527.65"/><rect class="cls-5" x="422.82" y="527.65" width="15.95" height="31.88"/><polygon points="438.77 559.53 422.82 575.47 422.82 559.53 438.77 559.53"/><rect class="cls-5" x="390.94" y="559.53" width="31.88" height="15.94"/><polygon class="cls-3" points="390.94 559.53 390.94 575.47 375 559.53 390.94 559.53"/><polygon class="cls-5" points="390.94 495.75 390.94 511.69 375 495.75 390.94 495.75"/><polygon class="cls-5" points="375 495.75 359.06 511.69 359.06 495.75 375 495.75"/><rect class="cls-6" x="359.05" y="463.87" width="31.88" height="31.88"/><polygon class="cls-4" points="375 495.75 375 527.65 359.06 511.69 375 495.75"/><polygon class="cls-4" points="390.94 511.69 390.94 527.65 375 527.65 390.94 511.69"/><polygon class="cls-5" points="390.94 511.69 375 527.65 375 495.75 390.94 511.69"/></g></svg>