<svg xmlns="http://www.w3.org/2000/svg" viewBox="0 0 750 1050"><defs><style>.cls-1{fill:#f1f2f2;}.cls-2{fill:#595959;}.cls-3{fill:#2d2d2d;}.cls-4{fill:#434343;}.cls-5{fill:#161616;}.cls-6{fill:#1c1c1c;}</style></defs><g id="Layer_6" data-name="Layer 6"><rect class="cls-1" width="750" height="1050" rx="63.89"/></g><g id="Layer_4" data-name="Layer 4"><path d="M93.36,44.85V61.56A12.74,12.74,0,0,1,89.75,71a13.25,13.25,0,0,1,3.72,9v17.4a8.54,8.54,0,0,1-2.66,6.29,8.72,8.72,0,0,1-6.36,2.62H52.93a4.46,4.46,0,1,1,0-8.91H84.34V80A4.46,4.46,0,0,0,83,76.81a4.23,4.23,0,0,0-3.16-1.35H62a4.32,4.32,0,0,1-3.15-1.28A4.47,4.47,0,0,1,62,66.54H80a4.34,4.34,0,0,0,3.13-1.29,4.25,4.25,0,0,0,1.33-3.16V44.85H52.62a4.46,4.46,0,1,1,0-8.92H84.45a8.93,8.93,0,0,1,8.91,8.92Z"/><path d="M656.64,1005.15V988.44a12.78,12.78,0,0,1,3.61-9.44,13.28,13.28,0,0,1-3.71-9v-17.4a8.53,8.53,0,0,1,2.65-6.29,8.73,8.73,0,0,1,6.37-2.62h31.51a4.46,4.46,0,1,1,0,8.91H665.66V970a4.5,4.5,0,0,0,1.3,3.21,4.23,4.23,0,0,0,3.16,1.35h17.93a4.35,4.35,0,0,1,3.16,1.28,4.51,4.51,0,0,1,0,6.34,4.33,4.33,0,0,1-3.16,1.3H670a4.32,4.32,0,0,0-3.13,1.3,4.24,4.24,0,0,0-1.32,3.15v17.24h31.83a4.46,4.46,0,1,1,0,8.92H665.56a8.93,8.93,0,0,1-8.92-8.92Z"/><polygon class="cls-2" points="375 285.46 375 328 354.63 328 374.99 285.47 375 285.46"/><polygon class="cls-3" points="395.4 328 375 328 375 285.46 375.02 285.47 395.4 328"/><rect class="cls-4" x="327.18" y="237.62" width="31.88" height="15.95"/><polygon class="cls-2" points="327.18 237.62 327.18 253.57 311.23 253.57 327.18 237.62"/><rect class="cls-4" x="311.23" y="253.58" width="15.95" height="31.88"/><polygon class="cls-3" points="327.18 285.46 327.18 301.4 311.23 285.46 327.18 285.46"/><rect class="cls-5" x="327.18" y="285.46" width="31.88" height="15.94"/><polygon points="375 285.46 359.06 301.4 359.06 285.46 375 285.46"/><rect class="cls-6" x="327.18" y="253.58" width="95.65" height="31.88"/><polygon class="cls-4" points="375 253.57 359.06 253.57 359.06 237.62 375 253.57"/><polygon class="cls-3" points="359.06 221.68 359.06 237.62 343.12 221.68 359.06 221.68"/><polygon points="406.89 221.68 390.94 237.62 390.94 221.68 406.89 221.68"/><rect class="cls-5" x="390.95" y="189.8" width="15.94" height="31.88"/><rect class="cls-4" x="343.12" y="189.8" width="15.94" height="31.88"/><polygon class="cls-2" points="359.06 173.86 359.06 189.8 343.12 189.8 359.06 173.86"/><rect class="cls-4" x="359.06" y="173.86" width="31.88" height="15.94"/><polygon class="cls-3" points="406.89 189.8 390.94 189.8 390.94 173.86 406.89 189.8"/><rect class="cls-4" x="390.95" y="237.62" width="31.88" height="15.95"/><polygon class="cls-3" points="438.78 253.57 422.83 253.57 422.83 237.62 438.78 253.57"/><rect class="cls-5" x="422.83" y="253.58" width="15.95" height="31.88"/><polygon points="438.78 285.46 422.83 301.4 422.83 285.46 438.78 285.46"/><rect class="cls-5" x="390.95" y="285.46" width="31.88" height="15.94"/><polygon class="cls-3" points="390.94 285.46 390.94 301.4 375 285.46 390.94 285.46"/><polygon class="cls-5" points="390.94 221.68 390.94 237.62 375 221.68 390.94 221.68"/><polygon class="cls-5" points="375 221.68 359.06 237.62 359.06 221.68 375 221.68"/><rect class="cls-6" x="359.06" y="189.8" width="31.88" height="31.88"/><polygon class="cls-4" points="375 221.68 375 253.57 359.06 237.62 375 221.68"/><polygon class="cls-4" points="390.94 237.62 390.94 253.57 375 253.57 390.94 237.62"/><polygon class="cls-5" points="390.94 237.62 375 253.57 375 221.68 390.94 237.62"/><polygon class="cls-2" points="70.31 187.1 70.31 214.67 57.1 214.67 70.3 187.11 70.31 187.1"/><polygon class="cls-3" points="83.52 214.67 70.31 214.67 70.31 187.1 70.32 187.11 83.52 214.67"/><rect class="cls-4" x="39.32" y="156.11" width="20.66" height="10.34"/><polygon class="cls-2" points="39.32 156.11 39.32 166.45 28.99 166.45 39.32 156.11"/><rect class="cls-4" x="28.99" y="166.45" width="10.34" height="20.66"/><polygon class="cls-3" points="39.32 187.1 39.32 197.43 28.99 187.1 39.32 187.1"/><rect class="cls-5" x="39.32" y="187.1" width="20.66" height="10.33"/><polygon points="70.31 187.1 59.98 197.43 59.98 187.1 70.31 187.1"/><rect class="cls-6" x="39.32" y="166.45" width="61.97" height="20.66"/><polygon class="cls-4" points="70.31 166.45 59.98 166.45 59.98 156.11 70.31 166.45"/><polygon class="cls-3" points="59.98 145.78 59.98 156.11 49.65 145.78 59.98 145.78"/><polygon points="90.97 145.78 80.64 156.11 80.64 145.78 90.97 145.78"/><rect class="cls-5" x="80.64" y="125.12" width="10.33" height="20.66"/><rect class="cls-4" x="49.65" y="125.12" width="10.33" height="20.66"/><polygon class="cls-2" points="59.98 114.79 59.98 125.12 49.65 125.12 59.98 114.79"/><rect class="cls-4" x="59.98" y="114.79" width="20.66" height="10.33"/><polygon class="cls-3" points="90.97 125.12 80.64 125.12 80.64 114.79 90.97 125.12"/><rect class="cls-4" x="80.64" y="156.11" width="20.66" height="10.34"/><polygon class="cls-3" points="111.63 166.45 101.3 166.45 101.3 156.11 111.63 166.45"/><rect class="cls-5" x="101.3" y="166.45" width="10.34" height="20.66"/><polygon points="111.63 187.1 101.3 197.43 101.3 187.1 111.63 187.1"/><rect class="cls-5" x="80.64" y="187.1" width="20.66" height="10.33"/><polygon class="cls-3" points="80.64 187.1 80.64 197.43 70.31 187.1 80.64 187.1"/><polygon class="cls-5" points="80.64 145.78 80.64 156.11 70.31 145.78 80.64 145.78"/><polygon class="cls-5" points="70.31 145.78 59.98 156.11 59.98 145.78 70.31 145.78"/><rect class="cls-6" x="59.98" y="125.12" width="20.66" height="20.66"/><polygon class="cls-4" points="70.31 145.78 70.31 166.45 59.98 156.11 70.31 145.78"/><polygon class="cls-4" points="80.64 156.11 80.64 166.45 70.31 166.45 80.64 156.11"/><polygon class="cls-5" points="80.64 156.11 70.31 166.45 70.31 145.78 80.64 156.11"/><polygon class="cls-2" points="679.69 862.9 679.69 835.33 692.89 835.33 679.7 862.89 679.69 862.9"/><polygon class="cls-3" points="666.48 835.33 679.69 835.33 679.69 862.9 679.68 862.89 666.48 835.33"/><rect class="cls-4" x="690.02" y="883.56" width="20.66" height="10.34"/><polygon class="cls-2" points="710.68 893.89 710.68 883.55 721.01 883.55 710.68 893.89"/><rect class="cls-4" x="710.68" y="862.9" width="10.34" height="20.66"/><polygon class="cls-3" points="710.68 862.9 710.68 852.57 721.01 862.9 710.68 862.9"/><rect class="cls-5" x="690.02" y="852.57" width="20.66" height="10.33"/><polygon points="679.69 862.9 690.02 852.57 690.02 862.9 679.69 862.9"/><rect class="cls-6" x="648.7" y="862.9" width="61.97" height="20.66"/><polygon class="cls-4" points="679.69 883.55 690.02 883.55 690.02 893.89 679.69 883.55"/><polygon class="cls-3" points="690.02 904.22 690.02 893.89 700.35 904.22 690.02 904.22"/><polygon points="659.03 904.22 669.36 893.89 669.36 904.22 659.03 904.22"/><rect class="cls-5" x="659.03" y="904.22" width="10.33" height="20.66"/><rect class="cls-4" x="690.02" y="904.22" width="10.33" height="20.66"/><polygon class="cls-2" points="690.02 935.21 690.02 924.88 700.35 924.88 690.02 935.21"/><rect class="cls-4" x="669.36" y="924.88" width="20.66" height="10.33"/><polygon class="cls-3" points="659.03 924.88 669.36 924.88 669.36 935.21 659.03 924.88"/><rect class="cls-4" x="648.7" y="883.56" width="20.66" height="10.34"/><polygon class="cls-3" points="638.37 883.55 648.71 883.55 648.71 893.89 638.37 883.55"/><rect class="cls-5" x="638.37" y="862.9" width="10.34" height="20.66"/><polygon points="638.37 862.9 648.71 852.57 648.71 862.9 638.37 862.9"/><rect class="cls-5" x="648.7" y="852.57" width="20.66" height="10.33"/><polygon class="cls-3" points="669.36 862.9 669.36 852.57 679.69 862.9 669.36 862.9"/><polygon class="cls-5" points="669.36 904.22 669.36 893.89 679.69 904.22 669.36 904.22"/><polygon class="cls-5" points="679.69 904.22 690.02 893.89 690.02 904.22 679.69 904.22"/><rect class="cls-6" x="669.36" y="904.22" width="20.66" height="20.66"/><polygon class="cls-4" points="679.69 904.22 679.69 883.55 690.02 893.89 679.69 904.22"/><polygon class="cls-4" points="669.36 893.89 669.36 883.55 679.69 883.55 669.36 893.89"/><polygon class="cls-5" points="669.36 893.89 679.69 883.55 679.69 904.22 669.36 893.89"/><polygon class="cls-2" points="375 764.55 375 722 395.38 722 375.01 764.54 375 764.55"/><polygon class="cls-3" points="354.61 722 375 722 375 764.55 374.99 764.54 354.61 722"/><rect class="cls-4" x="390.95" y="796.43" width="31.88" height="15.95"/><polygon class="cls-2" points="422.83 812.38 422.83 796.43 438.78 796.43 422.83 812.38"/><rect class="cls-4" x="422.83" y="764.55" width="15.95" height="31.88"/><polygon class="cls-3" points="422.83 764.55 422.83 748.61 438.78 764.55 422.83 764.55"/><rect class="cls-5" x="390.95" y="748.61" width="31.88" height="15.94"/><polygon points="375 764.55 390.95 748.61 390.95 764.55 375 764.55"/><rect class="cls-6" x="327.18" y="764.55" width="95.65" height="31.88"/><polygon class="cls-4" points="375 796.43 390.95 796.43 390.95 812.38 375 796.43"/><polygon class="cls-3" points="390.95 828.33 390.95 812.38 406.89 828.33 390.95 828.33"/><polygon points="343.12 828.33 359.06 812.38 359.06 828.33 343.12 828.33"/><rect class="cls-5" x="343.12" y="828.33" width="15.94" height="31.88"/><rect class="cls-4" x="390.95" y="828.33" width="15.94" height="31.88"/><polygon class="cls-2" points="390.95 876.15 390.95 860.21 406.89 860.21 390.95 876.15"/><rect class="cls-4" x="359.06" y="860.21" width="31.88" height="15.94"/><polygon class="cls-3" points="343.12 860.21 359.06 860.21 359.06 876.15 343.12 860.21"/><rect class="cls-4" x="327.18" y="796.43" width="31.88" height="15.95"/><polygon class="cls-3" points="311.23 796.43 327.18 796.43 327.18 812.38 311.23 796.43"/><rect class="cls-5" x="311.23" y="764.55" width="15.95" height="31.88"/><polygon points="311.23 764.55 327.18 748.61 327.18 764.55 311.23 764.55"/><rect class="cls-5" x="327.18" y="748.61" width="31.88" height="15.94"/><polygon class="cls-3" points="359.06 764.55 359.06 748.61 375 764.55 359.06 764.55"/><polygon class="cls-5" points="359.06 828.33 359.06 812.38 375 828.33 359.06 828.33"/><polygon class="cls-5" points="375 828.33 390.95 812.38 390.95 828.33 375 828.33"/><rect class="cls-6" x="359.06" y="828.33" width="31.88" height="31.88"/><polygon class="cls-4" points="375 828.33 375 796.43 390.95 812.38 375 828.33"/><polygon class="cls-4" points="359.06 812.38 359.06 796.43 375 796.43 359.06 812.38"/><polygon class="cls-5" points="359.06 812.38 375 796.43 375 828.33 359.06 812.38"/><polygon class="cls-2" points="375 559.53 375 602.07 354.63 602.07 374.99 559.54 375 559.53"/><polygon class="cls-3" points="395.4 602.07 375 602.07 375 559.53 375.02 559.54 395.4 602.07"/><rect class="cls-4" x="327.18" y="511.69" width="31.88" height="15.95"/><polygon class="cls-2" points="327.18 511.69 327.18 527.65 311.23 527.65 327.18 511.69"/><rect class="cls-4" x="311.23" y="527.65" width="15.95" height="31.88"/><polygon class="cls-3" points="327.18 559.53 327.18 575.47 311.23 559.53 327.18 559.53"/><rect class="cls-5" x="327.18" y="559.53" width="31.88" height="15.94"/><polygon points="375 559.53 359.06 575.47 359.06 559.53 375 559.53"/><rect class="cls-6" x="327.18" y="527.65" width="95.65" height="31.88"/><polygon class="cls-4" points="375 527.65 359.06 527.65 359.06 511.69 375 527.65"/><polygon class="cls-3" points="359.06 495.75 359.06 511.69 343.12 495.75 359.06 495.75"/><polygon points="406.89 495.75 390.94 511.69 390.94 495.75 406.89 495.75"/><rect class="cls-5" x="390.95" y="463.87" width="15.94" height="31.88"/><rect class="cls-4" x="343.12" y="463.87" width="15.94" height="31.88"/><polygon class="cls-2" points="359.06 447.93 359.06 463.87 343.12 463.87 359.06 447.93"/><rect class="cls-4" x="359.06" y="447.93" width="31.88" height="15.94"/><polygon class="cls-3" points="406.89 463.87 390.94 463.87 390.94 447.93 406.89 463.87"/><rect class="cls-4" x="390.95" y="511.69" width="31.88" height="15.95"/><polygon class="cls-3" points="438.78 527.65 422.83 527.65 422.83 511.69 438.78 527.65"/><rect class="cls-5" x="422.83" y="527.65" width="15.95" height="31.88"/><polygon points="438.78 559.53 422.83 575.47 422.83 559.53 438.78 559.53"/><rect class="cls-5" x="390.95" y="559.53" width="31.88" height="15.94"/><polygon class="cls-3" points="390.94 559.53 390.94 575.47 375 559.53 390.94 559.53"/><polygon class="cls-5" points="390.94 495.75 390.94 511.69 375 495.75 390.94 495.75"/><polygon class="cls-5" points="375 495.75 359.06 511.69 359.06 495.75 375 495.75"/><rect class="cls-6" x="359.06" y="463.87" width="31.88" height="31.88"/><polygon class="cls-4" points="375 495.75 375 527.65 359.06 511.69 375 495.75"/><polygon class="cls-4" points="390.94 511.69 390.94 527.65 375 527.65 390.94 511.69"/><polygon class="cls-5" points="390.94 511.69 375 527.65 375 495.75 390.94 511.69"/></g></svg>