<svg xmlns="http://www.w3.org/2000/svg" viewBox="0 0 750 1050"><defs><style>.cls-1{fill:#f1f2f2;}.cls-2{fill:#595959;}.cls-3{fill:#2d2d2d;}.cls-4{fill:#434343;}.cls-5{fill:#161616;}.cls-6{fill:#1c1c1c;}</style></defs><g id="Layer_6" data-name="Layer 6"><rect class="cls-1" width="750" height="1050" rx="63.89"/></g><g id="Layer_4" data-name="Layer 4"><path d="M48.27,44.31V40.5A4.44,4.44,0,0,1,52.72,36H93.15V63.41A4.56,4.56,0,0,1,91.5,67L75.11,81v20.74a4.46,4.46,0,0,1-1.3,3.21,4.23,4.23,0,0,1-3.16,1.35A4.47,4.47,0,0,1,67.44,105a4.26,4.26,0,0,1-1.35-3.13V79.38a5,5,0,0,1,1.58-3.93L84.13,61.53V45H57.18c-.64,2.55-2.12,3.82-4.46,3.82a4.44,4.44,0,0,1-4.45-4.46Z"/><path d="M701.74,1005.69v3.81a4.44,4.44,0,0,1-4.46,4.46H656.86V986.59A4.58,4.58,0,0,1,658.5,983l16.4-14V948.23a4.49,4.49,0,0,1,1.29-3.21,4.23,4.23,0,0,1,3.16-1.35,4.43,4.43,0,0,1,3.21,1.32,4.26,4.26,0,0,1,1.35,3.13v22.5a4.92,4.92,0,0,1-1.58,3.93l-16.45,13.92v16.58h27c.63-2.55,2.12-3.82,4.45-3.82a4.44,4.44,0,0,1,4.46,4.46Z"/><polygon class="cls-2" points="191.93 285.46 191.93 328 171.55 328 191.92 285.47 191.93 285.46"/><polygon class="cls-3" points="212.32 328 191.93 328 191.93 285.46 191.94 285.47 212.32 328"/><rect class="cls-4" x="144.11" y="237.62" width="31.88" height="15.95"/><polygon class="cls-2" points="144.11 237.62 144.11 253.57 128.16 253.57 144.11 237.62"/><rect class="cls-4" x="128.15" y="253.58" width="15.95" height="31.88"/><polygon class="cls-3" points="144.11 285.46 144.11 301.4 128.16 285.46 144.11 285.46"/><rect class="cls-5" x="144.11" y="285.46" width="31.88" height="15.94"/><polygon points="191.93 285.46 175.99 301.4 175.99 285.46 191.93 285.46"/><rect class="cls-6" x="144.11" y="253.58" width="95.65" height="31.88"/><polygon class="cls-4" points="191.93 253.57 175.99 253.57 175.99 237.62 191.93 253.57"/><polygon class="cls-3" points="175.99 221.68 175.99 237.62 160.05 221.68 175.99 221.68"/><polygon points="223.82 221.68 207.88 237.62 207.88 221.68 223.82 221.68"/><rect class="cls-5" x="207.87" y="189.8" width="15.94" height="31.88"/><rect class="cls-4" x="160.05" y="189.8" width="15.94" height="31.88"/><polygon class="cls-2" points="175.99 173.86 175.99 189.8 160.05 189.8 175.99 173.86"/><rect class="cls-4" x="175.99" y="173.86" width="31.88" height="15.94"/><polygon class="cls-3" points="223.82 189.8 207.88 189.8 207.88 173.86 223.82 189.8"/><rect class="cls-4" x="207.87" y="237.62" width="31.88" height="15.95"/><polygon class="cls-3" points="255.71 253.57 239.76 253.57 239.76 237.62 255.71 253.57"/><rect class="cls-5" x="239.76" y="253.58" width="15.95" height="31.88"/><polygon points="255.71 285.46 239.76 301.4 239.76 285.46 255.71 285.46"/><rect class="cls-5" x="207.87" y="285.46" width="31.88" height="15.94"/><polygon class="cls-3" points="207.88 285.46 207.88 301.4 191.93 285.46 207.88 285.46"/><polygon class="cls-5" points="207.88 221.68 207.88 237.62 191.93 221.68 207.88 221.68"/><polygon class="cls-5" points="191.93 221.68 175.99 237.62 175.99 221.68 191.93 221.68"/><rect class="cls-6" x="175.99" y="189.8" width="31.88" height="31.88"/><polygon class="cls-4" points="191.93 221.68 191.93 253.57 175.99 237.62 191.93 221.68"/><polygon class="cls-4" points="207.88 237.62 207.88 253.57 191.93 253.57 207.88 237.62"/><polygon class="cls-5" points="207.88 237.62 191.93 253.57 191.93 221.68 207.88 237.62"/><polygon class="cls-2" points="558.08 490.47 558.08 447.93 578.46 447.93 558.09 490.46 558.08 490.47"/><polygon class="cls-3" points="537.68 447.93 558.08 447.93 558.08 490.47 558.06 490.46 537.68 447.93"/><rect class="cls-4" x="574.02" y="522.36" width="31.88" height="15.95"/><polygon class="cls-2" points="605.9 538.31 605.9 522.36 621.85 522.36 605.9 538.31"/><rect class="cls-4" x="605.9" y="490.47" width="15.95" height="31.88"/><polygon class="cls-3" points="605.9 490.47 605.9 474.53 621.85 490.47 605.9 490.47"/><rect class="cls-5" x="574.02" y="474.53" width="31.88" height="15.94"/><polygon points="558.08 490.47 574.02 474.53 574.02 490.47 558.08 490.47"/><rect class="cls-6" x="510.25" y="490.47" width="95.65" height="31.88"/><polygon class="cls-4" points="558.08 522.36 574.02 522.36 574.02 538.31 558.08 522.36"/><polygon class="cls-3" points="574.02 554.25 574.02 538.31 589.96 554.25 574.02 554.25"/><polygon points="526.19 554.25 542.13 538.31 542.13 554.25 526.19 554.25"/><rect class="cls-5" x="526.19" y="554.25" width="15.94" height="31.88"/><rect class="cls-4" x="574.02" y="554.25" width="15.94" height="31.88"/><polygon class="cls-2" points="574.02 602.08 574.02 586.13 589.96 586.13 574.02 602.08"/><rect class="cls-4" x="542.13" y="586.13" width="31.88" height="15.94"/><polygon class="cls-3" points="526.19 586.13 542.13 586.13 542.13 602.08 526.19 586.13"/><rect class="cls-4" x="510.25" y="522.36" width="31.88" height="15.95"/><polygon class="cls-3" points="494.3 522.36 510.25 522.36 510.25 538.31 494.3 522.36"/><rect class="cls-5" x="494.3" y="490.47" width="15.95" height="31.88"/><polygon points="494.3 490.47 510.25 474.53 510.25 490.47 494.3 490.47"/><rect class="cls-5" x="510.25" y="474.53" width="31.88" height="15.94"/><polygon class="cls-3" points="542.13 490.47 542.13 474.53 558.08 490.47 542.13 490.47"/><polygon class="cls-5" points="542.13 554.25 542.13 538.31 558.08 554.25 542.13 554.25"/><polygon class="cls-5" points="558.08 554.25 574.02 538.31 574.02 554.25 558.08 554.25"/><rect class="cls-6" x="542.13" y="554.25" width="31.88" height="31.88"/><polygon class="cls-4" points="558.08 554.25 558.08 522.36 574.02 538.31 558.08 554.25"/><polygon class="cls-4" points="542.13 538.31 542.13 522.36 558.08 522.36 542.13 538.31"/><polygon class="cls-5" points="542.13 538.31 558.08 522.36 558.08 554.25 542.13 538.31"/><polygon class="cls-2" points="558.08 764.55 558.08 722 578.46 722 558.09 764.54 558.08 764.55"/><polygon class="cls-3" points="537.69 722 558.08 722 558.08 764.55 558.07 764.54 537.69 722"/><rect class="cls-4" x="574.02" y="796.43" width="31.88" height="15.95"/><polygon class="cls-2" points="605.91 812.38 605.91 796.43 621.86 796.43 605.91 812.38"/><rect class="cls-4" x="605.91" y="764.55" width="15.95" height="31.88"/><polygon class="cls-3" points="605.91 764.55 605.91 748.61 621.86 764.55 605.91 764.55"/><rect class="cls-5" x="574.02" y="748.61" width="31.88" height="15.94"/><polygon points="558.08 764.55 574.02 748.61 574.02 764.55 558.08 764.55"/><rect class="cls-6" x="510.26" y="764.55" width="95.65" height="31.88"/><polygon class="cls-4" points="558.08 796.43 574.02 796.43 574.02 812.38 558.08 796.43"/><polygon class="cls-3" points="574.02 828.33 574.02 812.38 589.97 828.33 574.02 828.33"/><polygon points="526.2 828.33 542.14 812.38 542.14 828.33 526.2 828.33"/><rect class="cls-5" x="526.2" y="828.33" width="15.94" height="31.88"/><rect class="cls-4" x="574.02" y="828.33" width="15.94" height="31.88"/><polygon class="cls-2" points="574.02 876.15 574.02 860.21 589.97 860.21 574.02 876.15"/><rect class="cls-4" x="542.14" y="860.21" width="31.88" height="15.94"/><polygon class="cls-3" points="526.2 860.21 542.14 860.21 542.14 876.15 526.2 860.21"/><rect class="cls-4" x="510.26" y="796.43" width="31.88" height="15.95"/><polygon class="cls-3" points="494.3 796.43 510.26 796.43 510.26 812.38 494.3 796.43"/><rect class="cls-5" x="494.3" y="764.55" width="15.95" height="31.88"/><polygon points="494.3 764.55 510.26 748.61 510.26 764.55 494.3 764.55"/><rect class="cls-5" x="510.26" y="748.61" width="31.88" height="15.94"/><polygon class="cls-3" points="542.14 764.55 542.14 748.61 558.08 764.55 542.14 764.55"/><polygon class="cls-5" points="542.14 828.33 542.14 812.38 558.08 828.33 542.14 828.33"/><polygon class="cls-5" points="558.08 828.33 574.02 812.38 574.02 828.33 558.08 828.33"/><rect class="cls-6" x="542.14" y="828.33" width="31.88" height="31.88"/><polygon class="cls-4" points="558.08 828.33 558.08 796.43 574.02 812.38 558.08 828.33"/><polygon class="cls-4" points="542.14 812.38 542.14 796.43 558.08 796.43 542.14 812.38"/><polygon class="cls-5" points="542.14 812.38 558.08 796.43 558.08 828.33 542.14 812.38"/><polygon class="cls-2" points="191.93 559.53 191.93 602.08 171.55 602.08 191.92 559.54 191.93 559.53"/><polygon class="cls-3" points="212.32 602.08 191.93 602.08 191.93 559.53 191.94 559.54 212.32 602.08"/><rect class="cls-4" x="144.11" y="511.7" width="31.88" height="15.95"/><polygon class="cls-2" points="144.11 511.7 144.11 527.65 128.16 527.65 144.11 511.7"/><rect class="cls-4" x="128.15" y="527.65" width="15.95" height="31.88"/><polygon class="cls-3" points="144.11 559.53 144.11 575.47 128.16 559.53 144.11 559.53"/><rect class="cls-5" x="144.11" y="559.53" width="31.88" height="15.94"/><polygon points="191.93 559.53 175.99 575.47 175.99 559.53 191.93 559.53"/><rect class="cls-6" x="144.11" y="527.65" width="95.65" height="31.88"/><polygon class="cls-4" points="191.93 527.65 175.99 527.65 175.99 511.7 191.93 527.65"/><polygon class="cls-3" points="175.99 495.75 175.99 511.7 160.05 495.75 175.99 495.75"/><polygon points="223.82 495.75 207.87 511.7 207.87 495.75 223.82 495.75"/><rect class="cls-5" x="207.87" y="463.87" width="15.94" height="31.88"/><rect class="cls-4" x="160.05" y="463.87" width="15.94" height="31.88"/><polygon class="cls-2" points="175.99 447.93 175.99 463.87 160.05 463.87 175.99 447.93"/><rect class="cls-4" x="175.99" y="447.93" width="31.88" height="15.94"/><polygon class="cls-3" points="223.82 463.87 207.87 463.87 207.87 447.93 223.82 463.87"/><rect class="cls-4" x="207.87" y="511.7" width="31.88" height="15.95"/><polygon class="cls-3" points="255.71 527.65 239.76 527.65 239.76 511.7 255.71 527.65"/><rect class="cls-5" x="239.76" y="527.65" width="15.95" height="31.88"/><polygon points="255.71 559.53 239.76 575.47 239.76 559.53 255.71 559.53"/><rect class="cls-5" x="207.87" y="559.53" width="31.88" height="15.94"/><polygon class="cls-3" points="207.87 559.53 207.87 575.47 191.93 559.53 207.87 559.53"/><polygon class="cls-5" points="207.87 495.75 207.87 511.7 191.93 495.75 207.87 495.75"/><polygon class="cls-5" points="191.93 495.75 175.99 511.7 175.99 495.75 191.93 495.75"/><rect class="cls-6" x="175.99" y="463.87" width="31.88" height="31.88"/><polygon class="cls-4" points="191.93 495.75 191.93 527.65 175.99 511.7 191.93 495.75"/><polygon class="cls-4" points="207.87 511.7 207.87 527.65 191.93 527.65 207.87 511.7"/><polygon class="cls-5" points="207.87 511.7 191.93 527.65 191.93 495.75 207.87 511.7"/><polygon class="cls-2" points="558.08 285.46 558.08 328 537.7 328 558.07 285.47 558.08 285.46"/><polygon class="cls-3" points="578.47 328 558.08 328 558.08 285.46 558.09 285.47 578.47 328"/><rect class="cls-4" x="510.25" y="237.62" width="31.88" height="15.95"/><polygon class="cls-2" points="510.25 237.62 510.25 253.57 494.3 253.57 510.25 237.62"/><rect class="cls-4" x="494.3" y="253.58" width="15.95" height="31.88"/><polygon class="cls-3" points="510.25 285.46 510.25 301.4 494.3 285.46 510.25 285.46"/><rect class="cls-5" x="510.25" y="285.46" width="31.88" height="15.94"/><polygon points="558.08 285.46 542.13 301.4 542.13 285.46 558.08 285.46"/><rect class="cls-6" x="510.25" y="253.58" width="95.65" height="31.88"/><polygon class="cls-4" points="558.08 253.57 542.13 253.57 542.13 237.62 558.08 253.57"/><polygon class="cls-3" points="542.13 221.68 542.13 237.62 526.19 221.68 542.13 221.68"/><polygon points="589.96 221.68 574.02 237.62 574.02 221.68 589.96 221.68"/><rect class="cls-5" x="574.02" y="189.8" width="15.94" height="31.88"/><rect class="cls-4" x="526.19" y="189.8" width="15.94" height="31.88"/><polygon class="cls-2" points="542.13 173.86 542.13 189.8 526.19 189.8 542.13 173.86"/><rect class="cls-4" x="542.13" y="173.86" width="31.88" height="15.94"/><polygon class="cls-3" points="589.96 189.8 574.02 189.8 574.02 173.86 589.96 189.8"/><rect class="cls-4" x="574.02" y="237.62" width="31.88" height="15.95"/><polygon class="cls-3" points="621.85 253.57 605.9 253.57 605.9 237.62 621.85 253.57"/><rect class="cls-5" x="605.9" y="253.58" width="15.95" height="31.88"/><polygon points="621.85 285.46 605.9 301.4 605.9 285.46 621.85 285.46"/><rect class="cls-5" x="574.02" y="285.46" width="31.88" height="15.94"/><polygon class="cls-3" points="574.02 285.46 574.02 301.4 558.08 285.46 574.02 285.46"/><polygon class="cls-5" points="574.02 221.68 574.02 237.62 558.08 221.68 574.02 221.68"/><polygon class="cls-5" points="558.08 221.68 542.13 237.62 542.13 221.68 558.08 221.68"/><rect class="cls-6" x="542.13" y="189.8" width="31.88" height="31.88"/><polygon class="cls-4" points="558.08 221.68 558.08 253.57 542.13 237.62 558.08 221.68"/><polygon class="cls-4" points="574.02 237.62 574.02 253.57 558.08 253.57 574.02 237.62"/><polygon class="cls-5" points="574.02 237.62 558.08 253.57 558.08 221.68 574.02 237.62"/><polygon class="cls-2" points="70.31 187.1 70.31 214.67 57.1 214.67 70.3 187.11 70.31 187.1"/><polygon class="cls-3" points="83.52 214.67 70.31 214.67 70.31 187.1 70.32 187.11 83.52 214.67"/><rect class="cls-4" x="39.32" y="156.11" width="20.66" height="10.34"/><polygon class="cls-2" points="39.32 156.11 39.32 166.45 28.99 166.45 39.32 156.11"/><rect class="cls-4" x="28.99" y="166.45" width="10.34" height="20.66"/><polygon class="cls-3" points="39.32 187.1 39.32 197.43 28.99 187.1 39.32 187.1"/><rect class="cls-5" x="39.32" y="187.1" width="20.66" height="10.33"/><polygon points="70.31 187.1 59.98 197.43 59.98 187.1 70.31 187.1"/><rect class="cls-6" x="39.32" y="166.45" width="61.97" height="20.66"/><polygon class="cls-4" points="70.31 166.45 59.98 166.45 59.98 156.11 70.31 166.45"/><polygon class="cls-3" points="59.98 145.78 59.98 156.11 49.65 145.78 59.98 145.78"/><polygon points="90.97 145.78 80.64 156.11 80.64 145.78 90.97 145.78"/><rect class="cls-5" x="80.64" y="125.12" width="10.33" height="20.66"/><rect class="cls-4" x="49.65" y="125.12" width="10.33" height="20.66"/><polygon class="cls-2" points="59.98 114.79 59.98 125.12 49.65 125.12 59.98 114.79"/><rect class="cls-4" x="59.98" y="114.79" width="20.66" height="10.33"/><polygon class="cls-3" points="90.97 125.12 80.64 125.12 80.64 114.79 90.97 125.12"/><rect class="cls-4" x="80.64" y="156.11" width="20.66" height="10.34"/><polygon class="cls-3" points="111.63 166.45 101.3 166.45 101.3 156.11 111.63 166.45"/><rect class="cls-5" x="101.3" y="166.45" width="10.34" height="20.66"/><polygon points="111.63 187.1 101.3 197.43 101.3 187.1 111.63 187.1"/><rect class="cls-5" x="80.64" y="187.1" width="20.66" height="10.33"/><polygon class="cls-3" points="80.64 187.1 80.64 197.43 70.31 187.1 80.64 187.1"/><polygon class="cls-5" points="80.64 145.78 80.64 156.11 70.31 145.78 80.64 145.78"/><polygon class="cls-5" points="70.31 145.78 59.98 156.11 59.98 145.78 70.31 145.78"/><rect class="cls-6" x="59.98" y="125.12" width="20.66" height="20.66"/><polygon class="cls-4" points="70.31 145.78 70.31 166.45 59.98 156.11 70.31 145.78"/><polygon class="cls-4" points="80.64 156.11 80.64 166.45 70.31 166.45 80.64 156.11"/><polygon class="cls-5" points="80.64 156.11 70.31 166.45 70.31 145.78 80.64 156.11"/><polygon class="cls-2" points="679.69 862.9 679.69 835.33 692.89 835.33 679.7 862.89 679.69 862.9"/><polygon class="cls-3" points="666.48 835.33 679.69 835.33 679.69 862.9 679.68 862.89 666.48 835.33"/><rect class="cls-4" x="690.02" y="883.56" width="20.66" height="10.34"/><polygon class="cls-2" points="710.68 893.89 710.68 883.55 721.01 883.55 710.68 893.89"/><rect class="cls-4" x="710.68" y="862.9" width="10.34" height="20.66"/><polygon class="cls-3" points="710.68 862.9 710.68 852.57 721.01 862.9 710.68 862.9"/><rect class="cls-5" x="690.02" y="852.57" width="20.66" height="10.33"/><polygon points="679.69 862.9 690.02 852.57 690.02 862.9 679.69 862.9"/><rect class="cls-6" x="648.7" y="862.9" width="61.97" height="20.66"/><polygon class="cls-4" points="679.69 883.55 690.02 883.55 690.02 893.89 679.69 883.55"/><polygon class="cls-3" points="690.02 904.22 690.02 893.89 700.35 904.22 690.02 904.22"/><polygon points="659.03 904.22 669.36 893.89 669.36 904.22 659.03 904.22"/><rect class="cls-5" x="659.03" y="904.22" width="10.33" height="20.66"/><rect class="cls-4" x="690.02" y="904.22" width="10.33" height="20.66"/><polygon class="cls-2" points="690.02 935.21 690.02 924.88 700.35 924.88 690.02 935.21"/><rect class="cls-4" x="669.36" y="924.88" width="20.66" height="10.33"/><polygon class="cls-3" points="659.03 924.88 669.36 924.88 669.36 935.21 659.03 924.88"/><rect class="cls-4" x="648.7" y="883.56" width="20.66" height="10.34"/><polygon class="cls-3" points="638.37 883.55 648.71 883.55 648.71 893.89 638.37 883.55"/><rect class="cls-5" x="638.37" y="862.9" width="10.34" height="20.66"/><polygon points="638.37 862.9 648.71 852.57 648.71 862.9 638.37 862.9"/><rect class="cls-5" x="648.7" y="852.57" width="20.66" height="10.33"/><polygon class="cls-3" points="669.36 862.9 669.36 852.57 679.69 862.9 669.36 862.9"/><polygon class="cls-5" points="669.36 904.22 669.36 893.89 679.69 904.22 669.36 904.22"/><polygon class="cls-5" points="679.69 904.22 690.02 893.89 690.02 904.22 679.69 904.22"/><rect class="cls-6" x="669.36" y="904.22" width="20.66" height="20.66"/><polygon class="cls-4" points="679.69 904.22 679.69 883.55 690.02 893.89 679.69 904.22"/><polygon class="cls-4" points="669.36 893.89 669.36 883.55 679.69 883.55 669.36 893.89"/><polygon class="cls-5" points="669.36 893.89 679.69 883.55 679.69 904.22 669.36 893.89"/><polygon class="cls-2" points="191.94 764.55 191.94 722 212.32 722 191.95 764.54 191.94 764.55"/><polygon class="cls-3" points="171.55 722 191.94 722 191.94 764.55 191.93 764.54 171.55 722"/><rect class="cls-4" x="207.88" y="796.43" width="31.88" height="15.95"/><polygon class="cls-2" points="239.76 812.38 239.76 796.43 255.72 796.43 239.76 812.38"/><rect class="cls-4" x="239.76" y="764.55" width="15.95" height="31.88"/><polygon class="cls-3" points="239.76 764.55 239.76 748.61 255.72 764.55 239.76 764.55"/><rect class="cls-5" x="207.88" y="748.61" width="31.88" height="15.94"/><polygon points="191.94 764.55 207.88 748.61 207.88 764.55 191.94 764.55"/><rect class="cls-6" x="144.12" y="764.55" width="95.65" height="31.88"/><polygon class="cls-4" points="191.94 796.43 207.88 796.43 207.88 812.38 191.94 796.43"/><polygon class="cls-3" points="207.88 828.33 207.88 812.38 223.82 828.33 207.88 828.33"/><polygon points="160.06 828.33 176 812.38 176 828.33 160.06 828.33"/><rect class="cls-5" x="160.06" y="828.33" width="15.94" height="31.88"/><rect class="cls-4" x="207.88" y="828.33" width="15.94" height="31.88"/><polygon class="cls-2" points="207.88 876.15 207.88 860.21 223.82 860.21 207.88 876.15"/><rect class="cls-4" x="176" y="860.21" width="31.88" height="15.94"/><polygon class="cls-3" points="160.06 860.21 176 860.21 176 876.15 160.06 860.21"/><rect class="cls-4" x="144.12" y="796.43" width="31.88" height="15.95"/><polygon class="cls-3" points="128.16 796.43 144.12 796.43 144.12 812.38 128.16 796.43"/><rect class="cls-5" x="128.16" y="764.55" width="15.95" height="31.88"/><polygon points="128.16 764.55 144.12 748.61 144.12 764.55 128.16 764.55"/><rect class="cls-5" x="144.12" y="748.61" width="31.88" height="15.94"/><polygon class="cls-3" points="176 764.55 176 748.61 191.94 764.55 176 764.55"/><polygon class="cls-5" points="176 828.33 176 812.38 191.94 828.33 176 828.33"/><polygon class="cls-5" points="191.94 828.33 207.88 812.38 207.88 828.33 191.94 828.33"/><rect class="cls-6" x="176" y="828.33" width="31.88" height="31.88"/><polygon class="cls-4" points="191.94 828.33 191.94 796.43 207.88 812.38 191.94 828.33"/><polygon class="cls-4" points="176 812.38 176 796.43 191.94 796.43 176 812.38"/><polygon class="cls-5" points="176 812.38 191.94 796.43 191.94 828.33 176 812.38"/><polygon class="cls-2" points="375 422.49 375 465.04 354.62 465.04 374.99 422.5 375 422.49"/><polygon class="cls-3" points="395.39 465.04 375 465.04 375 422.49 375.01 422.5 395.39 465.04"/><rect class="cls-4" x="327.17" y="374.66" width="31.88" height="15.95"/><polygon class="cls-2" points="327.17 374.66 327.17 390.61 311.22 390.61 327.17 374.66"/><rect class="cls-4" x="311.22" y="390.61" width="15.95" height="31.88"/><polygon class="cls-3" points="327.17 422.5 327.17 438.44 311.22 422.5 327.17 422.5"/><rect class="cls-5" x="327.17" y="422.5" width="31.88" height="15.94"/><polygon points="375 422.5 359.06 438.44 359.06 422.5 375 422.5"/><rect class="cls-6" x="327.17" y="390.61" width="95.65" height="31.88"/><polygon class="cls-4" points="375 390.61 359.06 390.61 359.06 374.66 375 390.61"/><polygon class="cls-3" points="359.06 358.72 359.06 374.66 343.11 358.72 359.06 358.72"/><polygon points="406.88 358.72 390.94 374.66 390.94 358.72 406.88 358.72"/><rect class="cls-5" x="390.94" y="326.83" width="15.94" height="31.88"/><rect class="cls-4" x="343.11" y="326.83" width="15.94" height="31.88"/><polygon class="cls-2" points="359.06 310.89 359.06 326.83 343.11 326.83 359.06 310.89"/><rect class="cls-4" x="359.05" y="310.89" width="31.88" height="15.94"/><polygon class="cls-3" points="406.88 326.83 390.94 326.83 390.94 310.89 406.88 326.83"/><rect class="cls-4" x="390.94" y="374.66" width="31.88" height="15.95"/><polygon class="cls-3" points="438.77 390.61 422.82 390.61 422.82 374.66 438.77 390.61"/><rect class="cls-5" x="422.82" y="390.61" width="15.95" height="31.88"/><polygon points="438.77 422.5 422.82 438.44 422.82 422.5 438.77 422.5"/><rect class="cls-5" x="390.94" y="422.5" width="31.88" height="15.94"/><polygon class="cls-3" points="390.94 422.5 390.94 438.44 375 422.5 390.94 422.5"/><polygon class="cls-5" points="390.94 358.72 390.94 374.66 375 358.72 390.94 358.72"/><polygon class="cls-5" points="375 358.72 359.06 374.66 359.06 358.72 375 358.72"/><rect class="cls-6" x="359.05" y="326.83" width="31.88" height="31.88"/><polygon class="cls-4" points="375 358.72 375 390.61 359.06 374.66 375 358.72"/><polygon class="cls-4" points="390.94 374.66 390.94 390.61 375 390.61 390.94 374.66"/><polygon class="cls-5" points="390.94 374.66 375 390.61 375 358.72 390.94 374.66"/></g></svg>