<svg xmlns="http://www.w3.org/2000/svg" viewBox="0 0 750 1050"><defs><style>.cls-1{fill:#f1f2f2;}.cls-2{fill:#595959;}.cls-3{fill:#2d2d2d;}.cls-4{fill:#434343;}.cls-5{fill:#161616;}.cls-6{fill:#1c1c1c;}</style></defs><g id="Layer_6" data-name="Layer 6"><rect class="cls-1" width="750" height="1050" rx="63.89"/></g><g id="Layer_4" data-name="Layer 4"><path d="M48.74,100.23l17.95-61a4.35,4.35,0,0,1,4.5-3.32q3.33,0,4.19,2.81l17.77,61.92a4.53,4.53,0,0,1,.21,1.32,4.35,4.35,0,0,1-1.27,3.16,4,4,0,0,1-2.92,1.3,4.19,4.19,0,0,1-4.45-3.24L81.19,91.11H60.79l-3.89,13a2.63,2.63,0,0,1-1.33,1.6,4.53,4.53,0,0,1-2.56.77,4.3,4.3,0,0,1-3.25-1.33,4.44,4.44,0,0,1-1.28-3.23A5.78,5.78,0,0,1,48.74,100.23ZM71.13,56.57,63.49,82.09H78.57Z"/><path d="M701.26,949.77l-17.94,61a4.37,4.37,0,0,1-4.51,3.32q-3.33,0-4.18-2.81l-17.77-61.92a4.24,4.24,0,0,1-.22-1.32,4.35,4.35,0,0,1,1.28-3.16,3.94,3.94,0,0,1,2.91-1.3,4.2,4.2,0,0,1,4.46,3.24l3.52,12.09h20.41l3.88-13a2.71,2.71,0,0,1,1.33-1.61,4.62,4.62,0,0,1,2.56-.76,4.33,4.33,0,0,1,3.26,1.33,4.48,4.48,0,0,1,1.28,3.23A5.47,5.47,0,0,1,701.26,949.77Zm-22.39,43.66,7.65-25.52H671.44Z"/><polygon class="cls-2" points="70.31 187.1 70.31 214.67 57.1 214.67 70.3 187.11 70.31 187.1"/><polygon class="cls-3" points="83.52 214.67 70.31 214.67 70.31 187.1 70.32 187.11 83.52 214.67"/><rect class="cls-4" x="39.32" y="156.11" width="20.66" height="10.34"/><polygon class="cls-2" points="39.32 156.11 39.32 166.44 28.99 166.44 39.32 156.11"/><rect class="cls-4" x="28.99" y="166.45" width="10.34" height="20.66"/><polygon class="cls-3" points="39.32 187.1 39.32 197.43 28.99 187.1 39.32 187.1"/><rect class="cls-5" x="39.32" y="187.1" width="20.66" height="10.33"/><polygon points="70.31 187.1 59.98 197.43 59.98 187.1 70.31 187.1"/><rect class="cls-6" x="39.32" y="166.45" width="61.97" height="20.66"/><polygon class="cls-4" points="70.31 166.44 59.98 166.44 59.98 156.11 70.31 166.44"/><polygon class="cls-3" points="59.98 145.78 59.98 156.11 49.65 145.78 59.98 145.78"/><polygon points="90.97 145.78 80.64 156.11 80.64 145.78 90.97 145.78"/><rect class="cls-5" x="80.64" y="125.12" width="10.33" height="20.66"/><rect class="cls-4" x="49.65" y="125.12" width="10.33" height="20.66"/><polygon class="cls-2" points="59.98 114.79 59.98 125.12 49.65 125.12 59.98 114.79"/><rect class="cls-4" x="59.98" y="114.79" width="20.66" height="10.33"/><polygon class="cls-3" points="90.97 125.12 80.64 125.12 80.64 114.79 90.97 125.12"/><rect class="cls-4" x="80.64" y="156.11" width="20.66" height="10.34"/><polygon class="cls-3" points="111.63 166.44 101.3 166.44 101.3 156.11 111.63 166.44"/><rect class="cls-5" x="101.3" y="166.45" width="10.34" height="20.66"/><polygon points="111.63 187.1 101.3 197.43 101.3 187.1 111.63 187.1"/><rect class="cls-5" x="80.64" y="187.1" width="20.66" height="10.33"/><polygon class="cls-3" points="80.64 187.1 80.64 197.43 70.31 187.1 80.64 187.1"/><polygon class="cls-5" points="80.64 145.78 80.64 156.11 70.31 145.78 80.64 145.78"/><polygon class="cls-5" points="70.31 145.78 59.98 156.11 59.98 145.78 70.31 145.78"/><rect class="cls-6" x="59.98" y="125.12" width="20.66" height="20.66"/><polygon class="cls-4" points="70.31 145.78 70.31 166.44 59.98 156.11 70.31 145.78"/><polygon class="cls-4" points="80.64 156.11 80.64 166.44 70.31 166.44 80.64 156.11"/><polygon class="cls-5" points="80.64 156.11 70.31 166.44 70.31 145.78 80.64 156.11"/><polygon class="cls-2" points="679.69 862.9 679.69 835.33 692.89 835.33 679.7 862.89 679.69 862.9"/><polygon class="cls-3" points="666.48 835.33 679.69 835.33 679.69 862.9 679.68 862.89 666.48 835.33"/><rect class="cls-4" x="690.02" y="883.56" width="20.66" height="10.34"/><polygon class="cls-2" points="710.68 893.89 710.68 883.55 721.01 883.55 710.68 893.89"/><rect class="cls-4" x="710.68" y="862.9" width="10.34" height="20.66"/><polygon class="cls-3" points="710.68 862.9 710.68 852.57 721.01 862.9 710.68 862.9"/><rect class="cls-5" x="690.02" y="852.57" width="20.66" height="10.33"/><polygon points="679.69 862.9 690.02 852.57 690.02 862.9 679.69 862.9"/><rect class="cls-6" x="648.7" y="862.9" width="61.97" height="20.66"/><polygon class="cls-4" points="679.69 883.55 690.02 883.55 690.02 893.89 679.69 883.55"/><polygon class="cls-3" points="690.02 904.22 690.02 893.89 700.35 904.22 690.02 904.22"/><polygon points="659.03 904.22 669.36 893.89 669.36 904.22 659.03 904.22"/><rect class="cls-5" x="659.03" y="904.22" width="10.33" height="20.66"/><rect class="cls-4" x="690.02" y="904.22" width="10.33" height="20.66"/><polygon class="cls-2" points="690.02 935.21 690.02 924.88 700.35 924.88 690.02 935.21"/><rect class="cls-4" x="669.36" y="924.88" width="20.66" height="10.33"/><polygon class="cls-3" points="659.03 924.88 669.36 924.88 669.36 935.21 659.03 924.88"/><rect class="cls-4" x="648.7" y="883.56" width="20.66" height="10.34"/><polygon class="cls-3" points="638.37 883.55 648.71 883.55 648.71 893.89 638.37 883.55"/><rect class="cls-5" x="638.37" y="862.9" width="10.34" height="20.66"/><polygon points="638.37 862.9 648.71 852.57 648.71 862.9 638.37 862.9"/><rect class="cls-5" x="648.7" y="852.57" width="20.66" height="10.33"/><polygon class="cls-3" points="669.36 862.9 669.36 852.57 679.69 862.9 669.36 862.9"/><polygon class="cls-5" points="669.36 904.22 669.36 893.89 679.69 904.22 669.36 904.22"/><polygon class="cls-5" points="679.69 904.22 690.02 893.89 690.02 904.22 679.69 904.22"/><rect class="cls-6" x="669.36" y="904.22" width="20.66" height="20.66"/><polygon class="cls-4" points="679.69 904.22 679.69 883.55 690.02 893.89 679.69 904.22"/><polygon class="cls-4" points="669.36 893.89 669.36 883.55 679.69 883.55 669.36 893.89"/><polygon class="cls-5" points="669.36 893.89 679.69 883.55 679.69 904.22 669.36 893.89"/><polygon class="cls-2" points="375 559.53 375 602.07 354.62 602.07 374.99 559.54 375 559.53"/><polygon class="cls-3" points="395.39 602.07 375 602.07 375 559.53 375.01 559.54 395.39 602.07"/><rect class="cls-4" x="327.17" y="511.69" width="31.88" height="15.95"/><polygon class="cls-2" points="327.17 511.69 327.17 527.65 311.22 527.65 327.17 511.69"/><rect class="cls-4" x="311.22" y="527.65" width="15.95" height="31.88"/><polygon class="cls-3" points="327.17 559.53 327.17 575.47 311.22 559.53 327.17 559.53"/><rect class="cls-5" x="327.17" y="559.53" width="31.88" height="15.94"/><polygon points="375 559.53 359.06 575.47 359.06 559.53 375 559.53"/><rect class="cls-6" x="327.17" y="527.65" width="95.65" height="31.88"/><polygon class="cls-4" points="375 527.65 359.06 527.65 359.06 511.69 375 527.65"/><polygon class="cls-3" points="359.06 495.75 359.06 511.69 343.11 495.75 359.06 495.75"/><polygon points="406.88 495.75 390.94 511.69 390.94 495.75 406.88 495.75"/><rect class="cls-5" x="390.94" y="463.87" width="15.94" height="31.88"/><rect class="cls-4" x="343.11" y="463.87" width="15.94" height="31.88"/><polygon class="cls-2" points="359.06 447.93 359.06 463.87 343.11 463.87 359.06 447.93"/><rect class="cls-4" x="359.05" y="447.93" width="31.88" height="15.94"/><polygon class="cls-3" points="406.88 463.87 390.94 463.87 390.94 447.93 406.88 463.87"/><rect class="cls-4" x="390.94" y="511.69" width="31.88" height="15.95"/><polygon class="cls-3" points="438.77 527.65 422.82 527.65 422.82 511.69 438.77 527.65"/><rect class="cls-5" x="422.82" y="527.65" width="15.95" height="31.88"/><polygon points="438.77 559.53 422.82 575.47 422.82 559.53 438.77 559.53"/><rect class="cls-5" x="390.94" y="559.53" width="31.88" height="15.94"/><polygon class="cls-3" points="390.94 559.53 390.94 575.47 375 559.53 390.94 559.53"/><polygon class="cls-5" points="390.94 495.75 390.94 511.69 375 495.75 390.94 495.75"/><polygon class="cls-5" points="375 495.75 359.06 511.69 359.06 495.75 375 495.75"/><rect class="cls-6" x="359.05" y="463.87" width="31.88" height="31.88"/><polygon class="cls-4" points="375 495.75 375 527.65 359.06 511.69 375 495.75"/><polygon class="cls-4" points="390.94 511.69 390.94 527.65 375 527.65 390.94 511.69"/><polygon class="cls-5" points="390.94 511.69 375 527.65 375 495.75 390.94 511.69"/></g></svg>