<svg xmlns="http://www.w3.org/2000/svg" viewBox="0 0 750 1050"><defs><style>.cls-1{fill:#f1f2f2;}.cls-2{fill:#595959;}.cls-3{fill:#2d2d2d;}.cls-4{fill:#434343;}.cls-5{fill:#161616;}.cls-6{fill:#1c1c1c;}</style></defs><g id="Layer_6" data-name="Layer 6"><rect class="cls-1" width="750" height="1050" rx="63.89"/></g><g id="Layer_4" data-name="Layer 4"><path d="M88.9,106.33H48.37V75.56A8.73,8.73,0,0,1,51,69.2a8.53,8.53,0,0,1,6.29-2.66H84.34V44.85H52.51a4.3,4.3,0,0,1-3.18-1.3,4.54,4.54,0,0,1,0-6.32,4.3,4.3,0,0,1,3.18-1.3H84.34a8.74,8.74,0,0,1,6.37,2.63,8.53,8.53,0,0,1,2.65,6.29V66.54a9,9,0,0,1-9,9H57.29V97.42H88.9A4.37,4.37,0,0,1,92,98.72,4.44,4.44,0,0,1,92,105,4.36,4.36,0,0,1,88.9,106.33Z"/><path d="M661.1,943.67h40.53v30.77A8.72,8.72,0,0,1,699,980.8a8.54,8.54,0,0,1-6.29,2.66H665.66v21.69H697.5a4.41,4.41,0,0,1,4.45,4.46,4.35,4.35,0,0,1-1.27,3.16,4.3,4.3,0,0,1-3.18,1.3H665.66a8.73,8.73,0,0,1-6.36-2.63,8.53,8.53,0,0,1-2.66-6.29V983.46a9,9,0,0,1,9-9h27.06V952.58H661.1a4.36,4.36,0,0,1-3.13-1.3,4.42,4.42,0,0,1,0-6.32A4.35,4.35,0,0,1,661.1,943.67Z"/><polygon class="cls-2" points="375.01 285.46 375.01 328 354.63 328 375 285.47 375.01 285.46"/><polygon class="cls-3" points="395.4 328 375.01 328 375.01 285.46 375.02 285.47 395.4 328"/><rect class="cls-4" x="327.18" y="237.62" width="31.88" height="15.95"/><polygon class="cls-2" points="327.18 237.62 327.18 253.57 311.23 253.57 327.18 237.62"/><rect class="cls-4" x="311.23" y="253.58" width="15.95" height="31.88"/><polygon class="cls-3" points="327.18 285.46 327.18 301.4 311.23 285.46 327.18 285.46"/><rect class="cls-5" x="327.18" y="285.46" width="31.88" height="15.94"/><polygon points="375.01 285.46 359.07 301.4 359.07 285.46 375.01 285.46"/><rect class="cls-6" x="327.18" y="253.58" width="95.65" height="31.88"/><polygon class="cls-4" points="375.01 253.57 359.07 253.57 359.07 237.62 375.01 253.57"/><polygon class="cls-3" points="359.07 221.68 359.07 237.62 343.13 221.68 359.07 221.68"/><polygon points="406.89 221.68 390.95 237.62 390.95 221.68 406.89 221.68"/><rect class="cls-5" x="390.95" y="189.8" width="15.94" height="31.88"/><rect class="cls-4" x="343.12" y="189.8" width="15.94" height="31.88"/><polygon class="cls-2" points="359.07 173.86 359.07 189.8 343.13 189.8 359.07 173.86"/><rect class="cls-4" x="359.07" y="173.86" width="31.88" height="15.94"/><polygon class="cls-3" points="406.89 189.8 390.95 189.8 390.95 173.86 406.89 189.8"/><rect class="cls-4" x="390.95" y="237.62" width="31.88" height="15.95"/><polygon class="cls-3" points="438.79 253.57 422.83 253.57 422.83 237.62 438.79 253.57"/><rect class="cls-5" x="422.83" y="253.58" width="15.95" height="31.88"/><polygon points="438.79 285.46 422.83 301.4 422.83 285.46 438.79 285.46"/><rect class="cls-5" x="390.95" y="285.46" width="31.88" height="15.94"/><polygon class="cls-3" points="390.95 285.46 390.95 301.4 375.01 285.46 390.95 285.46"/><polygon class="cls-5" points="390.95 221.68 390.95 237.62 375.01 221.68 390.95 221.68"/><polygon class="cls-5" points="375.01 221.68 359.07 237.62 359.07 221.68 375.01 221.68"/><rect class="cls-6" x="359.07" y="189.8" width="31.88" height="31.88"/><polygon class="cls-4" points="375.01 221.68 375.01 253.57 359.07 237.62 375.01 221.68"/><polygon class="cls-4" points="390.95 237.62 390.95 253.57 375.01 253.57 390.95 237.62"/><polygon class="cls-5" points="390.95 237.62 375.01 253.57 375.01 221.68 390.95 237.62"/><polygon class="cls-2" points="70.31 187.1 70.31 214.67 57.1 214.67 70.3 187.11 70.31 187.1"/><polygon class="cls-3" points="83.52 214.67 70.31 214.67 70.31 187.1 70.32 187.11 83.52 214.67"/><rect class="cls-4" x="39.32" y="156.11" width="20.66" height="10.34"/><polygon class="cls-2" points="39.32 156.11 39.32 166.45 28.99 166.45 39.32 156.11"/><rect class="cls-4" x="28.99" y="166.45" width="10.34" height="20.66"/><polygon class="cls-3" points="39.32 187.1 39.32 197.43 28.99 187.1 39.32 187.1"/><rect class="cls-5" x="39.32" y="187.1" width="20.66" height="10.33"/><polygon points="70.31 187.1 59.98 197.43 59.98 187.1 70.31 187.1"/><rect class="cls-6" x="39.32" y="166.45" width="61.97" height="20.66"/><polygon class="cls-4" points="70.31 166.45 59.98 166.45 59.98 156.11 70.31 166.45"/><polygon class="cls-3" points="59.98 145.78 59.98 156.11 49.65 145.78 59.98 145.78"/><polygon points="90.97 145.78 80.64 156.11 80.64 145.78 90.97 145.78"/><rect class="cls-5" x="80.64" y="125.12" width="10.33" height="20.66"/><rect class="cls-4" x="49.65" y="125.12" width="10.33" height="20.66"/><polygon class="cls-2" points="59.98 114.79 59.98 125.12 49.65 125.12 59.98 114.79"/><rect class="cls-4" x="59.98" y="114.79" width="20.66" height="10.33"/><polygon class="cls-3" points="90.97 125.12 80.64 125.12 80.64 114.79 90.97 125.12"/><rect class="cls-4" x="80.64" y="156.11" width="20.66" height="10.34"/><polygon class="cls-3" points="111.63 166.45 101.3 166.45 101.3 156.11 111.63 166.45"/><rect class="cls-5" x="101.3" y="166.45" width="10.34" height="20.66"/><polygon points="111.63 187.1 101.3 197.43 101.3 187.1 111.63 187.1"/><rect class="cls-5" x="80.64" y="187.1" width="20.66" height="10.33"/><polygon class="cls-3" points="80.64 187.1 80.64 197.43 70.31 187.1 80.64 187.1"/><polygon class="cls-5" points="80.64 145.78 80.64 156.11 70.31 145.78 80.64 145.78"/><polygon class="cls-5" points="70.31 145.78 59.98 156.11 59.98 145.78 70.31 145.78"/><rect class="cls-6" x="59.98" y="125.12" width="20.66" height="20.66"/><polygon class="cls-4" points="70.31 145.78 70.31 166.45 59.98 156.11 70.31 145.78"/><polygon class="cls-4" points="80.64 156.11 80.64 166.45 70.31 166.45 80.64 156.11"/><polygon class="cls-5" points="80.64 156.11 70.31 166.45 70.31 145.78 80.64 156.11"/><polygon class="cls-2" points="679.69 862.9 679.69 835.33 692.89 835.33 679.7 862.89 679.69 862.9"/><polygon class="cls-3" points="666.48 835.33 679.69 835.33 679.69 862.9 679.68 862.89 666.48 835.33"/><rect class="cls-4" x="690.02" y="883.56" width="20.66" height="10.34"/><polygon class="cls-2" points="710.68 893.89 710.68 883.55 721.01 883.55 710.68 893.89"/><rect class="cls-4" x="710.68" y="862.9" width="10.34" height="20.66"/><polygon class="cls-3" points="710.68 862.9 710.68 852.57 721.01 862.9 710.68 862.9"/><rect class="cls-5" x="690.02" y="852.57" width="20.66" height="10.33"/><polygon points="679.69 862.9 690.02 852.57 690.02 862.9 679.69 862.9"/><rect class="cls-6" x="648.7" y="862.9" width="61.97" height="20.66"/><polygon class="cls-4" points="679.69 883.55 690.02 883.55 690.02 893.89 679.69 883.55"/><polygon class="cls-3" points="690.02 904.22 690.02 893.89 700.35 904.22 690.02 904.22"/><polygon points="659.03 904.22 669.36 893.89 669.36 904.22 659.03 904.22"/><rect class="cls-5" x="659.03" y="904.22" width="10.33" height="20.66"/><rect class="cls-4" x="690.02" y="904.22" width="10.33" height="20.66"/><polygon class="cls-2" points="690.02 935.21 690.02 924.88 700.35 924.88 690.02 935.21"/><rect class="cls-4" x="669.36" y="924.88" width="20.66" height="10.33"/><polygon class="cls-3" points="659.03 924.88 669.36 924.88 669.36 935.21 659.03 924.88"/><rect class="cls-4" x="648.7" y="883.56" width="20.66" height="10.34"/><polygon class="cls-3" points="638.37 883.55 648.71 883.55 648.71 893.89 638.37 883.55"/><rect class="cls-5" x="638.37" y="862.9" width="10.34" height="20.66"/><polygon points="638.37 862.9 648.71 852.57 648.71 862.9 638.37 862.9"/><rect class="cls-5" x="648.7" y="852.57" width="20.66" height="10.33"/><polygon class="cls-3" points="669.36 862.9 669.36 852.57 679.69 862.9 669.36 862.9"/><polygon class="cls-5" points="669.36 904.22 669.36 893.89 679.69 904.22 669.36 904.22"/><polygon class="cls-5" points="679.69 904.22 690.02 893.89 690.02 904.22 679.69 904.22"/><rect class="cls-6" x="669.36" y="904.22" width="20.66" height="20.66"/><polygon class="cls-4" points="679.69 904.22 679.69 883.55 690.02 893.89 679.69 904.22"/><polygon class="cls-4" points="669.36 893.89 669.36 883.55 679.69 883.55 669.36 893.89"/><polygon class="cls-5" points="669.36 893.89 679.69 883.55 679.69 904.22 669.36 893.89"/><polygon class="cls-2" points="375.01 764.55 375.01 722 395.39 722 375.02 764.54 375.01 764.55"/><polygon class="cls-3" points="354.62 722 375.01 722 375.01 764.55 375 764.54 354.62 722"/><rect class="cls-4" x="390.95" y="796.43" width="31.88" height="15.95"/><polygon class="cls-2" points="422.83 812.38 422.83 796.43 438.79 796.43 422.83 812.38"/><rect class="cls-4" x="422.83" y="764.55" width="15.95" height="31.88"/><polygon class="cls-3" points="422.83 764.55 422.83 748.61 438.79 764.55 422.83 764.55"/><rect class="cls-5" x="390.95" y="748.61" width="31.88" height="15.94"/><polygon points="375.01 764.55 390.95 748.61 390.95 764.55 375.01 764.55"/><rect class="cls-6" x="327.18" y="764.55" width="95.65" height="31.88"/><polygon class="cls-4" points="375.01 796.43 390.95 796.43 390.95 812.38 375.01 796.43"/><polygon class="cls-3" points="390.95 828.33 390.95 812.38 406.89 828.33 390.95 828.33"/><polygon points="343.13 828.33 359.07 812.38 359.07 828.33 343.13 828.33"/><rect class="cls-5" x="343.13" y="828.33" width="15.94" height="31.88"/><rect class="cls-4" x="390.95" y="828.33" width="15.94" height="31.88"/><polygon class="cls-2" points="390.95 876.15 390.95 860.21 406.89 860.21 390.95 876.15"/><rect class="cls-4" x="359.07" y="860.21" width="31.88" height="15.94"/><polygon class="cls-3" points="343.13 860.21 359.07 860.21 359.07 876.15 343.13 860.21"/><rect class="cls-4" x="327.18" y="796.43" width="31.88" height="15.95"/><polygon class="cls-3" points="311.23 796.43 327.18 796.43 327.18 812.38 311.23 796.43"/><rect class="cls-5" x="311.23" y="764.55" width="15.95" height="31.88"/><polygon points="311.23 764.55 327.18 748.61 327.18 764.55 311.23 764.55"/><rect class="cls-5" x="327.18" y="748.61" width="31.88" height="15.94"/><polygon class="cls-3" points="359.07 764.55 359.07 748.61 375.01 764.55 359.07 764.55"/><polygon class="cls-5" points="359.07 828.33 359.07 812.38 375.01 828.33 359.07 828.33"/><polygon class="cls-5" points="375.01 828.33 390.95 812.38 390.95 828.33 375.01 828.33"/><rect class="cls-6" x="359.07" y="828.33" width="31.88" height="31.88"/><polygon class="cls-4" points="375.01 828.33 375.01 796.43 390.95 812.38 375.01 828.33"/><polygon class="cls-4" points="359.07 812.38 359.07 796.43 375.01 796.43 359.07 812.38"/><polygon class="cls-5" points="359.07 812.38 375.01 796.43 375.01 828.33 359.07 812.38"/></g></svg>