<svg xmlns="http://www.w3.org/2000/svg" viewBox="0 0 750 1050"><defs><style>.cls-1{fill:#fff5e6;}.cls-2{fill:#ffc766;}.cls-3{fill:#ff9f33;}.cls-4{fill:#fff;stroke:#231f20;stroke-miterlimit:10;}.cls-5{fill:#ffb34d;}.cls-6{fill:#ff8b1a;}.cls-7{fill:#f70;}.cls-8{fill:#ffab19;}</style></defs><g id="Layer_8" data-name="Layer 8"><rect class="cls-1" width="750" height="1050" rx="63.89"/></g><g id="Layer_5" data-name="Layer 5"><path d="M48.39,100.23l18-61a4.35,4.35,0,0,1,4.5-3.32c2.22,0,3.61.94,4.19,2.81L92.8,100.66A4.53,4.53,0,0,1,93,102a4.37,4.37,0,0,1-1.27,3.16,4,4,0,0,1-2.92,1.3,4.19,4.19,0,0,1-4.45-3.24L80.84,91.11H60.43l-3.88,13a2.67,2.67,0,0,1-1.33,1.61,4.59,4.59,0,0,1-2.56.76,4.32,4.32,0,0,1-3.25-1.32,4.48,4.48,0,0,1-1.28-3.24A5.45,5.45,0,0,1,48.39,100.23ZM70.78,56.57,63.13,82.09H78.21Z"/><path d="M700.91,949.77l-17.94,61a4.37,4.37,0,0,1-4.51,3.32q-3.33,0-4.18-2.81l-17.77-61.92a4.24,4.24,0,0,1-.22-1.32,4.35,4.35,0,0,1,1.28-3.16,4,4,0,0,1,2.91-1.3,4.2,4.2,0,0,1,4.46,3.24l3.52,12.09h20.41l3.88-13a2.71,2.71,0,0,1,1.33-1.61,4.62,4.62,0,0,1,2.56-.76,4.33,4.33,0,0,1,3.26,1.33,4.48,4.48,0,0,1,1.28,3.23A5.47,5.47,0,0,1,700.91,949.77Zm-22.39,43.66,7.65-25.52H671.09Z"/><polygon class="cls-2" points="374.86 774.26 374.86 723.82 397.2 723.82 374.86 774.26"/><polygon class="cls-3" points="352.5 723.82 374.86 723.82 374.86 774.26 352.5 723.82"/><polygon class="cls-4" points="374.56 773.96 375.14 773.96 374.86 774.25 374.56 773.96"/><path class="cls-3" d="M302.62,804.18l15-15,57.26,57.27.09.09c-.05,16.77-.08,29.83-.08,29.83l-15-15Z"/><path class="cls-2" d="M374.86,876.41s0-13.06.08-29.83a.54.54,0,0,1,0-.18l57.18-57.18,15,15Z"/><polygon class="cls-5" points="432.12 789.22 447.08 774.26 447.08 804.18 432.12 789.22"/><rect class="cls-3" x="418.44" y="756.2" width="21.16" height="29.92" transform="translate(-419.63 529.23) rotate(-45)"/><polygon class="cls-6" points="396.01 753.1 425.93 753.1 410.97 768.06 396.01 753.1"/><polygon class="cls-6" points="323.78 753.1 353.71 753.1 338.78 768.02 323.78 753.1"/><polygon class="cls-7" points="302.62 774.26 302.62 774.25 323.78 753.1 338.78 768.02 317.59 789.22 302.62 774.26"/><polygon class="cls-8" points="317.59 789.22 338.78 768.02 374.99 804.04 410.97 768.06 432.12 789.22 374.85 846.49 317.59 789.22"/><polygon class="cls-6" points="302.62 804.18 302.62 774.26 317.59 789.22 302.62 804.18"/><path class="cls-7" d="M374.86,774.26h0l.28-.29L396,753.1l15,15-36,36C375,787.36,375,774.37,374.86,774.26Z"/><path class="cls-3" d="M338.78,768l14.93-14.92L374.56,774l.3.29h0c.11.11.13,13.1.13,29.78Z"/><polygon class="cls-2" points="374.85 275.74 374.85 326.18 352.5 326.18 374.85 275.74"/><polygon class="cls-3" points="397.2 326.18 374.85 326.18 374.85 275.74 397.2 326.18"/><polygon class="cls-4" points="375.14 276.04 374.56 276.04 374.85 275.75 375.14 276.04"/><path class="cls-3" d="M447.08,245.82l-15,15-57.26-57.27-.1-.08c.05-16.78.09-29.83.09-29.83l15,15Z"/><path class="cls-2" d="M374.85,173.6s0,13.05-.09,29.83a.48.48,0,0,1,0,.17l-57.17,57.18-15-15Z"/><polygon class="cls-5" points="317.59 260.78 302.62 275.74 302.62 245.82 317.59 260.78"/><rect class="cls-3" x="310.1" y="263.88" width="21.16" height="29.92" transform="translate(-103.25 308.43) rotate(-45)"/><polygon class="cls-6" points="353.7 296.9 323.77 296.9 338.74 281.94 353.7 296.9"/><polygon class="cls-6" points="425.92 296.9 396 296.9 410.92 281.98 425.92 296.9"/><polygon class="cls-7" points="447.08 275.74 447.08 275.75 425.92 296.9 410.92 281.98 432.12 260.78 447.08 275.74"/><polygon class="cls-8" points="432.12 260.78 410.92 281.98 374.71 245.96 338.74 281.94 317.59 260.78 374.86 203.51 432.12 260.78"/><polygon class="cls-6" points="447.08 245.82 447.08 275.74 432.12 260.78 447.08 245.82"/><path class="cls-7" d="M374.85,275.74v0l-.29.28L353.7,296.9l-15-15,36-36C374.72,262.64,374.74,275.64,374.85,275.74Z"/><path class="cls-3" d="M410.92,282,396,296.9,375.14,276l-.29-.28v0c-.11-.1-.13-13.1-.13-29.78Z"/><polygon class="cls-2" points="375 550.85 375 601.29 352.65 601.29 375 550.85"/><polygon class="cls-3" points="397.35 601.29 375 601.29 375 550.85 397.35 601.29"/><polygon class="cls-4" points="375.29 551.15 374.71 551.15 375 550.87 375.29 551.15"/><path class="cls-3" d="M447.23,520.93l-15,15L375,478.62l-.1-.08c0-16.78.09-29.83.09-29.83l15,15Z"/><path class="cls-2" d="M375,448.71s0,13.05-.09,29.83a.54.54,0,0,1,0,.18l-57.17,57.17-15-15Z"/><polygon class="cls-5" points="317.74 535.89 302.77 550.85 302.77 520.93 317.74 535.89"/><rect class="cls-3" x="310.25" y="538.99" width="21.16" height="29.92" transform="translate(-297.74 389.11) rotate(-45)"/><polygon class="cls-6" points="353.85 572.01 323.92 572.01 338.88 557.05 353.85 572.01"/><polygon class="cls-6" points="426.07 572.01 396.14 572.01 411.07 557.09 426.07 572.01"/><polygon class="cls-7" points="447.23 550.85 447.23 550.87 426.07 572.01 411.07 557.09 432.27 535.89 447.23 550.85"/><polygon class="cls-8" points="432.27 535.89 411.07 557.09 374.86 521.07 338.88 557.05 317.74 535.89 375.01 478.62 432.27 535.89"/><polygon class="cls-6" points="447.23 520.93 447.23 550.85 432.27 535.89 447.23 520.93"/><path class="cls-7" d="M375,550.85v0l-.29.28L353.85,572l-15-15,36-36C374.86,537.75,374.89,550.75,375,550.85Z"/><path class="cls-3" d="M411.07,557.09,396.14,572l-20.85-20.86-.29-.28v0c-.11-.1-.14-13.1-.14-29.78Z"/><polygon class="cls-2" points="69.95 174.36 69.95 203.77 56.93 203.77 69.95 174.36"/><polygon class="cls-3" points="82.99 203.77 69.95 203.77 69.95 174.36 82.99 203.77"/><polygon class="cls-4" points="70.13 174.53 69.79 174.53 69.95 174.36 70.13 174.53"/><path class="cls-3" d="M112.08,156.91l-8.73,8.72L70,132.24l0-.05c0-9.79,0-17.4,0-17.4l8.73,8.73Z"/><path class="cls-2" d="M70,114.79s0,7.61,0,17.4v.1L36.57,165.63l-8.73-8.72Z"/><polygon class="cls-5" points="36.57 165.63 27.84 174.36 27.84 156.91 36.57 165.63"/><rect class="cls-3" x="32.2" y="167.44" width="12.34" height="17.44" transform="translate(-113.33 78.73) rotate(-45)"/><polygon class="cls-6" points="57.62 186.7 40.17 186.7 48.9 177.97 57.62 186.7"/><polygon class="cls-6" points="99.74 186.7 82.29 186.7 90.99 177.99 99.74 186.7"/><polygon class="cls-7" points="112.08 174.36 112.08 174.36 99.74 186.7 90.99 177.99 103.35 165.63 112.08 174.36"/><polygon class="cls-8" points="103.35 165.63 90.99 177.99 69.88 156.99 48.9 177.97 36.57 165.63 69.96 132.24 103.35 165.63"/><polygon class="cls-6" points="112.08 156.91 112.08 174.36 103.35 165.63 112.08 156.91"/><path class="cls-7" d="M70,174.36h0l-.16.17L57.62,186.7,48.9,178l21-21C69.88,166.72,69.89,174.29,70,174.36Z"/><path class="cls-3" d="M91,178l-8.7,8.71L70.13,174.53l-.18-.17h0c-.06-.07-.07-7.64-.07-17.37Z"/><polygon class="cls-2" points="680.04 875.64 680.04 846.23 693.07 846.23 680.04 875.64"/><polygon class="cls-3" points="667.01 846.23 680.04 846.23 680.04 875.64 667.01 846.23"/><polygon class="cls-4" points="679.87 875.47 680.21 875.47 680.04 875.64 679.87 875.47"/><path class="cls-3" d="M637.92,893.09l8.73-8.72L680,917.76l.05,0c0,9.79,0,17.4,0,17.4l-8.73-8.73Z"/><path class="cls-2" d="M680.05,935.21s0-7.61,0-17.4v-.1l33.34-33.34,8.73,8.72Z"/><polygon class="cls-5" points="713.43 884.37 722.16 875.64 722.16 893.09 713.43 884.37"/><rect class="cls-3" x="705.46" y="865.12" width="12.34" height="17.44" transform="translate(-409.46 759.14) rotate(-45)"/><polygon class="cls-6" points="692.38 863.31 709.83 863.31 701.1 872.03 692.38 863.31"/><polygon class="cls-6" points="650.26 863.31 667.71 863.31 659.01 872.01 650.26 863.31"/><polygon class="cls-7" points="637.92 875.64 637.92 875.64 650.26 863.31 659.01 872.01 646.65 884.37 637.92 875.64"/><polygon class="cls-8" points="646.65 884.37 659.01 872.01 680.12 893.01 701.1 872.03 713.43 884.37 680.04 917.76 646.65 884.37"/><polygon class="cls-6" points="637.92 893.09 637.92 875.64 646.65 884.37 637.92 893.09"/><path class="cls-7" d="M680.05,875.64h0l.16-.17,12.17-12.16L701.1,872l-21,21C680.12,883.28,680.11,875.71,680.05,875.64Z"/><path class="cls-3" d="M659,872l8.7-8.7,12.16,12.16.18.17h0c.06.07.07,7.64.07,17.37Z"/></g></svg>