<svg xmlns="http://www.w3.org/2000/svg" viewBox="0 0 750 1050"><defs><style>.cls-1{fill:#fff5e6;}.cls-2{fill:#ffc766;}.cls-3{fill:#ff9f33;}.cls-4{fill:#fff;stroke:#231f20;}.cls-4,.cls-9{stroke-miterlimit:10;}.cls-5{fill:#ffb34d;}.cls-6{fill:#ff8b1a;}.cls-7{fill:#f70;}.cls-8{fill:#ffab19;}.cls-9{fill:none;stroke:#ff9f33;stroke-width:4px;}</style></defs><g id="Layer_8" data-name="Layer 8"><rect class="cls-1" width="750" height="1050" rx="63.89"/></g><g id="Layer_5" data-name="Layer 5"><polygon class="cls-2" points="69.95 174.36 69.95 203.77 56.93 203.77 69.95 174.36"/><polygon class="cls-3" points="82.99 203.77 69.95 203.77 69.95 174.36 82.99 203.77"/><polygon class="cls-4" points="70.13 174.53 69.79 174.53 69.95 174.36 70.13 174.53"/><path class="cls-3" d="M112.08,156.91l-8.73,8.72L70,132.24l0-.05c0-9.79,0-17.4,0-17.4l8.73,8.73Z"/><path class="cls-2" d="M70,114.79s0,7.61,0,17.4v.1L36.57,165.63l-8.73-8.72Z"/><polygon class="cls-5" points="36.57 165.63 27.84 174.36 27.84 156.91 36.57 165.63"/><rect class="cls-3" x="32.2" y="167.44" width="12.34" height="17.44" transform="translate(-113.33 78.73) rotate(-45)"/><polygon class="cls-6" points="57.62 186.69 40.17 186.69 48.9 177.97 57.62 186.69"/><polygon class="cls-6" points="99.74 186.69 82.29 186.69 90.99 177.99 99.74 186.69"/><polygon class="cls-7" points="112.08 174.36 112.08 174.36 99.74 186.69 90.99 177.99 103.35 165.63 112.08 174.36"/><polygon class="cls-8" points="103.35 165.63 90.99 177.99 69.88 156.99 48.9 177.97 36.57 165.63 69.96 132.24 103.35 165.63"/><polygon class="cls-6" points="112.08 156.91 112.08 174.36 103.35 165.63 112.08 156.91"/><path class="cls-7" d="M70,174.36h0l-.16.17L57.62,186.69,48.9,178l21-21C69.88,166.72,69.89,174.29,70,174.36Z"/><path class="cls-3" d="M91,178l-8.7,8.7L70.13,174.53l-.18-.17h0c-.06-.07-.07-7.64-.07-17.37Z"/><polygon class="cls-2" points="680.04 875.64 680.04 846.23 693.07 846.23 680.04 875.64"/><polygon class="cls-3" points="667.01 846.23 680.04 846.23 680.04 875.64 667.01 846.23"/><polygon class="cls-4" points="679.87 875.47 680.21 875.47 680.04 875.64 679.87 875.47"/><path class="cls-3" d="M637.92,893.09l8.73-8.72L680,917.76l.05,0c0,9.79,0,17.4,0,17.4l-8.73-8.73Z"/><path class="cls-2" d="M680.05,935.21s0-7.61,0-17.4v-.1l33.34-33.34,8.73,8.72Z"/><polygon class="cls-5" points="713.43 884.37 722.16 875.64 722.16 893.09 713.43 884.37"/><rect class="cls-3" x="705.46" y="865.11" width="12.34" height="17.44" transform="translate(-409.46 759.14) rotate(-45)"/><polygon class="cls-6" points="692.38 863.3 709.83 863.3 701.1 872.03 692.38 863.3"/><polygon class="cls-6" points="650.26 863.3 667.71 863.3 659.01 872.01 650.26 863.3"/><polygon class="cls-7" points="637.92 875.64 637.92 875.64 650.26 863.3 659.01 872.01 646.65 884.37 637.92 875.64"/><polygon class="cls-8" points="646.65 884.37 659.01 872.01 680.12 893.01 701.1 872.03 713.43 884.37 680.04 917.76 646.65 884.37"/><polygon class="cls-6" points="637.92 893.09 637.92 875.64 646.65 884.37 637.92 893.09"/><path class="cls-7" d="M680.05,875.64h0l.16-.17,12.17-12.16L701.1,872l-21,21C680.12,883.28,680.11,875.71,680.05,875.64Z"/><path class="cls-3" d="M659,872l8.7-8.7,12.16,12.16.18.17h0c.06.07.07,7.64.07,17.37Z"/><polyline class="cls-9" points="148.54 361.19 164.81 302.8 204.38 280.44"/><path d="M55.53,55.45l19-16.39a12.31,12.31,0,0,1,7.86-3.13,10.6,10.6,0,0,1,7.72,3.24,9.7,9.7,0,0,1,3.26,6.95V73.39q0,7.74-6.63,13.37l-6,5.09L83,97.53h6a4.46,4.46,0,1,1,0,8.91H76.81L73.54,98l-6.08,5.06a12.69,12.69,0,0,1-8.11,3.35,10.52,10.52,0,0,1-7.82-3.21,10.66,10.66,0,0,1-3.16-7.77V70.57a20.51,20.51,0,0,1,1.43-8A20.77,20.77,0,0,1,55.53,55.45Zm24.83-9.92L61.39,62a11.85,11.85,0,0,0-3.3,4.14,15.16,15.16,0,0,0-.81,5.58V94.92c0,1.84.71,2.76,2.12,2.76a2.5,2.5,0,0,0,1.65-.7l9.07-7.77-3-7.77a7,7,0,0,1-.65-2.64,4.06,4.06,0,0,1,1.33-3A4.37,4.37,0,0,1,71,74.55a4,4,0,0,1,4.14,2.55l2.3,6a32.3,32.3,0,0,0,5.38-5,7.41,7.41,0,0,0,1.54-4.69V47.12c0-1.48-.68-2.22-2-2.22A2.63,2.63,0,0,0,80.36,45.53Z"/><path d="M694.47,994.55l-19,16.39a12.26,12.26,0,0,1-7.85,3.13,10.6,10.6,0,0,1-7.72-3.24,9.7,9.7,0,0,1-3.26-7V976.61q0-7.74,6.63-13.37l6-5.09L667,952.47h-6a4.46,4.46,0,1,1,0-8.91h12.2l3.26,8.41,6.09-5.06a12.67,12.67,0,0,1,8.11-3.35,10.52,10.52,0,0,1,7.82,3.21,10.66,10.66,0,0,1,3.16,7.77v24.89a20.51,20.51,0,0,1-1.43,8A20.77,20.77,0,0,1,694.47,994.55Zm-24.84,9.92,19-16.42a11.77,11.77,0,0,0,3.31-4.14,15.19,15.19,0,0,0,.8-5.58V955.08c0-1.84-.7-2.76-2.11-2.76a2.5,2.5,0,0,0-1.65.7l-9.08,7.77,3,7.77a7,7,0,0,1,.64,2.64,4,4,0,0,1-1.32,2.95,4.37,4.37,0,0,1-3.14,1.3,4,4,0,0,1-4.15-2.55l-2.29-6a32.3,32.3,0,0,0-5.38,5,7.41,7.41,0,0,0-1.54,4.69v26.26c0,1.48.68,2.22,2.05,2.22A2.6,2.6,0,0,0,669.63,1004.47Z"/><polygon class="cls-3" points="566.4 412.97 264.22 589.84 238.54 550.04 303.9 325.31 366.97 303.19 517.58 302.8 566.4 412.97"/><polyline class="cls-7" points="264.22 589.84 183.37 637.16 157.4 583.11 124.51 428.44 156.24 422.52 264.22 589.84"/><polygon class="cls-2" points="449.5 169.49 449.5 303.5 391.82 332.02 366.43 303.5 354.12 259.49 300.28 275.63 291.06 224.87 275.68 224.87 301.05 153.34 449.5 169.49"/><polygon class="cls-7" points="449.5 169.49 491.94 114.96 467.7 102.67 444.51 118.81 447.18 88.59 425.85 78.81 404.22 100.15 404.34 70.56 377.55 68.15 362.59 94.22 350.59 70.22 326.75 72.25 319.18 102.52 301.59 77.42 276.63 82.55 301.05 153.34 449.5 169.49"/><polygon class="cls-7" points="366.43 303.5 344.51 348.89 377.85 464.44 435.04 348 435.04 304.57 391.82 332.02 366.43 303.5"/><polygon class="cls-2" points="124.51 428.44 120.07 349.33 185.4 356.91 156.24 422.52 124.51 428.44"/><polygon class="cls-7" points="201.89 281.85 192.85 294.33 198.13 312 212.22 305.69 213.5 285.49 225.74 295.89 244.81 290.67 236.81 276.74 220.99 275.2 239.48 265.19 241.85 249 219.59 252.15 212.59 266.67 207.92 248.96 195.11 244.52 192.59 258.22 201.56 271.43 185.4 265 176.74 276.74 185.63 285.11 201.89 281.85"/><polygon class="cls-2" points="196.81 277.33 205.4 266.67 222.29 266.67 219.63 284.15 207.48 286.81 196.81 277.33"/><polyline class="cls-7" points="294.63 244.52 324.68 247.01 296.78 256.34"/><polyline class="cls-6" points="342.92 157.89 365.7 184.3 365.7 206.52 351.48 213.63 339.63 209.19 349.4 220.15 369.85 220.15 382.29 192 380.73 176.52 388.51 186.07 382 215.41 379.92 242.68 398.29 251.85 398.29 271.11 420.81 285.93 431.77 318.22 465.25 332.02 481.55 364.44 520.66 361.19 550 383.97 579.85 378.67 605.11 340.74 584.96 302.8 540.51 298.96 531.63 266.96 491.94 253.33 487.77 202.37 455.18 189.04 449.5 169.49"/><polyline class="cls-9" points="601.31 688.81 585.04 747.2 545.47 769.56"/><polygon class="cls-3" points="183.45 637.03 485.63 460.16 511.31 499.96 445.95 724.68 382.88 746.81 232.26 747.2 183.45 637.03"/><polyline class="cls-7" points="485.63 460.16 566.48 412.84 592.44 466.89 625.33 621.55 593.61 627.48 485.63 460.16"/><polygon class="cls-2" points="300.35 880.51 300.35 746.5 358.03 717.98 383.42 746.5 395.72 790.51 449.56 774.37 458.79 825.13 474.17 825.13 448.8 896.66 300.35 880.51"/><polygon class="cls-7" points="300.34 880.51 257.9 935.04 282.15 947.33 305.33 931.18 302.67 961.41 324 971.18 345.63 949.85 345.51 979.43 372.3 981.85 387.26 955.78 399.25 979.78 423.09 977.75 430.67 947.48 448.26 972.58 473.21 967.45 448.79 896.66 300.34 880.51"/><polygon class="cls-7" points="383.41 746.5 405.33 701.11 372 585.55 314.81 702 314.81 745.43 358.03 717.98 383.41 746.5"/><polygon class="cls-2" points="625.33 621.55 629.78 700.67 564.44 693.09 593.61 627.48 625.33 621.55"/><polygon class="cls-7" points="547.96 768.15 557 755.67 551.72 738 537.63 744.31 536.35 764.51 524.11 754.11 505.04 759.33 513.04 773.26 528.86 774.8 510.37 784.81 508 801 530.26 797.85 537.25 783.33 541.93 801.04 554.74 805.48 557.26 791.78 548.28 778.57 564.44 785 573.11 773.26 564.22 764.89 547.96 768.15"/><polygon class="cls-2" points="553.04 772.67 544.44 783.33 527.56 783.33 530.22 765.85 542.37 763.18 553.04 772.67"/><polyline class="cls-7" points="455.22 805.48 425.17 802.98 453.07 793.66"/><polyline class="cls-6" points="406.93 892.11 384.15 865.7 384.15 843.48 398.37 836.37 410.22 840.81 400.44 829.85 380 829.85 367.56 858 369.12 873.48 361.33 863.92 367.85 834.59 369.93 807.32 351.56 798.15 351.56 778.89 329.04 764.07 318.07 731.78 284.59 717.98 268.3 685.55 229.19 688.81 199.85 666.03 169.99 671.33 144.74 709.26 164.89 747.2 209.33 751.04 218.22 783.04 257.9 796.67 262.07 847.63 294.67 860.96 300.34 880.51"/></g></svg>