<svg xmlns="http://www.w3.org/2000/svg" viewBox="0 0 750 1050"><defs><style>.cls-1{fill:#fff5e6;}.cls-2{fill:#ffc766;}.cls-3{fill:#ff9f33;}.cls-4{fill:#fff;stroke:#231f20;stroke-miterlimit:10;}.cls-5{fill:#ffb34d;}.cls-6{fill:#ff8b1a;}.cls-7{fill:#f70;}.cls-8{fill:#ffab19;}</style></defs><g id="Layer_8" data-name="Layer 8"><rect class="cls-1" width="750" height="1050" rx="63.89"/></g><g id="Layer_5" data-name="Layer 5"><path d="M48.39,100.23l18-61a4.35,4.35,0,0,1,4.5-3.32c2.22,0,3.61.94,4.19,2.81L92.8,100.66A4.53,4.53,0,0,1,93,102a4.37,4.37,0,0,1-1.27,3.16,4,4,0,0,1-2.92,1.3,4.19,4.19,0,0,1-4.45-3.24L80.84,91.11H60.43l-3.88,13a2.71,2.71,0,0,1-1.33,1.61,4.59,4.59,0,0,1-2.56.76,4.32,4.32,0,0,1-3.25-1.32,4.48,4.48,0,0,1-1.28-3.24A5.45,5.45,0,0,1,48.39,100.23ZM70.78,56.57,63.14,82.09H78.21Z"/><path d="M700.91,949.77l-17.94,61a4.37,4.37,0,0,1-4.51,3.32q-3.33,0-4.18-2.82l-17.77-61.91a4.26,4.26,0,0,1-.22-1.33,4.33,4.33,0,0,1,1.28-3.15,4,4,0,0,1,2.91-1.3,4.2,4.2,0,0,1,4.46,3.23l3.52,12.1h20.41l3.88-13a2.71,2.71,0,0,1,1.33-1.61,4.62,4.62,0,0,1,2.56-.76,4.36,4.36,0,0,1,3.26,1.32,4.52,4.52,0,0,1,1.28,3.24A5.47,5.47,0,0,1,700.91,949.77Zm-22.39,43.66,7.65-25.52H671.09Z"/><polygon class="cls-2" points="200.08 275.74 200.08 326.19 177.74 326.19 200.08 275.74"/><polygon class="cls-3" points="222.43 326.19 200.08 326.19 200.08 275.74 222.43 326.19"/><polygon class="cls-4" points="200.38 276.04 199.79 276.04 200.08 275.76 200.38 276.04"/><path class="cls-3" d="M272.31,245.82l-15,15-57.26-57.27-.1-.08c0-16.78.09-29.83.09-29.83l15,15Z"/><path class="cls-2" d="M200.08,173.6s0,13.05-.09,29.83a.25.25,0,0,1,0,.17l-57.17,57.18-15-15Z"/><polygon class="cls-5" points="142.82 260.78 127.86 275.74 127.86 245.82 142.82 260.78"/><rect class="cls-3" x="135.33" y="263.88" width="21.16" height="29.92" transform="translate(-154.44 184.85) rotate(-45)"/><polygon class="cls-6" points="178.93 296.9 149 296.9 163.97 281.94 178.93 296.9"/><polygon class="cls-6" points="251.15 296.9 221.23 296.9 236.15 281.98 251.15 296.9"/><polygon class="cls-7" points="272.31 275.74 272.31 275.76 251.15 296.9 236.15 281.98 257.35 260.78 272.31 275.74"/><polygon class="cls-8" points="257.35 260.78 236.15 281.98 199.95 245.96 163.97 281.94 142.82 260.78 200.09 203.51 257.35 260.78"/><polygon class="cls-6" points="272.31 245.82 272.31 275.74 257.35 260.78 272.31 245.82"/><path class="cls-7" d="M200.08,275.74v0l-.29.28L178.93,296.9l-15-15,36-36C200,262.64,200,275.64,200.08,275.74Z"/><path class="cls-3" d="M236.15,282,221.23,296.9,200.38,276l-.3-.28v0c-.11-.1-.13-13.1-.13-29.78Z"/><polygon class="cls-2" points="549.63 590.85 549.63 540.41 571.97 540.41 549.63 590.85"/><polygon class="cls-3" points="527.27 540.41 549.63 540.41 549.63 590.85 527.27 540.41"/><polygon class="cls-4" points="549.33 590.55 549.91 590.55 549.63 590.84 549.33 590.55"/><path class="cls-3" d="M477.39,620.78l15-15,57.26,57.28.09.08c-.05,16.78-.08,29.83-.08,29.83l-15-15Z"/><path class="cls-2" d="M549.63,693s0-13,.08-29.83a.54.54,0,0,1,0-.18l57.18-57.18,15,15Z"/><polygon class="cls-5" points="606.89 605.81 621.85 590.85 621.85 620.78 606.89 605.81"/><rect class="cls-3" x="593.21" y="572.79" width="21.16" height="29.92" transform="translate(-238.76 599.1) rotate(-45)"/><polygon class="cls-6" points="570.78 569.69 600.7 569.69 585.74 584.65 570.78 569.69"/><polygon class="cls-6" points="498.55 569.69 528.48 569.69 513.55 584.62 498.55 569.69"/><polygon class="cls-7" points="477.39 590.85 477.39 590.84 498.55 569.69 513.55 584.62 492.36 605.81 477.39 590.85"/><polygon class="cls-8" points="492.36 605.81 513.55 584.62 549.76 620.63 585.74 584.65 606.89 605.81 549.62 663.09 492.36 605.81"/><polygon class="cls-6" points="477.39 620.78 477.39 590.85 492.36 605.81 477.39 620.78"/><path class="cls-7" d="M549.63,590.85h0l.28-.29,20.87-20.86,15,15-36,36C549.76,604,549.73,591,549.63,590.85Z"/><path class="cls-3" d="M513.55,584.62l14.93-14.93,20.85,20.86.3.29h0c.1.11.13,13.1.13,29.78Z"/><polygon class="cls-2" points="549.63 774.26 549.63 723.82 571.97 723.82 549.63 774.26"/><polygon class="cls-3" points="527.27 723.82 549.63 723.82 549.63 774.26 527.27 723.82"/><polygon class="cls-4" points="549.33 773.96 549.91 773.96 549.63 774.25 549.33 773.96"/><path class="cls-3" d="M477.39,804.18l15-15,57.26,57.27.09.09c-.05,16.77-.08,29.83-.08,29.83l-15-15Z"/><path class="cls-2" d="M549.63,876.41s0-13.06.08-29.83a.54.54,0,0,1,0-.18l57.18-57.18,15,15Z"/><polygon class="cls-5" points="606.89 789.22 621.85 774.26 621.85 804.18 606.89 789.22"/><rect class="cls-3" x="593.21" y="756.2" width="21.16" height="29.92" transform="translate(-368.44 652.81) rotate(-45)"/><polygon class="cls-6" points="570.78 753.1 600.7 753.1 585.74 768.06 570.78 753.1"/><polygon class="cls-6" points="498.55 753.1 528.48 753.1 513.55 768.02 498.55 753.1"/><polygon class="cls-7" points="477.39 774.26 477.39 774.25 498.55 753.1 513.55 768.02 492.36 789.22 477.39 774.26"/><polygon class="cls-8" points="492.36 789.22 513.55 768.02 549.76 804.04 585.74 768.06 606.89 789.22 549.62 846.49 492.36 789.22"/><polygon class="cls-6" points="477.39 804.18 477.39 774.26 492.36 789.22 477.39 804.18"/><path class="cls-7" d="M549.63,774.26h0l.28-.29,20.87-20.86,15,15-36,36C549.76,787.36,549.73,774.37,549.63,774.26Z"/><path class="cls-3" d="M513.55,768l14.93-14.92L549.33,774l.3.29h0c.1.11.13,13.1.13,29.78Z"/><polygon class="cls-2" points="200.37 459.15 200.37 509.59 178.03 509.59 200.37 459.15"/><polygon class="cls-3" points="222.72 509.59 200.37 509.59 200.37 459.15 222.72 509.59"/><polygon class="cls-4" points="200.67 459.45 200.08 459.45 200.37 459.16 200.67 459.45"/><path class="cls-3" d="M272.6,429.23l-15,15-57.26-57.27-.09-.09c0-16.78.08-29.83.08-29.83l15,15Z"/><path class="cls-2" d="M200.37,357s0,13.05-.08,29.83a.54.54,0,0,1,0,.18l-57.18,57.18-15-15Z"/><polygon class="cls-5" points="143.11 444.19 128.15 459.15 128.15 429.23 143.11 444.19"/><rect class="cls-3" x="135.62" y="447.29" width="21.16" height="29.92" transform="translate(-284.04 238.77) rotate(-45)"/><polygon class="cls-6" points="179.22 480.31 149.3 480.31 164.26 465.35 179.22 480.31"/><polygon class="cls-6" points="251.44 480.31 221.52 480.31 236.44 465.38 251.44 480.31"/><polygon class="cls-7" points="272.6 459.15 272.6 459.16 251.44 480.31 236.44 465.38 257.64 444.19 272.6 459.15"/><polygon class="cls-8" points="257.64 444.19 236.44 465.38 200.24 429.37 164.26 465.35 143.11 444.19 200.38 386.92 257.64 444.19"/><polygon class="cls-6" points="272.6 429.23 272.6 459.15 257.64 444.19 272.6 429.23"/><path class="cls-7" d="M200.37,459.15h0l-.29.29-20.86,20.86-15-15,36-36C200.24,446.05,200.26,459,200.37,459.15Z"/><path class="cls-3" d="M236.45,465.38l-14.93,14.93-20.85-20.86-.3-.29h0c-.11-.11-.13-13.1-.13-29.78Z"/><polygon class="cls-2" points="549.32 275.74 549.32 326.19 526.98 326.19 549.32 275.74"/><polygon class="cls-3" points="571.68 326.19 549.32 326.19 549.32 275.74 571.68 326.19"/><polygon class="cls-4" points="549.62 276.04 549.04 276.04 549.32 275.76 549.62 276.04"/><path class="cls-3" d="M621.56,245.82l-15,15-57.26-57.27-.09-.08c0-16.78.08-29.83.08-29.83l15,15Z"/><path class="cls-2" d="M549.32,173.6s0,13.05-.08,29.83a.49.49,0,0,1,0,.17l-57.18,57.18-15-15Z"/><polygon class="cls-5" points="492.06 260.78 477.1 275.74 477.1 245.82 492.06 260.78"/><rect class="cls-3" x="484.58" y="263.88" width="21.16" height="29.92" transform="translate(-52.14 431.8) rotate(-45)"/><polygon class="cls-6" points="528.17 296.9 498.25 296.9 513.21 281.94 528.17 296.9"/><polygon class="cls-6" points="600.4 296.9 570.47 296.9 585.4 281.98 600.4 296.9"/><polygon class="cls-7" points="621.56 275.74 621.56 275.76 600.4 296.9 585.4 281.98 606.59 260.78 621.56 275.74"/><polygon class="cls-8" points="606.59 260.78 585.4 281.98 549.19 245.96 513.21 281.94 492.06 260.78 549.34 203.51 606.59 260.78"/><polygon class="cls-6" points="621.56 245.82 621.56 275.74 606.59 260.78 621.56 245.82"/><path class="cls-7" d="M549.32,275.74v0L549,276,528.17,296.9l-15-15,36-36C549.19,262.64,549.22,275.64,549.32,275.74Z"/><path class="cls-3" d="M585.4,282,570.47,296.9,549.62,276l-.3-.28v0c-.1-.1-.13-13.1-.13-29.78Z"/><polygon class="cls-2" points="200.38 590.85 200.38 540.41 222.72 540.41 200.38 590.85"/><polygon class="cls-3" points="178.03 540.41 200.38 540.41 200.38 590.85 178.03 540.41"/><polygon class="cls-4" points="200.08 590.55 200.67 590.55 200.38 590.84 200.08 590.55"/><path class="cls-3" d="M128.15,620.78l15-15,57.26,57.28.1.08c-.05,16.78-.09,29.83-.09,29.83l-15-15Z"/><path class="cls-2" d="M200.38,693s0-13,.09-29.83a.28.28,0,0,1,0-.18l57.17-57.18,15,15Z"/><polygon class="cls-5" points="257.64 605.81 272.6 590.85 272.6 620.78 257.64 605.81"/><rect class="cls-3" x="243.97" y="572.79" width="21.16" height="29.92" transform="translate(-341.05 352.14) rotate(-45)"/><polygon class="cls-6" points="221.53 569.69 251.46 569.69 236.49 584.65 221.53 569.69"/><polygon class="cls-6" points="149.31 569.69 179.23 569.69 164.31 584.62 149.31 569.69"/><polygon class="cls-7" points="128.15 590.85 128.15 590.84 149.31 569.69 164.31 584.62 143.11 605.81 128.15 590.85"/><polygon class="cls-8" points="143.11 605.81 164.31 584.62 200.51 620.63 236.49 584.65 257.64 605.81 200.37 663.09 143.11 605.81"/><polygon class="cls-6" points="128.15 620.78 128.15 590.85 143.11 605.81 128.15 620.78"/><path class="cls-7" d="M200.38,590.85h0l.29-.29,20.86-20.86,15,15-36,36C200.51,604,200.49,591,200.38,590.85Z"/><path class="cls-3" d="M164.31,584.62l14.92-14.93,20.85,20.86.3.29h0c.11.11.13,13.1.13,29.78Z"/><polygon class="cls-2" points="200.38 774.26 200.38 723.82 222.72 723.82 200.38 774.26"/><polygon class="cls-3" points="178.03 723.82 200.38 723.82 200.38 774.26 178.03 723.82"/><polygon class="cls-4" points="200.08 773.96 200.67 773.96 200.38 774.25 200.08 773.96"/><path class="cls-3" d="M128.15,804.18l15-15,57.26,57.27.1.09c-.05,16.77-.09,29.83-.09,29.83l-15-15Z"/><path class="cls-2" d="M200.38,876.41s0-13.06.09-29.83a.28.28,0,0,1,0-.18l57.17-57.18,15,15Z"/><polygon class="cls-5" points="257.64 789.22 272.6 774.26 272.6 804.18 257.64 789.22"/><rect class="cls-3" x="243.97" y="756.2" width="21.16" height="29.92" transform="translate(-470.74 405.86) rotate(-45)"/><polygon class="cls-6" points="221.53 753.1 251.46 753.1 236.49 768.06 221.53 753.1"/><polygon class="cls-6" points="149.31 753.1 179.23 753.1 164.31 768.02 149.31 753.1"/><polygon class="cls-7" points="128.15 774.26 128.15 774.25 149.31 753.1 164.31 768.02 143.11 789.22 128.15 774.26"/><polygon class="cls-8" points="143.11 789.22 164.31 768.02 200.51 804.04 236.49 768.06 257.64 789.22 200.37 846.49 143.11 789.22"/><polygon class="cls-6" points="128.15 804.18 128.15 774.26 143.11 789.22 128.15 804.18"/><path class="cls-7" d="M200.38,774.26h0l.29-.29,20.86-20.86,15,15-36,36C200.51,787.36,200.49,774.37,200.38,774.26Z"/><path class="cls-3" d="M164.31,768l14.92-14.92L200.08,774l.3.29h0c.11.11.13,13.1.13,29.78Z"/><polygon class="cls-2" points="549.62 459.15 549.62 509.59 527.27 509.59 549.62 459.15"/><polygon class="cls-3" points="571.97 509.59 549.62 509.59 549.62 459.15 571.97 509.59"/><polygon class="cls-4" points="549.91 459.45 549.33 459.45 549.62 459.16 549.91 459.45"/><path class="cls-3" d="M621.85,429.23l-15,15-57.26-57.27-.1-.09c.05-16.78.09-29.83.09-29.83l15,15Z"/><path class="cls-2" d="M549.62,357s0,13.05-.09,29.83a.54.54,0,0,1,0,.18l-57.17,57.18-15-15Z"/><polygon class="cls-5" points="492.36 444.19 477.39 459.15 477.39 429.23 492.36 444.19"/><rect class="cls-3" x="484.87" y="447.29" width="21.16" height="29.92" transform="translate(-181.75 485.72) rotate(-45)"/><polygon class="cls-6" points="528.47 480.31 498.54 480.31 513.5 465.35 528.47 480.31"/><polygon class="cls-6" points="600.69 480.31 570.76 480.31 585.69 465.38 600.69 480.31"/><polygon class="cls-7" points="621.85 459.15 621.85 459.16 600.69 480.31 585.69 465.38 606.89 444.19 621.85 459.15"/><polygon class="cls-8" points="606.89 444.19 585.69 465.38 549.48 429.37 513.5 465.35 492.36 444.19 549.63 386.92 606.89 444.19"/><polygon class="cls-6" points="621.85 429.23 621.85 459.15 606.89 444.19 621.85 429.23"/><path class="cls-7" d="M549.62,459.15h0l-.29.29-20.86,20.86-15-15,36-36C549.48,446.05,549.51,459,549.62,459.15Z"/><path class="cls-3" d="M585.69,465.38l-14.93,14.93-20.85-20.86-.29-.29h0c-.11-.11-.14-13.1-.14-29.78Z"/><polygon class="cls-2" points="374.99 550.85 374.99 601.29 352.65 601.29 374.99 550.85"/><polygon class="cls-3" points="397.35 601.29 374.99 601.29 374.99 550.85 397.35 601.29"/><polygon class="cls-4" points="375.29 551.15 374.71 551.15 374.99 550.87 375.29 551.15"/><path class="cls-3" d="M447.23,520.93l-15,15L375,478.62l-.1-.08c0-16.78.08-29.83.08-29.83l15,15Z"/><path class="cls-2" d="M375,448.71s0,13.05-.08,29.83a.49.49,0,0,1,0,.17l-57.18,57.18-15-15Z"/><polygon class="cls-5" points="317.73 535.89 302.77 550.85 302.77 520.93 317.73 535.89"/><rect class="cls-3" x="310.25" y="538.99" width="21.16" height="29.92" transform="translate(-297.74 389.11) rotate(-45)"/><polygon class="cls-6" points="353.85 572.01 323.92 572.01 338.88 557.05 353.85 572.01"/><polygon class="cls-6" points="426.07 572.01 396.14 572.01 411.07 557.09 426.07 572.01"/><polygon class="cls-7" points="447.23 550.85 447.23 550.87 426.07 572.01 411.07 557.09 432.27 535.89 447.23 550.85"/><polygon class="cls-8" points="432.27 535.89 411.07 557.09 374.86 521.07 338.88 557.05 317.73 535.89 375.01 478.62 432.27 535.89"/><polygon class="cls-6" points="447.23 520.93 447.23 550.85 432.27 535.89 447.23 520.93"/><path class="cls-7" d="M375,550.85v0l-.28.28L353.85,572l-15-15,36-36C374.86,537.75,374.89,550.75,375,550.85Z"/><path class="cls-3" d="M411.07,557.09,396.14,572l-20.85-20.86-.3-.28v0c-.1-.1-.13-13.1-.13-29.78Z"/><polygon class="cls-2" points="69.95 174.36 69.95 203.77 56.93 203.77 69.95 174.36"/><polygon class="cls-3" points="82.99 203.77 69.95 203.77 69.95 174.36 82.99 203.77"/><polygon class="cls-4" points="70.13 174.53 69.79 174.53 69.95 174.36 70.13 174.53"/><path class="cls-3" d="M112.08,156.91l-8.73,8.72L70,132.24l0-.05c0-9.79,0-17.4,0-17.4l8.73,8.73Z"/><path class="cls-2" d="M70,114.79s0,7.61,0,17.4v.1L36.57,165.63l-8.73-8.72Z"/><polygon class="cls-5" points="36.57 165.63 27.84 174.36 27.84 156.91 36.57 165.63"/><rect class="cls-3" x="32.2" y="167.44" width="12.34" height="17.44" transform="translate(-113.33 78.73) rotate(-45)"/><polygon class="cls-6" points="57.62 186.7 40.17 186.7 48.9 177.97 57.62 186.7"/><polygon class="cls-6" points="99.74 186.7 82.29 186.7 90.99 177.99 99.74 186.7"/><polygon class="cls-7" points="112.08 174.36 112.08 174.36 99.74 186.7 90.99 177.99 103.35 165.63 112.08 174.36"/><polygon class="cls-8" points="103.35 165.63 90.99 177.99 69.88 156.99 48.9 177.97 36.57 165.63 69.96 132.24 103.35 165.63"/><polygon class="cls-6" points="112.08 156.91 112.08 174.36 103.35 165.63 112.08 156.91"/><path class="cls-7" d="M70,174.36h0l-.16.17L57.62,186.7,48.9,178l21-21C69.88,166.72,69.89,174.29,70,174.36Z"/><path class="cls-3" d="M91,178l-8.7,8.71L70.13,174.53l-.18-.17h0c-.06-.07-.07-7.64-.07-17.37Z"/><polygon class="cls-2" points="680.04 875.64 680.04 846.23 693.07 846.23 680.04 875.64"/><polygon class="cls-3" points="667.01 846.23 680.04 846.23 680.04 875.64 667.01 846.23"/><polygon class="cls-4" points="679.87 875.47 680.21 875.47 680.04 875.64 679.87 875.47"/><path class="cls-3" d="M637.92,893.09l8.73-8.72L680,917.76l.05,0c0,9.79,0,17.4,0,17.4l-8.73-8.73Z"/><path class="cls-2" d="M680.05,935.21s0-7.61,0-17.4v-.1l33.34-33.34,8.73,8.72Z"/><polygon class="cls-5" points="713.43 884.37 722.16 875.64 722.16 893.09 713.43 884.37"/><rect class="cls-3" x="705.46" y="865.12" width="12.34" height="17.44" transform="translate(-409.46 759.14) rotate(-45)"/><polygon class="cls-6" points="692.38 863.31 709.83 863.31 701.1 872.03 692.38 863.31"/><polygon class="cls-6" points="650.26 863.31 667.71 863.31 659.01 872.01 650.26 863.31"/><polygon class="cls-7" points="637.92 875.64 637.92 875.64 650.26 863.31 659.01 872.01 646.65 884.37 637.92 875.64"/><polygon class="cls-8" points="646.65 884.37 659.01 872.01 680.12 893.01 701.1 872.03 713.43 884.37 680.04 917.76 646.65 884.37"/><polygon class="cls-6" points="637.92 893.09 637.92 875.64 646.65 884.37 637.92 893.09"/><path class="cls-7" d="M680.05,875.64h0l.16-.17,12.17-12.16L701.1,872l-21,21C680.12,883.28,680.11,875.71,680.05,875.64Z"/><path class="cls-3" d="M659,872l8.7-8.7,12.16,12.16.18.17h0c.06.07.07,7.64.07,17.37Z"/></g></svg>