<svg xmlns="http://www.w3.org/2000/svg" viewBox="0 0 750 1050"><defs><style>.cls-1{fill:#f1f2f2;}.cls-2{fill:#595959;}.cls-3{fill:#2d2d2d;}.cls-4{fill:#fff;stroke:#231f20;stroke-miterlimit:10;}.cls-5{fill:#434343;}.cls-6{fill:#161616;}.cls-7{fill:#1c1c1c;}</style></defs><g id="Layer_6" data-name="Layer 6"><rect class="cls-1" width="750" height="1050" rx="63.89"/></g><g id="Layer_5" data-name="Layer 5"><path d="M88.55,106.33H48V75.56a8.69,8.69,0,0,1,2.63-6.36,8.52,8.52,0,0,1,6.28-2.66H84V44.84H52.16a4.39,4.39,0,0,1-4.46-4.45,4.39,4.39,0,0,1,4.46-4.46H84a8.75,8.75,0,0,1,6.37,2.63A8.55,8.55,0,0,1,93,44.84v21.7a9,9,0,0,1-9,9H56.93V97.42H88.55a4.31,4.31,0,0,1,3.13,1.3,4.41,4.41,0,0,1,0,6.31A4.31,4.31,0,0,1,88.55,106.33Z"/><path d="M660.75,943.67h40.53v30.77a8.72,8.72,0,0,1-2.62,6.36,8.56,8.56,0,0,1-6.29,2.66H665.31v21.69h31.83a4.41,4.41,0,0,1,4.46,4.46,4.39,4.39,0,0,1-4.46,4.46H665.31a8.75,8.75,0,0,1-6.37-2.63,8.56,8.56,0,0,1-2.65-6.29V983.46a9,9,0,0,1,9-9h27.06V952.58H660.75a4.35,4.35,0,0,1-3.13-1.3,4.42,4.42,0,0,1,0-6.32A4.34,4.34,0,0,1,660.75,943.67Z"/><polygon class="cls-2" points="374.65 276 374.65 326.44 352.3 326.44 374.65 276"/><polygon class="cls-3" points="397 326.44 374.65 326.44 374.65 276 397 326.44"/><polygon class="cls-4" points="374.94 276.3 374.36 276.3 374.65 276.01 374.94 276.3"/><path class="cls-3" d="M446.88,246.08l-15,15-57.26-57.27-.1-.08c.05-16.78.09-29.83.09-29.83l15,15Z"/><path class="cls-2" d="M374.65,173.86s0,13-.09,29.83a.49.49,0,0,1,0,.17L317.39,261l-15-15Z"/><polygon class="cls-5" points="317.39 261.04 302.42 276 302.42 246.08 317.39 261.04"/><rect class="cls-3" x="309.9" y="264.14" width="21.16" height="29.92" transform="translate(-103.49 308.36) rotate(-45)"/><polygon class="cls-6" points="353.5 297.16 323.57 297.16 338.53 282.2 353.5 297.16"/><polygon class="cls-6" points="425.72 297.16 395.79 297.16 410.72 282.24 425.72 297.16"/><polygon points="446.88 276 446.88 276.01 425.72 297.16 410.72 282.24 431.92 261.04 446.88 276"/><polygon class="cls-7" points="431.92 261.04 410.72 282.24 374.51 246.22 338.53 282.2 317.39 261.04 374.66 203.77 431.92 261.04"/><polygon class="cls-6" points="446.88 246.08 446.88 276 431.92 261.04 446.88 246.08"/><path d="M374.65,276v0l-.29.28L353.5,297.16l-15-15,36-36C374.51,262.9,374.54,275.9,374.65,276Z"/><path class="cls-3" d="M410.72,282.24l-14.93,14.92L374.94,276.3l-.29-.28v0c-.11-.1-.14-13.1-.14-29.78Z"/><polygon class="cls-2" points="69.95 174.36 69.95 203.77 56.92 203.77 69.95 174.36"/><polygon class="cls-3" points="82.99 203.77 69.95 203.77 69.95 174.36 82.99 203.77"/><polygon class="cls-4" points="70.13 174.53 69.79 174.53 69.95 174.36 70.13 174.53"/><path class="cls-3" d="M112.07,156.91l-8.72,8.72L70,132.24l-.06-.05c0-9.79,0-17.4,0-17.4l8.73,8.73Z"/><path class="cls-2" d="M70,114.79s0,7.61,0,17.4a.17.17,0,0,1,0,.1L36.56,165.63l-8.72-8.72Z"/><polygon class="cls-5" points="36.56 165.63 27.84 174.36 27.84 156.91 36.56 165.63"/><rect class="cls-3" x="32.2" y="167.44" width="12.34" height="17.44" transform="translate(-113.33 78.73) rotate(-45)"/><polygon class="cls-6" points="57.62 186.69 40.17 186.69 48.9 177.97 57.62 186.69"/><polygon class="cls-6" points="99.73 186.69 82.28 186.69 90.99 177.99 99.73 186.69"/><polygon points="112.07 174.36 112.07 174.36 99.73 186.69 90.99 177.99 103.35 165.63 112.07 174.36"/><polygon class="cls-7" points="103.35 165.63 90.99 177.99 69.88 156.99 48.9 177.97 36.56 165.63 69.96 132.24 103.35 165.63"/><polygon class="cls-6" points="112.07 156.91 112.07 174.36 103.35 165.63 112.07 156.91"/><path d="M70,174.36h0l-.16.17L57.62,186.7,48.9,178l21-21C69.88,166.72,69.89,174.29,70,174.36Z"/><path class="cls-3" d="M91,178l-8.7,8.71L70.13,174.53l-.18-.17h0c-.06-.07-.07-7.64-.07-17.37Z"/><polygon class="cls-2" points="680.05 875.64 680.05 846.23 693.08 846.23 680.05 875.64"/><polygon class="cls-3" points="667.01 846.23 680.05 846.23 680.05 875.64 667.01 846.23"/><polygon class="cls-4" points="679.87 875.47 680.21 875.47 680.05 875.64 679.87 875.47"/><path class="cls-3" d="M637.93,893.09l8.72-8.72L680,917.76l.06,0c0,9.79-.05,17.4-.05,17.4l-8.73-8.73Z"/><path class="cls-2" d="M680.05,935.21s0-7.61.05-17.4a.17.17,0,0,1,0-.1l33.34-33.34,8.72,8.72Z"/><polygon class="cls-5" points="713.43 884.37 722.16 875.64 722.16 893.09 713.43 884.37"/><rect class="cls-3" x="705.46" y="865.11" width="12.34" height="17.44" transform="translate(-409.46 759.14) rotate(-45)"/><polygon class="cls-6" points="692.38 863.3 709.83 863.3 701.1 872.03 692.38 863.3"/><polygon class="cls-6" points="650.26 863.3 667.72 863.3 659.01 872.01 650.26 863.3"/><polygon points="637.93 875.64 637.93 875.64 650.26 863.3 659.01 872.01 646.65 884.37 637.93 875.64"/><polygon class="cls-7" points="646.65 884.37 659.01 872.01 680.12 893.01 701.1 872.03 713.43 884.37 680.04 917.76 646.65 884.37"/><polygon class="cls-6" points="637.93 893.09 637.93 875.64 646.65 884.37 637.93 893.09"/><path d="M680.05,875.64h0l.16-.17,12.17-12.16L701.1,872l-21,21C680.12,883.28,680.11,875.71,680.05,875.64Z"/><path class="cls-3" d="M659,872l8.7-8.7,12.16,12.16.18.17h0c.06.07.07,7.64.07,17.37Z"/><polygon class="cls-2" points="374.66 774.52 374.66 724.08 397 724.08 374.66 774.52"/><polygon class="cls-3" points="352.3 724.08 374.66 724.08 374.66 774.52 352.3 724.08"/><polygon class="cls-4" points="374.36 774.22 374.94 774.22 374.66 774.51 374.36 774.22"/><path class="cls-3" d="M302.42,804.44l15-15,57.26,57.27.09.09c-.05,16.77-.08,29.83-.08,29.83l-15-15Z"/><path class="cls-2" d="M374.66,876.67s0-13.06.08-29.83a.54.54,0,0,1,0-.18l57.18-57.18,15,15Z"/><polygon class="cls-5" points="431.92 789.48 446.88 774.52 446.88 804.44 431.92 789.48"/><rect class="cls-3" x="418.24" y="756.46" width="21.16" height="29.92" transform="translate(-419.88 529.17) rotate(-45)"/><polygon class="cls-6" points="395.81 753.36 425.73 753.36 410.77 768.32 395.81 753.36"/><polygon class="cls-6" points="323.58 753.36 353.51 753.36 338.58 768.28 323.58 753.36"/><polygon points="302.42 774.52 302.42 774.51 323.58 753.36 338.58 768.28 317.39 789.48 302.42 774.52"/><polygon class="cls-7" points="317.39 789.48 338.58 768.28 374.79 804.3 410.77 768.32 431.92 789.48 374.65 846.75 317.39 789.48"/><polygon class="cls-6" points="302.42 804.44 302.42 774.52 317.39 789.48 302.42 804.44"/><path d="M374.66,774.52h0l.28-.29,20.87-20.86,15,15-36,36C374.79,787.62,374.76,774.63,374.66,774.52Z"/><path class="cls-3" d="M338.58,768.29l14.93-14.93,20.85,20.86.3.29h0c.1.11.13,13.1.13,29.78Z"/></g></svg>