<svg xmlns="http://www.w3.org/2000/svg" viewBox="0 0 750 1050"><defs><style>.cls-1{fill:#f1f2f2;}.cls-2{fill:#595959;}.cls-3{fill:#2d2d2d;}.cls-4{fill:#fff;stroke:#231f20;stroke-miterlimit:10;}.cls-5{fill:#434343;}.cls-6{fill:#161616;}.cls-7{fill:#1c1c1c;}</style></defs><g id="Layer_6" data-name="Layer 6"><rect class="cls-1" width="750" height="1050" rx="63.89"/></g><g id="Layer_5" data-name="Layer 5"><polygon class="cls-2" points="69.95 174.36 69.95 203.77 56.92 203.77 69.95 174.36"/><polygon class="cls-3" points="82.99 203.77 69.95 203.77 69.95 174.36 82.99 203.77"/><polygon class="cls-4" points="70.13 174.53 69.79 174.53 69.95 174.36 70.13 174.53"/><path class="cls-3" d="M112.07,156.91l-8.72,8.72L70,132.24l-.06-.05c0-9.79,0-17.4,0-17.4l8.73,8.73Z"/><path class="cls-2" d="M70,114.79s0,7.61,0,17.4a.17.17,0,0,1,0,.1L36.56,165.63l-8.72-8.72Z"/><polygon class="cls-5" points="36.56 165.63 27.84 174.36 27.84 156.91 36.56 165.63"/><rect class="cls-3" x="32.2" y="167.44" width="12.34" height="17.44" transform="translate(-113.33 78.73) rotate(-45)"/><polygon class="cls-6" points="57.62 186.69 40.17 186.69 48.9 177.97 57.62 186.69"/><polygon class="cls-6" points="99.73 186.69 82.28 186.69 90.99 177.99 99.73 186.69"/><polygon points="112.07 174.36 112.07 174.36 99.73 186.69 90.99 177.99 103.35 165.63 112.07 174.36"/><polygon class="cls-7" points="103.35 165.63 90.99 177.99 69.88 156.99 48.9 177.97 36.56 165.63 69.96 132.24 103.35 165.63"/><polygon class="cls-6" points="112.07 156.91 112.07 174.36 103.35 165.63 112.07 156.91"/><path d="M70,174.36h0l-.16.17L57.62,186.69,48.9,178l21-21C69.88,166.72,69.89,174.29,70,174.36Z"/><path class="cls-3" d="M91,178l-8.7,8.7L70.13,174.53l-.18-.17h0c-.06-.07-.07-7.64-.07-17.37Z"/><polygon class="cls-2" points="680.05 875.64 680.05 846.23 693.08 846.23 680.05 875.64"/><polygon class="cls-3" points="667.01 846.23 680.05 846.23 680.05 875.64 667.01 846.23"/><polygon class="cls-4" points="679.87 875.47 680.21 875.47 680.05 875.64 679.87 875.47"/><path class="cls-3" d="M637.93,893.09l8.72-8.72L680,917.76l.06,0c0,9.79-.05,17.4-.05,17.4l-8.73-8.73Z"/><path class="cls-2" d="M680.05,935.21s0-7.61.05-17.4a.17.17,0,0,1,0-.1l33.34-33.34,8.72,8.72Z"/><polygon class="cls-5" points="713.43 884.37 722.16 875.64 722.16 893.09 713.43 884.37"/><rect class="cls-3" x="705.46" y="865.11" width="12.34" height="17.44" transform="translate(-409.46 759.14) rotate(-45)"/><polygon class="cls-6" points="692.38 863.3 709.83 863.3 701.1 872.03 692.38 863.3"/><polygon class="cls-6" points="650.26 863.3 667.72 863.3 659.01 872.01 650.26 863.3"/><polygon points="637.93 875.64 637.93 875.64 650.26 863.3 659.01 872.01 646.65 884.37 637.93 875.64"/><polygon class="cls-7" points="646.65 884.37 659.01 872.01 680.12 893.01 701.1 872.03 713.43 884.37 680.04 917.76 646.65 884.37"/><polygon class="cls-6" points="637.93 893.09 637.93 875.64 646.65 884.37 637.93 893.09"/><path d="M680.05,875.64h0l.16-.17,12.17-12.16L701.1,872l-21,21C680.12,883.28,680.11,875.71,680.05,875.64Z"/><path class="cls-3" d="M659,872l8.7-8.7,12.16,12.16.18.17h0c.06.07.07,7.64.07,17.37Z"/><path d="M48.37,102V40.49a4.42,4.42,0,0,1,1.3-3.23,4.44,4.44,0,0,1,6.31,0,4.29,4.29,0,0,1,1.3,3.16V61.47L85.83,37.1a4.82,4.82,0,0,1,3.34-1.17,4.11,4.11,0,0,1,3.13,1.36,4.47,4.47,0,0,1,1.27,3.14,3.91,3.91,0,0,1-1.46,3L59.78,71l32.37,28a3.51,3.51,0,0,1,1.31,2.87A4.67,4.67,0,0,1,92.17,105,4.16,4.16,0,0,1,89,106.44a4.86,4.86,0,0,1-3.24-1.22L57.28,80.73V102a4.46,4.46,0,0,1-8.91,0Z"/><path d="M701.63,948v61.49a4.42,4.42,0,0,1-1.3,3.23,4.44,4.44,0,0,1-6.31,0,4.29,4.29,0,0,1-1.3-3.16V988.53l-28.55,24.37a4.93,4.93,0,0,1-3.34,1.17,4.11,4.11,0,0,1-3.13-1.36,4.47,4.47,0,0,1-1.27-3.14,3.91,3.91,0,0,1,1.46-3.05L690.22,979l-32.37-28a3.51,3.51,0,0,1-1.31-2.87,4.67,4.67,0,0,1,1.29-3.19,4.16,4.16,0,0,1,3.21-1.44,4.86,4.86,0,0,1,3.24,1.22l28.44,24.49V948a4.46,4.46,0,0,1,8.91,0Z"/><polygon class="cls-3" points="572.4 409.46 252.57 596.66 200.49 518.32 303.9 325.31 366.97 303.18 517.59 302.8 572.4 409.46"/><polygon class="cls-2" points="449.5 169.49 449.5 303.5 391.82 332.02 366.43 303.5 354.13 259.49 300.29 275.63 291.06 224.87 275.68 224.87 301.05 153.34 449.5 169.49"/><polygon points="449.5 169.49 481.54 98.82 471.95 67.68 443.04 106.44 449.5 42.22 429.7 55.41 410.74 96.74 403.78 51.7 394.45 36.74 376.82 98.07 374 38.44 353.11 60 345.89 100.33 334.22 66 313.11 55.11 315.56 109.11 283.17 64.47 276.63 82.55 301.06 153.34 449.5 169.49"/><polyline points="337.59 230.25 291.06 224.87 291.56 246.37 316.67 241.48 337.59 230.25"/><polygon points="366.44 303.5 326.45 431.41 389.27 497.48 460.87 412.84 435.04 304.57 391.82 332.02 366.44 303.5"/><polyline class="cls-6" points="449.5 169.49 485.5 207.43 492.67 246.37 522 277.33 517.59 302.8 474.41 334.79 430.45 320.89 433.56 271.46 396.22 246.37 399.33 200 391.82 163.21"/><polygon points="296.38 254.13 324.22 256.22 337.59 230.25 354.13 259.49 291.56 312.67 296.38 254.13"/><polygon class="cls-2" points="125.56 498.74 138.59 398 197.91 398 195.48 442.84 170.15 472.67 125.56 498.74"/><polygon points="252.57 596.66 170.15 472.67 125.56 498.74 155.48 609.18 177.6 640.54 252.57 596.66"/><polyline points="159.34 398 156.07 392.89 128.82 395.9 119.33 381.9 223.36 379.8 205.56 397.07 181.56 392 177.41 398"/><polyline class="cls-3" points="151.05 381.26 143.56 243.68 168 182.33 191.06 262.78 186.27 380.55"/><polygon class="cls-3" points="177.6 640.54 497.43 453.34 549.51 531.68 446.1 724.68 383.03 746.81 232.42 747.2 177.6 640.54"/><polygon class="cls-2" points="300.5 880.51 300.5 746.5 358.19 717.98 383.57 746.5 395.88 790.51 449.72 774.37 458.94 825.13 474.33 825.13 448.95 896.66 300.5 880.51"/><polygon points="300.5 880.51 268.47 951.18 278.05 982.32 306.96 943.56 300.5 1007.78 320.3 994.59 339.26 953.26 346.22 998.3 355.56 1013.26 373.19 951.92 376 1011.55 396.89 990 404.11 949.67 415.78 984 436.89 994.89 434.45 940.89 466.83 985.53 473.37 967.45 448.95 896.66 300.5 880.51"/><polyline points="412.41 819.74 458.95 825.13 458.45 803.63 433.33 808.52 412.41 819.74"/><polygon points="383.57 746.5 423.56 618.59 360.73 552.52 289.13 637.16 314.97 745.43 358.19 717.98 383.57 746.5"/><polyline class="cls-6" points="300.5 880.51 264.5 842.57 257.33 803.63 228 772.67 232.42 747.2 275.6 715.21 319.56 729.11 316.45 778.54 353.78 803.63 350.67 850 358.19 886.78"/><polygon points="453.63 795.87 425.78 793.78 412.41 819.74 395.88 790.51 458.45 737.33 453.63 795.87"/><polygon class="cls-2" points="624.45 551.26 611.41 652 552.09 652 554.52 607.16 579.86 577.33 624.45 551.26"/><polygon points="497.43 453.34 579.86 577.33 624.45 551.26 594.52 440.81 572.4 409.46 497.43 453.34"/><polyline points="590.67 652 593.93 657.11 621.19 654.1 630.67 668.1 526.64 670.2 544.45 652.92 568.45 658 572.59 652"/><polyline class="cls-3" points="598.96 668.74 606.45 806.32 582 867.67 558.94 787.22 563.73 669.45"/></g></svg>