<svg xmlns="http://www.w3.org/2000/svg" viewBox="0 0 750 1050"><defs><style>.cls-1{fill:#f1f2f2;}.cls-2{fill:#595959;}.cls-3{fill:#2d2d2d;}.cls-4{fill:#fff;stroke:#231f20;stroke-miterlimit:10;}.cls-5{fill:#434343;}.cls-6{fill:#161616;}.cls-7{fill:#1c1c1c;}</style></defs><g id="Layer_6" data-name="Layer 6"><rect class="cls-1" width="750" height="1050" rx="63.89"/></g><g id="Layer_5" data-name="Layer 5"><path d="M64.41,97.42H85.05V75.56H58.1V35.93H89.51A4.53,4.53,0,0,1,94,40.39a4.44,4.44,0,0,1-4.45,4.45H67.12V66.65H85.05A9.05,9.05,0,0,1,94,75.56V97.42a8.95,8.95,0,0,1-8.91,8.91H64.41A15.21,15.21,0,0,1,58.52,105l-6.73-2.81A4.19,4.19,0,0,1,49.08,98a4.47,4.47,0,0,1,1.22-3.16,3.92,3.92,0,0,1,3-1.29,7.65,7.65,0,0,1,3.08.79l5.89,2.49A4.1,4.1,0,0,0,64.41,97.42Z"/><path d="M684.89,952.58H664.25v21.86h27v39.63H659.79a4.53,4.53,0,0,1-4.45-4.46,4.46,4.46,0,0,1,4.45-4.46h22.39v-21.8H664.25a9.05,9.05,0,0,1-8.91-8.91V952.58a8.95,8.95,0,0,1,8.91-8.91h20.64a15.21,15.21,0,0,1,5.89,1.32l6.73,2.81a4.19,4.19,0,0,1,2.71,4.25,4.47,4.47,0,0,1-1.22,3.16,3.92,3.92,0,0,1-3,1.29,7.61,7.61,0,0,1-3.08-.79l-5.89-2.5A4.18,4.18,0,0,0,684.89,952.58Z"/><polygon class="cls-2" points="200.03 276 200.03 326.44 177.68 326.44 200.03 276"/><polygon class="cls-3" points="222.38 326.44 200.03 326.44 200.03 276 222.38 326.44"/><polygon class="cls-4" points="200.32 276.3 199.74 276.3 200.03 276.01 200.32 276.3"/><path class="cls-3" d="M272.26,246.08l-15,15L200,203.77l-.1-.08c.05-16.78.08-29.83.08-29.83l15,15Z"/><path class="cls-2" d="M200,173.86s0,13-.08,29.83a.48.48,0,0,1,0,.17L142.76,261l-15-15Z"/><polygon class="cls-5" points="142.76 261.04 127.8 276 127.8 246.08 142.76 261.04"/><rect class="cls-3" x="135.28" y="264.14" width="21.16" height="29.92" transform="translate(-154.63 184.88) rotate(-45)"/><polygon class="cls-6" points="178.88 297.16 148.95 297.16 163.91 282.2 178.88 297.16"/><polygon class="cls-6" points="251.1 297.16 221.17 297.16 236.1 282.24 251.1 297.16"/><polygon points="272.26 276 272.26 276.01 251.1 297.16 236.1 282.24 257.3 261.04 272.26 276"/><polygon class="cls-7" points="257.3 261.04 236.1 282.24 199.89 246.22 163.91 282.2 142.76 261.04 200.04 203.77 257.3 261.04"/><polygon class="cls-6" points="272.26 246.08 272.26 276 257.3 261.04 272.26 246.08"/><path d="M200,276v0l-.28.28-20.86,20.86-15-15,36-36C199.89,262.9,199.92,275.9,200,276Z"/><path class="cls-3" d="M236.1,282.24l-14.93,14.92L200.32,276.3,200,276v0c-.1-.1-.13-13.1-.13-29.78Z"/><polygon class="cls-2" points="69.95 174.36 69.95 203.77 56.92 203.77 69.95 174.36"/><polygon class="cls-3" points="82.99 203.77 69.95 203.77 69.95 174.36 82.99 203.77"/><polygon class="cls-4" points="70.13 174.53 69.79 174.53 69.95 174.36 70.13 174.53"/><path class="cls-3" d="M112.07,156.91l-8.72,8.72L70,132.24l-.06-.05c0-9.79,0-17.4,0-17.4l8.73,8.73Z"/><path class="cls-2" d="M70,114.79s0,7.61,0,17.4a.17.17,0,0,1,0,.1L36.56,165.63l-8.72-8.72Z"/><polygon class="cls-5" points="36.56 165.63 27.84 174.36 27.84 156.91 36.56 165.63"/><rect class="cls-3" x="32.2" y="167.44" width="12.34" height="17.44" transform="translate(-113.33 78.73) rotate(-45)"/><polygon class="cls-6" points="57.62 186.69 40.17 186.69 48.9 177.97 57.62 186.69"/><polygon class="cls-6" points="99.73 186.69 82.28 186.69 90.99 177.99 99.73 186.69"/><polygon points="112.07 174.36 112.07 174.36 99.73 186.69 90.99 177.99 103.35 165.63 112.07 174.36"/><polygon class="cls-7" points="103.35 165.63 90.99 177.99 69.88 156.99 48.9 177.97 36.56 165.63 69.96 132.24 103.35 165.63"/><polygon class="cls-6" points="112.07 156.91 112.07 174.36 103.35 165.63 112.07 156.91"/><path d="M70,174.36h0l-.16.17L57.62,186.7,48.9,178l21-21C69.88,166.72,69.89,174.29,70,174.36Z"/><path class="cls-3" d="M91,178l-8.7,8.71L70.13,174.53l-.18-.17h0c-.06-.07-.07-7.64-.07-17.37Z"/><polygon class="cls-2" points="680.05 875.64 680.05 846.23 693.08 846.23 680.05 875.64"/><polygon class="cls-3" points="667.01 846.23 680.05 846.23 680.05 875.64 667.01 846.23"/><polygon class="cls-4" points="679.87 875.47 680.21 875.47 680.05 875.64 679.87 875.47"/><path class="cls-3" d="M637.93,893.09l8.72-8.72L680,917.76l.06,0c0,9.79-.05,17.4-.05,17.4l-8.73-8.73Z"/><path class="cls-2" d="M680.05,935.21s0-7.61.05-17.4a.17.17,0,0,1,0-.1l33.34-33.34,8.72,8.72Z"/><polygon class="cls-5" points="713.43 884.37 722.16 875.64 722.16 893.09 713.43 884.37"/><rect class="cls-3" x="705.46" y="865.11" width="12.34" height="17.44" transform="translate(-409.46 759.14) rotate(-45)"/><polygon class="cls-6" points="692.38 863.3 709.83 863.3 701.1 872.03 692.38 863.3"/><polygon class="cls-6" points="650.26 863.3 667.72 863.3 659.01 872.01 650.26 863.3"/><polygon points="637.93 875.64 637.93 875.64 650.26 863.3 659.01 872.01 646.65 884.37 637.93 875.64"/><polygon class="cls-7" points="646.65 884.37 659.01 872.01 680.12 893.01 701.1 872.03 713.43 884.37 680.04 917.76 646.65 884.37"/><polygon class="cls-6" points="637.93 893.09 637.93 875.64 646.65 884.37 637.93 893.09"/><path d="M680.05,875.64h0l.16-.17,12.17-12.16L701.1,872l-21,21C680.12,883.28,680.11,875.71,680.05,875.64Z"/><path class="cls-3" d="M659,872l8.7-8.7,12.16,12.16.18.17h0c.06.07.07,7.64.07,17.37Z"/><polygon class="cls-2" points="549.28 774.52 549.28 724.08 571.62 724.08 549.28 774.52"/><polygon class="cls-3" points="526.92 724.08 549.28 724.08 549.28 774.52 526.92 724.08"/><polygon class="cls-4" points="548.98 774.22 549.57 774.22 549.28 774.51 548.98 774.22"/><path class="cls-3" d="M477,804.44l15-15,57.26,57.27.09.09c-.05,16.77-.08,29.83-.08,29.83l-15-15Z"/><path class="cls-2" d="M549.28,876.67s0-13.06.08-29.83a.54.54,0,0,1,0-.18l57.18-57.18,15,15Z"/><polygon class="cls-5" points="606.54 789.48 621.5 774.52 621.5 804.44 606.54 789.48"/><rect class="cls-3" x="592.87" y="756.46" width="21.16" height="29.92" transform="translate(-368.73 652.64) rotate(-45)"/><polygon class="cls-6" points="570.43 753.36 600.35 753.36 585.39 768.32 570.43 753.36"/><polygon class="cls-6" points="498.2 753.36 528.13 753.36 513.2 768.28 498.2 753.36"/><polygon points="477.04 774.52 477.04 774.51 498.2 753.36 513.2 768.28 492.01 789.48 477.04 774.52"/><polygon class="cls-7" points="492.01 789.48 513.2 768.28 549.41 804.3 585.39 768.32 606.54 789.48 549.27 846.75 492.01 789.48"/><polygon class="cls-6" points="477.04 804.44 477.04 774.52 492.01 789.48 477.04 804.44"/><path d="M549.28,774.52h0l.29-.29,20.86-20.86,15,15-36,36C549.41,787.62,549.39,774.63,549.28,774.52Z"/><path class="cls-3" d="M513.2,768.29l14.93-14.93L549,774.22l.3.29h0c.11.11.13,13.1.13,29.78Z"/><polygon class="cls-2" points="549.27 276 549.27 326.44 526.92 326.44 549.27 276"/><polygon class="cls-3" points="571.62 326.44 549.27 326.44 549.27 276 571.62 326.44"/><polygon class="cls-4" points="549.57 276.3 548.98 276.3 549.27 276.01 549.57 276.3"/><path class="cls-3" d="M621.5,246.08l-15,15-57.26-57.27-.1-.08c.05-16.78.09-29.83.09-29.83l15,15Z"/><path class="cls-2" d="M549.27,173.86s0,13-.09,29.83a.25.25,0,0,1,0,.17L492,261l-15-15Z"/><polygon class="cls-5" points="492.01 261.04 477.04 276 477.04 246.08 492.01 261.04"/><rect class="cls-3" x="484.52" y="264.14" width="21.16" height="29.92" transform="translate(-52.34 431.84) rotate(-45)"/><polygon class="cls-6" points="528.12 297.16 498.19 297.16 513.15 282.2 528.12 297.16"/><polygon class="cls-6" points="600.34 297.16 570.41 297.16 585.34 282.24 600.34 297.16"/><polygon points="621.5 276 621.5 276.01 600.34 297.16 585.34 282.24 606.54 261.04 621.5 276"/><polygon class="cls-7" points="606.54 261.04 585.34 282.24 549.13 246.22 513.15 282.2 492.01 261.04 549.28 203.77 606.54 261.04"/><polygon class="cls-6" points="621.5 246.08 621.5 276 606.54 261.04 621.5 246.08"/><path d="M549.27,276v0l-.29.28-20.86,20.86-15-15,36-36C549.14,262.9,549.16,275.9,549.27,276Z"/><path class="cls-3" d="M585.34,282.24l-14.92,14.92L549.57,276.3l-.3-.28v0c-.11-.1-.13-13.1-.13-29.78Z"/><polygon class="cls-2" points="200.04 774.52 200.04 724.08 222.38 724.08 200.04 774.52"/><polygon class="cls-3" points="177.68 724.08 200.04 724.08 200.04 774.52 177.68 724.08"/><polygon class="cls-4" points="199.74 774.22 200.32 774.22 200.04 774.51 199.74 774.22"/><path class="cls-3" d="M127.8,804.44l15-15L200,846.75l.1.09c-.05,16.77-.08,29.83-.08,29.83l-15-15Z"/><path class="cls-2" d="M200,876.67s0-13.06.08-29.83a.54.54,0,0,1,0-.18l57.18-57.18,15,15Z"/><polygon class="cls-5" points="257.3 789.48 272.26 774.52 272.26 804.44 257.3 789.48"/><rect class="cls-3" x="243.62" y="756.46" width="21.16" height="29.92" transform="translate(-471.02 405.69) rotate(-45)"/><polygon class="cls-6" points="221.19 753.36 251.11 753.36 236.15 768.32 221.19 753.36"/><polygon class="cls-6" points="148.96 753.36 178.89 753.36 163.96 768.28 148.96 753.36"/><polygon points="127.8 774.52 127.8 774.51 148.96 753.36 163.96 768.28 142.76 789.48 127.8 774.52"/><polygon class="cls-7" points="142.76 789.48 163.96 768.28 200.17 804.3 236.15 768.32 257.3 789.48 200.03 846.75 142.76 789.48"/><polygon class="cls-6" points="127.8 804.44 127.8 774.52 142.76 789.48 127.8 804.44"/><path d="M200,774.52h0l.28-.29,20.86-20.86,15,15-36,36C200.17,787.62,200.14,774.63,200,774.52Z"/><path class="cls-3" d="M164,768.29l14.93-14.93,20.85,20.86.3.29h0c.1.11.13,13.1.13,29.78Z"/><polygon class="cls-2" points="374.64 550.85 374.64 601.29 352.3 601.29 374.64 550.85"/><polygon class="cls-3" points="397 601.29 374.64 601.29 374.64 550.85 397 601.29"/><polygon class="cls-4" points="374.94 551.15 374.36 551.15 374.64 550.87 374.94 551.15"/><path class="cls-3" d="M446.88,520.93l-15,15-57.26-57.27-.09-.08c.05-16.78.08-29.83.08-29.83l15,15Z"/><path class="cls-2" d="M374.64,448.71s0,13.05-.08,29.83a.49.49,0,0,1,0,.17l-57.18,57.18-15-15Z"/><polygon class="cls-5" points="317.38 535.89 302.42 550.85 302.42 520.93 317.38 535.89"/><rect class="cls-3" x="309.89" y="538.99" width="21.16" height="29.92" transform="translate(-297.84 388.86) rotate(-45)"/><polygon class="cls-6" points="353.49 572.01 323.57 572.01 338.53 557.05 353.49 572.01"/><polygon class="cls-6" points="425.71 572.01 395.79 572.01 410.72 557.09 425.71 572.01"/><polygon points="446.88 550.85 446.88 550.87 425.71 572.01 410.72 557.09 431.91 535.89 446.88 550.85"/><polygon class="cls-7" points="431.91 535.89 410.72 557.09 374.51 521.07 338.53 557.05 317.38 535.89 374.65 478.62 431.91 535.89"/><polygon class="cls-6" points="446.88 520.93 446.88 550.85 431.91 535.89 446.88 520.93"/><path d="M374.64,550.85v0l-.29.28L353.49,572l-15-15,36-36C374.51,537.75,374.53,550.75,374.64,550.85Z"/><path class="cls-3" d="M410.72,557.09,395.79,572l-20.85-20.86-.3-.28v0c-.11-.1-.13-13.1-.13-29.78Z"/></g></svg>