<svg xmlns="http://www.w3.org/2000/svg" viewBox="0 0 750 1050"><defs><style>.cls-1{fill:#f1f2f2;}.cls-2{fill:#595959;}.cls-3{fill:#2d2d2d;}.cls-4{fill:#fff;stroke:#231f20;stroke-miterlimit:10;}.cls-5{fill:#434343;}.cls-6{fill:#161616;}.cls-7{fill:#1c1c1c;}</style></defs><g id="Layer_6" data-name="Layer 6"><rect class="cls-1" width="750" height="1050" rx="63.89"/></g><g id="Layer_5" data-name="Layer 5"><path d="M93,44.85V61.56A12.74,12.74,0,0,1,89.4,71a13.23,13.23,0,0,1,3.71,9v17.4a8.53,8.53,0,0,1-2.65,6.29,8.72,8.72,0,0,1-6.36,2.62H52.58a4.46,4.46,0,1,1,0-8.91H84V80a4.46,4.46,0,0,0-1.3-3.21,4.23,4.23,0,0,0-3.16-1.35H61.6a4.35,4.35,0,0,1-3.16-1.28,4.47,4.47,0,0,1,3.16-7.64h18a4.35,4.35,0,0,0,3.13-1.29,4.28,4.28,0,0,0,1.33-3.16V44.85H52.26a4.46,4.46,0,1,1,0-8.92H84.1A8.93,8.93,0,0,1,93,44.85Z"/><path d="M656.29,1005.15V988.44A12.74,12.74,0,0,1,659.9,979a13.23,13.23,0,0,1-3.71-9v-17.4a8.53,8.53,0,0,1,2.65-6.29,8.72,8.72,0,0,1,6.36-2.62h31.52a4.46,4.46,0,1,1,0,8.91H665.31V970a4.46,4.46,0,0,0,1.3,3.21,4.23,4.23,0,0,0,3.16,1.35H687.7a4.35,4.35,0,0,1,3.16,1.28,4.47,4.47,0,0,1-3.16,7.64h-18a4.32,4.32,0,0,0-3.13,1.3,4.25,4.25,0,0,0-1.33,3.15v17.24H697a4.46,4.46,0,1,1,0,8.92H665.2a8.93,8.93,0,0,1-8.91-8.92Z"/><polygon class="cls-2" points="69.95 174.36 69.95 203.77 56.92 203.77 69.95 174.36"/><polygon class="cls-3" points="82.99 203.77 69.95 203.77 69.95 174.36 82.99 203.77"/><polygon class="cls-4" points="70.13 174.53 69.79 174.53 69.95 174.36 70.13 174.53"/><path class="cls-3" d="M112.07,156.91l-8.72,8.72L70,132.24l-.06-.05c0-9.79,0-17.4,0-17.4l8.73,8.73Z"/><path class="cls-2" d="M70,114.79s0,7.61,0,17.4a.17.17,0,0,1,0,.1L36.56,165.63l-8.72-8.72Z"/><polygon class="cls-5" points="36.56 165.63 27.84 174.36 27.84 156.91 36.56 165.63"/><rect class="cls-3" x="32.2" y="167.44" width="12.34" height="17.44" transform="translate(-113.33 78.73) rotate(-45)"/><polygon class="cls-6" points="57.62 186.7 40.17 186.7 48.9 177.97 57.62 186.7"/><polygon class="cls-6" points="99.73 186.7 82.28 186.7 90.99 177.99 99.73 186.7"/><polygon points="112.07 174.36 112.07 174.36 99.73 186.7 90.99 177.99 103.35 165.63 112.07 174.36"/><polygon class="cls-7" points="103.35 165.63 90.99 177.99 69.88 156.99 48.9 177.97 36.56 165.63 69.96 132.24 103.35 165.63"/><polygon class="cls-6" points="112.07 156.91 112.07 174.36 103.35 165.63 112.07 156.91"/><path d="M70,174.36h0l-.16.17L57.62,186.7,48.9,178l21-21C69.88,166.72,69.89,174.29,70,174.36Z"/><path class="cls-3" d="M91,178l-8.7,8.71L70.13,174.53l-.18-.17h0c-.06-.07-.07-7.64-.07-17.37Z"/><polygon class="cls-2" points="680.05 875.64 680.05 846.23 693.08 846.23 680.05 875.64"/><polygon class="cls-3" points="667.01 846.23 680.05 846.23 680.05 875.64 667.01 846.23"/><polygon class="cls-4" points="679.87 875.47 680.21 875.47 680.05 875.64 679.87 875.47"/><path class="cls-3" d="M637.93,893.09l8.72-8.72L680,917.76l.06,0c0,9.79-.05,17.4-.05,17.4l-8.73-8.73Z"/><path class="cls-2" d="M680.05,935.21s0-7.61.05-17.4a.17.17,0,0,1,0-.1l33.34-33.34,8.72,8.72Z"/><polygon class="cls-5" points="713.43 884.37 722.16 875.64 722.16 893.09 713.43 884.37"/><rect class="cls-3" x="705.46" y="865.12" width="12.34" height="17.44" transform="translate(-409.46 759.14) rotate(-45)"/><polygon class="cls-6" points="692.38 863.31 709.83 863.31 701.1 872.03 692.38 863.31"/><polygon class="cls-6" points="650.26 863.31 667.72 863.31 659.01 872.01 650.26 863.31"/><polygon points="637.93 875.64 637.93 875.64 650.26 863.31 659.01 872.01 646.65 884.37 637.93 875.64"/><polygon class="cls-7" points="646.65 884.37 659.01 872.01 680.12 893.01 701.1 872.03 713.43 884.37 680.04 917.76 646.65 884.37"/><polygon class="cls-6" points="637.93 893.09 637.93 875.64 646.65 884.37 637.93 893.09"/><path d="M680.05,875.64h0l.16-.17,12.17-12.16L701.1,872l-21,21C680.12,883.28,680.11,875.71,680.05,875.64Z"/><path class="cls-3" d="M659,872l8.7-8.7,12.16,12.16.18.17h0c.06.07.07,7.64.07,17.37Z"/><polygon class="cls-2" points="374.64 276 374.64 326.44 352.3 326.44 374.64 276"/><polygon class="cls-3" points="397 326.44 374.64 326.44 374.64 276 397 326.44"/><polygon class="cls-4" points="374.94 276.3 374.36 276.3 374.64 276.02 374.94 276.3"/><path class="cls-3" d="M446.88,246.08l-15,15-57.26-57.27-.1-.08c.05-16.78.08-29.83.08-29.83l15,15Z"/><path class="cls-2" d="M374.64,173.86s0,13-.08,29.83a.48.48,0,0,1,0,.17L317.38,261l-15-15Z"/><polygon class="cls-5" points="317.38 261.04 302.42 276 302.42 246.08 317.38 261.04"/><rect class="cls-3" x="309.9" y="264.14" width="21.16" height="29.92" transform="translate(-103.49 308.36) rotate(-45)"/><polygon class="cls-6" points="353.5 297.16 323.57 297.16 338.53 282.2 353.5 297.16"/><polygon class="cls-6" points="425.72 297.16 395.79 297.16 410.72 282.24 425.72 297.16"/><polygon points="446.88 276 446.88 276.02 425.72 297.16 410.72 282.24 431.92 261.04 446.88 276"/><polygon class="cls-7" points="431.92 261.04 410.72 282.24 374.51 246.22 338.53 282.2 317.38 261.04 374.66 203.77 431.92 261.04"/><polygon class="cls-6" points="446.88 246.08 446.88 276 431.92 261.04 446.88 246.08"/><path d="M374.64,276v0l-.28.28L353.5,297.16l-15-15,36-36C374.51,262.9,374.54,275.9,374.64,276Z"/><path class="cls-3" d="M410.72,282.24l-14.93,14.92L374.94,276.3l-.3-.28v0c-.1-.1-.13-13.1-.13-29.78Z"/><polygon class="cls-2" points="374.66 774.52 374.66 724.08 397 724.08 374.66 774.52"/><polygon class="cls-3" points="352.3 724.08 374.66 724.08 374.66 774.52 352.3 724.08"/><polygon class="cls-4" points="374.36 774.22 374.94 774.22 374.66 774.51 374.36 774.22"/><path class="cls-3" d="M302.42,804.44l15-15,57.26,57.27.1.09c-.05,16.78-.08,29.83-.08,29.83l-15-15Z"/><path class="cls-2" d="M374.66,876.67s0-13,.08-29.83a.54.54,0,0,1,0-.18l57.18-57.18,15,15Z"/><polygon class="cls-5" points="431.92 789.48 446.88 774.52 446.88 804.45 431.92 789.48"/><rect class="cls-3" x="418.24" y="756.46" width="21.16" height="29.92" transform="translate(-419.88 529.17) rotate(-45)"/><polygon class="cls-6" points="395.81 753.36 425.73 753.36 410.77 768.32 395.81 753.36"/><polygon class="cls-6" points="323.58 753.36 353.51 753.36 338.58 768.29 323.58 753.36"/><polygon points="302.42 774.52 302.42 774.51 323.58 753.36 338.58 768.29 317.38 789.48 302.42 774.52"/><polygon class="cls-7" points="317.38 789.48 338.58 768.29 374.79 804.3 410.77 768.32 431.92 789.48 374.64 846.75 317.38 789.48"/><polygon class="cls-6" points="302.42 804.45 302.42 774.52 317.38 789.48 302.42 804.45"/><path d="M374.66,774.52h0l.28-.29,20.86-20.86,15,15-36,36C374.79,787.62,374.76,774.63,374.66,774.52Z"/><path class="cls-3" d="M338.58,768.29l14.93-14.93,20.85,20.86.3.29h0c.1.11.13,13.1.13,29.78Z"/><polygon class="cls-2" points="374.64 550.85 374.64 601.29 352.3 601.29 374.64 550.85"/><polygon class="cls-3" points="397 601.29 374.64 601.29 374.64 550.85 397 601.29"/><polygon class="cls-4" points="374.94 551.15 374.36 551.15 374.64 550.87 374.94 551.15"/><path class="cls-3" d="M446.88,520.93l-15,15-57.26-57.27-.1-.08c.05-16.78.08-29.83.08-29.83l15,15Z"/><path class="cls-2" d="M374.64,448.71s0,13.05-.08,29.83a.48.48,0,0,1,0,.17l-57.18,57.18-15-15Z"/><polygon class="cls-5" points="317.38 535.89 302.42 550.85 302.42 520.93 317.38 535.89"/><rect class="cls-3" x="309.9" y="538.99" width="21.16" height="29.92" transform="translate(-297.84 388.86) rotate(-45)"/><polygon class="cls-6" points="353.5 572.01 323.57 572.01 338.53 557.05 353.5 572.01"/><polygon class="cls-6" points="425.72 572.01 395.79 572.01 410.72 557.09 425.72 572.01"/><polygon points="446.88 550.85 446.88 550.87 425.72 572.01 410.72 557.09 431.92 535.89 446.88 550.85"/><polygon class="cls-7" points="431.92 535.89 410.72 557.09 374.51 521.07 338.53 557.05 317.38 535.89 374.66 478.62 431.92 535.89"/><polygon class="cls-6" points="446.88 520.93 446.88 550.85 431.92 535.89 446.88 520.93"/><path d="M374.64,550.85v0l-.28.28L353.5,572l-15-15,36-36C374.51,537.75,374.54,550.75,374.64,550.85Z"/><path class="cls-3" d="M410.72,557.09,395.79,572l-20.85-20.86-.3-.28v0c-.1-.1-.13-13.1-.13-29.78Z"/></g></svg>