<svg xmlns="http://www.w3.org/2000/svg" viewBox="0 0 750 1050"><defs><style>.cls-1{fill:#f1f2f2;}.cls-2{fill:#595959;}.cls-3{fill:#2d2d2d;}.cls-4{fill:#fff;stroke:#231f20;stroke-miterlimit:10;}.cls-5{fill:#434343;}.cls-6{fill:#161616;}.cls-7{fill:#1c1c1c;}</style></defs><g id="Layer_6" data-name="Layer 6"><rect class="cls-1" width="750" height="1050" rx="63.89"/></g><g id="Layer_5" data-name="Layer 5"><polygon class="cls-2" points="200.03 276 200.03 326.44 177.68 326.44 200.03 276"/><polygon class="cls-3" points="222.38 326.44 200.03 326.44 200.03 276 222.38 326.44"/><polygon class="cls-4" points="200.32 276.3 199.74 276.3 200.03 276.02 200.32 276.3"/><path class="cls-3" d="M272.26,246.08l-15,15L200,203.77l-.1-.08c.05-16.78.08-29.83.08-29.83l15,15Z"/><path class="cls-2" d="M200,173.86s0,13-.08,29.83a.48.48,0,0,1,0,.17L142.76,261l-15-15Z"/><polygon class="cls-5" points="142.76 261.04 127.8 276 127.8 246.08 142.76 261.04"/><rect class="cls-3" x="135.28" y="264.14" width="21.16" height="29.92" transform="translate(-154.63 184.88) rotate(-45)"/><polygon class="cls-6" points="178.88 297.16 148.95 297.16 163.91 282.2 178.88 297.16"/><polygon class="cls-6" points="251.1 297.16 221.17 297.16 236.1 282.24 251.1 297.16"/><polygon points="272.26 276 272.26 276.02 251.1 297.16 236.1 282.24 257.3 261.04 272.26 276"/><polygon class="cls-7" points="257.3 261.04 236.1 282.24 199.89 246.22 163.91 282.2 142.76 261.04 200.04 203.77 257.3 261.04"/><polygon class="cls-6" points="272.26 246.08 272.26 276 257.3 261.04 272.26 246.08"/><path d="M200,276v0l-.28.28-20.86,20.86-15-15,36-36C199.89,262.9,199.92,275.9,200,276Z"/><path class="cls-3" d="M236.1,282.24l-14.93,14.92L200.32,276.3,200,276v0c-.1-.1-.13-13.1-.13-29.78Z"/><polygon class="cls-2" points="69.95 174.36 69.95 203.77 56.92 203.77 69.95 174.36"/><polygon class="cls-3" points="82.99 203.77 69.95 203.77 69.95 174.36 82.99 203.77"/><polygon class="cls-4" points="70.13 174.53 69.79 174.53 69.95 174.36 70.13 174.53"/><path class="cls-3" d="M112.07,156.91l-8.72,8.72L70,132.24l-.06-.05c0-9.79,0-17.4,0-17.4l8.73,8.73Z"/><path class="cls-2" d="M70,114.79s0,7.61,0,17.4a.17.17,0,0,1,0,.1L36.56,165.63l-8.72-8.72Z"/><polygon class="cls-5" points="36.56 165.63 27.84 174.36 27.84 156.91 36.56 165.63"/><rect class="cls-3" x="32.2" y="167.44" width="12.34" height="17.44" transform="translate(-113.33 78.73) rotate(-45)"/><polygon class="cls-6" points="57.62 186.7 40.17 186.7 48.9 177.97 57.62 186.7"/><polygon class="cls-6" points="99.73 186.7 82.28 186.7 90.99 177.99 99.73 186.7"/><polygon points="112.07 174.36 112.07 174.36 99.73 186.7 90.99 177.99 103.35 165.63 112.07 174.36"/><polygon class="cls-7" points="103.35 165.63 90.99 177.99 69.88 156.99 48.9 177.97 36.56 165.63 69.96 132.24 103.35 165.63"/><polygon class="cls-6" points="112.07 156.91 112.07 174.36 103.35 165.63 112.07 156.91"/><path d="M70,174.36h0l-.16.17L57.62,186.7,48.9,178l21-21C69.88,166.72,69.89,174.29,70,174.36Z"/><path class="cls-3" d="M91,178l-8.7,8.71L70.13,174.53l-.18-.17h0c-.06-.07-.07-7.64-.07-17.37Z"/><polygon class="cls-2" points="680.05 875.64 680.05 846.23 693.08 846.23 680.05 875.64"/><polygon class="cls-3" points="667.01 846.23 680.05 846.23 680.05 875.64 667.01 846.23"/><polygon class="cls-4" points="679.87 875.47 680.21 875.47 680.05 875.64 679.87 875.47"/><path class="cls-3" d="M637.93,893.09l8.72-8.72L680,917.76l.06,0c0,9.79-.05,17.4-.05,17.4l-8.73-8.73Z"/><path class="cls-2" d="M680.05,935.21s0-7.61.05-17.4a.17.17,0,0,1,0-.1l33.34-33.34,8.72,8.72Z"/><polygon class="cls-5" points="713.43 884.37 722.16 875.64 722.16 893.09 713.43 884.37"/><rect class="cls-3" x="705.46" y="865.12" width="12.34" height="17.44" transform="translate(-409.46 759.14) rotate(-45)"/><polygon class="cls-6" points="692.38 863.31 709.83 863.31 701.1 872.03 692.38 863.31"/><polygon class="cls-6" points="650.26 863.31 667.72 863.31 659.01 872.01 650.26 863.31"/><polygon points="637.93 875.64 637.93 875.64 650.26 863.31 659.01 872.01 646.65 884.37 637.93 875.64"/><polygon class="cls-7" points="646.65 884.37 659.01 872.01 680.12 893.01 701.1 872.03 713.43 884.37 680.04 917.76 646.65 884.37"/><polygon class="cls-6" points="637.93 893.09 637.93 875.64 646.65 884.37 637.93 893.09"/><path d="M680.05,875.64h0l.16-.17,12.17-12.16L701.1,872l-21,21C680.12,883.28,680.11,875.71,680.05,875.64Z"/><path class="cls-3" d="M659,872l8.7-8.7,12.16,12.16.18.17h0c.06.07.07,7.64.07,17.37Z"/><polygon class="cls-2" points="549.28 591.11 549.28 540.67 571.62 540.67 549.28 591.11"/><polygon class="cls-3" points="526.92 540.67 549.28 540.67 549.28 591.11 526.92 540.67"/><polygon class="cls-4" points="548.98 590.81 549.57 590.81 549.28 591.1 548.98 590.81"/><path class="cls-3" d="M477,621l15-15,57.26,57.28.09.08c-.05,16.78-.08,29.83-.08,29.83l-15-15Z"/><path class="cls-2" d="M549.28,693.26s0-13,.08-29.83a.54.54,0,0,1,0-.18l57.18-57.18,15,15Z"/><polygon class="cls-5" points="606.54 606.07 621.5 591.11 621.5 621.04 606.54 606.07"/><rect class="cls-3" x="592.87" y="573.05" width="21.16" height="29.92" transform="translate(-239.04 598.93) rotate(-45)"/><polygon class="cls-6" points="570.43 569.95 600.35 569.95 585.39 584.91 570.43 569.95"/><polygon class="cls-6" points="498.2 569.95 528.13 569.95 513.2 584.88 498.2 569.95"/><polygon points="477.04 591.11 477.04 591.1 498.2 569.95 513.2 584.88 492.01 606.07 477.04 591.11"/><polygon class="cls-7" points="492.01 606.07 513.2 584.88 549.41 620.89 585.39 584.91 606.54 606.07 549.27 663.35 492.01 606.07"/><polygon class="cls-6" points="477.04 621.04 477.04 591.11 492.01 606.07 477.04 621.04"/><path d="M549.28,591.11h0l.29-.29L570.43,570l15,15-36,36C549.41,604.21,549.39,591.22,549.28,591.11Z"/><path class="cls-3" d="M513.2,584.88,528.13,570,549,590.81l.3.29h0c.11.11.13,13.1.13,29.78Z"/><polygon class="cls-2" points="549.28 774.52 549.28 724.08 571.62 724.08 549.28 774.52"/><polygon class="cls-3" points="526.92 724.08 549.28 724.08 549.28 774.52 526.92 724.08"/><polygon class="cls-4" points="548.98 774.22 549.57 774.22 549.28 774.51 548.98 774.22"/><path class="cls-3" d="M477,804.44l15-15,57.26,57.27.09.09c-.05,16.78-.08,29.83-.08,29.83l-15-15Z"/><path class="cls-2" d="M549.28,876.67s0-13,.08-29.83a.54.54,0,0,1,0-.18l57.18-57.18,15,15Z"/><polygon class="cls-5" points="606.54 789.48 621.5 774.52 621.5 804.45 606.54 789.48"/><rect class="cls-3" x="592.87" y="756.46" width="21.16" height="29.92" transform="translate(-368.73 652.64) rotate(-45)"/><polygon class="cls-6" points="570.43 753.36 600.35 753.36 585.39 768.32 570.43 753.36"/><polygon class="cls-6" points="498.2 753.36 528.13 753.36 513.2 768.29 498.2 753.36"/><polygon points="477.04 774.52 477.04 774.51 498.2 753.36 513.2 768.29 492.01 789.48 477.04 774.52"/><polygon class="cls-7" points="492.01 789.48 513.2 768.29 549.41 804.3 585.39 768.32 606.54 789.48 549.27 846.75 492.01 789.48"/><polygon class="cls-6" points="477.04 804.45 477.04 774.52 492.01 789.48 477.04 804.45"/><path d="M549.28,774.52h0l.29-.29,20.86-20.86,15,15-36,36C549.41,787.62,549.39,774.63,549.28,774.52Z"/><path class="cls-3" d="M513.2,768.29l14.93-14.93L549,774.22l.3.29h0c.11.11.13,13.1.13,29.78Z"/><polygon class="cls-2" points="200.03 459.41 200.03 509.85 177.68 509.85 200.03 459.41"/><polygon class="cls-3" points="222.38 509.85 200.03 509.85 200.03 459.41 222.38 509.85"/><polygon class="cls-4" points="200.32 459.71 199.74 459.71 200.03 459.42 200.32 459.71"/><path class="cls-3" d="M272.26,429.49l-15,15L200,387.18l-.1-.09c.05-16.77.08-29.83.08-29.83l15,15Z"/><path class="cls-2" d="M200,357.26s0,13.06-.08,29.83a.54.54,0,0,1,0,.18l-57.18,57.18-15-15Z"/><polygon class="cls-5" points="142.76 444.45 127.8 459.41 127.8 429.49 142.76 444.45"/><rect class="cls-3" x="135.28" y="447.55" width="21.16" height="29.92" transform="translate(-284.32 238.6) rotate(-45)"/><polygon class="cls-6" points="178.88 480.57 148.95 480.57 163.91 465.61 178.88 480.57"/><polygon class="cls-6" points="251.1 480.57 221.17 480.57 236.1 465.64 251.1 480.57"/><polygon points="272.26 459.41 272.26 459.42 251.1 480.57 236.1 465.64 257.3 444.45 272.26 459.41"/><polygon class="cls-7" points="257.3 444.45 236.1 465.64 199.89 429.63 163.91 465.61 142.76 444.45 200.04 387.18 257.3 444.45"/><polygon class="cls-6" points="272.26 429.49 272.26 459.41 257.3 444.45 272.26 429.49"/><path d="M200,459.41h0l-.28.29-20.86,20.86-15-15,36-36C199.89,446.31,199.92,459.3,200,459.41Z"/><path class="cls-3" d="M236.1,465.64l-14.93,14.93-20.85-20.86-.3-.29h0c-.1-.11-.13-13.1-.13-29.78Z"/><polygon class="cls-2" points="549.27 276 549.27 326.44 526.92 326.44 549.27 276"/><polygon class="cls-3" points="571.62 326.44 549.27 326.44 549.27 276 571.62 326.44"/><polygon class="cls-4" points="549.57 276.3 548.98 276.3 549.27 276.02 549.57 276.3"/><path class="cls-3" d="M621.5,246.08l-15,15-57.26-57.27-.1-.08c.05-16.78.09-29.83.09-29.83l15,15Z"/><path class="cls-2" d="M549.27,173.86s0,13-.09,29.83a.25.25,0,0,1,0,.17L492,261l-15-15Z"/><polygon class="cls-5" points="492.01 261.04 477.04 276 477.04 246.08 492.01 261.04"/><rect class="cls-3" x="484.52" y="264.14" width="21.16" height="29.92" transform="translate(-52.34 431.84) rotate(-45)"/><polygon class="cls-6" points="528.12 297.16 498.19 297.16 513.15 282.2 528.12 297.16"/><polygon class="cls-6" points="600.34 297.16 570.41 297.16 585.34 282.24 600.34 297.16"/><polygon points="621.5 276 621.5 276.02 600.34 297.16 585.34 282.24 606.54 261.04 621.5 276"/><polygon class="cls-7" points="606.54 261.04 585.34 282.24 549.13 246.22 513.15 282.2 492.01 261.04 549.28 203.77 606.54 261.04"/><polygon class="cls-6" points="621.5 246.08 621.5 276 606.54 261.04 621.5 246.08"/><path d="M549.27,276v0l-.29.28-20.86,20.86-15-15,36-36C549.14,262.9,549.16,275.9,549.27,276Z"/><path class="cls-3" d="M585.34,282.24l-14.92,14.92L549.57,276.3l-.3-.28v0c-.11-.1-.13-13.1-.13-29.78Z"/><polygon class="cls-2" points="200.04 591.11 200.04 540.67 222.38 540.67 200.04 591.11"/><polygon class="cls-3" points="177.68 540.67 200.04 540.67 200.04 591.11 177.68 540.67"/><polygon class="cls-4" points="199.74 590.81 200.32 590.81 200.04 591.1 199.74 590.81"/><path class="cls-3" d="M127.8,621l15-15L200,663.35l.1.08c-.05,16.78-.08,29.83-.08,29.83l-15-15Z"/><path class="cls-2" d="M200,693.26s0-13,.08-29.83a.54.54,0,0,1,0-.18l57.18-57.18,15,15Z"/><polygon class="cls-5" points="257.3 606.07 272.26 591.11 272.26 621.04 257.3 606.07"/><rect class="cls-3" x="243.62" y="573.05" width="21.16" height="29.92" transform="translate(-341.33 351.97) rotate(-45)"/><polygon class="cls-6" points="221.19 569.95 251.11 569.95 236.15 584.91 221.19 569.95"/><polygon class="cls-6" points="148.96 569.95 178.89 569.95 163.96 584.88 148.96 569.95"/><polygon points="127.8 591.11 127.8 591.1 148.96 569.95 163.96 584.88 142.76 606.07 127.8 591.11"/><polygon class="cls-7" points="142.76 606.07 163.96 584.88 200.17 620.89 236.15 584.91 257.3 606.07 200.03 663.35 142.76 606.07"/><polygon class="cls-6" points="127.8 621.04 127.8 591.11 142.76 606.07 127.8 621.04"/><path d="M200,591.11h0l.28-.29L221.18,570l15,15-36,36C200.17,604.21,200.14,591.22,200,591.11Z"/><path class="cls-3" d="M164,584.88,178.89,570l20.85,20.86.3.29h0c.1.11.13,13.1.13,29.78Z"/><polygon class="cls-2" points="200.04 774.52 200.04 724.08 222.38 724.08 200.04 774.52"/><polygon class="cls-3" points="177.68 724.08 200.04 724.08 200.04 774.52 177.68 724.08"/><polygon class="cls-4" points="199.74 774.22 200.32 774.22 200.04 774.51 199.74 774.22"/><path class="cls-3" d="M127.8,804.44l15-15L200,846.75l.1.09c-.05,16.78-.08,29.83-.08,29.83l-15-15Z"/><path class="cls-2" d="M200,876.67s0-13,.08-29.83a.54.54,0,0,1,0-.18l57.18-57.18,15,15Z"/><polygon class="cls-5" points="257.3 789.48 272.26 774.52 272.26 804.45 257.3 789.48"/><rect class="cls-3" x="243.62" y="756.46" width="21.16" height="29.92" transform="translate(-471.02 405.69) rotate(-45)"/><polygon class="cls-6" points="221.19 753.36 251.11 753.36 236.15 768.32 221.19 753.36"/><polygon class="cls-6" points="148.96 753.36 178.89 753.36 163.96 768.29 148.96 753.36"/><polygon points="127.8 774.52 127.8 774.51 148.96 753.36 163.96 768.29 142.76 789.48 127.8 774.52"/><polygon class="cls-7" points="142.76 789.48 163.96 768.29 200.17 804.3 236.15 768.32 257.3 789.48 200.03 846.75 142.76 789.48"/><polygon class="cls-6" points="127.8 804.45 127.8 774.52 142.76 789.48 127.8 804.45"/><path d="M200,774.52h0l.28-.29,20.86-20.86,15,15-36,36C200.17,787.62,200.14,774.63,200,774.52Z"/><path class="cls-3" d="M164,768.29l14.93-14.93,20.85,20.86.3.29h0c.1.11.13,13.1.13,29.78Z"/><polygon class="cls-2" points="549.27 459.41 549.27 509.85 526.92 509.85 549.27 459.41"/><polygon class="cls-3" points="571.62 509.85 549.27 509.85 549.27 459.41 571.62 509.85"/><polygon class="cls-4" points="549.57 459.71 548.98 459.71 549.27 459.42 549.57 459.71"/><path class="cls-3" d="M621.5,429.49l-15,15-57.26-57.27-.1-.09c.05-16.77.09-29.83.09-29.83l15,15Z"/><path class="cls-2" d="M549.27,357.26s0,13.06-.09,29.83a.28.28,0,0,1,0,.18L492,444.45l-15-15Z"/><polygon class="cls-5" points="492.01 444.45 477.04 459.41 477.04 429.49 492.01 444.45"/><rect class="cls-3" x="484.52" y="447.55" width="21.16" height="29.92" transform="translate(-182.03 485.55) rotate(-45)"/><polygon class="cls-6" points="528.12 480.57 498.19 480.57 513.15 465.61 528.12 480.57"/><polygon class="cls-6" points="600.34 480.57 570.41 480.57 585.34 465.64 600.34 480.57"/><polygon points="621.5 459.41 621.5 459.42 600.34 480.57 585.34 465.64 606.54 444.45 621.5 459.41"/><polygon class="cls-7" points="606.54 444.45 585.34 465.64 549.13 429.63 513.15 465.61 492.01 444.45 549.28 387.18 606.54 444.45"/><polygon class="cls-6" points="621.5 429.49 621.5 459.41 606.54 444.45 621.5 429.49"/><path d="M549.27,459.41h0l-.29.29-20.86,20.86-15-15,36-36C549.14,446.31,549.16,459.3,549.27,459.41Z"/><path class="cls-3" d="M585.34,465.64l-14.92,14.93-20.85-20.86-.3-.29h0c-.11-.11-.13-13.1-.13-29.78Z"/><polygon class="cls-2" points="374.66 683.08 374.66 632.63 397 632.63 374.66 683.08"/><polygon class="cls-3" points="352.31 632.63 374.66 632.63 374.66 683.08 352.31 632.63"/><polygon class="cls-4" points="374.36 682.78 374.95 682.78 374.66 683.06 374.36 682.78"/><path class="cls-3" d="M302.43,713l15-15,57.26,57.27.1.08c-.05,16.78-.09,29.83-.09,29.83l-15-15Z"/><path class="cls-2" d="M374.66,785.22s0-13.05.09-29.83a.25.25,0,0,1,0-.17L431.92,698l15,15Z"/><polygon class="cls-5" points="431.92 698.04 446.88 683.08 446.88 713 431.92 698.04"/><rect class="cls-3" x="418.25" y="665.02" width="21.16" height="29.92" transform="translate(-355.22 502.39) rotate(-45)"/><polygon class="cls-6" points="395.81 661.92 425.74 661.92 410.77 676.88 395.81 661.92"/><polygon class="cls-6" points="323.59 661.92 353.51 661.92 338.59 676.84 323.59 661.92"/><polygon points="302.43 683.08 302.43 683.06 323.59 661.92 338.59 676.84 317.39 698.04 302.43 683.08"/><polygon class="cls-7" points="317.39 698.04 338.59 676.84 374.79 712.86 410.77 676.88 431.92 698.04 374.65 755.31 317.39 698.04"/><polygon class="cls-6" points="302.43 713 302.43 683.08 317.39 698.04 302.43 713"/><path d="M374.66,683.08v0l.29-.28,20.86-20.86,15,15-36,36C374.79,696.18,374.77,683.18,374.66,683.08Z"/><path class="cls-3" d="M338.59,676.84l14.92-14.92,20.85,20.86.3.28v0c.11.1.13,13.1.13,29.78Z"/><polygon class="cls-2" points="374.64 367.45 374.64 417.89 352.3 417.89 374.64 367.45"/><polygon class="cls-3" points="397 417.89 374.64 417.89 374.64 367.45 397 417.89"/><polygon class="cls-4" points="374.94 367.75 374.36 367.75 374.64 367.46 374.94 367.75"/><path class="cls-3" d="M446.88,337.52l-15,15-57.26-57.27-.09-.08c.05-16.78.08-29.83.08-29.83l15,15Z"/><path class="cls-2" d="M374.64,265.3s0,13.05-.08,29.83a.54.54,0,0,1,0,.18l-57.18,57.17-15-15Z"/><polygon class="cls-5" points="317.38 352.48 302.42 367.45 302.42 337.52 317.38 352.48"/><rect class="cls-3" x="309.89" y="355.59" width="21.16" height="29.92" transform="translate(-168.15 335.14) rotate(-45)"/><polygon class="cls-6" points="353.49 388.61 323.57 388.61 338.53 373.64 353.49 388.61"/><polygon class="cls-6" points="425.71 388.61 395.79 388.61 410.72 373.68 425.71 388.61"/><polygon points="446.88 367.45 446.88 367.46 425.71 388.61 410.72 373.68 431.91 352.48 446.88 367.45"/><polygon class="cls-7" points="431.91 352.48 410.72 373.68 374.51 337.66 338.53 373.64 317.38 352.48 374.65 295.21 431.91 352.48"/><polygon class="cls-6" points="446.88 337.52 446.88 367.45 431.91 352.48 446.88 337.52"/><path d="M374.64,367.45h0l-.29.29-20.86,20.86-15-15,36-36C374.51,354.35,374.53,367.34,374.64,367.45Z"/><path class="cls-3" d="M410.72,373.68l-14.93,14.93-20.85-20.86-.3-.29h0c-.11-.11-.13-13.1-.13-29.79Z"/><path d="M19.62,97.42H33.3V44.84H19.83a4.46,4.46,0,1,1,0-8.91H42.22V97.42h8.91V78.85a4.32,4.32,0,0,1,1.3-3.13A4.45,4.45,0,0,1,60,78.85v23a4.44,4.44,0,0,1-4.46,4.45h-36A4.21,4.21,0,0,1,16.46,105a4.46,4.46,0,0,1-1.3-3.21,4.15,4.15,0,0,1,1.3-3.08A4.33,4.33,0,0,1,19.62,97.42Z"/><path d="M80.89,97.74V44.42a8.69,8.69,0,0,1,8.6-8.59h27.8a8.1,8.1,0,0,1,6,2.54,8.32,8.32,0,0,1,2.52,6.05V97.74a8.6,8.6,0,0,1-8.59,8.59H89.49a8.55,8.55,0,0,1-8.6-8.59ZM117,97.42V44.84H89.8V97.42Z"/><path d="M730.39,952.58H716.7v52.57h13.47a4.3,4.3,0,0,1,3.16,1.31,4.48,4.48,0,0,1,0,6.31,4.33,4.33,0,0,1-3.16,1.3H707.79V952.58h-8.92v18.57a4.32,4.32,0,0,1-1.3,3.13,4.45,4.45,0,0,1-7.61-3.13v-23a4.42,4.42,0,0,1,4.46-4.45h36a4.21,4.21,0,0,1,3.15,1.35,4.46,4.46,0,0,1,1.3,3.21,4.11,4.11,0,0,1-1.3,3.07A4.33,4.33,0,0,1,730.39,952.58Z"/><path d="M669.11,952.26v53.32a8.69,8.69,0,0,1-8.6,8.59h-27.8a8.13,8.13,0,0,1-6-2.54,8.32,8.32,0,0,1-2.52-6V952.26a8.6,8.6,0,0,1,8.59-8.59h27.69a8.55,8.55,0,0,1,8.6,8.59Zm-36.08.32v52.57H660.2V952.58Z"/></g></svg>