<svg xmlns="http://www.w3.org/2000/svg" viewBox="0 0 750 1050"><defs><style>.cls-1{fill:#f1f2f2;}.cls-2{fill:#595959;}.cls-3{fill:#2d2d2d;}.cls-4{fill:#fff;stroke:#231f20;stroke-miterlimit:10;}.cls-5{fill:#434343;}.cls-6{fill:#161616;}.cls-7{fill:#1c1c1c;}</style></defs><g id="Layer_6" data-name="Layer 6"><rect class="cls-1" width="750" height="1050" rx="63.89"/></g><g id="Layer_5" data-name="Layer 5"><path d="M48.74,100.23l17.95-61a4.35,4.35,0,0,1,4.5-3.32q3.33,0,4.19,2.81l17.77,61.92a4.53,4.53,0,0,1,.21,1.32,4.35,4.35,0,0,1-1.27,3.16,4,4,0,0,1-2.92,1.3,4.19,4.19,0,0,1-4.45-3.24L81.19,91.11H60.79l-3.89,13a2.63,2.63,0,0,1-1.33,1.6,4.53,4.53,0,0,1-2.56.77,4.29,4.29,0,0,1-3.25-1.33,4.44,4.44,0,0,1-1.28-3.23A5.78,5.78,0,0,1,48.74,100.23ZM71.13,56.57,63.49,82.09H78.57Z"/><path d="M701.26,949.77l-17.94,61a4.37,4.37,0,0,1-4.51,3.32c-2.21,0-3.61-.94-4.18-2.81l-17.77-61.92a4.56,4.56,0,0,1-.22-1.32,4.35,4.35,0,0,1,1.28-3.16,4,4,0,0,1,2.91-1.3,4.2,4.2,0,0,1,4.46,3.24l3.52,12.09h20.41l3.88-13a2.69,2.69,0,0,1,1.34-1.61,4.57,4.57,0,0,1,2.56-.76,4.3,4.3,0,0,1,3.25,1.33,4.48,4.48,0,0,1,1.28,3.23A5.47,5.47,0,0,1,701.26,949.77Zm-22.39,43.66,7.65-25.52H671.44Z"/><polygon class="cls-2" points="70.31 174.36 70.31 203.77 57.28 203.77 70.31 174.36"/><polygon class="cls-3" points="83.34 203.77 70.31 203.77 70.31 174.36 83.34 203.77"/><polygon class="cls-4" points="70.48 174.53 70.14 174.53 70.31 174.36 70.48 174.53"/><path class="cls-3" d="M112.43,156.91l-8.73,8.72L70.31,132.24l0-.05c0-9.79,0-17.4,0-17.4L79,123.52Z"/><path class="cls-2" d="M70.31,114.79s0,7.61,0,17.4v.1L36.92,165.63l-8.73-8.72Z"/><polygon class="cls-5" points="36.92 165.63 28.19 174.36 28.19 156.91 36.92 165.63"/><rect class="cls-3" x="32.55" y="167.44" width="12.34" height="17.44" transform="translate(-113.23 78.98) rotate(-45)"/><polygon class="cls-6" points="57.97 186.69 40.52 186.69 49.25 177.97 57.97 186.69"/><polygon class="cls-6" points="100.09 186.69 82.64 186.69 91.34 177.99 100.09 186.69"/><polygon points="112.43 174.36 112.43 174.36 100.09 186.69 91.34 177.99 103.7 165.63 112.43 174.36"/><polygon class="cls-7" points="103.7 165.63 91.34 177.99 70.23 156.99 49.25 177.97 36.92 165.63 70.31 132.24 103.7 165.63"/><polygon class="cls-6" points="112.43 156.91 112.43 174.36 103.7 165.63 112.43 156.91"/><path d="M70.31,174.36h0l-.17.17L58,186.7,49.25,178l21-21C70.23,166.72,70.24,174.29,70.31,174.36Z"/><path class="cls-3" d="M91.34,178l-8.7,8.71L70.48,174.53l-.17-.17h0c-.07-.07-.08-7.64-.08-17.37Z"/><polygon class="cls-2" points="680.4 875.64 680.4 846.23 693.43 846.23 680.4 875.64"/><polygon class="cls-3" points="667.36 846.23 680.4 846.23 680.4 875.64 667.36 846.23"/><polygon class="cls-4" points="680.23 875.47 680.57 875.47 680.4 875.64 680.23 875.47"/><path class="cls-3" d="M638.28,893.09l8.72-8.72,33.39,33.39.06,0c0,9.79-.05,17.4-.05,17.4l-8.73-8.73Z"/><path class="cls-2" d="M680.4,935.21s0-7.61.05-17.4a.17.17,0,0,1,0-.1l33.34-33.34,8.72,8.72Z"/><polygon class="cls-5" points="713.79 884.37 722.51 875.64 722.51 893.09 713.79 884.37"/><rect class="cls-3" x="705.81" y="865.11" width="12.34" height="17.44" transform="translate(-409.36 759.39) rotate(-45)"/><polygon class="cls-6" points="692.73 863.3 710.18 863.3 701.46 872.03 692.73 863.3"/><polygon class="cls-6" points="650.62 863.3 668.07 863.3 659.36 872.01 650.62 863.3"/><polygon points="638.28 875.64 638.28 875.64 650.62 863.3 659.36 872.01 647 884.37 638.28 875.64"/><polygon class="cls-7" points="647 884.37 659.36 872.01 680.48 893.01 701.46 872.03 713.79 884.37 680.39 917.76 647 884.37"/><polygon class="cls-6" points="638.28 893.09 638.28 875.64 647 884.37 638.28 893.09"/><path d="M680.4,875.64h0l.17-.17,12.16-12.16,8.73,8.72-21,21C680.48,883.28,680.46,875.71,680.4,875.64Z"/><path class="cls-3" d="M659.36,872l8.71-8.7,12.16,12.16.17.17h0c.06.07.08,7.64.08,17.37Z"/><polygon class="cls-2" points="374.99 550.85 374.99 601.29 352.65 601.29 374.99 550.85"/><polygon class="cls-3" points="397.35 601.29 374.99 601.29 374.99 550.85 397.35 601.29"/><polygon class="cls-4" points="375.29 551.15 374.71 551.15 374.99 550.87 375.29 551.15"/><path class="cls-3" d="M447.23,520.93l-15,15L375,478.62l-.1-.08c0-16.78.08-29.83.08-29.83l15,15Z"/><path class="cls-2" d="M375,448.71s0,13.05-.08,29.83a.49.49,0,0,1,0,.17l-57.18,57.18-15-15Z"/><polygon class="cls-5" points="317.73 535.89 302.77 550.85 302.77 520.93 317.73 535.89"/><rect class="cls-3" x="310.25" y="538.99" width="21.16" height="29.92" transform="translate(-297.74 389.11) rotate(-45)"/><polygon class="cls-6" points="353.85 572.01 323.92 572.01 338.88 557.05 353.85 572.01"/><polygon class="cls-6" points="426.07 572.01 396.14 572.01 411.07 557.09 426.07 572.01"/><polygon points="447.23 550.85 447.23 550.87 426.07 572.01 411.07 557.09 432.27 535.89 447.23 550.85"/><polygon class="cls-7" points="432.27 535.89 411.07 557.09 374.86 521.07 338.88 557.05 317.73 535.89 375.01 478.62 432.27 535.89"/><polygon class="cls-6" points="447.23 520.93 447.23 550.85 432.27 535.89 447.23 520.93"/><path d="M375,550.85v0l-.28.28L353.85,572l-15-15,36-36C374.86,537.75,374.89,550.75,375,550.85Z"/><path class="cls-3" d="M411.07,557.09,396.14,572l-20.85-20.86-.3-.28v0c-.1-.1-.13-13.1-.13-29.78Z"/></g></svg>