<svg xmlns="http://www.w3.org/2000/svg" viewBox="0 0 750 1050"><defs><style>.cls-1{fill:#f1f2f2;}.cls-2{fill:#595959;}.cls-3{fill:#2d2d2d;}.cls-4{fill:#fff;stroke:#231f20;stroke-miterlimit:10;}.cls-5{fill:#434343;}.cls-6{fill:#161616;}.cls-7{fill:#1c1c1c;}</style></defs><g id="Layer_6" data-name="Layer 6"><rect class="cls-1" width="750" height="1050" rx="63.89"/></g><g id="Layer_5" data-name="Layer 5"><path d="M47.81,97.32V75.56a8.51,8.51,0,0,1,2.65-6.28,8.74,8.74,0,0,1,6.37-2.63V40.39a4.35,4.35,0,0,1,1.27-3.16,4.3,4.3,0,0,1,3.18-1.3H79.43a4.44,4.44,0,0,1,4.45,4.46V66.65a8.69,8.69,0,0,1,6.26,2.57,8.49,8.49,0,0,1,2.66,6.34V97.42a9,9,0,0,1-8.92,8.91h-27a8.48,8.48,0,0,1-6.4-2.75A8.84,8.84,0,0,1,47.81,97.32Zm9-21.76V97.42H83.88V75.56Zm8.91-30.71v21.8H75V44.85Z"/><path d="M701.49,952.68v21.76a8.51,8.51,0,0,1-2.65,6.28,8.74,8.74,0,0,1-6.37,2.63v26.26a4.35,4.35,0,0,1-1.27,3.16,4.3,4.3,0,0,1-3.18,1.3H669.87a4.44,4.44,0,0,1-4.45-4.46V983.35a8.69,8.69,0,0,1-6.26-2.57,8.49,8.49,0,0,1-2.66-6.34V952.58a9,9,0,0,1,8.92-8.91h27.05a8.48,8.48,0,0,1,6.4,2.75A8.84,8.84,0,0,1,701.49,952.68Zm-9,21.76V952.58H665.42v21.86Zm-8.91,30.71v-21.8h-9.23v21.8Z"/><polygon class="cls-2" points="200.03 276 200.03 326.44 177.68 326.44 200.03 276"/><polygon class="cls-3" points="222.38 326.44 200.03 326.44 200.03 276 222.38 326.44"/><polygon class="cls-4" points="200.32 276.3 199.74 276.3 200.03 276.02 200.32 276.3"/><path class="cls-3" d="M272.26,246.08l-15,15L200,203.77l-.1-.08c.05-16.78.08-29.83.08-29.83l15,15Z"/><path class="cls-2" d="M200,173.86s0,13-.08,29.83a.48.48,0,0,1,0,.17L142.76,261l-15-15Z"/><polygon class="cls-5" points="142.76 261.04 127.8 276 127.8 246.08 142.76 261.04"/><rect class="cls-3" x="135.28" y="264.14" width="21.16" height="29.92" transform="translate(-154.63 184.88) rotate(-45)"/><polygon class="cls-6" points="178.88 297.16 148.95 297.16 163.91 282.2 178.88 297.16"/><polygon class="cls-6" points="251.1 297.16 221.17 297.16 236.1 282.24 251.1 297.16"/><polygon points="272.26 276 272.26 276.02 251.1 297.16 236.1 282.24 257.3 261.04 272.26 276"/><polygon class="cls-7" points="257.3 261.04 236.1 282.24 199.89 246.22 163.91 282.2 142.76 261.04 200.04 203.77 257.3 261.04"/><polygon class="cls-6" points="272.26 246.08 272.26 276 257.3 261.04 272.26 246.08"/><path d="M200,276v0l-.28.28-20.86,20.86-15-15,36-36C199.89,262.9,199.92,275.9,200,276Z"/><path class="cls-3" d="M236.1,282.24l-14.93,14.92L200.32,276.3,200,276v0c-.1-.1-.13-13.1-.13-29.78Z"/><polygon class="cls-2" points="69.95 174.36 69.95 203.77 56.92 203.77 69.95 174.36"/><polygon class="cls-3" points="82.99 203.77 69.95 203.77 69.95 174.36 82.99 203.77"/><polygon class="cls-4" points="70.13 174.53 69.79 174.53 69.95 174.36 70.13 174.53"/><path class="cls-3" d="M112.07,156.91l-8.72,8.72L70,132.24l-.06-.05c0-9.79,0-17.4,0-17.4l8.73,8.73Z"/><path class="cls-2" d="M70,114.79s0,7.61,0,17.4a.17.17,0,0,1,0,.1L36.56,165.63l-8.72-8.72Z"/><polygon class="cls-5" points="36.56 165.63 27.84 174.36 27.84 156.91 36.56 165.63"/><rect class="cls-3" x="32.2" y="167.44" width="12.34" height="17.44" transform="translate(-113.33 78.73) rotate(-45)"/><polygon class="cls-6" points="57.62 186.7 40.17 186.7 48.9 177.97 57.62 186.7"/><polygon class="cls-6" points="99.73 186.7 82.28 186.7 90.99 177.99 99.73 186.7"/><polygon points="112.07 174.36 112.07 174.36 99.73 186.7 90.99 177.99 103.35 165.63 112.07 174.36"/><polygon class="cls-7" points="103.35 165.63 90.99 177.99 69.88 156.99 48.9 177.97 36.56 165.63 69.96 132.24 103.35 165.63"/><polygon class="cls-6" points="112.07 156.91 112.07 174.36 103.35 165.63 112.07 156.91"/><path d="M70,174.36h0l-.16.17L57.62,186.7,48.9,178l21-21C69.88,166.72,69.89,174.29,70,174.36Z"/><path class="cls-3" d="M91,178l-8.7,8.71L70.13,174.53l-.18-.17h0c-.06-.07-.07-7.64-.07-17.37Z"/><polygon class="cls-2" points="680.05 875.64 680.05 846.23 693.08 846.23 680.05 875.64"/><polygon class="cls-3" points="667.01 846.23 680.05 846.23 680.05 875.64 667.01 846.23"/><polygon class="cls-4" points="679.87 875.47 680.21 875.47 680.05 875.64 679.87 875.47"/><path class="cls-3" d="M637.93,893.09l8.72-8.72L680,917.76l.06,0c0,9.79-.05,17.4-.05,17.4l-8.73-8.73Z"/><path class="cls-2" d="M680.05,935.21s0-7.61.05-17.4a.17.17,0,0,1,0-.1l33.34-33.34,8.72,8.72Z"/><polygon class="cls-5" points="713.43 884.37 722.16 875.64 722.16 893.09 713.43 884.37"/><rect class="cls-3" x="705.46" y="865.12" width="12.34" height="17.44" transform="translate(-409.46 759.14) rotate(-45)"/><polygon class="cls-6" points="692.38 863.31 709.83 863.31 701.1 872.03 692.38 863.31"/><polygon class="cls-6" points="650.26 863.31 667.72 863.31 659.01 872.01 650.26 863.31"/><polygon points="637.93 875.64 637.93 875.64 650.26 863.31 659.01 872.01 646.65 884.37 637.93 875.64"/><polygon class="cls-7" points="646.65 884.37 659.01 872.01 680.12 893.01 701.1 872.03 713.43 884.37 680.04 917.76 646.65 884.37"/><polygon class="cls-6" points="637.93 893.09 637.93 875.64 646.65 884.37 637.93 893.09"/><path d="M680.05,875.64h0l.16-.17,12.17-12.16L701.1,872l-21,21C680.12,883.28,680.11,875.71,680.05,875.64Z"/><path class="cls-3" d="M659,872l8.7-8.7,12.16,12.16.18.17h0c.06.07.07,7.64.07,17.37Z"/><polygon class="cls-2" points="549.28 591.11 549.28 540.67 571.62 540.67 549.28 591.11"/><polygon class="cls-3" points="526.92 540.67 549.28 540.67 549.28 591.11 526.92 540.67"/><polygon class="cls-4" points="548.98 590.81 549.57 590.81 549.28 591.1 548.98 590.81"/><path class="cls-3" d="M477,621l15-15,57.26,57.28.09.08c-.05,16.78-.08,29.83-.08,29.83l-15-15Z"/><path class="cls-2" d="M549.28,693.26s0-13,.08-29.83a.54.54,0,0,1,0-.18l57.18-57.18,15,15Z"/><polygon class="cls-5" points="606.54 606.08 621.5 591.11 621.5 621.04 606.54 606.08"/><rect class="cls-3" x="592.87" y="573.05" width="21.16" height="29.92" transform="translate(-239.04 598.93) rotate(-45)"/><polygon class="cls-6" points="570.43 569.95 600.35 569.95 585.39 584.91 570.43 569.95"/><polygon class="cls-6" points="498.2 569.95 528.13 569.95 513.2 584.88 498.2 569.95"/><polygon points="477.04 591.11 477.04 591.1 498.2 569.95 513.2 584.88 492.01 606.08 477.04 591.11"/><polygon class="cls-7" points="492.01 606.08 513.2 584.88 549.41 620.89 585.39 584.91 606.54 606.08 549.27 663.35 492.01 606.08"/><polygon class="cls-6" points="477.04 621.04 477.04 591.11 492.01 606.08 477.04 621.04"/><path d="M549.28,591.11h0l.29-.29L570.43,570l15,15-36,36C549.41,604.21,549.39,591.22,549.28,591.11Z"/><path class="cls-3" d="M513.2,584.88,528.13,570,549,590.81l.3.29h0c.11.11.13,13.1.13,29.78Z"/><polygon class="cls-2" points="549.28 774.52 549.28 724.08 571.62 724.08 549.28 774.52"/><polygon class="cls-3" points="526.92 724.08 549.28 724.08 549.28 774.52 526.92 724.08"/><polygon class="cls-4" points="548.98 774.22 549.57 774.22 549.28 774.51 548.98 774.22"/><path class="cls-3" d="M477,804.44l15-15,57.26,57.27.09.09c-.05,16.78-.08,29.83-.08,29.83l-15-15Z"/><path class="cls-2" d="M549.28,876.67s0-13,.08-29.83a.54.54,0,0,1,0-.18l57.18-57.18,15,15Z"/><polygon class="cls-5" points="606.54 789.48 621.5 774.52 621.5 804.45 606.54 789.48"/><rect class="cls-3" x="592.87" y="756.46" width="21.16" height="29.92" transform="translate(-368.73 652.64) rotate(-45)"/><polygon class="cls-6" points="570.43 753.36 600.35 753.36 585.39 768.32 570.43 753.36"/><polygon class="cls-6" points="498.2 753.36 528.13 753.36 513.2 768.29 498.2 753.36"/><polygon points="477.04 774.52 477.04 774.51 498.2 753.36 513.2 768.29 492.01 789.48 477.04 774.52"/><polygon class="cls-7" points="492.01 789.48 513.2 768.29 549.41 804.3 585.39 768.32 606.54 789.48 549.27 846.75 492.01 789.48"/><polygon class="cls-6" points="477.04 804.45 477.04 774.52 492.01 789.48 477.04 804.45"/><path d="M549.28,774.52h0l.29-.29,20.86-20.86,15,15-36,36C549.41,787.62,549.39,774.63,549.28,774.52Z"/><path class="cls-3" d="M513.2,768.29l14.93-14.93L549,774.22l.3.29h0c.11.11.13,13.1.13,29.78Z"/><polygon class="cls-2" points="200.03 459.41 200.03 509.85 177.68 509.85 200.03 459.41"/><polygon class="cls-3" points="222.38 509.85 200.03 509.85 200.03 459.41 222.38 509.85"/><polygon class="cls-4" points="200.32 459.71 199.74 459.71 200.03 459.42 200.32 459.71"/><path class="cls-3" d="M272.26,429.49l-15,15L200,387.18l-.1-.09c.05-16.77.08-29.83.08-29.83l15,15Z"/><path class="cls-2" d="M200,357.26s0,13.06-.08,29.83a.54.54,0,0,1,0,.18l-57.18,57.18-15-15Z"/><polygon class="cls-5" points="142.76 444.45 127.8 459.41 127.8 429.49 142.76 444.45"/><rect class="cls-3" x="135.28" y="447.55" width="21.16" height="29.92" transform="translate(-284.32 238.6) rotate(-45)"/><polygon class="cls-6" points="178.88 480.57 148.95 480.57 163.91 465.61 178.88 480.57"/><polygon class="cls-6" points="251.1 480.57 221.17 480.57 236.1 465.64 251.1 480.57"/><polygon points="272.26 459.41 272.26 459.42 251.1 480.57 236.1 465.64 257.3 444.45 272.26 459.41"/><polygon class="cls-7" points="257.3 444.45 236.1 465.64 199.89 429.63 163.91 465.61 142.76 444.45 200.04 387.18 257.3 444.45"/><polygon class="cls-6" points="272.26 429.49 272.26 459.41 257.3 444.45 272.26 429.49"/><path d="M200,459.41h0l-.28.29-20.86,20.86-15-15,36-36C199.89,446.31,199.92,459.3,200,459.41Z"/><path class="cls-3" d="M236.1,465.64l-14.93,14.93-20.85-20.86-.3-.29h0c-.1-.11-.13-13.1-.13-29.78Z"/><polygon class="cls-2" points="549.27 276 549.27 326.44 526.92 326.44 549.27 276"/><polygon class="cls-3" points="571.62 326.44 549.27 326.44 549.27 276 571.62 326.44"/><polygon class="cls-4" points="549.57 276.3 548.98 276.3 549.27 276.02 549.57 276.3"/><path class="cls-3" d="M621.5,246.08l-15,15-57.26-57.27-.1-.08c.05-16.78.09-29.83.09-29.83l15,15Z"/><path class="cls-2" d="M549.27,173.86s0,13-.09,29.83a.25.25,0,0,1,0,.17L492,261l-15-15Z"/><polygon class="cls-5" points="492.01 261.04 477.04 276 477.04 246.08 492.01 261.04"/><rect class="cls-3" x="484.52" y="264.14" width="21.16" height="29.92" transform="translate(-52.34 431.84) rotate(-45)"/><polygon class="cls-6" points="528.12 297.16 498.19 297.16 513.15 282.2 528.12 297.16"/><polygon class="cls-6" points="600.34 297.16 570.41 297.16 585.34 282.24 600.34 297.16"/><polygon points="621.5 276 621.5 276.02 600.34 297.16 585.34 282.24 606.54 261.04 621.5 276"/><polygon class="cls-7" points="606.54 261.04 585.34 282.24 549.13 246.22 513.15 282.2 492.01 261.04 549.28 203.77 606.54 261.04"/><polygon class="cls-6" points="621.5 246.08 621.5 276 606.54 261.04 621.5 246.08"/><path d="M549.27,276v0l-.29.28-20.86,20.86-15-15,36-36C549.14,262.9,549.16,275.9,549.27,276Z"/><path class="cls-3" d="M585.34,282.24l-14.92,14.92L549.57,276.3l-.3-.28v0c-.11-.1-.13-13.1-.13-29.78Z"/><polygon class="cls-2" points="200.04 591.11 200.04 540.67 222.38 540.67 200.04 591.11"/><polygon class="cls-3" points="177.68 540.67 200.04 540.67 200.04 591.11 177.68 540.67"/><polygon class="cls-4" points="199.74 590.81 200.32 590.81 200.04 591.1 199.74 590.81"/><path class="cls-3" d="M127.8,621l15-15L200,663.35l.1.08c-.05,16.78-.08,29.83-.08,29.83l-15-15Z"/><path class="cls-2" d="M200,693.26s0-13,.08-29.83a.54.54,0,0,1,0-.18l57.18-57.18,15,15Z"/><polygon class="cls-5" points="257.3 606.08 272.26 591.11 272.26 621.04 257.3 606.08"/><rect class="cls-3" x="243.62" y="573.05" width="21.16" height="29.92" transform="translate(-341.33 351.97) rotate(-45)"/><polygon class="cls-6" points="221.19 569.95 251.11 569.95 236.15 584.91 221.19 569.95"/><polygon class="cls-6" points="148.96 569.95 178.89 569.95 163.96 584.88 148.96 569.95"/><polygon points="127.8 591.11 127.8 591.1 148.96 569.95 163.96 584.88 142.76 606.08 127.8 591.11"/><polygon class="cls-7" points="142.76 606.08 163.96 584.88 200.17 620.89 236.15 584.91 257.3 606.08 200.03 663.35 142.76 606.08"/><polygon class="cls-6" points="127.8 621.04 127.8 591.11 142.76 606.08 127.8 621.04"/><path d="M200,591.11h0l.28-.29L221.18,570l15,15-36,36C200.17,604.21,200.14,591.22,200,591.11Z"/><path class="cls-3" d="M164,584.88,178.89,570l20.85,20.86.3.29h0c.1.11.13,13.1.13,29.78Z"/><polygon class="cls-2" points="200.04 774.52 200.04 724.08 222.38 724.08 200.04 774.52"/><polygon class="cls-3" points="177.68 724.08 200.04 724.08 200.04 774.52 177.68 724.08"/><polygon class="cls-4" points="199.74 774.22 200.32 774.22 200.04 774.51 199.74 774.22"/><path class="cls-3" d="M127.8,804.44l15-15L200,846.75l.1.09c-.05,16.78-.08,29.83-.08,29.83l-15-15Z"/><path class="cls-2" d="M200,876.67s0-13,.08-29.83a.54.54,0,0,1,0-.18l57.18-57.18,15,15Z"/><polygon class="cls-5" points="257.3 789.48 272.26 774.52 272.26 804.45 257.3 789.48"/><rect class="cls-3" x="243.62" y="756.46" width="21.16" height="29.92" transform="translate(-471.02 405.69) rotate(-45)"/><polygon class="cls-6" points="221.19 753.36 251.11 753.36 236.15 768.32 221.19 753.36"/><polygon class="cls-6" points="148.96 753.36 178.89 753.36 163.96 768.29 148.96 753.36"/><polygon points="127.8 774.52 127.8 774.51 148.96 753.36 163.96 768.29 142.76 789.48 127.8 774.52"/><polygon class="cls-7" points="142.76 789.48 163.96 768.29 200.17 804.3 236.15 768.32 257.3 789.48 200.03 846.75 142.76 789.48"/><polygon class="cls-6" points="127.8 804.45 127.8 774.52 142.76 789.48 127.8 804.45"/><path d="M200,774.52h0l.28-.29,20.86-20.86,15,15-36,36C200.17,787.62,200.14,774.63,200,774.52Z"/><path class="cls-3" d="M164,768.29l14.93-14.93,20.85,20.86.3.29h0c.1.11.13,13.1.13,29.78Z"/><polygon class="cls-2" points="549.27 459.41 549.27 509.85 526.92 509.85 549.27 459.41"/><polygon class="cls-3" points="571.62 509.85 549.27 509.85 549.27 459.41 571.62 509.85"/><polygon class="cls-4" points="549.57 459.71 548.98 459.71 549.27 459.42 549.57 459.71"/><path class="cls-3" d="M621.5,429.49l-15,15-57.26-57.27-.1-.09c.05-16.77.09-29.83.09-29.83l15,15Z"/><path class="cls-2" d="M549.27,357.26s0,13.06-.09,29.83a.28.28,0,0,1,0,.18L492,444.45l-15-15Z"/><polygon class="cls-5" points="492.01 444.45 477.04 459.41 477.04 429.49 492.01 444.45"/><rect class="cls-3" x="484.52" y="447.55" width="21.16" height="29.92" transform="translate(-182.03 485.55) rotate(-45)"/><polygon class="cls-6" points="528.12 480.57 498.19 480.57 513.15 465.61 528.12 480.57"/><polygon class="cls-6" points="600.34 480.57 570.41 480.57 585.34 465.64 600.34 480.57"/><polygon points="621.5 459.41 621.5 459.42 600.34 480.57 585.34 465.64 606.54 444.45 621.5 459.41"/><polygon class="cls-7" points="606.54 444.45 585.34 465.64 549.13 429.63 513.15 465.61 492.01 444.45 549.28 387.18 606.54 444.45"/><polygon class="cls-6" points="621.5 429.49 621.5 459.41 606.54 444.45 621.5 429.49"/><path d="M549.27,459.41h0l-.29.29-20.86,20.86-15-15,36-36C549.14,446.31,549.16,459.3,549.27,459.41Z"/><path class="cls-3" d="M585.34,465.64l-14.92,14.93-20.85-20.86-.3-.29h0c-.11-.11-.13-13.1-.13-29.78Z"/></g></svg>