<svg xmlns="http://www.w3.org/2000/svg" viewBox="0 0 750 1050"><defs><style>.cls-1{fill:#f1f2f2;}.cls-2{fill:#595959;}.cls-3{fill:#2d2d2d;}.cls-4{fill:#fff;stroke:#231f20;stroke-miterlimit:10;}.cls-5{fill:#434343;}.cls-6{fill:#161616;}.cls-7{fill:#1c1c1c;}</style></defs><g id="Layer_6" data-name="Layer 6"><rect class="cls-1" width="750" height="1050" rx="63.89"/></g><g id="Layer_5" data-name="Layer 5"><polygon class="cls-2" points="69.95 174.36 69.95 203.77 56.92 203.77 69.95 174.36"/><polygon class="cls-3" points="82.99 203.77 69.95 203.77 69.95 174.36 82.99 203.77"/><polygon class="cls-4" points="70.13 174.53 69.79 174.53 69.95 174.36 70.13 174.53"/><path class="cls-3" d="M112.07,156.91l-8.72,8.72L70,132.24l-.06-.05c0-9.79,0-17.4,0-17.4l8.73,8.73Z"/><path class="cls-2" d="M70,114.79s0,7.61,0,17.4a.17.17,0,0,1,0,.1L36.56,165.63l-8.72-8.72Z"/><polygon class="cls-5" points="36.56 165.63 27.84 174.36 27.84 156.91 36.56 165.63"/><rect class="cls-3" x="32.2" y="167.44" width="12.34" height="17.44" transform="translate(-113.33 78.73) rotate(-45)"/><polygon class="cls-6" points="57.62 186.69 40.17 186.69 48.9 177.97 57.62 186.69"/><polygon class="cls-6" points="99.73 186.69 82.28 186.69 90.99 177.99 99.73 186.69"/><polygon points="112.07 174.36 112.07 174.36 99.73 186.69 90.99 177.99 103.35 165.63 112.07 174.36"/><polygon class="cls-7" points="103.35 165.63 90.99 177.99 69.88 156.99 48.9 177.97 36.56 165.63 69.96 132.24 103.35 165.63"/><polygon class="cls-6" points="112.07 156.91 112.07 174.36 103.35 165.63 112.07 156.91"/><path d="M70,174.36h0l-.16.17L57.62,186.7,48.9,178l21-21C69.88,166.72,69.89,174.29,70,174.36Z"/><path class="cls-3" d="M91,178l-8.7,8.71L70.13,174.53l-.18-.17h0c-.06-.07-.07-7.64-.07-17.37Z"/><polygon class="cls-2" points="680.05 875.64 680.05 846.23 693.08 846.23 680.05 875.64"/><polygon class="cls-3" points="667.01 846.23 680.05 846.23 680.05 875.64 667.01 846.23"/><polygon class="cls-4" points="679.87 875.47 680.21 875.47 680.05 875.64 679.87 875.47"/><path class="cls-3" d="M637.93,893.09l8.72-8.72L680,917.76l.06,0c0,9.79-.05,17.4-.05,17.4l-8.73-8.73Z"/><path class="cls-2" d="M680.05,935.21s0-7.61.05-17.4a.17.17,0,0,1,0-.1l33.34-33.34,8.72,8.72Z"/><polygon class="cls-5" points="713.43 884.37 722.16 875.64 722.16 893.09 713.43 884.37"/><rect class="cls-3" x="705.46" y="865.11" width="12.34" height="17.44" transform="translate(-409.46 759.14) rotate(-45)"/><polygon class="cls-6" points="692.38 863.3 709.83 863.3 701.1 872.03 692.38 863.3"/><polygon class="cls-6" points="650.26 863.3 667.72 863.3 659.01 872.01 650.26 863.3"/><polygon points="637.93 875.64 637.93 875.64 650.26 863.3 659.01 872.01 646.65 884.37 637.93 875.64"/><polygon class="cls-7" points="646.65 884.37 659.01 872.01 680.12 893.01 701.1 872.03 713.43 884.37 680.04 917.76 646.65 884.37"/><polygon class="cls-6" points="637.93 893.09 637.93 875.64 646.65 884.37 637.93 893.09"/><path d="M680.05,875.64h0l.16-.17,12.17-12.16L701.1,872l-21,21C680.12,883.28,680.11,875.71,680.05,875.64Z"/><path class="cls-3" d="M659,872l8.7-8.7,12.16,12.16.18.17h0c.06.07.07,7.64.07,17.37Z"/><path d="M52.83,93V78.85a4.46,4.46,0,1,1,8.91,0V93.07a4.1,4.1,0,0,0,1.33,3.08,4.52,4.52,0,0,0,3.23,1.27h9a4.46,4.46,0,0,0,3.21-1.3A4.23,4.23,0,0,0,79.88,93V40.39a4.35,4.35,0,0,1,1.28-3.16,4.13,4.13,0,0,1,3.07-1.3,4.32,4.32,0,0,1,3.19,1.43A4.57,4.57,0,0,1,88.8,40.6V93a12.73,12.73,0,0,1-4.09,9.55,13.14,13.14,0,0,1-9.39,3.93h-9A13.54,13.54,0,0,1,52.83,93Z"/><path d="M697.17,957v14.11a4.46,4.46,0,1,1-8.91,0V956.93a4.1,4.1,0,0,0-1.33-3.08,4.47,4.47,0,0,0-3.23-1.27h-9a4.46,4.46,0,0,0-3.21,1.3,4.23,4.23,0,0,0-1.35,3.16v52.57a4.35,4.35,0,0,1-1.28,3.16,4.13,4.13,0,0,1-3.07,1.3,4.32,4.32,0,0,1-3.19-1.43,4.57,4.57,0,0,1-1.38-3.24V957a12.72,12.72,0,0,1,4.09-9.55,13.14,13.14,0,0,1,9.39-3.93h9A13.54,13.54,0,0,1,697.17,957Z"/><polygon class="cls-3" points="579.86 405.1 264.22 589.84 248.07 455.79 303.9 325.31 366.97 303.18 517.59 302.79 579.86 405.1"/><polygon class="cls-2" points="242.42 408.93 202.7 447.64 157.7 491.48 157.7 396.88 236.15 356.91 242.42 408.93"/><polyline points="157.7 419.66 191.26 400.48 191.26 403.89 157.7 422.64"/><polyline points="157.7 472.39 194 442.97 194 439.51 157.7 467.49"/><polyline points="157.7 447.59 195.01 422.64 195.01 419.03 157.7 443.98"/><polygon points="264.22 589.84 248.07 455.79 242.42 408.93 202.7 447.64 161.02 608.81 183.37 637.16 264.22 589.84"/><polygon class="cls-3" points="187.02 334.78 187.02 635.02 170.15 644.9 174.33 334.78 187.02 334.78"/><polygon class="cls-2" points="449.5 169.48 449.5 303.5 391.82 332.02 366.43 303.5 354.13 259.49 300.29 275.63 291.06 224.87 275.68 224.87 301.05 153.34 449.5 169.48"/><polygon points="449.5 169.49 491.94 114.95 384.32 60.42 276.63 82.55 301.06 153.34 449.5 169.49"/><polyline points="291.06 224.87 289.13 240.25 319.13 237.95 337.59 230.25 289.13 224.87"/><polygon points="366.44 303.5 389.27 497.48 435.04 304.57 391.82 332.02 366.44 303.5"/><polyline class="cls-6" points="449.5 169.49 487.48 227.95 490.56 259.88 508.25 278.81 552.09 277.08 474.41 334.79 419.03 308.71 419.03 270.25 391.82 247.18 409.8 205.64 391.82 163.21"/><polyline points="174.34 334.79 156.33 293.23 181.98 183.62 207.63 306.39 187.03 334.79"/><polyline class="cls-2" points="236.15 356.91 187.03 371.39 187.03 381.94"/><polygon class="cls-3" points="170.15 644.9 485.78 460.16 501.93 594.21 446.64 724.37 383.57 746.5 232.96 746.88 170.15 644.9"/><polygon class="cls-2" points="507.58 641.06 547.3 602.36 592.3 558.51 592.3 653.12 513.85 693.09 507.58 641.06"/><polyline points="592.3 630.34 558.74 649.52 558.74 646.11 592.3 627.36"/><polyline points="592.3 577.6 556 607.02 556 610.48 592.3 582.5"/><polyline points="592.3 602.41 554.99 627.36 554.99 630.96 592.3 606.01"/><polygon points="485.78 460.16 501.93 594.21 507.58 641.06 547.3 602.36 588.98 441.19 566.63 412.84 485.78 460.16"/><polygon class="cls-3" points="562.98 715.22 562.98 414.97 579.86 405.1 575.67 715.22 562.98 715.22"/><polygon class="cls-2" points="300.5 880.51 300.5 746.5 358.19 717.97 383.57 746.5 395.88 790.51 449.72 774.36 458.94 825.13 474.33 825.13 448.95 896.66 300.5 880.51"/><polygon points="300.5 880.5 258.06 935.04 365.69 989.58 473.37 967.45 448.95 896.66 300.5 880.5"/><polyline points="458.95 825.13 460.87 809.74 430.87 812.05 412.41 819.74 460.87 825.13"/><polygon points="383.57 746.5 360.73 552.52 314.97 745.43 358.19 717.97 383.57 746.5"/><polyline class="cls-6" points="300.5 880.5 262.52 822.05 259.44 790.12 241.75 771.19 197.91 772.92 275.6 715.21 330.98 741.29 330.98 779.75 358.19 802.82 340.21 844.35 358.19 886.78"/><polyline points="575.67 715.21 593.67 756.77 568.02 866.38 542.37 743.61 562.98 715.21"/><polyline class="cls-2" points="513.85 693.09 562.98 678.6 562.98 668.06"/></g></svg>