<svg xmlns="http://www.w3.org/2000/svg" viewBox="0 0 750 1050"><defs><style>.cls-1{fill:#fff5e6;}.cls-2{fill:#ffc766;}.cls-3{fill:#ff9f33;}.cls-4{fill:#f70;}</style></defs><g id="Layer_8" data-name="Layer 8"><rect class="cls-1" width="750" height="1050" rx="63.89"/></g><g id="Layer_3" data-name="Layer 3"><polygon class="cls-2" points="207.12 173.59 207.12 252.56 128.15 252.56 207.12 173.59"/><polygon class="cls-3" points="286.08 252.56 207.12 252.56 207.12 173.59 286.08 252.56"/><polygon class="cls-4" points="286.08 252.56 207.12 331.52 207.12 252.56 286.08 252.56"/><polygon class="cls-3" points="207.12 252.56 207.12 331.52 128.15 252.56 207.12 252.56"/><polygon class="cls-2" points="207.12 718.48 207.12 797.44 128.15 797.44 207.12 718.48"/><polygon class="cls-3" points="286.08 797.44 207.12 797.44 207.12 718.48 286.08 797.44"/><polygon class="cls-4" points="286.08 797.44 207.12 876.41 207.12 797.44 286.08 797.44"/><polygon class="cls-3" points="207.12 797.44 207.12 876.41 128.15 797.44 207.12 797.44"/><polygon class="cls-2" points="207.12 536.85 207.12 615.81 128.15 615.81 207.12 536.85"/><polygon class="cls-3" points="286.08 615.81 207.12 615.81 207.12 536.85 286.08 615.81"/><polygon class="cls-4" points="286.08 615.81 207.12 694.78 207.12 615.81 286.08 615.81"/><polygon class="cls-3" points="207.12 615.81 207.12 694.78 128.15 615.81 207.12 615.81"/><polygon class="cls-2" points="207.12 355.22 207.12 434.19 128.15 434.19 207.12 355.22"/><polygon class="cls-3" points="286.08 434.19 207.12 434.19 207.12 355.22 286.08 434.19"/><polygon class="cls-4" points="286.08 434.19 207.12 513.15 207.12 434.19 286.08 434.19"/><polygon class="cls-3" points="207.12 434.19 207.12 513.15 128.15 434.19 207.12 434.19"/><polygon class="cls-2" points="542.88 173.59 542.88 252.56 463.92 252.56 542.88 173.59"/><polygon class="cls-3" points="621.85 252.56 542.88 252.56 542.88 173.59 621.85 252.56"/><polygon class="cls-4" points="621.85 252.56 542.88 331.52 542.88 252.56 621.85 252.56"/><polygon class="cls-3" points="542.88 252.56 542.88 331.52 463.92 252.56 542.88 252.56"/><polygon class="cls-2" points="542.88 718.48 542.88 797.44 463.92 797.44 542.88 718.48"/><polygon class="cls-3" points="621.85 797.44 542.88 797.44 542.88 718.48 621.85 797.44"/><polygon class="cls-4" points="621.85 797.44 542.88 876.41 542.88 797.44 621.85 797.44"/><polygon class="cls-3" points="542.88 797.44 542.88 876.41 463.92 797.44 542.88 797.44"/><polygon class="cls-2" points="542.88 536.85 542.88 615.81 463.92 615.81 542.88 536.85"/><polygon class="cls-3" points="621.85 615.81 542.88 615.81 542.88 536.85 621.85 615.81"/><polygon class="cls-4" points="621.85 615.81 542.88 694.78 542.88 615.81 621.85 615.81"/><polygon class="cls-3" points="542.88 615.81 542.88 694.78 463.92 615.81 542.88 615.81"/><polygon class="cls-2" points="542.88 355.22 542.88 434.19 463.92 434.19 542.88 355.22"/><polygon class="cls-3" points="621.85 434.19 542.88 434.19 542.88 355.22 621.85 434.19"/><polygon class="cls-4" points="621.85 434.19 542.88 513.15 542.88 434.19 621.85 434.19"/><polygon class="cls-3" points="542.88 434.19 542.88 513.15 463.92 434.19 542.88 434.19"/><polygon class="cls-2" points="375 627.66 375 706.63 296.04 706.63 375 627.66"/><polygon class="cls-3" points="453.96 706.63 375 706.63 375 627.66 453.96 706.63"/><polygon class="cls-4" points="453.96 706.63 375 785.59 375 706.63 453.96 706.63"/><polygon class="cls-3" points="375 706.63 375 785.59 296.04 706.63 375 706.63"/><polygon class="cls-2" points="375 264.41 375 343.37 296.04 343.37 375 264.41"/><polygon class="cls-3" points="453.96 343.37 375 343.37 375 264.41 453.96 343.37"/><polygon class="cls-4" points="453.96 343.37 375 422.34 375 343.37 453.96 343.37"/><polygon class="cls-3" points="375 343.37 375 422.34 296.04 343.37 375 343.37"/><polygon class="cls-2" points="70.31 114.79 70.31 151.85 33.26 151.85 70.31 114.79"/><polygon class="cls-3" points="107.36 151.85 70.31 151.85 70.31 114.79 107.36 151.85"/><polygon class="cls-4" points="107.36 151.85 70.31 188.9 70.31 151.85 107.36 151.85"/><polygon class="cls-3" points="70.31 151.85 70.31 188.9 33.26 151.85 70.31 151.85"/><polygon class="cls-2" points="679.69 861.1 679.69 898.15 642.64 898.15 679.69 861.1"/><polygon class="cls-3" points="716.74 898.15 679.69 898.15 679.69 861.1 716.74 898.15"/><polygon class="cls-4" points="716.74 898.15 679.69 935.21 679.69 898.15 716.74 898.15"/><polygon class="cls-3" points="679.69 898.15 679.69 935.21 642.64 898.15 679.69 898.15"/><path d="M19.61,97.42H33.3V44.84H19.83a4.46,4.46,0,1,1,0-8.91H42.22V97.42h8.91V78.85a4.31,4.31,0,0,1,1.3-3.13,4.26,4.26,0,0,1,3.15-1.33A4.44,4.44,0,0,1,60,78.85v23a4.44,4.44,0,0,1-4.46,4.45h-36A4.21,4.21,0,0,1,16.46,105a4.46,4.46,0,0,1-1.3-3.21,4.15,4.15,0,0,1,1.3-3.08A4.32,4.32,0,0,1,19.61,97.42Z"/><path d="M80.89,97.74V44.42a8.71,8.71,0,0,1,8.6-8.6h27.8a8.11,8.11,0,0,1,6,2.55,8.3,8.3,0,0,1,2.52,6.05V97.74a8.6,8.6,0,0,1-8.59,8.59H89.49a8.55,8.55,0,0,1-8.6-8.59ZM117,97.42V44.84H89.8V97.42Z"/><path d="M730.39,952.58H716.7v52.58h13.47a4.46,4.46,0,1,1,0,8.91H707.78V952.58h-8.91v18.57a4.32,4.32,0,0,1-1.3,3.13,4.26,4.26,0,0,1-3.15,1.33,4.44,4.44,0,0,1-4.46-4.46v-23a4.44,4.44,0,0,1,4.46-4.45h36a4.21,4.21,0,0,1,3.15,1.35,4.46,4.46,0,0,1,1.3,3.21,4.15,4.15,0,0,1-1.3,3.08A4.32,4.32,0,0,1,730.39,952.58Z"/><path d="M669.11,952.26v53.32a8.71,8.71,0,0,1-8.6,8.6h-27.8a8.11,8.11,0,0,1-6-2.55,8.3,8.3,0,0,1-2.52-6V952.26a8.6,8.6,0,0,1,8.59-8.59h27.69a8.55,8.55,0,0,1,8.6,8.59Zm-36.08.32v52.58H660.2V952.58Z"/></g></svg>