<svg xmlns="http://www.w3.org/2000/svg" viewBox="0 0 750 1050"><defs><style>.cls-1{fill:#fff5e6;}.cls-2{fill:#ffc766;}.cls-3{fill:#ff9f33;}.cls-4{fill:#f70;}</style></defs><g id="Layer_8" data-name="Layer 8"><rect class="cls-1" width="750" height="1050" rx="63.89"/></g><g id="Layer_3" data-name="Layer 3"><path d="M53,35.93H57.5a4.26,4.26,0,0,1,3.15,1.33A4.31,4.31,0,0,1,62,40.39a4.46,4.46,0,0,1-4.45,4.46V74.29H88.9A4.26,4.26,0,0,1,92,75.64a4.45,4.45,0,0,1,1.32,3.21v23A4.23,4.23,0,0,1,92,105a4.49,4.49,0,0,1-3.21,1.29H53A4.43,4.43,0,0,1,49.83,105a4.26,4.26,0,0,1-1.35-3.13V40.39a4.27,4.27,0,0,1,1.32-3.16A4.5,4.5,0,0,1,53,35.93Zm4.35,47.38V97.42h27V83.31Z"/><path d="M697,1014.07h-4.45a4.46,4.46,0,1,1,0-8.92V975.71H661.1a4.24,4.24,0,0,1-3.13-1.35,4.46,4.46,0,0,1-1.33-3.21v-23A4.2,4.2,0,0,1,658,945a4.49,4.49,0,0,1,3.21-1.29H697a4.43,4.43,0,0,1,3.21,1.32,4.27,4.27,0,0,1,1.36,3.13v61.49a4.28,4.28,0,0,1-1.33,3.16A4.47,4.47,0,0,1,697,1014.07Zm-4.35-47.38V952.58h-27v14.11Z"/><polygon class="cls-2" points="207.12 173.59 207.12 252.56 128.15 252.56 207.12 173.59"/><polygon class="cls-3" points="286.08 252.56 207.12 252.56 207.12 173.59 286.08 252.56"/><polygon class="cls-4" points="286.08 252.56 207.12 331.52 207.12 252.56 286.08 252.56"/><polygon class="cls-3" points="207.12 252.56 207.12 331.52 128.15 252.56 207.12 252.56"/><polygon class="cls-2" points="207.12 718.48 207.12 797.44 128.15 797.44 207.12 718.48"/><polygon class="cls-3" points="286.08 797.44 207.12 797.44 207.12 718.48 286.08 797.44"/><polygon class="cls-4" points="286.08 797.44 207.12 876.41 207.12 797.44 286.08 797.44"/><polygon class="cls-3" points="207.12 797.44 207.12 876.41 128.15 797.44 207.12 797.44"/><polygon class="cls-2" points="207.12 446.04 207.12 525 128.15 525 207.12 446.04"/><polygon class="cls-3" points="286.08 525 207.12 525 207.12 446.04 286.08 525"/><polygon class="cls-4" points="286.08 525 207.12 603.96 207.12 525 286.08 525"/><polygon class="cls-3" points="207.12 525 207.12 603.96 128.15 525 207.12 525"/><polygon class="cls-2" points="542.88 173.59 542.88 252.56 463.92 252.56 542.88 173.59"/><polygon class="cls-3" points="621.85 252.56 542.88 252.56 542.88 173.59 621.85 252.56"/><polygon class="cls-4" points="621.85 252.56 542.88 331.52 542.88 252.56 621.85 252.56"/><polygon class="cls-3" points="542.88 252.56 542.88 331.52 463.92 252.56 542.88 252.56"/><polygon class="cls-2" points="542.88 718.48 542.88 797.44 463.92 797.44 542.88 718.48"/><polygon class="cls-3" points="621.85 797.44 542.88 797.44 542.88 718.48 621.85 797.44"/><polygon class="cls-4" points="621.85 797.44 542.88 876.41 542.88 797.44 621.85 797.44"/><polygon class="cls-3" points="542.88 797.44 542.88 876.41 463.92 797.44 542.88 797.44"/><polygon class="cls-2" points="542.88 446.04 542.88 525 463.92 525 542.88 446.04"/><polygon class="cls-3" points="621.85 525 542.88 525 542.88 446.04 621.85 525"/><polygon class="cls-4" points="621.85 525 542.88 603.96 542.88 525 621.85 525"/><polygon class="cls-3" points="542.88 525 542.88 603.96 463.92 525 542.88 525"/><polygon class="cls-2" points="70.31 114.79 70.31 151.85 33.26 151.85 70.31 114.79"/><polygon class="cls-3" points="107.36 151.85 70.31 151.85 70.31 114.79 107.36 151.85"/><polygon class="cls-4" points="107.36 151.85 70.31 188.9 70.31 151.85 107.36 151.85"/><polygon class="cls-3" points="70.31 151.85 70.31 188.9 33.26 151.85 70.31 151.85"/><polygon class="cls-2" points="679.69 861.1 679.69 898.15 642.64 898.15 679.69 861.1"/><polygon class="cls-3" points="716.74 898.15 679.69 898.15 679.69 861.1 716.74 898.15"/><polygon class="cls-4" points="716.74 898.15 679.69 935.21 679.69 898.15 716.74 898.15"/><polygon class="cls-3" points="679.69 898.15 679.69 935.21 642.64 898.15 679.69 898.15"/></g></svg>