<svg xmlns="http://www.w3.org/2000/svg" viewBox="0 0 750 1050"><defs><style>.cls-1{fill:#fff5e6;}.cls-2{fill:#ffc766;}.cls-3{fill:#ff9f33;}.cls-4{fill:#f70;}</style></defs><g id="Layer_8" data-name="Layer 8"><rect class="cls-1" width="750" height="1050" rx="63.89"/></g><g id="Layer_3" data-name="Layer 3"><path d="M48.27,44.31V40.49A4.44,4.44,0,0,1,52.72,36H93.15V63.41A4.57,4.57,0,0,1,91.5,67L75.11,81v20.74a4.46,4.46,0,0,1-1.3,3.21,4.23,4.23,0,0,1-3.16,1.35A4.47,4.47,0,0,1,67.44,105a4.26,4.26,0,0,1-1.35-3.13V79.37a4.94,4.94,0,0,1,1.58-3.92L84.13,61.53V45H57.18c-.64,2.55-2.12,3.82-4.46,3.82a4.44,4.44,0,0,1-4.45-4.46Z"/><path d="M701.74,1005.69v3.81a4.44,4.44,0,0,1-4.46,4.46H656.86V986.59A4.55,4.55,0,0,1,658.5,983l16.39-14V948.23a4.5,4.5,0,0,1,1.3-3.21,4.23,4.23,0,0,1,3.16-1.35,4.43,4.43,0,0,1,3.21,1.32,4.26,4.26,0,0,1,1.35,3.13v22.5a5,5,0,0,1-1.58,3.93l-16.46,13.92v16.58h27c.63-2.55,2.12-3.82,4.45-3.82a4.44,4.44,0,0,1,4.46,4.46Z"/><polygon class="cls-2" points="207.12 173.59 207.12 252.56 128.15 252.56 207.12 173.59"/><polygon class="cls-3" points="286.08 252.56 207.12 252.56 207.12 173.59 286.08 252.56"/><polygon class="cls-4" points="286.08 252.56 207.12 331.52 207.12 252.56 286.08 252.56"/><polygon class="cls-3" points="207.12 252.56 207.12 331.52 128.15 252.56 207.12 252.56"/><polygon class="cls-2" points="207.12 718.48 207.12 797.44 128.15 797.44 207.12 718.48"/><polygon class="cls-3" points="286.08 797.44 207.12 797.44 207.12 718.48 286.08 797.44"/><polygon class="cls-4" points="286.08 797.44 207.12 876.4 207.12 797.44 286.08 797.44"/><polygon class="cls-3" points="207.12 797.44 207.12 876.4 128.15 797.44 207.12 797.44"/><polygon class="cls-2" points="207.12 446.04 207.12 525 128.15 525 207.12 446.04"/><polygon class="cls-3" points="286.08 525 207.12 525 207.12 446.04 286.08 525"/><polygon class="cls-4" points="286.08 525 207.12 603.96 207.12 525 286.08 525"/><polygon class="cls-3" points="207.12 525 207.12 603.96 128.15 525 207.12 525"/><polygon class="cls-2" points="542.88 173.59 542.88 252.56 463.92 252.56 542.88 173.59"/><polygon class="cls-3" points="621.85 252.56 542.88 252.56 542.88 173.59 621.85 252.56"/><polygon class="cls-4" points="621.85 252.56 542.88 331.52 542.88 252.56 621.85 252.56"/><polygon class="cls-3" points="542.88 252.56 542.88 331.52 463.92 252.56 542.88 252.56"/><polygon class="cls-2" points="542.88 718.48 542.88 797.44 463.92 797.44 542.88 718.48"/><polygon class="cls-3" points="621.85 797.44 542.88 797.44 542.88 718.48 621.85 797.44"/><polygon class="cls-4" points="621.85 797.44 542.88 876.4 542.88 797.44 621.85 797.44"/><polygon class="cls-3" points="542.88 797.44 542.88 876.4 463.92 797.44 542.88 797.44"/><polygon class="cls-2" points="542.88 446.04 542.88 525 463.92 525 542.88 446.04"/><polygon class="cls-3" points="621.85 525 542.88 525 542.88 446.04 621.85 525"/><polygon class="cls-4" points="621.85 525 542.88 603.96 542.88 525 621.85 525"/><polygon class="cls-3" points="542.88 525 542.88 603.96 463.92 525 542.88 525"/><polygon class="cls-2" points="375 309.81 375 388.78 296.04 388.78 375 309.81"/><polygon class="cls-3" points="453.96 388.78 375 388.78 375 309.81 453.96 388.78"/><polygon class="cls-4" points="453.96 388.78 375 467.74 375 388.78 453.96 388.78"/><polygon class="cls-3" points="375 388.78 375 467.74 296.04 388.78 375 388.78"/><polygon class="cls-2" points="70.31 114.79 70.31 151.84 33.26 151.84 70.31 114.79"/><polygon class="cls-3" points="107.36 151.84 70.31 151.84 70.31 114.79 107.36 151.84"/><polygon class="cls-4" points="107.36 151.84 70.31 188.9 70.31 151.84 107.36 151.84"/><polygon class="cls-3" points="70.31 151.84 70.31 188.9 33.26 151.84 70.31 151.84"/><polygon class="cls-2" points="679.69 861.1 679.69 898.15 642.64 898.15 679.69 861.1"/><polygon class="cls-3" points="716.74 898.15 679.69 898.15 679.69 861.1 716.74 898.15"/><polygon class="cls-4" points="716.74 898.15 679.69 935.21 679.69 898.15 716.74 898.15"/><polygon class="cls-3" points="679.69 898.15 679.69 935.21 642.64 898.15 679.69 898.15"/></g></svg>