<svg xmlns="http://www.w3.org/2000/svg" viewBox="0 0 750 1050"><defs><style>.cls-1{fill:#fff5e6;}.cls-2{fill:#ffc766;}.cls-3{fill:#ff9f33;}.cls-4{fill:#f70;}</style></defs><g id="Layer_8" data-name="Layer 8"><rect class="cls-1" width="750" height="1050" rx="63.89"/></g><g id="Layer_3" data-name="Layer 3"><path d="M93.36,44.85V61.56A12.74,12.74,0,0,1,89.75,71a13.25,13.25,0,0,1,3.72,9v17.4a8.54,8.54,0,0,1-2.66,6.29,8.72,8.72,0,0,1-6.36,2.62H52.93a4.46,4.46,0,1,1,0-8.91H84.34V80A4.46,4.46,0,0,0,83,76.81a4.23,4.23,0,0,0-3.16-1.35H62a4.32,4.32,0,0,1-3.15-1.28A4.47,4.47,0,0,1,62,66.54H80a4.34,4.34,0,0,0,3.13-1.29,4.25,4.25,0,0,0,1.33-3.16V44.85H52.62a4.46,4.46,0,1,1,0-8.92H84.45a8.93,8.93,0,0,1,8.91,8.92Z"/><path d="M656.64,1005.15V988.44a12.78,12.78,0,0,1,3.61-9.44,13.28,13.28,0,0,1-3.71-9v-17.4a8.53,8.53,0,0,1,2.65-6.29,8.73,8.73,0,0,1,6.37-2.62h31.51a4.46,4.46,0,1,1,0,8.91H665.66V970a4.5,4.5,0,0,0,1.3,3.21,4.23,4.23,0,0,0,3.16,1.35h17.93a4.35,4.35,0,0,1,3.16,1.28,4.47,4.47,0,0,1-3.16,7.64H670a4.32,4.32,0,0,0-3.13,1.3,4.24,4.24,0,0,0-1.32,3.15v17.24h31.83a4.46,4.46,0,1,1,0,8.92H665.56a8.93,8.93,0,0,1-8.92-8.92Z"/><polygon class="cls-2" points="375 718.48 375 797.44 296.04 797.44 375 718.48"/><polygon class="cls-3" points="453.96 797.44 375 797.44 375 718.48 453.96 797.44"/><polygon class="cls-4" points="453.96 797.44 375 876.41 375 797.44 453.96 797.44"/><polygon class="cls-3" points="375 797.44 375 876.41 296.04 797.44 375 797.44"/><polygon class="cls-2" points="375 173.59 375 252.56 296.04 252.56 375 173.59"/><polygon class="cls-3" points="453.96 252.56 375 252.56 375 173.59 453.96 252.56"/><polygon class="cls-4" points="453.96 252.56 375 331.52 375 252.56 453.96 252.56"/><polygon class="cls-3" points="375 252.56 375 331.52 296.04 252.56 375 252.56"/><polygon class="cls-2" points="375 446.04 375 525 296.04 525 375 446.04"/><polygon class="cls-3" points="453.96 525 375 525 375 446.04 453.96 525"/><polygon class="cls-4" points="453.96 525 375 603.96 375 525 453.96 525"/><polygon class="cls-3" points="375 525 375 603.96 296.04 525 375 525"/><polygon class="cls-2" points="70.31 114.79 70.31 151.85 33.26 151.85 70.31 114.79"/><polygon class="cls-3" points="107.36 151.85 70.31 151.85 70.31 114.79 107.36 151.85"/><polygon class="cls-4" points="107.36 151.85 70.31 188.9 70.31 151.85 107.36 151.85"/><polygon class="cls-3" points="70.31 151.85 70.31 188.9 33.26 151.85 70.31 151.85"/><polygon class="cls-2" points="679.69 861.1 679.69 898.15 642.64 898.15 679.69 861.1"/><polygon class="cls-3" points="716.74 898.15 679.69 898.15 679.69 861.1 716.74 898.15"/><polygon class="cls-4" points="716.74 898.15 679.69 935.21 679.69 898.15 716.74 898.15"/><polygon class="cls-3" points="679.69 898.15 679.69 935.21 642.64 898.15 679.69 898.15"/></g></svg>