<svg xmlns="http://www.w3.org/2000/svg" viewBox="0 0 750 1050"><defs><style>.cls-1{fill:#fff5e6;}.cls-2{fill:#ffc766;}.cls-3{fill:#ff9f33;}.cls-4{fill:#f70;}</style></defs><g id="Layer_8" data-name="Layer 8"><rect class="cls-1" width="750" height="1050" rx="63.89"/></g><g id="Layer_3" data-name="Layer 3"><path d="M88.9,106.33H48.37V75.56A8.73,8.73,0,0,1,51,69.2a8.53,8.53,0,0,1,6.29-2.66H84.34V44.85H52.51a4.27,4.27,0,0,1-3.18-1.31,4.46,4.46,0,0,1,3.18-7.61H84.34a8.74,8.74,0,0,1,6.37,2.63,8.52,8.52,0,0,1,2.65,6.29V66.54a9,9,0,0,1-9,9H57.29V97.42H88.9A4.37,4.37,0,0,1,92,98.72,4.44,4.44,0,0,1,92,105,4.36,4.36,0,0,1,88.9,106.33Z"/><path d="M661.1,943.67h40.53v30.77A8.72,8.72,0,0,1,699,980.8a8.56,8.56,0,0,1-6.29,2.66H665.66v21.69h31.83a4.41,4.41,0,0,1,4.46,4.46,4.39,4.39,0,0,1-4.46,4.46H665.66a8.75,8.75,0,0,1-6.37-2.63,8.56,8.56,0,0,1-2.65-6.29V983.46a9,9,0,0,1,9-9h27.06V952.58H661.1a4.35,4.35,0,0,1-3.13-1.3,4.42,4.42,0,0,1,0-6.32A4.34,4.34,0,0,1,661.1,943.67Z"/><polygon class="cls-2" points="375 718.48 375 797.44 296.04 797.44 375 718.48"/><polygon class="cls-3" points="453.96 797.44 375 797.44 375 718.48 453.96 797.44"/><polygon class="cls-4" points="453.96 797.44 375 876.41 375 797.44 453.96 797.44"/><polygon class="cls-3" points="375 797.44 375 876.41 296.04 797.44 375 797.44"/><polygon class="cls-2" points="375 173.59 375 252.56 296.04 252.56 375 173.59"/><polygon class="cls-3" points="453.96 252.56 375 252.56 375 173.59 453.96 252.56"/><polygon class="cls-4" points="453.96 252.56 375 331.52 375 252.56 453.96 252.56"/><polygon class="cls-3" points="375 252.56 375 331.52 296.04 252.56 375 252.56"/><polygon class="cls-2" points="70.31 114.79 70.31 151.85 33.26 151.85 70.31 114.79"/><polygon class="cls-3" points="107.36 151.85 70.31 151.85 70.31 114.79 107.36 151.85"/><polygon class="cls-4" points="107.36 151.85 70.31 188.9 70.31 151.85 107.36 151.85"/><polygon class="cls-3" points="70.31 151.85 70.31 188.9 33.26 151.85 70.31 151.85"/><polygon class="cls-2" points="679.69 861.1 679.69 898.15 642.64 898.15 679.69 861.1"/><polygon class="cls-3" points="716.74 898.15 679.69 898.15 679.69 861.1 716.74 898.15"/><polygon class="cls-4" points="716.74 898.15 679.69 935.21 679.69 898.15 716.74 898.15"/><polygon class="cls-3" points="679.69 898.15 679.69 935.21 642.64 898.15 679.69 898.15"/></g></svg>