<svg xmlns="http://www.w3.org/2000/svg" viewBox="0 0 750 1050"><defs><style>.cls-1{fill:#fff5e6;}.cls-2{fill:#ffc766;}.cls-3{fill:#ff9f33;}.cls-4{fill:#f70;}</style></defs><g id="Layer_8" data-name="Layer 8"><rect class="cls-1" width="750" height="1050" rx="63.89"/></g><g id="Layer_3" data-name="Layer 3"><path d="M88.9,106.23H84.45a4.35,4.35,0,0,1-3.13-1.3,4.44,4.44,0,0,1,0-6.31,4.29,4.29,0,0,1,3.16-1.3V67.87H53a4.54,4.54,0,0,1-4.46-4.46V40.28A4.53,4.53,0,0,1,53,35.83H88.9a4.51,4.51,0,0,1,4.46,4.45v61.49a4.44,4.44,0,0,1-4.46,4.46ZM84.55,58.85v-14h-27v14Z"/><path d="M661.1,943.77h4.46a4.36,4.36,0,0,1,3.13,1.3,4.45,4.45,0,0,1-3.13,7.61v29.45H697a4.54,4.54,0,0,1,4.46,4.46v23.13a4.53,4.53,0,0,1-4.46,4.45H661.1a4.53,4.53,0,0,1-4.46-4.45V948.23a4.44,4.44,0,0,1,4.46-4.46Zm4.35,47.38v14h27.06v-14Z"/><polygon class="cls-2" points="207.12 173.59 207.12 252.56 128.15 252.56 207.12 173.59"/><polygon class="cls-3" points="286.08 252.56 207.12 252.56 207.12 173.59 286.08 252.56"/><polygon class="cls-4" points="286.08 252.56 207.12 331.52 207.12 252.56 286.08 252.56"/><polygon class="cls-3" points="207.12 252.56 207.12 331.52 128.15 252.56 207.12 252.56"/><polygon class="cls-2" points="207.12 718.48 207.12 797.44 128.15 797.44 207.12 718.48"/><polygon class="cls-3" points="286.08 797.44 207.12 797.44 207.12 718.48 286.08 797.44"/><polygon class="cls-4" points="286.08 797.44 207.12 876.41 207.12 797.44 286.08 797.44"/><polygon class="cls-3" points="207.12 797.44 207.12 876.41 128.15 797.44 207.12 797.44"/><polygon class="cls-2" points="207.12 536.85 207.12 615.81 128.15 615.81 207.12 536.85"/><polygon class="cls-3" points="286.08 615.81 207.12 615.81 207.12 536.85 286.08 615.81"/><polygon class="cls-4" points="286.08 615.81 207.12 694.78 207.12 615.81 286.08 615.81"/><polygon class="cls-3" points="207.12 615.81 207.12 694.78 128.15 615.81 207.12 615.81"/><polygon class="cls-2" points="207.12 355.22 207.12 434.19 128.15 434.19 207.12 355.22"/><polygon class="cls-3" points="286.08 434.19 207.12 434.19 207.12 355.22 286.08 434.19"/><polygon class="cls-4" points="286.08 434.19 207.12 513.15 207.12 434.19 286.08 434.19"/><polygon class="cls-3" points="207.12 434.19 207.12 513.15 128.15 434.19 207.12 434.19"/><polygon class="cls-2" points="542.88 173.59 542.88 252.56 463.92 252.56 542.88 173.59"/><polygon class="cls-3" points="621.85 252.56 542.88 252.56 542.88 173.59 621.85 252.56"/><polygon class="cls-4" points="621.85 252.56 542.88 331.52 542.88 252.56 621.85 252.56"/><polygon class="cls-3" points="542.88 252.56 542.88 331.52 463.92 252.56 542.88 252.56"/><polygon class="cls-2" points="542.88 718.48 542.88 797.44 463.92 797.44 542.88 718.48"/><polygon class="cls-3" points="621.85 797.44 542.88 797.44 542.88 718.48 621.85 797.44"/><polygon class="cls-4" points="621.85 797.44 542.88 876.41 542.88 797.44 621.85 797.44"/><polygon class="cls-3" points="542.88 797.44 542.88 876.41 463.92 797.44 542.88 797.44"/><polygon class="cls-2" points="542.88 536.85 542.88 615.81 463.92 615.81 542.88 536.85"/><polygon class="cls-3" points="621.85 615.81 542.88 615.81 542.88 536.85 621.85 615.81"/><polygon class="cls-4" points="621.85 615.81 542.88 694.78 542.88 615.81 621.85 615.81"/><polygon class="cls-3" points="542.88 615.81 542.88 694.78 463.92 615.81 542.88 615.81"/><polygon class="cls-2" points="542.88 355.22 542.88 434.19 463.92 434.19 542.88 355.22"/><polygon class="cls-3" points="621.85 434.19 542.88 434.19 542.88 355.22 621.85 434.19"/><polygon class="cls-4" points="621.85 434.19 542.88 513.15 542.88 434.19 621.85 434.19"/><polygon class="cls-3" points="542.88 434.19 542.88 513.15 463.92 434.19 542.88 434.19"/><polygon class="cls-2" points="375 446.04 375 525 296.04 525 375 446.04"/><polygon class="cls-3" points="453.96 525 375 525 375 446.04 453.96 525"/><polygon class="cls-4" points="453.96 525 375 603.96 375 525 453.96 525"/><polygon class="cls-3" points="375 525 375 603.96 296.04 525 375 525"/><polygon class="cls-2" points="70.31 114.79 70.31 151.85 33.26 151.85 70.31 114.79"/><polygon class="cls-3" points="107.36 151.85 70.31 151.85 70.31 114.79 107.36 151.85"/><polygon class="cls-4" points="107.36 151.85 70.31 188.9 70.31 151.85 107.36 151.85"/><polygon class="cls-3" points="70.31 151.85 70.31 188.9 33.26 151.85 70.31 151.85"/><polygon class="cls-2" points="679.69 861.1 679.69 898.15 642.64 898.15 679.69 861.1"/><polygon class="cls-3" points="716.74 898.15 679.69 898.15 679.69 861.1 716.74 898.15"/><polygon class="cls-4" points="716.74 898.15 679.69 935.21 679.69 898.15 716.74 898.15"/><polygon class="cls-3" points="679.69 898.15 679.69 935.21 642.64 898.15 679.69 898.15"/></g></svg>