<svg xmlns="http://www.w3.org/2000/svg" viewBox="0 0 750 1050"><defs><style>.cls-1{fill:#fff5e6;}.cls-2{fill:#ffc766;}.cls-3{fill:#ff9f33;}.cls-4{fill:#f70;}</style></defs><g id="Layer_8" data-name="Layer 8"><rect class="cls-1" width="750" height="1050" rx="63.89"/></g><g id="Layer_3" data-name="Layer 3"><path d="M48.16,97.32V75.56a8.51,8.51,0,0,1,2.65-6.28,8.74,8.74,0,0,1,6.37-2.63V40.39a4.35,4.35,0,0,1,1.27-3.16,4.3,4.3,0,0,1,3.18-1.3H79.78a4.44,4.44,0,0,1,4.46,4.46V66.65a8.72,8.72,0,0,1,6.26,2.57,8.52,8.52,0,0,1,2.65,6.34V97.42a9,9,0,0,1-8.91,8.91H57.18a8.48,8.48,0,0,1-6.39-2.75A8.86,8.86,0,0,1,48.16,97.32Zm9-21.76V97.42H84.24V75.56Zm8.91-30.71v21.8h9.23V44.85Z"/><path d="M701.84,952.68v21.76a8.51,8.51,0,0,1-2.65,6.28,8.73,8.73,0,0,1-6.36,2.63v26.26a4.35,4.35,0,0,1-1.28,3.16,4.3,4.3,0,0,1-3.18,1.3H670.22a4.44,4.44,0,0,1-4.45-4.46V983.35a8.71,8.71,0,0,1-6.26-2.57,8.49,8.49,0,0,1-2.65-6.34V952.58a9,9,0,0,1,8.91-8.91h27.06a8.48,8.48,0,0,1,6.39,2.75A8.84,8.84,0,0,1,701.84,952.68Zm-9,21.76V952.58H665.77v21.86Zm-8.92,30.71v-21.8h-9.23v21.8Z"/><polygon class="cls-2" points="207.12 173.59 207.12 252.56 128.15 252.56 207.12 173.59"/><polygon class="cls-3" points="286.08 252.56 207.12 252.56 207.12 173.59 286.08 252.56"/><polygon class="cls-4" points="286.08 252.56 207.12 331.52 207.12 252.56 286.08 252.56"/><polygon class="cls-3" points="207.12 252.56 207.12 331.52 128.15 252.56 207.12 252.56"/><polygon class="cls-2" points="207.12 718.48 207.12 797.44 128.15 797.44 207.12 718.48"/><polygon class="cls-3" points="286.08 797.44 207.12 797.44 207.12 718.48 286.08 797.44"/><polygon class="cls-4" points="286.08 797.44 207.12 876.41 207.12 797.44 286.08 797.44"/><polygon class="cls-3" points="207.12 797.44 207.12 876.41 128.15 797.44 207.12 797.44"/><polygon class="cls-2" points="207.12 536.85 207.12 615.81 128.15 615.81 207.12 536.85"/><polygon class="cls-3" points="286.08 615.81 207.12 615.81 207.12 536.85 286.08 615.81"/><polygon class="cls-4" points="286.08 615.81 207.12 694.78 207.12 615.81 286.08 615.81"/><polygon class="cls-3" points="207.12 615.81 207.12 694.78 128.15 615.81 207.12 615.81"/><polygon class="cls-2" points="207.12 355.22 207.12 434.19 128.15 434.19 207.12 355.22"/><polygon class="cls-3" points="286.08 434.19 207.12 434.19 207.12 355.22 286.08 434.19"/><polygon class="cls-4" points="286.08 434.19 207.12 513.15 207.12 434.19 286.08 434.19"/><polygon class="cls-3" points="207.12 434.19 207.12 513.15 128.15 434.19 207.12 434.19"/><polygon class="cls-2" points="542.88 173.59 542.88 252.56 463.92 252.56 542.88 173.59"/><polygon class="cls-3" points="621.85 252.56 542.88 252.56 542.88 173.59 621.85 252.56"/><polygon class="cls-4" points="621.85 252.56 542.88 331.52 542.88 252.56 621.85 252.56"/><polygon class="cls-3" points="542.88 252.56 542.88 331.52 463.92 252.56 542.88 252.56"/><polygon class="cls-2" points="542.88 718.48 542.88 797.44 463.92 797.44 542.88 718.48"/><polygon class="cls-3" points="621.85 797.44 542.88 797.44 542.88 718.48 621.85 797.44"/><polygon class="cls-4" points="621.85 797.44 542.88 876.41 542.88 797.44 621.85 797.44"/><polygon class="cls-3" points="542.88 797.44 542.88 876.41 463.92 797.44 542.88 797.44"/><polygon class="cls-2" points="542.88 536.85 542.88 615.81 463.92 615.81 542.88 536.85"/><polygon class="cls-3" points="621.85 615.81 542.88 615.81 542.88 536.85 621.85 615.81"/><polygon class="cls-4" points="621.85 615.81 542.88 694.78 542.88 615.81 621.85 615.81"/><polygon class="cls-3" points="542.88 615.81 542.88 694.78 463.92 615.81 542.88 615.81"/><polygon class="cls-2" points="542.88 355.22 542.88 434.19 463.92 434.19 542.88 355.22"/><polygon class="cls-3" points="621.85 434.19 542.88 434.19 542.88 355.22 621.85 434.19"/><polygon class="cls-4" points="621.85 434.19 542.88 513.15 542.88 434.19 621.85 434.19"/><polygon class="cls-3" points="542.88 434.19 542.88 513.15 463.92 434.19 542.88 434.19"/><polygon class="cls-2" points="70.31 114.79 70.31 151.85 33.26 151.85 70.31 114.79"/><polygon class="cls-3" points="107.36 151.85 70.31 151.85 70.31 114.79 107.36 151.85"/><polygon class="cls-4" points="107.36 151.85 70.31 188.9 70.31 151.85 107.36 151.85"/><polygon class="cls-3" points="70.31 151.85 70.31 188.9 33.26 151.85 70.31 151.85"/><polygon class="cls-2" points="679.69 861.1 679.69 898.15 642.64 898.15 679.69 861.1"/><polygon class="cls-3" points="716.74 898.15 679.69 898.15 679.69 861.1 716.74 898.15"/><polygon class="cls-4" points="716.74 898.15 679.69 935.21 679.69 898.15 716.74 898.15"/><polygon class="cls-3" points="679.69 898.15 679.69 935.21 642.64 898.15 679.69 898.15"/></g></svg>