<svg xmlns="http://www.w3.org/2000/svg" viewBox="0 0 750 1050"><defs><style>.cls-1{fill:#fff5e6;}.cls-2{fill:#ffc766;}.cls-3{fill:#ff9f33;}.cls-4{fill:#f70;}.cls-5{fill:#ff8b1a;}</style></defs><g id="Layer_8" data-name="Layer 8"><rect class="cls-1" width="750" height="1050" rx="63.89"/></g><g id="Layer_3" data-name="Layer 3"><polygon class="cls-2" points="70.31 114.79 70.31 151.84 33.26 151.84 70.31 114.79"/><polygon class="cls-3" points="107.36 151.84 70.31 151.84 70.31 114.79 107.36 151.84"/><polygon class="cls-4" points="107.36 151.84 70.31 188.9 70.31 151.84 107.36 151.84"/><polygon class="cls-3" points="70.31 151.84 70.31 188.9 33.26 151.84 70.31 151.84"/><polygon class="cls-2" points="679.69 861.1 679.69 898.15 642.64 898.15 679.69 861.1"/><polygon class="cls-3" points="716.74 898.15 679.69 898.15 679.69 861.1 716.74 898.15"/><polygon class="cls-4" points="716.74 898.15 679.69 935.21 679.69 898.15 716.74 898.15"/><polygon class="cls-3" points="679.69 898.15 679.69 935.21 642.64 898.15 679.69 898.15"/><path d="M48.37,102V40.49a4.42,4.42,0,0,1,1.3-3.23,4.25,4.25,0,0,1,3.16-1.33,4.44,4.44,0,0,1,4.45,4.46V61.47L85.82,37.1a5,5,0,0,1,3.35-1.17,4.12,4.12,0,0,1,3.13,1.36,4.47,4.47,0,0,1,1.27,3.14,4,4,0,0,1-1.46,3.06L59.78,71l32.37,28a3.51,3.51,0,0,1,1.31,2.87,4.61,4.61,0,0,1-1.3,3.19,4.13,4.13,0,0,1-3.2,1.44,4.86,4.86,0,0,1-3.24-1.22L57.28,80.73V102a4.46,4.46,0,0,1-8.91,0Z"/><path d="M701.63,948v61.49a4.42,4.42,0,0,1-1.3,3.23,4.44,4.44,0,0,1-6.31,0,4.29,4.29,0,0,1-1.3-3.16V988.53l-28.55,24.37a4.93,4.93,0,0,1-3.34,1.17,4.11,4.11,0,0,1-3.13-1.36,4.47,4.47,0,0,1-1.27-3.14,3.91,3.91,0,0,1,1.46-3.05L690.22,979l-32.37-28a3.55,3.55,0,0,1-1.32-2.87,4.68,4.68,0,0,1,1.3-3.19,4.16,4.16,0,0,1,3.21-1.44,4.86,4.86,0,0,1,3.24,1.22l28.44,24.49V948a4.46,4.46,0,0,1,8.91,0Z"/><polygon class="cls-3" points="572.4 409.46 252.57 596.66 200.49 518.32 303.9 325.31 366.97 303.19 517.58 302.8 572.4 409.46"/><polygon class="cls-2" points="449.5 169.49 449.5 303.5 391.82 332.02 366.43 303.5 354.12 259.49 300.28 275.63 291.06 224.87 275.68 224.87 301.05 153.34 449.5 169.49"/><polygon class="cls-4" points="449.5 169.49 481.54 98.82 471.95 67.68 443.04 106.44 449.5 42.22 429.7 55.41 410.74 96.74 403.78 51.7 394.44 36.74 376.81 98.07 374 38.44 353.11 60 345.89 100.33 334.22 66 313.11 55.11 315.56 109.11 283.17 64.47 276.63 82.55 301.05 153.34 449.5 169.49"/><polyline class="cls-4" points="337.59 230.26 291.06 224.87 291.56 246.37 316.67 241.48 337.59 230.26"/><polygon class="cls-4" points="366.43 303.5 326.44 431.41 389.27 497.48 460.87 412.84 435.04 304.57 391.82 332.02 366.43 303.5"/><polyline class="cls-5" points="449.5 169.49 485.5 207.43 492.67 246.37 522 277.33 517.58 302.8 474.4 334.79 430.44 320.89 433.56 271.46 396.22 246.37 399.33 200 391.82 163.22"/><polygon class="cls-4" points="296.38 254.13 324.22 256.22 337.59 230.26 354.12 259.49 291.56 312.67 296.38 254.13"/><polygon class="cls-2" points="125.56 498.74 138.59 398 197.91 398 195.48 442.84 170.15 472.67 125.56 498.74"/><polygon class="cls-4" points="252.57 596.66 170.15 472.67 125.56 498.74 155.48 609.18 177.6 640.54 252.57 596.66"/><polyline class="cls-4" points="159.33 398 156.07 392.89 128.81 395.9 119.33 381.9 223.36 379.8 205.56 397.07 181.56 392 177.41 398"/><polyline class="cls-3" points="151.04 381.26 143.56 243.68 168 182.33 191.06 262.78 186.27 380.55"/><polygon class="cls-3" points="177.6 640.54 497.43 453.34 549.51 531.68 446.1 724.68 383.03 746.82 232.42 747.2 177.6 640.54"/><polygon class="cls-2" points="300.5 880.51 300.5 746.5 358.18 717.98 383.57 746.5 395.88 790.51 449.72 774.37 458.94 825.13 474.32 825.13 448.95 896.66 300.5 880.51"/><polygon class="cls-4" points="300.5 880.51 268.46 951.18 278.05 982.32 306.96 943.56 300.5 1007.78 320.3 994.59 339.26 953.26 346.22 998.3 355.56 1013.26 373.19 951.93 376 1011.56 396.89 990 404.11 949.67 415.78 984 436.89 994.89 434.44 940.89 466.83 985.53 473.37 967.45 448.95 896.66 300.5 880.51"/><polyline class="cls-4" points="412.41 819.74 458.94 825.13 458.44 803.63 433.33 808.52 412.41 819.74"/><polygon class="cls-4" points="383.57 746.5 423.56 618.59 360.73 552.52 289.13 637.16 314.96 745.43 358.18 717.98 383.57 746.5"/><polyline class="cls-5" points="300.5 880.51 264.5 842.57 257.33 803.63 228 772.67 232.42 747.2 275.6 715.21 319.56 729.11 316.44 778.54 353.78 803.63 350.67 850 358.18 886.78"/><polygon class="cls-4" points="453.62 795.87 425.78 793.78 412.41 819.74 395.88 790.51 458.44 737.33 453.62 795.87"/><polygon class="cls-2" points="624.44 551.26 611.41 652 552.09 652 554.52 607.16 579.85 577.33 624.44 551.26"/><polygon class="cls-4" points="497.43 453.34 579.85 577.33 624.44 551.26 594.52 440.81 572.4 409.46 497.43 453.34"/><polyline class="cls-4" points="590.67 652 593.93 657.11 621.18 654.1 630.67 668.1 526.64 670.2 544.44 652.93 568.44 658 572.59 652"/><polyline class="cls-3" points="598.96 668.74 606.44 806.32 582 867.67 558.94 787.22 563.73 669.45"/></g></svg>